G04 EAGLE Gerber X2 export*
%TF.Part,Single*%
%TF.FileFunction,Copper,L1,Top,Mixed*%
%TF.FilePolarity,Positive*%
%TF.GenerationSoftware,Autodesk,EAGLE,8.6.0*%
%TF.CreationDate,2018-03-06T10:54:34Z*%
G75*
%MOMM*%
%FSLAX34Y34*%
%LPD*%
%AMOC8*
5,1,8,0,0,1.08239X$1,22.5*%
G01*
%ADD10P,2.336880X8X22.500000*%
%ADD11P,1.732040X8X22.500000*%
%ADD12R,1.508000X1.508000*%
%ADD13C,1.508000*%
%ADD14R,1.473200X0.508000*%
%ADD15R,0.508000X1.473200*%
%ADD16C,0.152400*%
%ADD17C,0.756400*%


D10*
X342900Y508000D03*
X215900Y469900D03*
X215900Y508000D03*
X279400Y469900D03*
D11*
X38100Y533400D03*
X38100Y495300D03*
X317500Y368300D03*
X127000Y330200D03*
X228600Y330200D03*
X317500Y330200D03*
X38100Y330200D03*
D10*
X279400Y508000D03*
D11*
X127000Y457200D03*
X127000Y533400D03*
X228600Y406400D03*
D10*
X342900Y469900D03*
D11*
X127000Y495300D03*
X165100Y533400D03*
X317500Y406400D03*
X228600Y368300D03*
D12*
X355600Y228600D03*
D13*
X355600Y203200D03*
X355600Y177800D03*
X355600Y152400D03*
X355600Y127000D03*
X355600Y101600D03*
D12*
X254000Y228600D03*
D13*
X254000Y203200D03*
X254000Y177800D03*
X254000Y152400D03*
X254000Y127000D03*
X254000Y101600D03*
D14*
X38100Y225044D03*
X38100Y217170D03*
X38100Y209042D03*
X38100Y201168D03*
X38100Y193040D03*
X38100Y185166D03*
X38100Y177038D03*
X38100Y169164D03*
X38100Y161036D03*
X38100Y153162D03*
X38100Y145034D03*
X38100Y137160D03*
X38100Y129032D03*
X38100Y121158D03*
X38100Y113030D03*
X38100Y105156D03*
D15*
X54356Y88900D03*
X62230Y88900D03*
X70358Y88900D03*
X78232Y88900D03*
X86360Y88900D03*
X94234Y88900D03*
X102362Y88900D03*
X110236Y88900D03*
X118364Y88900D03*
X126238Y88900D03*
X134366Y88900D03*
X142240Y88900D03*
X150368Y88900D03*
X158242Y88900D03*
X166370Y88900D03*
X174244Y88900D03*
D14*
X190500Y105156D03*
X190500Y113030D03*
X190500Y121158D03*
X190500Y129032D03*
X190500Y137160D03*
X190500Y145034D03*
X190500Y153162D03*
X190500Y161036D03*
X190500Y169164D03*
X190500Y177038D03*
X190500Y185166D03*
X190500Y193040D03*
X190500Y201168D03*
X190500Y209042D03*
X190500Y217170D03*
X190500Y225044D03*
D15*
X174244Y241300D03*
X166370Y241300D03*
X158242Y241300D03*
X150368Y241300D03*
X142240Y241300D03*
X134366Y241300D03*
X126238Y241300D03*
X118364Y241300D03*
X110236Y241300D03*
X102362Y241300D03*
X94234Y241300D03*
X86360Y241300D03*
X78232Y241300D03*
X70358Y241300D03*
X62230Y241300D03*
X54356Y241300D03*
D11*
X38100Y457200D03*
X76200Y533400D03*
X38100Y368300D03*
X127000Y368300D03*
X76200Y495300D03*
X38100Y406400D03*
X127000Y406400D03*
X165100Y495300D03*
D16*
X173736Y88392D02*
X173736Y82296D01*
X170688Y79248D01*
X50292Y79248D01*
X48768Y80772D01*
X48768Y300228D01*
X21336Y327660D01*
X21336Y425196D01*
X76200Y480060D01*
X76200Y495300D01*
X174244Y88900D02*
X173736Y88392D01*
X166116Y89916D02*
X166116Y115824D01*
X166116Y89916D02*
X166370Y88900D01*
D17*
X166116Y115824D03*
D16*
X156972Y129540D02*
X156972Y89916D01*
X158242Y88900D01*
D17*
X156972Y129540D03*
D16*
X149352Y155448D02*
X149352Y89916D01*
X149352Y155448D02*
X118872Y185928D01*
X118872Y228600D01*
X149352Y89916D02*
X150368Y88900D01*
D17*
X118872Y228600D03*
D16*
X179832Y105156D02*
X190500Y105156D01*
X179832Y105156D02*
X176784Y108204D01*
D17*
X176784Y108204D03*
D16*
X176784Y114300D02*
X190500Y114300D01*
X176784Y114300D02*
X167640Y123444D01*
X167640Y147828D01*
X190500Y114300D02*
X190500Y113030D01*
D17*
X167640Y147828D03*
D16*
X178308Y121920D02*
X190500Y121920D01*
X178308Y121920D02*
X173736Y126492D01*
X190500Y121920D02*
X190500Y121158D01*
D17*
X173736Y126492D03*
D16*
X190500Y129540D02*
X196596Y129540D01*
X243840Y176784D01*
X243840Y207264D01*
X254508Y217932D01*
X262128Y217932D01*
X338328Y294132D01*
X338328Y367284D01*
X249936Y455676D01*
X167640Y455676D01*
X128016Y495300D01*
X190500Y129540D02*
X190500Y129032D01*
X128016Y495300D02*
X127000Y495300D01*
X190500Y137160D02*
X196596Y137160D01*
X210312Y150876D01*
X210312Y181356D01*
X213360Y184404D01*
X213360Y196596D01*
X230124Y213360D01*
X230124Y263652D01*
X272796Y306324D01*
X332232Y306324D01*
X335280Y309372D01*
X335280Y365760D01*
X295656Y405384D01*
X228600Y405384D01*
X228600Y406400D01*
X198120Y146304D02*
X190500Y146304D01*
X198120Y146304D02*
X207264Y155448D01*
X207264Y182880D01*
X210312Y185928D01*
X210312Y198120D01*
X227076Y214884D01*
X227076Y265176D01*
X274320Y312420D01*
X329184Y312420D01*
X190500Y146304D02*
X190500Y145034D01*
D17*
X329184Y312420D03*
D16*
X190500Y153924D02*
X155448Y153924D01*
X137160Y172212D01*
X137160Y228600D01*
X190500Y153924D02*
X190500Y153162D01*
D17*
X137160Y228600D03*
D16*
X156972Y161544D02*
X190500Y161544D01*
X156972Y161544D02*
X149352Y169164D01*
X190500Y161544D02*
X190500Y161036D01*
D17*
X149352Y169164D03*
D16*
X158496Y169164D02*
X190500Y169164D01*
X158496Y169164D02*
X140208Y187452D01*
X140208Y193548D01*
X179832Y233172D01*
X179832Y252984D01*
X65532Y367284D01*
X38100Y367284D01*
X38100Y368300D01*
X190500Y178308D02*
X198120Y178308D01*
X207264Y187452D01*
X207264Y199644D01*
X224028Y216408D01*
X224028Y266700D01*
X272796Y315468D01*
X323088Y315468D01*
X332232Y324612D01*
X332232Y335280D01*
X288036Y379476D01*
X138684Y379476D01*
X128016Y368808D01*
X190500Y178308D02*
X190500Y177038D01*
X127000Y368300D02*
X128016Y368808D01*
X190500Y193548D02*
X196596Y193548D01*
X220980Y217932D01*
X220980Y268224D01*
X271272Y318516D01*
X321564Y318516D01*
X329184Y326136D01*
X329184Y333756D01*
X306324Y356616D01*
X123444Y356616D01*
X115824Y364236D01*
X115824Y394716D01*
X126492Y405384D01*
X190500Y193548D02*
X190500Y193040D01*
X126492Y405384D02*
X127000Y406400D01*
X190500Y201168D02*
X196596Y201168D01*
X217932Y222504D01*
X217932Y318516D01*
X228600Y329184D01*
X228600Y330200D01*
X198120Y210312D02*
X190500Y210312D01*
X198120Y210312D02*
X214884Y227076D01*
X214884Y332232D01*
X224028Y341376D01*
X306324Y341376D01*
X317500Y330200D01*
X190500Y210312D02*
X190500Y209042D01*
X190500Y217932D02*
X184404Y217932D01*
X179832Y222504D01*
X179832Y228600D01*
X182880Y231648D01*
X182880Y254508D01*
X57912Y379476D01*
X33528Y379476D01*
X27432Y373380D01*
X27432Y341376D01*
X38100Y330708D01*
X190500Y217932D02*
X190500Y217170D01*
X38100Y330200D02*
X38100Y330708D01*
X190500Y266700D02*
X190500Y225044D01*
X190500Y266700D02*
X127000Y330200D01*
X173736Y254508D02*
X173736Y242316D01*
X173736Y254508D02*
X109728Y318516D01*
X35052Y318516D01*
X24384Y329184D01*
X24384Y408432D01*
X149352Y533400D01*
X165100Y533400D01*
X173736Y242316D02*
X174244Y241300D01*
X38100Y152400D02*
X32004Y152400D01*
X27432Y147828D01*
X27432Y97536D01*
X48768Y76200D01*
X188976Y76200D01*
X254508Y141732D01*
X268224Y141732D01*
X355092Y228600D01*
X38100Y153162D02*
X38100Y152400D01*
X355092Y228600D02*
X355600Y228600D01*
X150876Y242316D02*
X150876Y259080D01*
X150876Y242316D02*
X150368Y241300D01*
D17*
X150876Y259080D03*
D16*
X54864Y240792D02*
X54864Y126492D01*
X85344Y96012D01*
X85344Y89916D01*
X54864Y240792D02*
X54356Y241300D01*
X85344Y89916D02*
X86360Y88900D01*
X254508Y178308D02*
X254508Y188976D01*
X342900Y277368D01*
X342900Y469900D01*
X254508Y178308D02*
X254000Y177800D01*
X143256Y242316D02*
X143256Y260604D01*
X147828Y265176D01*
X153924Y265176D01*
X164592Y254508D01*
X143256Y242316D02*
X142240Y241300D01*
X216408Y469392D02*
X278892Y469392D01*
X216408Y469392D02*
X215900Y469900D01*
X278892Y469392D02*
X279400Y469900D01*
X316992Y507492D02*
X342900Y507492D01*
X316992Y507492D02*
X279400Y469900D01*
X342900Y507492D02*
X342900Y508000D01*
D17*
X164592Y254508D03*
D16*
X150876Y185928D02*
X190500Y185928D01*
X150876Y185928D02*
X146304Y190500D01*
X190500Y185928D02*
X190500Y185166D01*
D17*
X146304Y190500D03*
M02*
