G04 EAGLE Gerber X2 export*
%TF.Part,Single*%
%TF.FileFunction,Copper,L2,Bot,Mixed*%
%TF.FilePolarity,Positive*%
%TF.GenerationSoftware,Autodesk,EAGLE,8.6.0*%
%TF.CreationDate,2018-03-06T10:54:34Z*%
G75*
%MOMM*%
%FSLAX34Y34*%
%LPD*%
%AMOC8*
5,1,8,0,0,1.08239X$1,22.5*%
G01*
%ADD10P,2.336880X8X22.500000*%
%ADD11P,1.732040X8X22.500000*%
%ADD12R,1.508000X1.508000*%
%ADD13C,1.508000*%
%ADD14C,0.152400*%
%ADD15C,0.756400*%


D10*
X342900Y508000D03*
X215900Y469900D03*
X215900Y508000D03*
X279400Y469900D03*
D11*
X38100Y533400D03*
X38100Y495300D03*
X317500Y368300D03*
X127000Y330200D03*
X228600Y330200D03*
X317500Y330200D03*
X38100Y330200D03*
D10*
X279400Y508000D03*
D11*
X127000Y457200D03*
X127000Y533400D03*
X228600Y406400D03*
D10*
X342900Y469900D03*
D11*
X127000Y495300D03*
X165100Y533400D03*
X317500Y406400D03*
X228600Y368300D03*
D12*
X355600Y228600D03*
D13*
X355600Y203200D03*
X355600Y177800D03*
X355600Y152400D03*
X355600Y127000D03*
X355600Y101600D03*
D12*
X254000Y228600D03*
D13*
X254000Y203200D03*
X254000Y177800D03*
X254000Y152400D03*
X254000Y127000D03*
X254000Y101600D03*
D11*
X38100Y457200D03*
X76200Y533400D03*
X38100Y368300D03*
X127000Y368300D03*
X76200Y495300D03*
X38100Y406400D03*
X127000Y406400D03*
X165100Y495300D03*
D14*
X166116Y129540D02*
X166116Y115824D01*
X166116Y129540D02*
X155448Y140208D01*
X155448Y228600D01*
X135636Y248412D01*
X135636Y318516D01*
X141732Y324612D01*
X141732Y464820D01*
X76200Y530352D01*
X76200Y533400D01*
D15*
X166116Y115824D03*
D14*
X156972Y129540D02*
X156972Y134112D01*
X24384Y266700D01*
X24384Y534924D01*
X33528Y544068D01*
X42672Y544068D01*
X48768Y537972D01*
X48768Y505968D01*
X38100Y495300D01*
D15*
X156972Y129540D03*
D14*
X118872Y228600D02*
X118872Y233172D01*
X27432Y324612D01*
X27432Y522732D01*
X38100Y533400D01*
D15*
X118872Y228600D03*
D14*
X176784Y120396D02*
X176784Y108204D01*
X176784Y120396D02*
X179832Y123444D01*
X179832Y129540D01*
X167640Y141732D01*
X164592Y141732D01*
X161544Y144780D01*
X161544Y231648D01*
X141732Y251460D01*
X141732Y289560D01*
X164592Y312420D01*
X164592Y495300D01*
X165100Y495300D01*
D15*
X176784Y108204D03*
D14*
X167640Y147828D02*
X167640Y219456D01*
X164592Y222504D01*
X164592Y233172D01*
X144780Y252984D01*
X144780Y283464D01*
X228600Y367284D01*
X228600Y368300D01*
D15*
X167640Y147828D03*
D14*
X158496Y141732D02*
X173736Y126492D01*
X158496Y141732D02*
X158496Y230124D01*
X138684Y249936D01*
X138684Y291084D01*
X160020Y312420D01*
X160020Y484632D01*
X128016Y516636D01*
X128016Y533400D01*
X127000Y533400D01*
D15*
X173736Y126492D03*
D14*
X329184Y312420D02*
X329184Y394716D01*
X317500Y406400D01*
D15*
X329184Y312420D03*
D14*
X137160Y237744D02*
X137160Y228600D01*
X137160Y237744D02*
X51816Y323088D01*
X51816Y443484D01*
X38100Y457200D01*
D15*
X137160Y228600D03*
D14*
X149352Y184404D02*
X149352Y169164D01*
X149352Y184404D02*
X152400Y187452D01*
X152400Y227076D01*
X132588Y246888D01*
X132588Y320040D01*
X138684Y326136D01*
X138684Y446532D01*
X128016Y457200D01*
X127000Y457200D01*
D15*
X149352Y169164D03*
D14*
X150876Y259080D02*
X150876Y275844D01*
X239268Y364236D01*
X239268Y484632D01*
X215900Y508000D01*
X356616Y176784D02*
X356616Y166116D01*
X365760Y156972D01*
X365760Y147828D01*
X359664Y141732D01*
X249936Y141732D01*
X167640Y224028D01*
X167640Y234696D01*
X150876Y251460D01*
X150876Y259080D01*
X355600Y177800D02*
X356616Y176784D01*
D15*
X150876Y259080D03*
D14*
X164592Y254508D02*
X164592Y242316D01*
X254508Y152400D01*
X306324Y152400D01*
X355600Y152400D01*
X254508Y152400D02*
X254000Y152400D01*
X316992Y368808D02*
X316992Y391668D01*
X280416Y428244D01*
X280416Y469392D01*
X316992Y368808D02*
X317500Y368300D01*
X280416Y469392D02*
X279400Y469900D01*
X306324Y356616D02*
X306324Y152400D01*
X306324Y356616D02*
X316992Y367284D01*
X317500Y368300D01*
D15*
X164592Y254508D03*
D14*
X254508Y228600D02*
X254508Y483108D01*
X279400Y508000D01*
X254508Y228600D02*
X254000Y228600D01*
X146304Y210312D02*
X146304Y190500D01*
X146304Y210312D02*
X48768Y307848D01*
X48768Y394716D01*
X38100Y405384D01*
X38100Y406400D01*
D15*
X146304Y190500D03*
M02*
