M48
;GenerationSoftware,Autodesk,EAGLE,8.6.0*%
;CreationDate,2018-03-06T10:54:34Z*%
FMAT,2
ICI,OFF
METRIC,TZ,000.000
T4C0.350
T3C0.813
T2C1.000
T1C1.016
%
G90
M71
T1
X34290Y50800
X27940Y50800
X34290Y46990
X21590Y46990
X21590Y50800
X27940Y46990
T2
X25400Y12700
X25400Y15240
X25400Y17780
X25400Y20320
X25400Y22860
X35560Y10160
X35560Y12700
X35560Y15240
X35560Y17780
X35560Y20320
X35560Y22860
X25400Y10160
T3
X3810Y53340
X3810Y49530
X31750Y36830
X12700Y33020
X31750Y33020
X3810Y33020
X12700Y45720
X12700Y53340
X7620Y53340
X12700Y49530
X16510Y53340
X31750Y40640
X22860Y36830
X22860Y40640
X22860Y33020
X3810Y45720
X3810Y36830
X12700Y36830
X7620Y49530
X3810Y40640
X12700Y40640
X16510Y49530
T4
X17678Y10820
X11887Y22860
X15697Y12954
X32918Y31242
X14630Y19050
X16612Y11582
X16459Y25451
X15088Y25908
X14935Y16916
X13716Y22860
X17374Y12649
X16764Y14783
M30