G04 EAGLE Gerber X2 export*
%TF.Part,Single*%
%TF.FileFunction,Paste,Top*%
%TF.FilePolarity,Positive*%
%TF.GenerationSoftware,Autodesk,EAGLE,8.6.0*%
%TF.CreationDate,2018-03-06T10:54:34Z*%
G75*
%MOMM*%
%FSLAX34Y34*%
%LPD*%
%AMOC8*
5,1,8,0,0,1.08239X$1,22.5*%
G01*
%ADD10R,1.473200X0.508000*%
%ADD11R,0.508000X1.473200*%


D10*
X38100Y225044D03*
X38100Y217170D03*
X38100Y209042D03*
X38100Y201168D03*
X38100Y193040D03*
X38100Y185166D03*
X38100Y177038D03*
X38100Y169164D03*
X38100Y161036D03*
X38100Y153162D03*
X38100Y145034D03*
X38100Y137160D03*
X38100Y129032D03*
X38100Y121158D03*
X38100Y113030D03*
X38100Y105156D03*
D11*
X54356Y88900D03*
X62230Y88900D03*
X70358Y88900D03*
X78232Y88900D03*
X86360Y88900D03*
X94234Y88900D03*
X102362Y88900D03*
X110236Y88900D03*
X118364Y88900D03*
X126238Y88900D03*
X134366Y88900D03*
X142240Y88900D03*
X150368Y88900D03*
X158242Y88900D03*
X166370Y88900D03*
X174244Y88900D03*
D10*
X190500Y105156D03*
X190500Y113030D03*
X190500Y121158D03*
X190500Y129032D03*
X190500Y137160D03*
X190500Y145034D03*
X190500Y153162D03*
X190500Y161036D03*
X190500Y169164D03*
X190500Y177038D03*
X190500Y185166D03*
X190500Y193040D03*
X190500Y201168D03*
X190500Y209042D03*
X190500Y217170D03*
X190500Y225044D03*
D11*
X174244Y241300D03*
X166370Y241300D03*
X158242Y241300D03*
X150368Y241300D03*
X142240Y241300D03*
X134366Y241300D03*
X126238Y241300D03*
X118364Y241300D03*
X110236Y241300D03*
X102362Y241300D03*
X94234Y241300D03*
X86360Y241300D03*
X78232Y241300D03*
X70358Y241300D03*
X62230Y241300D03*
X54356Y241300D03*
M02*
