G04 EAGLE Gerber X2 export*
%TF.Part,Single*%
%TF.FileFunction,Soldermask,Bot,1*%
%TF.FilePolarity,Negative*%
%TF.GenerationSoftware,Autodesk,EAGLE,8.6.0*%
%TF.CreationDate,2018-03-06T10:54:34Z*%
G75*
%MOMM*%
%FSLAX34Y34*%
%LPD*%
%AMOC8*
5,1,8,0,0,1.08239X$1,22.5*%
G01*
%ADD10P,2.556822X8X22.500000*%
%ADD11P,1.951982X8X22.500000*%
%ADD12R,1.711200X1.711200*%
%ADD13C,1.711200*%
%ADD14C,0.959600*%


D10*
X342900Y508000D03*
X215900Y469900D03*
X215900Y508000D03*
X279400Y469900D03*
D11*
X38100Y533400D03*
X38100Y495300D03*
X317500Y368300D03*
X127000Y330200D03*
X228600Y330200D03*
X317500Y330200D03*
X38100Y330200D03*
D10*
X279400Y508000D03*
D11*
X127000Y457200D03*
X127000Y533400D03*
X228600Y406400D03*
D10*
X342900Y469900D03*
D11*
X127000Y495300D03*
X165100Y533400D03*
X317500Y406400D03*
X228600Y368300D03*
D12*
X355600Y228600D03*
D13*
X355600Y203200D03*
X355600Y177800D03*
X355600Y152400D03*
X355600Y127000D03*
X355600Y101600D03*
D12*
X254000Y228600D03*
D13*
X254000Y203200D03*
X254000Y177800D03*
X254000Y152400D03*
X254000Y127000D03*
X254000Y101600D03*
D11*
X38100Y457200D03*
X76200Y533400D03*
X38100Y368300D03*
X127000Y368300D03*
X76200Y495300D03*
X38100Y406400D03*
X127000Y406400D03*
X165100Y495300D03*
D14*
X166116Y115824D03*
X156972Y129540D03*
X118872Y228600D03*
X176784Y108204D03*
X167640Y147828D03*
X173736Y126492D03*
X329184Y312420D03*
X137160Y228600D03*
X149352Y169164D03*
X150876Y259080D03*
X164592Y254508D03*
X146304Y190500D03*
M02*
