G04 EAGLE Gerber X2 export*
%TF.Part,Single*%
%TF.FileFunction,Copper,L1,Top,Mixed*%
%TF.FilePolarity,Positive*%
%TF.GenerationSoftware,Autodesk,EAGLE,8.6.0*%
%TF.CreationDate,2018-03-08T02:42:11Z*%
G75*
%MOMM*%
%FSLAX34Y34*%
%LPD*%
%AMOC8*
5,1,8,0,0,1.08239X$1,22.5*%
G01*
%ADD10P,2.336880X8X22.500000*%
%ADD11P,1.732040X8X22.500000*%
%ADD12R,1.473200X0.508000*%
%ADD13R,0.508000X1.473200*%
%ADD14R,1.473200X0.558800*%
%ADD15P,1.429621X8X22.500000*%
%ADD16C,0.152400*%
%ADD17C,0.756400*%

G36*
X344698Y10164D02*
X344698Y10164D01*
X344717Y10162D01*
X344819Y10184D01*
X344921Y10200D01*
X344938Y10210D01*
X344958Y10214D01*
X345047Y10267D01*
X345138Y10316D01*
X345152Y10330D01*
X345169Y10340D01*
X345236Y10419D01*
X345308Y10494D01*
X345316Y10512D01*
X345329Y10527D01*
X345368Y10623D01*
X345411Y10717D01*
X345413Y10737D01*
X345421Y10755D01*
X345439Y10922D01*
X345439Y433578D01*
X345436Y433598D01*
X345438Y433617D01*
X345416Y433719D01*
X345400Y433821D01*
X345390Y433838D01*
X345386Y433858D01*
X345333Y433947D01*
X345284Y434038D01*
X345270Y434052D01*
X345260Y434069D01*
X345181Y434136D01*
X345106Y434208D01*
X345088Y434216D01*
X345073Y434229D01*
X344977Y434268D01*
X344883Y434311D01*
X344863Y434313D01*
X344845Y434321D01*
X344678Y434339D01*
X186128Y434339D01*
X186057Y434328D01*
X185985Y434326D01*
X185936Y434308D01*
X185885Y434300D01*
X185822Y434266D01*
X185754Y434241D01*
X185714Y434209D01*
X185668Y434184D01*
X185618Y434132D01*
X185562Y434088D01*
X185534Y434044D01*
X185498Y434006D01*
X185468Y433941D01*
X185429Y433881D01*
X185416Y433830D01*
X185395Y433783D01*
X185387Y433712D01*
X185369Y433642D01*
X185373Y433590D01*
X185367Y433539D01*
X185383Y433468D01*
X185388Y433397D01*
X185409Y433349D01*
X185420Y433298D01*
X185457Y433237D01*
X185485Y433171D01*
X185529Y433115D01*
X185546Y433087D01*
X185564Y433072D01*
X185589Y433040D01*
X185675Y432954D01*
X186010Y432375D01*
X186183Y431728D01*
X186183Y429996D01*
X176911Y429996D01*
X176892Y429993D01*
X176872Y429995D01*
X176770Y429973D01*
X176668Y429957D01*
X176651Y429947D01*
X176631Y429943D01*
X176542Y429890D01*
X176451Y429841D01*
X176437Y429827D01*
X176420Y429817D01*
X176353Y429738D01*
X176282Y429663D01*
X176274Y429645D01*
X176247Y429695D01*
X176233Y429709D01*
X176223Y429726D01*
X176144Y429793D01*
X176069Y429865D01*
X176051Y429873D01*
X176036Y429886D01*
X175939Y429925D01*
X175846Y429968D01*
X175826Y429970D01*
X175808Y429978D01*
X175641Y429996D01*
X166369Y429996D01*
X166369Y431728D01*
X166542Y432375D01*
X166877Y432954D01*
X166963Y433040D01*
X167004Y433098D01*
X167054Y433150D01*
X167076Y433197D01*
X167106Y433239D01*
X167127Y433308D01*
X167157Y433373D01*
X167163Y433425D01*
X167179Y433474D01*
X167177Y433546D01*
X167185Y433617D01*
X167173Y433668D01*
X167172Y433720D01*
X167148Y433788D01*
X167132Y433858D01*
X167106Y433903D01*
X167088Y433951D01*
X167043Y434007D01*
X167006Y434069D01*
X166967Y434103D01*
X166934Y434143D01*
X166874Y434182D01*
X166819Y434229D01*
X166771Y434248D01*
X166727Y434276D01*
X166658Y434294D01*
X166591Y434321D01*
X166520Y434329D01*
X166489Y434337D01*
X166465Y434335D01*
X166424Y434339D01*
X162339Y434339D01*
X162268Y434328D01*
X162196Y434326D01*
X162147Y434308D01*
X162096Y434300D01*
X162033Y434266D01*
X161965Y434241D01*
X161925Y434209D01*
X161879Y434184D01*
X161829Y434132D01*
X161773Y434088D01*
X161745Y434044D01*
X161709Y434006D01*
X161679Y433941D01*
X161640Y433881D01*
X161628Y433830D01*
X161606Y433783D01*
X161598Y433712D01*
X161580Y433642D01*
X161584Y433590D01*
X161579Y433539D01*
X161594Y433468D01*
X161599Y433397D01*
X161620Y433349D01*
X161631Y433298D01*
X161668Y433237D01*
X161696Y433171D01*
X161741Y433115D01*
X161757Y433087D01*
X161775Y433072D01*
X161801Y433040D01*
X162815Y432026D01*
X162815Y425174D01*
X162029Y424388D01*
X162017Y424372D01*
X162001Y424360D01*
X161945Y424272D01*
X161885Y424189D01*
X161879Y424170D01*
X161868Y424153D01*
X161843Y424052D01*
X161813Y423953D01*
X161813Y423934D01*
X161808Y423914D01*
X161816Y423811D01*
X161819Y423708D01*
X161826Y423689D01*
X161827Y423669D01*
X161868Y423574D01*
X161903Y423477D01*
X161916Y423461D01*
X161924Y423443D01*
X162029Y423312D01*
X162815Y422526D01*
X162815Y418331D01*
X162829Y418240D01*
X162837Y418150D01*
X162849Y418120D01*
X162854Y418088D01*
X162897Y418007D01*
X162933Y417923D01*
X162959Y417891D01*
X162970Y417870D01*
X162993Y417848D01*
X163038Y417792D01*
X166840Y413990D01*
X167056Y413773D01*
X167073Y413762D01*
X167085Y413746D01*
X167172Y413690D01*
X167256Y413630D01*
X167275Y413624D01*
X167292Y413613D01*
X167392Y413588D01*
X167491Y413557D01*
X167511Y413558D01*
X167530Y413553D01*
X167634Y413561D01*
X167737Y413564D01*
X167756Y413571D01*
X167775Y413572D01*
X167871Y413613D01*
X167968Y413648D01*
X167984Y413661D01*
X168002Y413668D01*
X168133Y413773D01*
X168171Y413811D01*
X168183Y413828D01*
X168199Y413840D01*
X168255Y413927D01*
X168315Y414011D01*
X168321Y414030D01*
X168332Y414047D01*
X168357Y414147D01*
X168387Y414246D01*
X168387Y414266D01*
X168392Y414286D01*
X168384Y414388D01*
X168381Y414492D01*
X168374Y414511D01*
X168373Y414531D01*
X168332Y414626D01*
X168297Y414723D01*
X168284Y414739D01*
X168276Y414757D01*
X168171Y414888D01*
X167385Y415674D01*
X167385Y422526D01*
X167462Y422602D01*
X167531Y422699D01*
X167602Y422794D01*
X167603Y422798D01*
X167605Y422802D01*
X167640Y422916D01*
X167676Y423029D01*
X167676Y423033D01*
X167678Y423037D01*
X167674Y423155D01*
X167673Y423275D01*
X167671Y423279D01*
X167671Y423283D01*
X167631Y423394D01*
X167591Y423507D01*
X167588Y423510D01*
X167587Y423514D01*
X167513Y423606D01*
X167439Y423700D01*
X167435Y423703D01*
X167433Y423706D01*
X167422Y423713D01*
X167377Y423746D01*
X166877Y424246D01*
X166542Y424825D01*
X166369Y425472D01*
X166369Y427204D01*
X175641Y427204D01*
X175660Y427207D01*
X175680Y427205D01*
X175782Y427227D01*
X175884Y427243D01*
X175901Y427253D01*
X175921Y427257D01*
X176010Y427310D01*
X176101Y427359D01*
X176115Y427373D01*
X176132Y427383D01*
X176199Y427462D01*
X176270Y427537D01*
X176278Y427554D01*
X176305Y427505D01*
X176319Y427491D01*
X176329Y427474D01*
X176408Y427407D01*
X176483Y427335D01*
X176501Y427327D01*
X176516Y427314D01*
X176613Y427275D01*
X176706Y427232D01*
X176726Y427230D01*
X176744Y427222D01*
X176911Y427204D01*
X186183Y427204D01*
X186183Y425472D01*
X186010Y424825D01*
X185675Y424246D01*
X185143Y423713D01*
X185063Y423650D01*
X185061Y423646D01*
X185058Y423644D01*
X184995Y423543D01*
X184930Y423443D01*
X184929Y423439D01*
X184927Y423436D01*
X184899Y423320D01*
X184870Y423204D01*
X184870Y423200D01*
X184869Y423196D01*
X184880Y423078D01*
X184889Y422959D01*
X184891Y422955D01*
X184891Y422951D01*
X184940Y422841D01*
X184986Y422733D01*
X184989Y422729D01*
X184990Y422726D01*
X184999Y422716D01*
X185090Y422602D01*
X185167Y422526D01*
X185167Y422148D01*
X185170Y422128D01*
X185168Y422109D01*
X185190Y422007D01*
X185206Y421905D01*
X185216Y421888D01*
X185220Y421868D01*
X185273Y421779D01*
X185322Y421688D01*
X185336Y421674D01*
X185346Y421657D01*
X185425Y421590D01*
X185500Y421518D01*
X185518Y421510D01*
X185533Y421497D01*
X185629Y421458D01*
X185723Y421415D01*
X185743Y421413D01*
X185761Y421405D01*
X185928Y421387D01*
X188399Y421387D01*
X191263Y418523D01*
X191263Y380738D01*
X191274Y380668D01*
X191276Y380596D01*
X191294Y380547D01*
X191302Y380496D01*
X191336Y380432D01*
X191361Y380365D01*
X191393Y380324D01*
X191418Y380278D01*
X191470Y380229D01*
X191514Y380173D01*
X191558Y380145D01*
X191596Y380109D01*
X191661Y380079D01*
X191721Y380040D01*
X191772Y380027D01*
X191819Y380005D01*
X191890Y379997D01*
X191960Y379980D01*
X192012Y379984D01*
X192063Y379978D01*
X192134Y379993D01*
X192205Y379999D01*
X192253Y380019D01*
X192304Y380030D01*
X192365Y380067D01*
X192431Y380095D01*
X192487Y380140D01*
X192515Y380157D01*
X192530Y380174D01*
X192562Y380200D01*
X200182Y387820D01*
X200235Y387894D01*
X200295Y387964D01*
X200307Y387994D01*
X200326Y388020D01*
X200353Y388107D01*
X200387Y388192D01*
X200391Y388233D01*
X200398Y388255D01*
X200397Y388287D01*
X200405Y388359D01*
X200405Y396113D01*
X200402Y396133D01*
X200404Y396152D01*
X200382Y396254D01*
X200366Y396356D01*
X200356Y396373D01*
X200352Y396393D01*
X200299Y396482D01*
X200250Y396573D01*
X200236Y396587D01*
X200226Y396604D01*
X200147Y396671D01*
X200072Y396743D01*
X200054Y396751D01*
X200039Y396764D01*
X199943Y396803D01*
X199849Y396846D01*
X199829Y396848D01*
X199811Y396856D01*
X199644Y396874D01*
X199254Y396874D01*
X193674Y402454D01*
X193674Y410346D01*
X199254Y415926D01*
X207146Y415926D01*
X212726Y410346D01*
X212726Y402454D01*
X207146Y396874D01*
X205740Y396874D01*
X205720Y396871D01*
X205701Y396873D01*
X205599Y396851D01*
X205497Y396835D01*
X205480Y396825D01*
X205460Y396821D01*
X205371Y396768D01*
X205280Y396719D01*
X205266Y396705D01*
X205249Y396695D01*
X205182Y396616D01*
X205110Y396541D01*
X205102Y396523D01*
X205089Y396508D01*
X205050Y396412D01*
X205007Y396318D01*
X205005Y396298D01*
X204997Y396280D01*
X204979Y396113D01*
X204979Y386149D01*
X191486Y372656D01*
X191433Y372582D01*
X191373Y372512D01*
X191361Y372482D01*
X191342Y372456D01*
X191315Y372369D01*
X191281Y372284D01*
X191277Y372243D01*
X191270Y372221D01*
X191271Y372189D01*
X191263Y372117D01*
X191263Y249675D01*
X191277Y249584D01*
X191285Y249494D01*
X191297Y249464D01*
X191302Y249432D01*
X191345Y249351D01*
X191381Y249267D01*
X191407Y249235D01*
X191418Y249214D01*
X191441Y249192D01*
X191486Y249136D01*
X198844Y241778D01*
X198918Y241725D01*
X198988Y241665D01*
X199018Y241653D01*
X199044Y241634D01*
X199131Y241607D01*
X199216Y241573D01*
X199257Y241569D01*
X199279Y241562D01*
X199311Y241563D01*
X199383Y241555D01*
X200591Y241555D01*
X202154Y239992D01*
X214346Y227800D01*
X214404Y227758D01*
X214456Y227709D01*
X214503Y227687D01*
X214545Y227657D01*
X214614Y227636D01*
X214679Y227605D01*
X214731Y227600D01*
X214781Y227584D01*
X214852Y227586D01*
X214923Y227578D01*
X214974Y227589D01*
X215026Y227591D01*
X215094Y227615D01*
X215164Y227630D01*
X215209Y227657D01*
X215257Y227675D01*
X215313Y227720D01*
X215375Y227757D01*
X215409Y227796D01*
X215449Y227829D01*
X215488Y227889D01*
X215535Y227944D01*
X215554Y227992D01*
X215582Y228036D01*
X215600Y228105D01*
X215627Y228172D01*
X215635Y228243D01*
X215643Y228274D01*
X215641Y228298D01*
X215645Y228338D01*
X215645Y276105D01*
X215631Y276196D01*
X215623Y276286D01*
X215611Y276316D01*
X215606Y276348D01*
X215563Y276429D01*
X215527Y276513D01*
X215501Y276545D01*
X215490Y276566D01*
X215467Y276588D01*
X215422Y276644D01*
X208857Y283209D01*
X208841Y283221D01*
X208828Y283236D01*
X208741Y283292D01*
X208657Y283353D01*
X208638Y283358D01*
X208621Y283369D01*
X208521Y283395D01*
X208422Y283425D01*
X208402Y283424D01*
X208383Y283429D01*
X208280Y283421D01*
X208176Y283419D01*
X208158Y283412D01*
X208138Y283410D01*
X208043Y283370D01*
X207945Y283334D01*
X207930Y283322D01*
X207911Y283314D01*
X207780Y283209D01*
X207146Y282574D01*
X199254Y282574D01*
X193674Y288154D01*
X193674Y296046D01*
X199254Y301626D01*
X207146Y301626D01*
X212726Y296046D01*
X212726Y288154D01*
X212091Y287520D01*
X212079Y287503D01*
X212064Y287491D01*
X212008Y287404D01*
X211947Y287320D01*
X211942Y287301D01*
X211931Y287284D01*
X211905Y287184D01*
X211875Y287085D01*
X211876Y287065D01*
X211871Y287045D01*
X211879Y286943D01*
X211881Y286839D01*
X211888Y286820D01*
X211890Y286800D01*
X211930Y286705D01*
X211966Y286608D01*
X211978Y286592D01*
X211986Y286574D01*
X212091Y286443D01*
X217394Y281140D01*
X217452Y281098D01*
X217504Y281049D01*
X217551Y281027D01*
X217593Y280997D01*
X217662Y280976D01*
X217727Y280945D01*
X217779Y280940D01*
X217829Y280924D01*
X217900Y280926D01*
X217971Y280918D01*
X218022Y280929D01*
X218074Y280931D01*
X218142Y280955D01*
X218212Y280970D01*
X218257Y280997D01*
X218305Y281015D01*
X218361Y281060D01*
X218423Y281097D01*
X218457Y281136D01*
X218497Y281169D01*
X218536Y281229D01*
X218583Y281284D01*
X218602Y281332D01*
X218630Y281376D01*
X218648Y281445D01*
X218675Y281512D01*
X218683Y281583D01*
X218691Y281614D01*
X218689Y281638D01*
X218693Y281678D01*
X218693Y311157D01*
X218679Y311248D01*
X218671Y311338D01*
X218659Y311368D01*
X218654Y311400D01*
X218611Y311481D01*
X218575Y311565D01*
X218549Y311597D01*
X218538Y311618D01*
X218515Y311640D01*
X218470Y311696D01*
X208857Y321309D01*
X208841Y321321D01*
X208828Y321336D01*
X208755Y321384D01*
X208734Y321402D01*
X208721Y321407D01*
X208657Y321453D01*
X208638Y321458D01*
X208621Y321469D01*
X208521Y321495D01*
X208422Y321525D01*
X208402Y321524D01*
X208383Y321529D01*
X208280Y321521D01*
X208176Y321519D01*
X208158Y321512D01*
X208138Y321510D01*
X208043Y321470D01*
X207945Y321434D01*
X207930Y321422D01*
X207911Y321414D01*
X207844Y321360D01*
X207839Y321357D01*
X207832Y321351D01*
X207780Y321309D01*
X207146Y320674D01*
X199254Y320674D01*
X193674Y326254D01*
X193674Y334146D01*
X199254Y339726D01*
X207146Y339726D01*
X212726Y334146D01*
X212726Y326254D01*
X212091Y325620D01*
X212079Y325603D01*
X212064Y325591D01*
X212008Y325504D01*
X211947Y325420D01*
X211942Y325401D01*
X211931Y325384D01*
X211905Y325284D01*
X211875Y325185D01*
X211876Y325165D01*
X211871Y325145D01*
X211879Y325043D01*
X211881Y324939D01*
X211888Y324920D01*
X211890Y324900D01*
X211930Y324805D01*
X211966Y324708D01*
X211978Y324692D01*
X211986Y324674D01*
X212091Y324543D01*
X223267Y313367D01*
X223267Y207841D01*
X206687Y191261D01*
X200907Y191261D01*
X200816Y191247D01*
X200726Y191239D01*
X200696Y191227D01*
X200664Y191222D01*
X200583Y191179D01*
X200499Y191143D01*
X200467Y191117D01*
X200446Y191106D01*
X200424Y191083D01*
X200368Y191038D01*
X196019Y186689D01*
X187452Y186689D01*
X187432Y186686D01*
X187413Y186688D01*
X187311Y186666D01*
X187209Y186650D01*
X187192Y186640D01*
X187172Y186636D01*
X187083Y186583D01*
X186992Y186534D01*
X186978Y186520D01*
X186961Y186510D01*
X186894Y186431D01*
X186822Y186356D01*
X186814Y186338D01*
X186801Y186323D01*
X186762Y186227D01*
X186719Y186133D01*
X186717Y186113D01*
X186709Y186095D01*
X186691Y185928D01*
X186691Y185296D01*
X186337Y184942D01*
X186325Y184926D01*
X186309Y184914D01*
X186253Y184827D01*
X186193Y184743D01*
X186187Y184724D01*
X186176Y184707D01*
X186151Y184606D01*
X186121Y184507D01*
X186121Y184488D01*
X186116Y184468D01*
X186124Y184365D01*
X186127Y184262D01*
X186134Y184243D01*
X186135Y184223D01*
X186176Y184128D01*
X186211Y184031D01*
X186224Y184015D01*
X186232Y183997D01*
X186337Y183866D01*
X186691Y183512D01*
X186691Y182880D01*
X186694Y182860D01*
X186692Y182841D01*
X186714Y182739D01*
X186730Y182637D01*
X186740Y182620D01*
X186744Y182600D01*
X186797Y182511D01*
X186846Y182420D01*
X186860Y182406D01*
X186870Y182389D01*
X186949Y182322D01*
X187024Y182250D01*
X187042Y182242D01*
X187057Y182229D01*
X187153Y182190D01*
X187247Y182147D01*
X187267Y182145D01*
X187285Y182137D01*
X187452Y182119D01*
X189923Y182119D01*
X192375Y179667D01*
X192433Y179625D01*
X192485Y179576D01*
X192532Y179554D01*
X192574Y179524D01*
X192643Y179503D01*
X192708Y179472D01*
X192760Y179467D01*
X192810Y179451D01*
X192881Y179453D01*
X192952Y179445D01*
X193003Y179456D01*
X193055Y179458D01*
X193123Y179482D01*
X193193Y179497D01*
X193238Y179524D01*
X193286Y179542D01*
X193342Y179587D01*
X193404Y179624D01*
X193438Y179663D01*
X193478Y179696D01*
X193517Y179756D01*
X193564Y179811D01*
X193583Y179859D01*
X193611Y179903D01*
X193629Y179972D01*
X193656Y180039D01*
X193664Y180110D01*
X193672Y180141D01*
X193670Y180165D01*
X193674Y180205D01*
X193674Y181746D01*
X199254Y187326D01*
X207146Y187326D01*
X212726Y181746D01*
X212726Y173854D01*
X207146Y168274D01*
X202557Y168274D01*
X202487Y168263D01*
X202415Y168261D01*
X202366Y168243D01*
X202315Y168235D01*
X202251Y168201D01*
X202184Y168176D01*
X202143Y168144D01*
X202097Y168119D01*
X202048Y168067D01*
X201992Y168023D01*
X201964Y167979D01*
X201928Y167941D01*
X201898Y167876D01*
X201859Y167816D01*
X201846Y167765D01*
X201824Y167718D01*
X201816Y167647D01*
X201799Y167577D01*
X201803Y167525D01*
X201797Y167474D01*
X201812Y167403D01*
X201818Y167332D01*
X201838Y167284D01*
X201849Y167233D01*
X201886Y167172D01*
X201914Y167106D01*
X201959Y167050D01*
X201976Y167022D01*
X201993Y167007D01*
X202019Y166975D01*
X218656Y150338D01*
X220219Y148775D01*
X220219Y114877D01*
X212345Y107003D01*
X212333Y106987D01*
X212318Y106974D01*
X212262Y106887D01*
X212201Y106803D01*
X212196Y106784D01*
X212185Y106767D01*
X212159Y106667D01*
X212129Y106568D01*
X212130Y106548D01*
X212125Y106529D01*
X212133Y106426D01*
X212135Y106322D01*
X212142Y106304D01*
X212144Y106284D01*
X212184Y106189D01*
X212220Y106091D01*
X212232Y106076D01*
X212240Y106057D01*
X212345Y105926D01*
X212726Y105546D01*
X212726Y97654D01*
X207146Y92074D01*
X199254Y92074D01*
X198658Y92670D01*
X198600Y92712D01*
X198548Y92762D01*
X198501Y92783D01*
X198459Y92814D01*
X198390Y92835D01*
X198325Y92865D01*
X198273Y92871D01*
X198223Y92886D01*
X198152Y92884D01*
X198081Y92892D01*
X198030Y92881D01*
X197978Y92880D01*
X197910Y92855D01*
X197840Y92840D01*
X197795Y92813D01*
X197747Y92795D01*
X197691Y92751D01*
X197629Y92714D01*
X197595Y92674D01*
X197555Y92642D01*
X197516Y92581D01*
X197469Y92527D01*
X197450Y92479D01*
X197422Y92435D01*
X197404Y92365D01*
X197377Y92299D01*
X197369Y92227D01*
X197361Y92196D01*
X197363Y92173D01*
X197359Y92132D01*
X197359Y91179D01*
X197373Y91088D01*
X197381Y90998D01*
X197393Y90968D01*
X197398Y90936D01*
X197441Y90855D01*
X197477Y90771D01*
X197503Y90739D01*
X197514Y90718D01*
X197537Y90696D01*
X197582Y90640D01*
X198844Y89378D01*
X198918Y89325D01*
X198988Y89265D01*
X199018Y89253D01*
X199044Y89234D01*
X199131Y89207D01*
X199216Y89173D01*
X199257Y89169D01*
X199279Y89162D01*
X199311Y89163D01*
X199383Y89155D01*
X213621Y89155D01*
X213712Y89169D01*
X213802Y89177D01*
X213832Y89189D01*
X213864Y89194D01*
X213945Y89237D01*
X214029Y89273D01*
X214061Y89299D01*
X214082Y89310D01*
X214104Y89333D01*
X214160Y89378D01*
X296417Y171635D01*
X296429Y171651D01*
X296444Y171664D01*
X296500Y171751D01*
X296561Y171835D01*
X296566Y171854D01*
X296577Y171870D01*
X296603Y171971D01*
X296633Y172070D01*
X296632Y172090D01*
X296637Y172109D01*
X296629Y172212D01*
X296627Y172316D01*
X296620Y172334D01*
X296618Y172354D01*
X296578Y172449D01*
X296542Y172547D01*
X296530Y172562D01*
X296522Y172581D01*
X296417Y172712D01*
X295274Y173854D01*
X295274Y181746D01*
X300854Y187326D01*
X308746Y187326D01*
X314326Y181746D01*
X314326Y173854D01*
X308746Y168274D01*
X300854Y168274D01*
X300728Y168401D01*
X300711Y168413D01*
X300699Y168428D01*
X300612Y168484D01*
X300528Y168545D01*
X300509Y168550D01*
X300492Y168561D01*
X300391Y168587D01*
X300293Y168617D01*
X300273Y168616D01*
X300253Y168621D01*
X300150Y168613D01*
X300047Y168611D01*
X300028Y168604D01*
X300008Y168602D01*
X299913Y168562D01*
X299816Y168526D01*
X299800Y168514D01*
X299782Y168506D01*
X299651Y168401D01*
X297904Y166654D01*
X297862Y166596D01*
X297813Y166544D01*
X297791Y166497D01*
X297761Y166455D01*
X297740Y166386D01*
X297709Y166321D01*
X297704Y166269D01*
X297688Y166219D01*
X297690Y166148D01*
X297682Y166077D01*
X297693Y166026D01*
X297695Y165974D01*
X297719Y165906D01*
X297734Y165836D01*
X297761Y165792D01*
X297779Y165743D01*
X297824Y165687D01*
X297861Y165625D01*
X297900Y165591D01*
X297933Y165551D01*
X297993Y165512D01*
X298048Y165465D01*
X298096Y165446D01*
X298140Y165418D01*
X298209Y165400D01*
X298276Y165373D01*
X298347Y165365D01*
X298378Y165357D01*
X298402Y165359D01*
X298442Y165355D01*
X308109Y165355D01*
X308200Y165369D01*
X308290Y165377D01*
X308320Y165389D01*
X308352Y165394D01*
X308433Y165437D01*
X308517Y165473D01*
X308549Y165499D01*
X308570Y165510D01*
X308592Y165533D01*
X308648Y165578D01*
X316006Y172936D01*
X316059Y173010D01*
X316119Y173080D01*
X316131Y173110D01*
X316150Y173136D01*
X316177Y173223D01*
X316211Y173308D01*
X316215Y173349D01*
X316222Y173371D01*
X316221Y173403D01*
X316229Y173475D01*
X316229Y199905D01*
X316215Y199996D01*
X316207Y200086D01*
X316195Y200116D01*
X316190Y200148D01*
X316147Y200229D01*
X316111Y200313D01*
X316085Y200345D01*
X316074Y200366D01*
X316051Y200388D01*
X316006Y200444D01*
X309949Y206501D01*
X309933Y206513D01*
X309920Y206528D01*
X309833Y206584D01*
X309749Y206645D01*
X309730Y206650D01*
X309714Y206661D01*
X309613Y206687D01*
X309514Y206717D01*
X309494Y206716D01*
X309475Y206721D01*
X309372Y206713D01*
X309268Y206711D01*
X309250Y206704D01*
X309230Y206702D01*
X309135Y206662D01*
X309037Y206626D01*
X309022Y206614D01*
X309003Y206606D01*
X308872Y206501D01*
X308746Y206374D01*
X300854Y206374D01*
X295274Y211954D01*
X295274Y219846D01*
X300854Y225426D01*
X308746Y225426D01*
X314326Y219846D01*
X314326Y211954D01*
X313183Y210812D01*
X313171Y210795D01*
X313156Y210783D01*
X313100Y210696D01*
X313039Y210612D01*
X313034Y210593D01*
X313023Y210576D01*
X312997Y210475D01*
X312967Y210377D01*
X312968Y210357D01*
X312963Y210337D01*
X312971Y210234D01*
X312973Y210131D01*
X312980Y210112D01*
X312982Y210092D01*
X313022Y209997D01*
X313058Y209900D01*
X313070Y209884D01*
X313078Y209866D01*
X313183Y209735D01*
X317978Y204940D01*
X318036Y204898D01*
X318088Y204849D01*
X318135Y204827D01*
X318177Y204797D01*
X318246Y204776D01*
X318311Y204745D01*
X318363Y204740D01*
X318413Y204724D01*
X318484Y204726D01*
X318555Y204718D01*
X318606Y204729D01*
X318658Y204731D01*
X318726Y204755D01*
X318796Y204770D01*
X318840Y204797D01*
X318889Y204815D01*
X318945Y204860D01*
X319007Y204897D01*
X319041Y204936D01*
X319081Y204969D01*
X319120Y205029D01*
X319167Y205084D01*
X319186Y205132D01*
X319214Y205176D01*
X319232Y205245D01*
X319259Y205312D01*
X319267Y205383D01*
X319275Y205414D01*
X319273Y205438D01*
X319277Y205478D01*
X319277Y234957D01*
X319263Y235048D01*
X319255Y235138D01*
X319243Y235168D01*
X319238Y235200D01*
X319195Y235281D01*
X319159Y235365D01*
X319133Y235397D01*
X319122Y235418D01*
X319099Y235440D01*
X319054Y235496D01*
X309949Y244601D01*
X309933Y244613D01*
X309920Y244628D01*
X309833Y244684D01*
X309749Y244745D01*
X309730Y244750D01*
X309713Y244761D01*
X309613Y244787D01*
X309514Y244817D01*
X309494Y244816D01*
X309475Y244821D01*
X309372Y244813D01*
X309268Y244811D01*
X309250Y244804D01*
X309230Y244802D01*
X309135Y244762D01*
X309037Y244726D01*
X309022Y244714D01*
X309003Y244706D01*
X308872Y244601D01*
X308746Y244474D01*
X300854Y244474D01*
X295274Y250054D01*
X295274Y257946D01*
X300854Y263526D01*
X308746Y263526D01*
X314326Y257946D01*
X314326Y250054D01*
X313183Y248912D01*
X313171Y248895D01*
X313156Y248883D01*
X313100Y248796D01*
X313039Y248712D01*
X313034Y248693D01*
X313023Y248676D01*
X312997Y248576D01*
X312967Y248477D01*
X312968Y248457D01*
X312963Y248437D01*
X312971Y248335D01*
X312973Y248231D01*
X312980Y248212D01*
X312982Y248192D01*
X313022Y248097D01*
X313058Y248000D01*
X313070Y247984D01*
X313078Y247966D01*
X313183Y247835D01*
X321026Y239992D01*
X321084Y239950D01*
X321136Y239901D01*
X321183Y239879D01*
X321225Y239849D01*
X321294Y239828D01*
X321359Y239797D01*
X321411Y239792D01*
X321461Y239776D01*
X321532Y239778D01*
X321603Y239770D01*
X321654Y239781D01*
X321706Y239783D01*
X321774Y239807D01*
X321844Y239822D01*
X321889Y239849D01*
X321937Y239867D01*
X321993Y239912D01*
X322055Y239949D01*
X322089Y239988D01*
X322129Y240021D01*
X322168Y240081D01*
X322215Y240136D01*
X322234Y240184D01*
X322262Y240228D01*
X322280Y240297D01*
X322307Y240364D01*
X322315Y240435D01*
X322323Y240466D01*
X322321Y240490D01*
X322325Y240530D01*
X322325Y270009D01*
X322311Y270100D01*
X322303Y270190D01*
X322291Y270220D01*
X322286Y270252D01*
X322243Y270333D01*
X322207Y270417D01*
X322181Y270449D01*
X322170Y270470D01*
X322147Y270492D01*
X322102Y270548D01*
X309949Y282701D01*
X309933Y282713D01*
X309920Y282728D01*
X309833Y282784D01*
X309749Y282845D01*
X309730Y282850D01*
X309713Y282861D01*
X309613Y282887D01*
X309514Y282917D01*
X309494Y282916D01*
X309475Y282921D01*
X309372Y282913D01*
X309268Y282911D01*
X309250Y282904D01*
X309230Y282902D01*
X309135Y282862D01*
X309037Y282826D01*
X309022Y282814D01*
X309003Y282806D01*
X308872Y282701D01*
X308746Y282574D01*
X300854Y282574D01*
X295274Y288154D01*
X295274Y296046D01*
X300854Y301626D01*
X308746Y301626D01*
X314326Y296046D01*
X314326Y288154D01*
X313183Y287012D01*
X313171Y286995D01*
X313156Y286983D01*
X313125Y286936D01*
X313113Y286923D01*
X313103Y286900D01*
X313100Y286896D01*
X313039Y286812D01*
X313034Y286793D01*
X313023Y286776D01*
X312997Y286676D01*
X312967Y286577D01*
X312968Y286557D01*
X312963Y286537D01*
X312971Y286435D01*
X312973Y286331D01*
X312980Y286312D01*
X312982Y286292D01*
X313022Y286197D01*
X313058Y286100D01*
X313070Y286084D01*
X313078Y286066D01*
X313183Y285935D01*
X324074Y275044D01*
X324132Y275002D01*
X324184Y274953D01*
X324231Y274931D01*
X324273Y274901D01*
X324342Y274880D01*
X324407Y274849D01*
X324459Y274844D01*
X324509Y274828D01*
X324580Y274830D01*
X324651Y274822D01*
X324702Y274833D01*
X324754Y274835D01*
X324822Y274859D01*
X324892Y274874D01*
X324937Y274901D01*
X324985Y274919D01*
X325041Y274964D01*
X325103Y275001D01*
X325137Y275040D01*
X325177Y275073D01*
X325216Y275133D01*
X325263Y275188D01*
X325282Y275236D01*
X325310Y275280D01*
X325328Y275349D01*
X325355Y275416D01*
X325363Y275487D01*
X325371Y275518D01*
X325369Y275542D01*
X325373Y275582D01*
X325373Y305062D01*
X325359Y305152D01*
X325351Y305243D01*
X325339Y305272D01*
X325334Y305304D01*
X325291Y305385D01*
X325255Y305469D01*
X325229Y305501D01*
X325218Y305522D01*
X325195Y305544D01*
X325150Y305600D01*
X309949Y320801D01*
X309933Y320813D01*
X309920Y320828D01*
X309833Y320884D01*
X309749Y320945D01*
X309730Y320950D01*
X309714Y320961D01*
X309613Y320987D01*
X309514Y321017D01*
X309494Y321016D01*
X309475Y321021D01*
X309372Y321013D01*
X309268Y321011D01*
X309250Y321004D01*
X309230Y321002D01*
X309135Y320962D01*
X309037Y320926D01*
X309022Y320914D01*
X309003Y320906D01*
X308872Y320801D01*
X308746Y320674D01*
X300854Y320674D01*
X295274Y326254D01*
X295274Y334146D01*
X300854Y339726D01*
X308746Y339726D01*
X314326Y334146D01*
X314326Y326254D01*
X313183Y325112D01*
X313171Y325095D01*
X313156Y325083D01*
X313100Y324996D01*
X313039Y324912D01*
X313034Y324893D01*
X313023Y324876D01*
X312997Y324775D01*
X312967Y324677D01*
X312968Y324657D01*
X312963Y324637D01*
X312971Y324534D01*
X312973Y324431D01*
X312980Y324412D01*
X312982Y324392D01*
X313022Y324297D01*
X313029Y324278D01*
X313030Y324277D01*
X313058Y324200D01*
X313070Y324184D01*
X313078Y324166D01*
X313149Y324078D01*
X313156Y324066D01*
X313163Y324060D01*
X313183Y324035D01*
X327122Y310096D01*
X327180Y310054D01*
X327232Y310005D01*
X327279Y309983D01*
X327321Y309953D01*
X327390Y309932D01*
X327455Y309901D01*
X327507Y309896D01*
X327557Y309880D01*
X327628Y309882D01*
X327699Y309874D01*
X327750Y309885D01*
X327802Y309887D01*
X327870Y309911D01*
X327940Y309926D01*
X327984Y309953D01*
X328033Y309971D01*
X328089Y310016D01*
X328151Y310053D01*
X328185Y310092D01*
X328225Y310125D01*
X328264Y310185D01*
X328311Y310240D01*
X328330Y310288D01*
X328358Y310332D01*
X328376Y310401D01*
X328403Y310468D01*
X328411Y310539D01*
X328419Y310570D01*
X328417Y310594D01*
X328421Y310634D01*
X328421Y340113D01*
X328407Y340204D01*
X328399Y340294D01*
X328387Y340324D01*
X328382Y340356D01*
X328339Y340437D01*
X328303Y340521D01*
X328277Y340553D01*
X328266Y340574D01*
X328243Y340596D01*
X328198Y340652D01*
X309949Y358901D01*
X309933Y358913D01*
X309920Y358928D01*
X309833Y358984D01*
X309749Y359045D01*
X309730Y359050D01*
X309714Y359061D01*
X309613Y359087D01*
X309514Y359117D01*
X309494Y359116D01*
X309475Y359121D01*
X309372Y359113D01*
X309268Y359111D01*
X309250Y359104D01*
X309230Y359102D01*
X309135Y359062D01*
X309037Y359026D01*
X309022Y359014D01*
X309003Y359006D01*
X308872Y358901D01*
X308746Y358774D01*
X300854Y358774D01*
X295274Y364354D01*
X295274Y372246D01*
X300854Y377826D01*
X308746Y377826D01*
X314326Y372246D01*
X314326Y364354D01*
X313183Y363212D01*
X313171Y363195D01*
X313156Y363183D01*
X313100Y363096D01*
X313039Y363012D01*
X313034Y362993D01*
X313023Y362976D01*
X312997Y362875D01*
X312967Y362777D01*
X312968Y362757D01*
X312963Y362737D01*
X312971Y362634D01*
X312973Y362531D01*
X312980Y362512D01*
X312982Y362492D01*
X313022Y362397D01*
X313058Y362300D01*
X313070Y362284D01*
X313078Y362266D01*
X313183Y362135D01*
X332995Y342323D01*
X332995Y140785D01*
X311843Y119633D01*
X306063Y119633D01*
X305972Y119619D01*
X305882Y119611D01*
X305852Y119599D01*
X305820Y119594D01*
X305739Y119551D01*
X305655Y119515D01*
X305623Y119489D01*
X305602Y119478D01*
X305580Y119455D01*
X305524Y119410D01*
X226499Y40385D01*
X166693Y40385D01*
X144017Y63061D01*
X144017Y66548D01*
X144014Y66568D01*
X144016Y66587D01*
X143994Y66689D01*
X143978Y66791D01*
X143968Y66808D01*
X143964Y66828D01*
X143911Y66917D01*
X143862Y67008D01*
X143848Y67022D01*
X143838Y67039D01*
X143759Y67106D01*
X143684Y67178D01*
X143666Y67186D01*
X143651Y67199D01*
X143555Y67238D01*
X143461Y67281D01*
X143441Y67283D01*
X143423Y67291D01*
X143256Y67309D01*
X142370Y67309D01*
X142143Y67536D01*
X142127Y67548D01*
X142115Y67564D01*
X142027Y67620D01*
X141944Y67680D01*
X141925Y67686D01*
X141908Y67697D01*
X141807Y67722D01*
X141708Y67752D01*
X141688Y67752D01*
X141669Y67757D01*
X141566Y67749D01*
X141463Y67746D01*
X141444Y67739D01*
X141424Y67738D01*
X141329Y67697D01*
X141232Y67662D01*
X141216Y67649D01*
X141198Y67641D01*
X141067Y67536D01*
X140840Y67309D01*
X134496Y67309D01*
X134142Y67663D01*
X134126Y67675D01*
X134114Y67691D01*
X134027Y67747D01*
X133943Y67807D01*
X133924Y67813D01*
X133907Y67824D01*
X133806Y67849D01*
X133707Y67879D01*
X133688Y67879D01*
X133668Y67884D01*
X133565Y67876D01*
X133462Y67873D01*
X133443Y67866D01*
X133423Y67865D01*
X133328Y67824D01*
X133231Y67789D01*
X133215Y67776D01*
X133197Y67768D01*
X133066Y67663D01*
X132712Y67309D01*
X126368Y67309D01*
X126141Y67536D01*
X126125Y67548D01*
X126113Y67564D01*
X126025Y67620D01*
X125942Y67680D01*
X125923Y67686D01*
X125906Y67697D01*
X125805Y67722D01*
X125706Y67752D01*
X125686Y67752D01*
X125667Y67757D01*
X125564Y67749D01*
X125461Y67746D01*
X125442Y67739D01*
X125422Y67738D01*
X125327Y67697D01*
X125230Y67662D01*
X125214Y67649D01*
X125196Y67641D01*
X125065Y67536D01*
X124838Y67309D01*
X118494Y67309D01*
X118140Y67663D01*
X118124Y67675D01*
X118112Y67691D01*
X118025Y67747D01*
X117941Y67807D01*
X117922Y67813D01*
X117905Y67824D01*
X117804Y67849D01*
X117705Y67879D01*
X117686Y67879D01*
X117666Y67884D01*
X117563Y67876D01*
X117460Y67873D01*
X117441Y67866D01*
X117421Y67865D01*
X117326Y67824D01*
X117229Y67789D01*
X117213Y67776D01*
X117195Y67768D01*
X117064Y67663D01*
X116710Y67309D01*
X110366Y67309D01*
X110139Y67536D01*
X110123Y67548D01*
X110111Y67564D01*
X110023Y67620D01*
X109940Y67680D01*
X109921Y67686D01*
X109904Y67697D01*
X109803Y67722D01*
X109704Y67752D01*
X109684Y67752D01*
X109665Y67757D01*
X109562Y67749D01*
X109459Y67746D01*
X109440Y67739D01*
X109420Y67738D01*
X109325Y67697D01*
X109228Y67662D01*
X109212Y67649D01*
X109194Y67641D01*
X109063Y67536D01*
X108836Y67309D01*
X102492Y67309D01*
X102138Y67663D01*
X102122Y67675D01*
X102110Y67691D01*
X102023Y67747D01*
X101939Y67807D01*
X101920Y67813D01*
X101903Y67824D01*
X101802Y67849D01*
X101703Y67879D01*
X101684Y67879D01*
X101664Y67884D01*
X101561Y67876D01*
X101458Y67873D01*
X101439Y67866D01*
X101419Y67865D01*
X101324Y67824D01*
X101227Y67789D01*
X101211Y67776D01*
X101193Y67768D01*
X101062Y67663D01*
X100708Y67309D01*
X94364Y67309D01*
X94137Y67536D01*
X94121Y67548D01*
X94109Y67564D01*
X94021Y67620D01*
X93938Y67680D01*
X93919Y67686D01*
X93902Y67697D01*
X93801Y67722D01*
X93702Y67752D01*
X93682Y67752D01*
X93663Y67757D01*
X93560Y67749D01*
X93457Y67746D01*
X93438Y67739D01*
X93418Y67738D01*
X93323Y67697D01*
X93226Y67662D01*
X93210Y67649D01*
X93192Y67641D01*
X93061Y67536D01*
X92834Y67309D01*
X86490Y67309D01*
X86136Y67663D01*
X86120Y67675D01*
X86108Y67691D01*
X86021Y67747D01*
X85937Y67807D01*
X85918Y67813D01*
X85901Y67824D01*
X85800Y67849D01*
X85701Y67879D01*
X85682Y67879D01*
X85662Y67884D01*
X85559Y67876D01*
X85456Y67873D01*
X85437Y67866D01*
X85417Y67865D01*
X85322Y67824D01*
X85225Y67789D01*
X85209Y67776D01*
X85191Y67768D01*
X85060Y67663D01*
X84706Y67309D01*
X78584Y67309D01*
X78494Y67295D01*
X78403Y67287D01*
X78373Y67275D01*
X78341Y67270D01*
X78260Y67227D01*
X78176Y67191D01*
X78144Y67165D01*
X78124Y67154D01*
X78101Y67131D01*
X78045Y67086D01*
X77760Y66801D01*
X77181Y66466D01*
X76534Y66293D01*
X74929Y66293D01*
X74929Y75692D01*
X74926Y75711D01*
X74928Y75731D01*
X74906Y75833D01*
X74890Y75935D01*
X74880Y75952D01*
X74876Y75972D01*
X74823Y76061D01*
X74774Y76152D01*
X74760Y76166D01*
X74750Y76183D01*
X74725Y76204D01*
X74726Y76205D01*
X74798Y76280D01*
X74806Y76298D01*
X74819Y76313D01*
X74858Y76410D01*
X74901Y76503D01*
X74903Y76523D01*
X74911Y76541D01*
X74929Y76708D01*
X74929Y86107D01*
X76534Y86107D01*
X76612Y86086D01*
X76660Y86081D01*
X76706Y86067D01*
X76782Y86069D01*
X76857Y86061D01*
X76904Y86072D01*
X76952Y86073D01*
X77023Y86099D01*
X77097Y86116D01*
X77138Y86141D01*
X77183Y86158D01*
X77242Y86205D01*
X77307Y86245D01*
X77337Y86282D01*
X77375Y86312D01*
X77416Y86375D01*
X77464Y86433D01*
X77482Y86478D01*
X77508Y86518D01*
X77526Y86592D01*
X77554Y86663D01*
X77556Y86710D01*
X77568Y86757D01*
X77562Y86833D01*
X77566Y86908D01*
X77553Y86954D01*
X77549Y87002D01*
X77519Y87072D01*
X77498Y87145D01*
X77471Y87184D01*
X77453Y87229D01*
X77372Y87329D01*
X77359Y87348D01*
X77354Y87352D01*
X77348Y87359D01*
X76989Y87718D01*
X76989Y92114D01*
X80098Y95223D01*
X84494Y95223D01*
X87603Y92114D01*
X87603Y87718D01*
X86275Y86390D01*
X86233Y86332D01*
X86184Y86280D01*
X86162Y86233D01*
X86132Y86191D01*
X86110Y86122D01*
X86080Y86057D01*
X86075Y86005D01*
X86059Y85955D01*
X86061Y85884D01*
X86053Y85813D01*
X86064Y85762D01*
X86066Y85710D01*
X86090Y85642D01*
X86105Y85572D01*
X86132Y85527D01*
X86150Y85479D01*
X86195Y85423D01*
X86232Y85361D01*
X86271Y85327D01*
X86304Y85287D01*
X86364Y85248D01*
X86419Y85201D01*
X86467Y85182D01*
X86511Y85154D01*
X86580Y85136D01*
X86647Y85109D01*
X86718Y85101D01*
X86749Y85093D01*
X86772Y85095D01*
X86813Y85091D01*
X92834Y85091D01*
X93061Y84864D01*
X93077Y84852D01*
X93089Y84836D01*
X93176Y84780D01*
X93260Y84720D01*
X93279Y84714D01*
X93296Y84703D01*
X93397Y84678D01*
X93495Y84648D01*
X93515Y84648D01*
X93535Y84643D01*
X93638Y84651D01*
X93741Y84654D01*
X93760Y84661D01*
X93780Y84662D01*
X93875Y84703D01*
X93972Y84738D01*
X93988Y84751D01*
X94006Y84759D01*
X94137Y84864D01*
X94364Y85091D01*
X100708Y85091D01*
X101062Y84737D01*
X101078Y84725D01*
X101090Y84709D01*
X101177Y84653D01*
X101261Y84593D01*
X101280Y84587D01*
X101297Y84576D01*
X101398Y84551D01*
X101497Y84521D01*
X101516Y84521D01*
X101536Y84516D01*
X101639Y84524D01*
X101742Y84527D01*
X101761Y84534D01*
X101781Y84535D01*
X101876Y84576D01*
X101973Y84611D01*
X101989Y84624D01*
X102007Y84632D01*
X102138Y84737D01*
X102492Y85091D01*
X108836Y85091D01*
X109063Y84864D01*
X109079Y84852D01*
X109091Y84836D01*
X109178Y84780D01*
X109262Y84720D01*
X109281Y84714D01*
X109298Y84703D01*
X109399Y84678D01*
X109497Y84648D01*
X109517Y84648D01*
X109537Y84643D01*
X109640Y84651D01*
X109743Y84654D01*
X109762Y84661D01*
X109782Y84662D01*
X109877Y84703D01*
X109974Y84738D01*
X109990Y84751D01*
X110008Y84759D01*
X110139Y84864D01*
X110366Y85091D01*
X116710Y85091D01*
X117064Y84737D01*
X117080Y84725D01*
X117092Y84709D01*
X117179Y84653D01*
X117263Y84593D01*
X117282Y84587D01*
X117299Y84576D01*
X117400Y84551D01*
X117499Y84521D01*
X117518Y84521D01*
X117538Y84516D01*
X117641Y84524D01*
X117744Y84527D01*
X117763Y84534D01*
X117783Y84535D01*
X117878Y84576D01*
X117975Y84611D01*
X117991Y84624D01*
X118009Y84632D01*
X118140Y84737D01*
X118494Y85091D01*
X124838Y85091D01*
X125065Y84864D01*
X125081Y84852D01*
X125093Y84836D01*
X125180Y84780D01*
X125264Y84720D01*
X125283Y84714D01*
X125300Y84703D01*
X125401Y84678D01*
X125499Y84648D01*
X125519Y84648D01*
X125539Y84643D01*
X125642Y84651D01*
X125745Y84654D01*
X125764Y84661D01*
X125784Y84662D01*
X125879Y84703D01*
X125976Y84738D01*
X125992Y84751D01*
X126010Y84759D01*
X126141Y84864D01*
X126368Y85091D01*
X132712Y85091D01*
X133066Y84737D01*
X133082Y84725D01*
X133094Y84709D01*
X133181Y84653D01*
X133265Y84593D01*
X133284Y84587D01*
X133301Y84576D01*
X133402Y84551D01*
X133501Y84521D01*
X133520Y84521D01*
X133540Y84516D01*
X133643Y84524D01*
X133746Y84527D01*
X133765Y84534D01*
X133785Y84535D01*
X133880Y84576D01*
X133977Y84611D01*
X133993Y84624D01*
X134011Y84632D01*
X134142Y84737D01*
X134650Y85245D01*
X134703Y85319D01*
X134763Y85388D01*
X134775Y85418D01*
X134794Y85444D01*
X134821Y85531D01*
X134855Y85616D01*
X134859Y85657D01*
X134866Y85679D01*
X134865Y85712D01*
X134873Y85783D01*
X134873Y173159D01*
X159062Y197348D01*
X159115Y197422D01*
X159175Y197492D01*
X159187Y197522D01*
X159206Y197548D01*
X159233Y197635D01*
X159267Y197720D01*
X159271Y197761D01*
X159278Y197783D01*
X159277Y197815D01*
X159285Y197887D01*
X159285Y201842D01*
X162394Y204951D01*
X166790Y204951D01*
X167610Y204131D01*
X167668Y204089D01*
X167720Y204040D01*
X167767Y204018D01*
X167809Y203988D01*
X167878Y203966D01*
X167943Y203936D01*
X167995Y203931D01*
X168045Y203915D01*
X168116Y203917D01*
X168187Y203909D01*
X168238Y203920D01*
X168290Y203922D01*
X168358Y203946D01*
X168428Y203961D01*
X168473Y203988D01*
X168521Y204006D01*
X168577Y204051D01*
X168639Y204088D01*
X168673Y204127D01*
X168713Y204160D01*
X168752Y204220D01*
X168799Y204275D01*
X168818Y204323D01*
X168846Y204367D01*
X168864Y204436D01*
X168891Y204503D01*
X168899Y204574D01*
X168907Y204605D01*
X168905Y204628D01*
X168909Y204669D01*
X168909Y207642D01*
X169136Y207869D01*
X169148Y207885D01*
X169164Y207897D01*
X169220Y207984D01*
X169280Y208068D01*
X169286Y208087D01*
X169297Y208104D01*
X169322Y208205D01*
X169352Y208303D01*
X169352Y208323D01*
X169357Y208343D01*
X169349Y208446D01*
X169346Y208549D01*
X169339Y208568D01*
X169338Y208588D01*
X169297Y208683D01*
X169262Y208780D01*
X169249Y208796D01*
X169241Y208814D01*
X169136Y208945D01*
X168909Y209172D01*
X168909Y215516D01*
X169802Y216409D01*
X175061Y216409D01*
X175131Y216420D01*
X175203Y216422D01*
X175252Y216440D01*
X175303Y216448D01*
X175367Y216482D01*
X175434Y216507D01*
X175475Y216539D01*
X175521Y216564D01*
X175570Y216616D01*
X175626Y216660D01*
X175654Y216704D01*
X175690Y216742D01*
X175720Y216807D01*
X175759Y216867D01*
X175772Y216918D01*
X175794Y216965D01*
X175802Y217036D01*
X175819Y217106D01*
X175815Y217158D01*
X175821Y217209D01*
X175806Y217280D01*
X175800Y217351D01*
X175780Y217399D01*
X175769Y217450D01*
X175732Y217511D01*
X175704Y217577D01*
X175659Y217633D01*
X175642Y217661D01*
X175625Y217676D01*
X175599Y217708D01*
X173001Y220306D01*
X173001Y224702D01*
X173313Y225014D01*
X173355Y225072D01*
X173404Y225124D01*
X173426Y225171D01*
X173456Y225213D01*
X173478Y225282D01*
X173508Y225347D01*
X173513Y225399D01*
X173529Y225449D01*
X173527Y225520D01*
X173535Y225591D01*
X173524Y225642D01*
X173522Y225694D01*
X173498Y225762D01*
X173483Y225832D01*
X173456Y225877D01*
X173438Y225925D01*
X173393Y225981D01*
X173356Y226043D01*
X173317Y226077D01*
X173284Y226117D01*
X173224Y226156D01*
X173169Y226203D01*
X173121Y226222D01*
X173077Y226250D01*
X173008Y226268D01*
X172941Y226295D01*
X172870Y226303D01*
X172839Y226311D01*
X172816Y226309D01*
X172775Y226313D01*
X166370Y226313D01*
X166350Y226310D01*
X166331Y226312D01*
X166229Y226290D01*
X166127Y226274D01*
X166110Y226264D01*
X166090Y226260D01*
X166001Y226207D01*
X165910Y226158D01*
X165896Y226144D01*
X165879Y226134D01*
X165812Y226055D01*
X165740Y225980D01*
X165732Y225962D01*
X165719Y225947D01*
X165680Y225851D01*
X165637Y225757D01*
X165635Y225737D01*
X165627Y225719D01*
X165609Y225552D01*
X165609Y220602D01*
X164716Y219709D01*
X158372Y219709D01*
X158145Y219936D01*
X158129Y219948D01*
X158117Y219964D01*
X158030Y220020D01*
X157946Y220080D01*
X157927Y220086D01*
X157910Y220097D01*
X157809Y220122D01*
X157711Y220152D01*
X157691Y220152D01*
X157671Y220157D01*
X157568Y220149D01*
X157465Y220146D01*
X157446Y220139D01*
X157426Y220138D01*
X157331Y220097D01*
X157234Y220062D01*
X157218Y220049D01*
X157200Y220041D01*
X157069Y219936D01*
X156842Y219709D01*
X150498Y219709D01*
X150144Y220063D01*
X150128Y220075D01*
X150116Y220091D01*
X150041Y220138D01*
X150022Y220155D01*
X150010Y220160D01*
X149945Y220207D01*
X149926Y220213D01*
X149909Y220224D01*
X149808Y220249D01*
X149709Y220279D01*
X149690Y220279D01*
X149670Y220284D01*
X149567Y220276D01*
X149464Y220273D01*
X149445Y220266D01*
X149425Y220265D01*
X149330Y220224D01*
X149233Y220189D01*
X149217Y220176D01*
X149199Y220168D01*
X149131Y220114D01*
X149125Y220111D01*
X149119Y220105D01*
X149068Y220063D01*
X148714Y219709D01*
X142592Y219709D01*
X142502Y219695D01*
X142411Y219687D01*
X142381Y219675D01*
X142349Y219670D01*
X142268Y219627D01*
X142184Y219591D01*
X142152Y219565D01*
X142132Y219554D01*
X142109Y219531D01*
X142053Y219486D01*
X141768Y219201D01*
X141189Y218866D01*
X140542Y218693D01*
X138937Y218693D01*
X138937Y228092D01*
X138934Y228111D01*
X138936Y228131D01*
X138914Y228233D01*
X138898Y228335D01*
X138888Y228352D01*
X138884Y228372D01*
X138831Y228461D01*
X138782Y228552D01*
X138768Y228566D01*
X138758Y228583D01*
X138733Y228604D01*
X138734Y228605D01*
X138806Y228680D01*
X138814Y228698D01*
X138827Y228713D01*
X138866Y228810D01*
X138909Y228903D01*
X138911Y228923D01*
X138919Y228941D01*
X138937Y229108D01*
X138937Y238507D01*
X140543Y238507D01*
X141189Y238334D01*
X141768Y237999D01*
X142053Y237714D01*
X142127Y237661D01*
X142197Y237601D01*
X142227Y237589D01*
X142253Y237570D01*
X142340Y237543D01*
X142425Y237509D01*
X142466Y237505D01*
X142488Y237498D01*
X142520Y237499D01*
X142592Y237491D01*
X148714Y237491D01*
X149068Y237137D01*
X149084Y237125D01*
X149096Y237109D01*
X149183Y237053D01*
X149267Y236993D01*
X149286Y236987D01*
X149303Y236976D01*
X149404Y236951D01*
X149503Y236921D01*
X149522Y236921D01*
X149542Y236916D01*
X149645Y236924D01*
X149748Y236927D01*
X149767Y236934D01*
X149787Y236935D01*
X149882Y236976D01*
X149979Y237011D01*
X149995Y237024D01*
X150013Y237032D01*
X150144Y237137D01*
X150498Y237491D01*
X150876Y237491D01*
X150896Y237494D01*
X150915Y237492D01*
X151017Y237514D01*
X151119Y237530D01*
X151136Y237540D01*
X151156Y237544D01*
X151245Y237597D01*
X151336Y237646D01*
X151350Y237660D01*
X151367Y237670D01*
X151434Y237749D01*
X151506Y237824D01*
X151514Y237842D01*
X151527Y237857D01*
X151566Y237953D01*
X151609Y238047D01*
X151611Y238067D01*
X151619Y238085D01*
X151637Y238252D01*
X151637Y253245D01*
X151623Y253336D01*
X151615Y253426D01*
X151603Y253456D01*
X151598Y253488D01*
X151555Y253569D01*
X151519Y253653D01*
X151493Y253685D01*
X151482Y253706D01*
X151459Y253728D01*
X151414Y253784D01*
X145541Y259657D01*
X145541Y316415D01*
X162082Y332956D01*
X162135Y333030D01*
X162195Y333100D01*
X162207Y333130D01*
X162226Y333156D01*
X162253Y333243D01*
X162287Y333328D01*
X162291Y333369D01*
X162298Y333391D01*
X162297Y333423D01*
X162305Y333495D01*
X162305Y334010D01*
X162302Y334030D01*
X162304Y334049D01*
X162282Y334151D01*
X162266Y334253D01*
X162256Y334270D01*
X162252Y334290D01*
X162199Y334379D01*
X162150Y334470D01*
X162136Y334484D01*
X162126Y334501D01*
X162047Y334568D01*
X161972Y334640D01*
X161954Y334648D01*
X161939Y334661D01*
X161843Y334700D01*
X161772Y334733D01*
X156971Y339533D01*
X156971Y346267D01*
X159162Y348458D01*
X159204Y348516D01*
X159253Y348568D01*
X159275Y348615D01*
X159306Y348657D01*
X159327Y348726D01*
X159357Y348791D01*
X159363Y348843D01*
X159378Y348893D01*
X159376Y348964D01*
X159384Y349035D01*
X159373Y349086D01*
X159372Y349138D01*
X159347Y349206D01*
X159332Y349276D01*
X159305Y349321D01*
X159287Y349369D01*
X159242Y349425D01*
X159205Y349487D01*
X159166Y349521D01*
X159133Y349561D01*
X159073Y349600D01*
X159019Y349647D01*
X158970Y349666D01*
X158926Y349694D01*
X158857Y349712D01*
X158790Y349739D01*
X158719Y349747D01*
X158688Y349755D01*
X158665Y349753D01*
X158624Y349757D01*
X158235Y349757D01*
X158144Y349743D01*
X158054Y349735D01*
X158024Y349723D01*
X157992Y349718D01*
X157911Y349675D01*
X157827Y349639D01*
X157795Y349613D01*
X157774Y349602D01*
X157752Y349579D01*
X157696Y349534D01*
X154910Y346748D01*
X154857Y346674D01*
X154797Y346604D01*
X154785Y346574D01*
X154766Y346548D01*
X154739Y346461D01*
X154705Y346376D01*
X154701Y346335D01*
X154694Y346313D01*
X154695Y346281D01*
X154687Y346209D01*
X154687Y331285D01*
X109151Y285749D01*
X37839Y285749D01*
X37748Y285735D01*
X37658Y285727D01*
X37628Y285715D01*
X37596Y285710D01*
X37515Y285667D01*
X37431Y285631D01*
X37399Y285605D01*
X37378Y285594D01*
X37364Y285579D01*
X37362Y285578D01*
X37353Y285568D01*
X37300Y285526D01*
X23846Y272072D01*
X23793Y271998D01*
X23733Y271928D01*
X23721Y271898D01*
X23702Y271872D01*
X23675Y271785D01*
X23641Y271700D01*
X23637Y271659D01*
X23630Y271637D01*
X23631Y271605D01*
X23623Y271533D01*
X23623Y231387D01*
X23637Y231296D01*
X23645Y231206D01*
X23657Y231176D01*
X23662Y231144D01*
X23705Y231063D01*
X23741Y230979D01*
X23767Y230947D01*
X23778Y230926D01*
X23801Y230904D01*
X23846Y230848D01*
X35812Y218882D01*
X35832Y218868D01*
X35847Y218849D01*
X35931Y218796D01*
X36012Y218738D01*
X36035Y218731D01*
X36055Y218718D01*
X36152Y218695D01*
X36247Y218666D01*
X36271Y218666D01*
X36295Y218661D01*
X36394Y218669D01*
X36493Y218672D01*
X36516Y218680D01*
X36540Y218682D01*
X36586Y218703D01*
X36579Y218675D01*
X36549Y218580D01*
X36549Y218556D01*
X36543Y218533D01*
X36551Y218434D01*
X36553Y218334D01*
X36561Y218312D01*
X36562Y218288D01*
X36601Y218196D01*
X36634Y218102D01*
X36649Y218083D01*
X36659Y218061D01*
X36764Y217930D01*
X40387Y214307D01*
X40387Y140785D01*
X37523Y137921D01*
X35052Y137921D01*
X35032Y137918D01*
X35013Y137920D01*
X34911Y137898D01*
X34809Y137882D01*
X34792Y137872D01*
X34772Y137868D01*
X34683Y137815D01*
X34592Y137766D01*
X34578Y137752D01*
X34561Y137742D01*
X34494Y137663D01*
X34422Y137588D01*
X34414Y137570D01*
X34401Y137555D01*
X34362Y137459D01*
X34319Y137365D01*
X34317Y137345D01*
X34309Y137327D01*
X34307Y137307D01*
X33937Y136936D01*
X33925Y136920D01*
X33909Y136908D01*
X33853Y136821D01*
X33793Y136737D01*
X33787Y136718D01*
X33776Y136701D01*
X33751Y136600D01*
X33721Y136501D01*
X33721Y136482D01*
X33716Y136462D01*
X33724Y136359D01*
X33727Y136256D01*
X33734Y136237D01*
X33735Y136217D01*
X33776Y136122D01*
X33811Y136025D01*
X33824Y136009D01*
X33832Y135991D01*
X33937Y135860D01*
X34291Y135506D01*
X34291Y129162D01*
X34064Y128935D01*
X34052Y128919D01*
X34036Y128907D01*
X33980Y128820D01*
X33920Y128736D01*
X33914Y128717D01*
X33903Y128700D01*
X33878Y128599D01*
X33848Y128501D01*
X33848Y128481D01*
X33843Y128461D01*
X33851Y128358D01*
X33854Y128255D01*
X33861Y128236D01*
X33862Y128216D01*
X33903Y128121D01*
X33938Y128024D01*
X33951Y128008D01*
X33959Y127990D01*
X34064Y127859D01*
X34291Y127632D01*
X34291Y121288D01*
X33937Y120934D01*
X33925Y120918D01*
X33909Y120906D01*
X33853Y120819D01*
X33793Y120735D01*
X33787Y120716D01*
X33776Y120699D01*
X33751Y120598D01*
X33721Y120499D01*
X33721Y120480D01*
X33716Y120460D01*
X33724Y120357D01*
X33727Y120254D01*
X33734Y120235D01*
X33735Y120215D01*
X33776Y120120D01*
X33811Y120023D01*
X33824Y120007D01*
X33832Y119989D01*
X33937Y119858D01*
X34291Y119504D01*
X34291Y113160D01*
X34064Y112933D01*
X34052Y112917D01*
X34036Y112905D01*
X33980Y112818D01*
X33920Y112734D01*
X33914Y112715D01*
X33903Y112698D01*
X33878Y112597D01*
X33848Y112499D01*
X33848Y112479D01*
X33843Y112459D01*
X33851Y112356D01*
X33854Y112253D01*
X33861Y112234D01*
X33862Y112214D01*
X33903Y112119D01*
X33938Y112022D01*
X33951Y112006D01*
X33959Y111988D01*
X34064Y111857D01*
X34291Y111630D01*
X34291Y105286D01*
X33937Y104932D01*
X33925Y104916D01*
X33909Y104904D01*
X33853Y104817D01*
X33793Y104733D01*
X33787Y104714D01*
X33776Y104697D01*
X33751Y104596D01*
X33721Y104497D01*
X33721Y104478D01*
X33716Y104458D01*
X33724Y104355D01*
X33727Y104252D01*
X33734Y104233D01*
X33735Y104213D01*
X33776Y104118D01*
X33811Y104021D01*
X33824Y104005D01*
X33832Y103987D01*
X33937Y103856D01*
X34291Y103502D01*
X34291Y97158D01*
X34064Y96931D01*
X34052Y96915D01*
X34036Y96903D01*
X33980Y96816D01*
X33920Y96732D01*
X33914Y96713D01*
X33903Y96696D01*
X33878Y96595D01*
X33848Y96497D01*
X33848Y96477D01*
X33843Y96457D01*
X33851Y96354D01*
X33854Y96251D01*
X33861Y96232D01*
X33862Y96212D01*
X33903Y96117D01*
X33938Y96020D01*
X33951Y96004D01*
X33959Y95986D01*
X34064Y95855D01*
X34291Y95628D01*
X34291Y89284D01*
X33398Y88391D01*
X17402Y88391D01*
X16509Y89284D01*
X16509Y95628D01*
X16736Y95855D01*
X16748Y95871D01*
X16764Y95883D01*
X16820Y95971D01*
X16880Y96054D01*
X16886Y96073D01*
X16897Y96090D01*
X16922Y96191D01*
X16952Y96290D01*
X16952Y96310D01*
X16957Y96329D01*
X16949Y96432D01*
X16946Y96535D01*
X16939Y96554D01*
X16938Y96574D01*
X16897Y96669D01*
X16862Y96766D01*
X16849Y96782D01*
X16841Y96800D01*
X16736Y96931D01*
X16509Y97158D01*
X16509Y103502D01*
X16863Y103856D01*
X16875Y103872D01*
X16891Y103884D01*
X16947Y103971D01*
X17007Y104055D01*
X17013Y104074D01*
X17024Y104091D01*
X17049Y104192D01*
X17079Y104291D01*
X17079Y104310D01*
X17084Y104330D01*
X17076Y104433D01*
X17073Y104536D01*
X17066Y104555D01*
X17065Y104575D01*
X17024Y104670D01*
X16989Y104767D01*
X16976Y104783D01*
X16968Y104801D01*
X16863Y104932D01*
X16509Y105286D01*
X16509Y111630D01*
X16736Y111857D01*
X16748Y111873D01*
X16764Y111885D01*
X16820Y111973D01*
X16880Y112056D01*
X16886Y112075D01*
X16897Y112092D01*
X16922Y112193D01*
X16952Y112292D01*
X16952Y112312D01*
X16957Y112331D01*
X16949Y112434D01*
X16946Y112537D01*
X16939Y112556D01*
X16938Y112576D01*
X16897Y112671D01*
X16862Y112768D01*
X16849Y112784D01*
X16841Y112802D01*
X16736Y112933D01*
X16509Y113160D01*
X16509Y119504D01*
X16863Y119858D01*
X16875Y119874D01*
X16891Y119886D01*
X16947Y119973D01*
X17007Y120057D01*
X17013Y120076D01*
X17024Y120093D01*
X17049Y120194D01*
X17079Y120293D01*
X17079Y120312D01*
X17084Y120332D01*
X17076Y120435D01*
X17073Y120538D01*
X17066Y120557D01*
X17065Y120577D01*
X17024Y120672D01*
X16989Y120769D01*
X16976Y120785D01*
X16968Y120803D01*
X16863Y120934D01*
X16509Y121288D01*
X16509Y127632D01*
X16736Y127859D01*
X16748Y127875D01*
X16764Y127887D01*
X16820Y127975D01*
X16880Y128058D01*
X16886Y128077D01*
X16897Y128094D01*
X16922Y128194D01*
X16952Y128294D01*
X16952Y128314D01*
X16957Y128333D01*
X16949Y128436D01*
X16946Y128539D01*
X16939Y128558D01*
X16938Y128578D01*
X16897Y128673D01*
X16862Y128770D01*
X16849Y128786D01*
X16841Y128804D01*
X16736Y128935D01*
X16509Y129162D01*
X16509Y135506D01*
X16863Y135860D01*
X16875Y135876D01*
X16891Y135888D01*
X16947Y135975D01*
X17007Y136059D01*
X17013Y136078D01*
X17024Y136095D01*
X17049Y136196D01*
X17079Y136295D01*
X17079Y136314D01*
X17084Y136334D01*
X17076Y136437D01*
X17073Y136540D01*
X17066Y136559D01*
X17065Y136579D01*
X17024Y136674D01*
X16989Y136771D01*
X16976Y136787D01*
X16968Y136805D01*
X16863Y136936D01*
X16509Y137290D01*
X16509Y143634D01*
X16736Y143861D01*
X16748Y143877D01*
X16764Y143889D01*
X16820Y143977D01*
X16880Y144060D01*
X16886Y144079D01*
X16897Y144096D01*
X16922Y144197D01*
X16952Y144296D01*
X16952Y144316D01*
X16957Y144335D01*
X16949Y144438D01*
X16946Y144541D01*
X16939Y144560D01*
X16938Y144580D01*
X16897Y144675D01*
X16862Y144772D01*
X16849Y144788D01*
X16841Y144806D01*
X16736Y144937D01*
X16509Y145164D01*
X16509Y151508D01*
X16863Y151862D01*
X16875Y151878D01*
X16891Y151890D01*
X16947Y151977D01*
X17007Y152061D01*
X17013Y152080D01*
X17024Y152097D01*
X17049Y152198D01*
X17079Y152297D01*
X17079Y152316D01*
X17084Y152336D01*
X17076Y152439D01*
X17073Y152542D01*
X17066Y152561D01*
X17065Y152581D01*
X17024Y152676D01*
X16989Y152773D01*
X16976Y152789D01*
X16968Y152807D01*
X16863Y152938D01*
X16509Y153292D01*
X16509Y159636D01*
X16736Y159863D01*
X16748Y159879D01*
X16764Y159891D01*
X16820Y159979D01*
X16880Y160062D01*
X16886Y160081D01*
X16897Y160098D01*
X16922Y160199D01*
X16952Y160298D01*
X16952Y160318D01*
X16957Y160337D01*
X16949Y160440D01*
X16946Y160543D01*
X16939Y160562D01*
X16938Y160582D01*
X16897Y160677D01*
X16862Y160774D01*
X16849Y160790D01*
X16841Y160808D01*
X16736Y160939D01*
X16509Y161166D01*
X16509Y167510D01*
X16863Y167864D01*
X16875Y167880D01*
X16891Y167892D01*
X16947Y167979D01*
X17007Y168063D01*
X17013Y168082D01*
X17024Y168099D01*
X17049Y168200D01*
X17079Y168299D01*
X17079Y168318D01*
X17084Y168338D01*
X17076Y168441D01*
X17073Y168544D01*
X17066Y168563D01*
X17065Y168583D01*
X17024Y168678D01*
X16989Y168775D01*
X16976Y168791D01*
X16968Y168809D01*
X16863Y168940D01*
X16509Y169294D01*
X16509Y175638D01*
X16736Y175865D01*
X16748Y175881D01*
X16764Y175893D01*
X16820Y175981D01*
X16880Y176064D01*
X16886Y176083D01*
X16897Y176100D01*
X16922Y176201D01*
X16952Y176300D01*
X16952Y176320D01*
X16957Y176339D01*
X16949Y176442D01*
X16946Y176545D01*
X16939Y176564D01*
X16938Y176584D01*
X16897Y176679D01*
X16862Y176776D01*
X16849Y176792D01*
X16841Y176810D01*
X16736Y176941D01*
X16509Y177168D01*
X16509Y183512D01*
X16863Y183866D01*
X16875Y183882D01*
X16891Y183894D01*
X16947Y183981D01*
X17007Y184065D01*
X17013Y184084D01*
X17024Y184101D01*
X17049Y184202D01*
X17079Y184301D01*
X17079Y184320D01*
X17084Y184340D01*
X17076Y184443D01*
X17073Y184546D01*
X17066Y184565D01*
X17065Y184585D01*
X17024Y184680D01*
X16989Y184777D01*
X16976Y184793D01*
X16968Y184811D01*
X16863Y184942D01*
X16509Y185296D01*
X16509Y191640D01*
X16736Y191867D01*
X16748Y191883D01*
X16764Y191895D01*
X16820Y191983D01*
X16880Y192066D01*
X16886Y192085D01*
X16897Y192102D01*
X16922Y192203D01*
X16952Y192302D01*
X16952Y192322D01*
X16957Y192341D01*
X16949Y192444D01*
X16946Y192547D01*
X16939Y192566D01*
X16938Y192586D01*
X16897Y192681D01*
X16862Y192778D01*
X16849Y192794D01*
X16841Y192812D01*
X16736Y192943D01*
X16509Y193170D01*
X16509Y199514D01*
X16863Y199868D01*
X16875Y199884D01*
X16891Y199896D01*
X16947Y199983D01*
X17007Y200067D01*
X17013Y200086D01*
X17024Y200103D01*
X17049Y200204D01*
X17079Y200303D01*
X17079Y200322D01*
X17084Y200342D01*
X17076Y200445D01*
X17073Y200548D01*
X17066Y200567D01*
X17065Y200587D01*
X17024Y200682D01*
X16989Y200779D01*
X16976Y200795D01*
X16968Y200813D01*
X16863Y200944D01*
X16509Y201298D01*
X16509Y207642D01*
X16736Y207869D01*
X16748Y207885D01*
X16764Y207897D01*
X16820Y207985D01*
X16880Y208068D01*
X16886Y208087D01*
X16897Y208104D01*
X16922Y208205D01*
X16952Y208304D01*
X16952Y208324D01*
X16957Y208343D01*
X16949Y208446D01*
X16946Y208549D01*
X16939Y208568D01*
X16938Y208588D01*
X16897Y208683D01*
X16862Y208780D01*
X16849Y208796D01*
X16841Y208814D01*
X16736Y208945D01*
X16509Y209172D01*
X16509Y215516D01*
X17402Y216409D01*
X29980Y216409D01*
X30050Y216420D01*
X30122Y216422D01*
X30171Y216440D01*
X30222Y216448D01*
X30286Y216482D01*
X30353Y216507D01*
X30394Y216539D01*
X30440Y216564D01*
X30489Y216616D01*
X30545Y216660D01*
X30573Y216704D01*
X30609Y216742D01*
X30639Y216807D01*
X30678Y216867D01*
X30691Y216918D01*
X30713Y216965D01*
X30721Y217036D01*
X30738Y217106D01*
X30734Y217158D01*
X30740Y217209D01*
X30725Y217280D01*
X30719Y217351D01*
X30699Y217399D01*
X30688Y217450D01*
X30651Y217511D01*
X30623Y217577D01*
X30578Y217633D01*
X30561Y217661D01*
X30544Y217676D01*
X30518Y217708D01*
X20612Y227614D01*
X19049Y229177D01*
X19049Y273743D01*
X35629Y290323D01*
X106941Y290323D01*
X107032Y290337D01*
X107122Y290345D01*
X107152Y290357D01*
X107184Y290362D01*
X107265Y290405D01*
X107349Y290441D01*
X107381Y290467D01*
X107402Y290478D01*
X107424Y290501D01*
X107480Y290546D01*
X149890Y332956D01*
X149943Y333030D01*
X150003Y333100D01*
X150015Y333130D01*
X150034Y333156D01*
X150061Y333243D01*
X150095Y333328D01*
X150099Y333369D01*
X150106Y333391D01*
X150105Y333423D01*
X150113Y333495D01*
X150113Y346210D01*
X150102Y346280D01*
X150100Y346352D01*
X150082Y346401D01*
X150074Y346452D01*
X150040Y346516D01*
X150015Y346583D01*
X149983Y346624D01*
X149958Y346670D01*
X149906Y346719D01*
X149862Y346775D01*
X149818Y346803D01*
X149780Y346839D01*
X149715Y346869D01*
X149655Y346908D01*
X149604Y346921D01*
X149557Y346943D01*
X149486Y346951D01*
X149416Y346968D01*
X149364Y346964D01*
X149313Y346970D01*
X149242Y346955D01*
X149171Y346949D01*
X149123Y346929D01*
X149072Y346918D01*
X149011Y346881D01*
X148945Y346853D01*
X148889Y346808D01*
X148861Y346791D01*
X148846Y346774D01*
X148814Y346748D01*
X113483Y311417D01*
X113471Y311401D01*
X113455Y311388D01*
X113399Y311301D01*
X113339Y311217D01*
X113333Y311198D01*
X113322Y311181D01*
X113297Y311081D01*
X113267Y310982D01*
X113267Y310962D01*
X113262Y310943D01*
X113270Y310840D01*
X113273Y310736D01*
X113280Y310717D01*
X113281Y310697D01*
X113322Y310602D01*
X113358Y310505D01*
X113370Y310489D01*
X113378Y310471D01*
X113461Y310367D01*
X113463Y310364D01*
X113466Y310361D01*
X113483Y310340D01*
X113920Y309903D01*
X113920Y299697D01*
X106703Y292480D01*
X96497Y292480D01*
X89280Y299697D01*
X89280Y309903D01*
X96497Y317120D01*
X96909Y317120D01*
X96979Y317131D01*
X97051Y317133D01*
X97100Y317151D01*
X97151Y317159D01*
X97215Y317193D01*
X97282Y317218D01*
X97323Y317250D01*
X97369Y317275D01*
X97418Y317326D01*
X97474Y317371D01*
X97502Y317415D01*
X97538Y317453D01*
X97568Y317518D01*
X97607Y317578D01*
X97620Y317629D01*
X97642Y317676D01*
X97650Y317747D01*
X97667Y317817D01*
X97663Y317869D01*
X97669Y317920D01*
X97654Y317991D01*
X97648Y318062D01*
X97628Y318110D01*
X97617Y318161D01*
X97580Y318222D01*
X97552Y318288D01*
X97507Y318344D01*
X97490Y318372D01*
X97473Y318387D01*
X97447Y318419D01*
X42769Y373097D01*
X42753Y373109D01*
X42741Y373124D01*
X42653Y373180D01*
X42569Y373240D01*
X42550Y373246D01*
X42534Y373257D01*
X42433Y373282D01*
X42334Y373313D01*
X42314Y373312D01*
X42295Y373317D01*
X42192Y373309D01*
X42088Y373306D01*
X42070Y373300D01*
X42050Y373298D01*
X41955Y373258D01*
X41857Y373222D01*
X41842Y373209D01*
X41824Y373202D01*
X41693Y373097D01*
X41467Y372871D01*
X34733Y372871D01*
X29971Y377633D01*
X29971Y384367D01*
X34733Y389129D01*
X41467Y389129D01*
X46229Y384367D01*
X46229Y377633D01*
X46003Y377407D01*
X45991Y377391D01*
X45976Y377379D01*
X45920Y377292D01*
X45860Y377208D01*
X45854Y377189D01*
X45843Y377172D01*
X45818Y377071D01*
X45787Y376973D01*
X45788Y376953D01*
X45783Y376933D01*
X45791Y376830D01*
X45794Y376727D01*
X45800Y376708D01*
X45802Y376688D01*
X45842Y376593D01*
X45878Y376496D01*
X45891Y376480D01*
X45898Y376462D01*
X46003Y376331D01*
X104991Y317343D01*
X105065Y317290D01*
X105135Y317230D01*
X105165Y317218D01*
X105191Y317199D01*
X105278Y317172D01*
X105363Y317138D01*
X105404Y317134D01*
X105426Y317127D01*
X105458Y317128D01*
X105530Y317120D01*
X106703Y317120D01*
X109172Y314651D01*
X109188Y314639D01*
X109201Y314623D01*
X109288Y314567D01*
X109372Y314507D01*
X109391Y314501D01*
X109408Y314490D01*
X109508Y314465D01*
X109607Y314435D01*
X109627Y314435D01*
X109646Y314430D01*
X109749Y314438D01*
X109853Y314441D01*
X109872Y314448D01*
X109891Y314449D01*
X109986Y314490D01*
X110084Y314526D01*
X110099Y314538D01*
X110118Y314546D01*
X110249Y314651D01*
X152977Y357379D01*
X155709Y357379D01*
X155800Y357393D01*
X155890Y357401D01*
X155920Y357413D01*
X155952Y357418D01*
X156033Y357461D01*
X156117Y357497D01*
X156149Y357523D01*
X156170Y357534D01*
X156192Y357557D01*
X156248Y357602D01*
X175798Y377152D01*
X175851Y377226D01*
X175911Y377296D01*
X175923Y377326D01*
X175942Y377352D01*
X175969Y377439D01*
X176003Y377524D01*
X176007Y377565D01*
X176014Y377587D01*
X176013Y377619D01*
X176021Y377691D01*
X176021Y384309D01*
X176007Y384400D01*
X175999Y384490D01*
X175987Y384520D01*
X175982Y384552D01*
X175939Y384633D01*
X175903Y384717D01*
X175877Y384749D01*
X175866Y384770D01*
X175843Y384792D01*
X175798Y384848D01*
X169964Y390682D01*
X169890Y390735D01*
X169820Y390795D01*
X169790Y390807D01*
X169764Y390826D01*
X169677Y390853D01*
X169592Y390887D01*
X169551Y390891D01*
X169529Y390898D01*
X169497Y390897D01*
X169425Y390905D01*
X168217Y390905D01*
X154064Y405058D01*
X153990Y405111D01*
X153920Y405171D01*
X153890Y405183D01*
X153864Y405202D01*
X153777Y405229D01*
X153692Y405263D01*
X153651Y405267D01*
X153629Y405274D01*
X153597Y405273D01*
X153525Y405281D01*
X145926Y405281D01*
X145033Y406174D01*
X145033Y413026D01*
X145819Y413812D01*
X145831Y413828D01*
X145847Y413840D01*
X145903Y413928D01*
X145963Y414011D01*
X145969Y414030D01*
X145980Y414047D01*
X146005Y414148D01*
X146035Y414247D01*
X146035Y414266D01*
X146040Y414286D01*
X146032Y414389D01*
X146029Y414492D01*
X146022Y414511D01*
X146021Y414531D01*
X145980Y414626D01*
X145945Y414723D01*
X145932Y414739D01*
X145924Y414757D01*
X145819Y414888D01*
X145033Y415674D01*
X145033Y422526D01*
X145819Y423312D01*
X145831Y423328D01*
X145847Y423340D01*
X145903Y423428D01*
X145963Y423511D01*
X145969Y423530D01*
X145980Y423547D01*
X146005Y423648D01*
X146035Y423747D01*
X146035Y423766D01*
X146040Y423786D01*
X146032Y423889D01*
X146029Y423992D01*
X146022Y424011D01*
X146021Y424031D01*
X145980Y424126D01*
X145945Y424223D01*
X145932Y424239D01*
X145924Y424257D01*
X145819Y424388D01*
X144969Y425239D01*
X144960Y425256D01*
X144935Y425323D01*
X144903Y425364D01*
X144878Y425410D01*
X144826Y425459D01*
X144782Y425515D01*
X144738Y425543D01*
X144700Y425579D01*
X144635Y425609D01*
X144575Y425648D01*
X144524Y425661D01*
X144477Y425683D01*
X144406Y425691D01*
X144336Y425708D01*
X144284Y425704D01*
X144233Y425710D01*
X144162Y425695D01*
X144091Y425689D01*
X144043Y425669D01*
X143992Y425658D01*
X143931Y425621D01*
X143865Y425593D01*
X143809Y425548D01*
X143781Y425531D01*
X143766Y425514D01*
X143734Y425488D01*
X142718Y424472D01*
X142665Y424398D01*
X142605Y424328D01*
X142593Y424298D01*
X142574Y424272D01*
X142547Y424185D01*
X142513Y424100D01*
X142509Y424059D01*
X142502Y424037D01*
X142503Y424005D01*
X142495Y423933D01*
X142495Y406647D01*
X142509Y406556D01*
X142517Y406466D01*
X142529Y406436D01*
X142534Y406404D01*
X142577Y406323D01*
X142613Y406239D01*
X142639Y406207D01*
X142650Y406186D01*
X142673Y406164D01*
X142718Y406108D01*
X160177Y388649D01*
X160193Y388637D01*
X160205Y388622D01*
X160293Y388566D01*
X160377Y388506D01*
X160396Y388500D01*
X160412Y388489D01*
X160513Y388464D01*
X160612Y388433D01*
X160632Y388434D01*
X160651Y388429D01*
X160754Y388437D01*
X160857Y388440D01*
X160876Y388446D01*
X160896Y388448D01*
X160991Y388488D01*
X161089Y388524D01*
X161104Y388537D01*
X161122Y388544D01*
X161253Y388649D01*
X161733Y389129D01*
X168467Y389129D01*
X173229Y384367D01*
X173229Y377633D01*
X168467Y372871D01*
X161733Y372871D01*
X156971Y377633D01*
X156971Y384369D01*
X157026Y384454D01*
X157086Y384538D01*
X157092Y384557D01*
X157103Y384574D01*
X157128Y384674D01*
X157159Y384773D01*
X157158Y384793D01*
X157163Y384813D01*
X157155Y384916D01*
X157152Y385019D01*
X157146Y385038D01*
X157144Y385058D01*
X157104Y385153D01*
X157068Y385250D01*
X157056Y385266D01*
X157048Y385284D01*
X156943Y385415D01*
X137921Y404437D01*
X137921Y426143D01*
X142309Y430531D01*
X144272Y430531D01*
X144292Y430534D01*
X144311Y430532D01*
X144413Y430554D01*
X144515Y430570D01*
X144532Y430580D01*
X144552Y430584D01*
X144641Y430637D01*
X144732Y430686D01*
X144746Y430700D01*
X144763Y430710D01*
X144830Y430789D01*
X144902Y430864D01*
X144910Y430882D01*
X144923Y430897D01*
X144962Y430993D01*
X145005Y431087D01*
X145007Y431107D01*
X145015Y431125D01*
X145033Y431292D01*
X145033Y432026D01*
X146047Y433040D01*
X146089Y433098D01*
X146139Y433150D01*
X146161Y433197D01*
X146191Y433239D01*
X146212Y433308D01*
X146242Y433373D01*
X146248Y433425D01*
X146263Y433475D01*
X146261Y433546D01*
X146269Y433617D01*
X146258Y433668D01*
X146257Y433720D01*
X146232Y433788D01*
X146217Y433858D01*
X146190Y433903D01*
X146173Y433951D01*
X146128Y434007D01*
X146091Y434069D01*
X146051Y434103D01*
X146019Y434143D01*
X145959Y434182D01*
X145904Y434229D01*
X145856Y434248D01*
X145812Y434276D01*
X145742Y434294D01*
X145676Y434321D01*
X145605Y434329D01*
X145573Y434337D01*
X145550Y434335D01*
X145509Y434339D01*
X10922Y434339D01*
X10902Y434336D01*
X10883Y434338D01*
X10781Y434316D01*
X10679Y434300D01*
X10662Y434290D01*
X10642Y434286D01*
X10553Y434233D01*
X10462Y434184D01*
X10448Y434170D01*
X10431Y434160D01*
X10364Y434081D01*
X10292Y434006D01*
X10284Y433988D01*
X10271Y433973D01*
X10232Y433877D01*
X10189Y433783D01*
X10187Y433763D01*
X10179Y433745D01*
X10161Y433578D01*
X10161Y10922D01*
X10164Y10902D01*
X10162Y10883D01*
X10184Y10781D01*
X10200Y10679D01*
X10210Y10662D01*
X10214Y10642D01*
X10267Y10553D01*
X10316Y10462D01*
X10330Y10448D01*
X10340Y10431D01*
X10419Y10364D01*
X10494Y10292D01*
X10512Y10284D01*
X10527Y10271D01*
X10623Y10232D01*
X10717Y10189D01*
X10737Y10187D01*
X10755Y10179D01*
X10922Y10161D01*
X344678Y10161D01*
X344698Y10164D01*
G37*
G36*
X211926Y221063D02*
X211926Y221063D01*
X211978Y221064D01*
X212046Y221089D01*
X212116Y221104D01*
X212161Y221131D01*
X212209Y221149D01*
X212265Y221193D01*
X212327Y221230D01*
X212361Y221270D01*
X212401Y221302D01*
X212440Y221363D01*
X212487Y221417D01*
X212506Y221465D01*
X212534Y221509D01*
X212552Y221579D01*
X212579Y221645D01*
X212587Y221717D01*
X212595Y221748D01*
X212593Y221771D01*
X212597Y221812D01*
X212597Y222765D01*
X212583Y222856D01*
X212575Y222946D01*
X212563Y222976D01*
X212558Y223008D01*
X212515Y223089D01*
X212479Y223173D01*
X212453Y223205D01*
X212442Y223226D01*
X212419Y223248D01*
X212374Y223304D01*
X198920Y236758D01*
X198846Y236811D01*
X198776Y236871D01*
X198746Y236883D01*
X198720Y236902D01*
X198633Y236929D01*
X198548Y236963D01*
X198507Y236967D01*
X198485Y236974D01*
X198453Y236973D01*
X198381Y236981D01*
X197173Y236981D01*
X186689Y247465D01*
X186689Y370594D01*
X186678Y370664D01*
X186676Y370736D01*
X186658Y370785D01*
X186650Y370836D01*
X186616Y370900D01*
X186591Y370967D01*
X186559Y371008D01*
X186534Y371054D01*
X186482Y371103D01*
X186438Y371159D01*
X186394Y371187D01*
X186356Y371223D01*
X186291Y371253D01*
X186231Y371292D01*
X186180Y371305D01*
X186133Y371327D01*
X186062Y371335D01*
X185992Y371352D01*
X185940Y371348D01*
X185889Y371354D01*
X185818Y371339D01*
X185747Y371333D01*
X185699Y371313D01*
X185648Y371302D01*
X185587Y371265D01*
X185521Y371237D01*
X185465Y371192D01*
X185437Y371175D01*
X185422Y371158D01*
X185390Y371132D01*
X176246Y361988D01*
X176193Y361914D01*
X176133Y361844D01*
X176121Y361814D01*
X176102Y361788D01*
X176075Y361701D01*
X176041Y361616D01*
X176037Y361575D01*
X176030Y361553D01*
X176031Y361521D01*
X176023Y361449D01*
X176023Y351097D01*
X172749Y347823D01*
X172737Y347807D01*
X172722Y347795D01*
X172666Y347707D01*
X172606Y347623D01*
X172600Y347604D01*
X172589Y347588D01*
X172564Y347487D01*
X172533Y347388D01*
X172534Y347368D01*
X172529Y347349D01*
X172537Y347246D01*
X172540Y347143D01*
X172546Y347124D01*
X172548Y347104D01*
X172588Y347009D01*
X172624Y346911D01*
X172637Y346896D01*
X172644Y346878D01*
X172749Y346747D01*
X173229Y346267D01*
X173229Y339533D01*
X168467Y334771D01*
X167640Y334771D01*
X167620Y334768D01*
X167601Y334770D01*
X167499Y334748D01*
X167397Y334732D01*
X167380Y334722D01*
X167360Y334718D01*
X167271Y334665D01*
X167180Y334616D01*
X167166Y334602D01*
X167149Y334592D01*
X167082Y334513D01*
X167010Y334438D01*
X167002Y334420D01*
X166989Y334405D01*
X166950Y334309D01*
X166907Y334215D01*
X166905Y334195D01*
X166897Y334177D01*
X166879Y334010D01*
X166879Y331285D01*
X150338Y314744D01*
X150285Y314670D01*
X150225Y314600D01*
X150213Y314570D01*
X150194Y314544D01*
X150167Y314457D01*
X150133Y314372D01*
X150129Y314331D01*
X150122Y314309D01*
X150123Y314277D01*
X150115Y314205D01*
X150115Y261867D01*
X150129Y261776D01*
X150137Y261686D01*
X150149Y261656D01*
X150154Y261624D01*
X150197Y261543D01*
X150233Y261459D01*
X150259Y261427D01*
X150270Y261406D01*
X150293Y261384D01*
X150338Y261328D01*
X156211Y255455D01*
X156211Y238252D01*
X156214Y238232D01*
X156212Y238213D01*
X156234Y238111D01*
X156250Y238009D01*
X156260Y237992D01*
X156264Y237972D01*
X156317Y237883D01*
X156366Y237792D01*
X156380Y237778D01*
X156390Y237761D01*
X156469Y237694D01*
X156544Y237622D01*
X156562Y237614D01*
X156577Y237601D01*
X156673Y237562D01*
X156767Y237519D01*
X156787Y237517D01*
X156805Y237509D01*
X156825Y237507D01*
X157069Y237264D01*
X157085Y237252D01*
X157097Y237236D01*
X157185Y237180D01*
X157268Y237120D01*
X157287Y237114D01*
X157304Y237103D01*
X157405Y237078D01*
X157504Y237048D01*
X157524Y237048D01*
X157543Y237043D01*
X157646Y237051D01*
X157749Y237054D01*
X157768Y237061D01*
X157788Y237062D01*
X157883Y237103D01*
X157980Y237138D01*
X157996Y237151D01*
X158014Y237159D01*
X158145Y237264D01*
X158372Y237491D01*
X164716Y237491D01*
X165609Y236598D01*
X165609Y231648D01*
X165612Y231628D01*
X165610Y231609D01*
X165632Y231507D01*
X165648Y231405D01*
X165658Y231388D01*
X165662Y231368D01*
X165715Y231279D01*
X165764Y231188D01*
X165778Y231174D01*
X165788Y231157D01*
X165867Y231090D01*
X165942Y231018D01*
X165960Y231010D01*
X165975Y230997D01*
X166071Y230958D01*
X166165Y230915D01*
X166185Y230913D01*
X166203Y230905D01*
X166370Y230887D01*
X191447Y230887D01*
X197543Y224791D01*
X197559Y224779D01*
X197572Y224764D01*
X197659Y224708D01*
X197743Y224647D01*
X197762Y224642D01*
X197778Y224631D01*
X197879Y224605D01*
X197978Y224575D01*
X197998Y224576D01*
X198017Y224571D01*
X198120Y224579D01*
X198224Y224581D01*
X198242Y224588D01*
X198262Y224590D01*
X198357Y224630D01*
X198455Y224666D01*
X198470Y224678D01*
X198489Y224686D01*
X198620Y224791D01*
X199254Y225426D01*
X207146Y225426D01*
X211298Y221274D01*
X211356Y221232D01*
X211408Y221182D01*
X211455Y221161D01*
X211497Y221130D01*
X211566Y221109D01*
X211631Y221079D01*
X211683Y221073D01*
X211733Y221058D01*
X211804Y221060D01*
X211875Y221052D01*
X211926Y221063D01*
G37*
%LPC*%
G36*
X42925Y218693D02*
X42925Y218693D01*
X42925Y228092D01*
X42922Y228111D01*
X42924Y228131D01*
X42902Y228233D01*
X42886Y228335D01*
X42876Y228352D01*
X42872Y228372D01*
X42819Y228461D01*
X42770Y228552D01*
X42756Y228566D01*
X42746Y228583D01*
X42721Y228604D01*
X42722Y228605D01*
X42794Y228680D01*
X42802Y228698D01*
X42815Y228713D01*
X42854Y228810D01*
X42897Y228903D01*
X42899Y228923D01*
X42907Y228941D01*
X42925Y229108D01*
X42925Y238507D01*
X44531Y238507D01*
X45177Y238334D01*
X45756Y237999D01*
X46041Y237714D01*
X46115Y237661D01*
X46185Y237601D01*
X46215Y237589D01*
X46241Y237570D01*
X46328Y237543D01*
X46413Y237509D01*
X46454Y237505D01*
X46476Y237498D01*
X46508Y237499D01*
X46580Y237491D01*
X47244Y237491D01*
X47264Y237494D01*
X47283Y237492D01*
X47385Y237514D01*
X47487Y237530D01*
X47504Y237540D01*
X47524Y237544D01*
X47613Y237597D01*
X47704Y237646D01*
X47718Y237660D01*
X47735Y237670D01*
X47802Y237749D01*
X47874Y237824D01*
X47882Y237842D01*
X47895Y237857D01*
X47934Y237953D01*
X47977Y238047D01*
X47979Y238067D01*
X47987Y238085D01*
X48005Y238252D01*
X48005Y250197D01*
X47991Y250288D01*
X47983Y250378D01*
X47971Y250408D01*
X47966Y250440D01*
X47923Y250521D01*
X47887Y250605D01*
X47861Y250637D01*
X47850Y250658D01*
X47827Y250680D01*
X47782Y250736D01*
X44209Y254309D01*
X44192Y254321D01*
X44180Y254337D01*
X44113Y254380D01*
X44076Y254412D01*
X44055Y254420D01*
X44009Y254453D01*
X43990Y254459D01*
X43973Y254470D01*
X43873Y254495D01*
X43857Y254500D01*
X43847Y254504D01*
X43843Y254504D01*
X43774Y254525D01*
X43754Y254525D01*
X43735Y254530D01*
X43632Y254522D01*
X43528Y254519D01*
X43509Y254512D01*
X43489Y254511D01*
X43426Y254484D01*
X43417Y254482D01*
X43394Y254470D01*
X43297Y254434D01*
X43281Y254422D01*
X43263Y254414D01*
X43221Y254380D01*
X32997Y254380D01*
X25780Y261597D01*
X25780Y271803D01*
X32997Y279020D01*
X43203Y279020D01*
X50420Y271803D01*
X50420Y261597D01*
X47443Y258620D01*
X47431Y258604D01*
X47415Y258591D01*
X47359Y258504D01*
X47299Y258420D01*
X47293Y258401D01*
X47282Y258384D01*
X47257Y258284D01*
X47227Y258185D01*
X47227Y258165D01*
X47222Y258146D01*
X47230Y258043D01*
X47233Y257939D01*
X47240Y257920D01*
X47241Y257901D01*
X47282Y257806D01*
X47318Y257708D01*
X47330Y257693D01*
X47338Y257674D01*
X47443Y257543D01*
X52579Y252407D01*
X52579Y237929D01*
X52593Y237839D01*
X52601Y237748D01*
X52613Y237718D01*
X52618Y237686D01*
X52661Y237605D01*
X52697Y237522D01*
X52723Y237489D01*
X52734Y237469D01*
X52757Y237447D01*
X52802Y237391D01*
X53056Y237137D01*
X53072Y237125D01*
X53084Y237109D01*
X53171Y237053D01*
X53255Y236993D01*
X53274Y236987D01*
X53291Y236976D01*
X53392Y236951D01*
X53491Y236921D01*
X53510Y236921D01*
X53530Y236916D01*
X53633Y236924D01*
X53736Y236927D01*
X53755Y236934D01*
X53775Y236935D01*
X53870Y236976D01*
X53967Y237011D01*
X53983Y237024D01*
X54001Y237032D01*
X54132Y237137D01*
X54486Y237491D01*
X60830Y237491D01*
X61057Y237264D01*
X61073Y237252D01*
X61085Y237236D01*
X61173Y237180D01*
X61256Y237120D01*
X61275Y237114D01*
X61292Y237103D01*
X61393Y237078D01*
X61492Y237048D01*
X61512Y237048D01*
X61531Y237043D01*
X61634Y237051D01*
X61737Y237054D01*
X61756Y237061D01*
X61776Y237062D01*
X61871Y237103D01*
X61968Y237138D01*
X61984Y237151D01*
X62002Y237159D01*
X62133Y237264D01*
X62360Y237491D01*
X68704Y237491D01*
X69058Y237137D01*
X69074Y237125D01*
X69086Y237109D01*
X69173Y237053D01*
X69257Y236993D01*
X69276Y236987D01*
X69293Y236976D01*
X69394Y236951D01*
X69493Y236921D01*
X69512Y236921D01*
X69532Y236916D01*
X69635Y236924D01*
X69738Y236927D01*
X69757Y236934D01*
X69777Y236935D01*
X69872Y236976D01*
X69969Y237011D01*
X69985Y237024D01*
X70003Y237032D01*
X70134Y237137D01*
X70488Y237491D01*
X76832Y237491D01*
X77059Y237264D01*
X77075Y237252D01*
X77087Y237236D01*
X77175Y237180D01*
X77258Y237120D01*
X77277Y237114D01*
X77294Y237103D01*
X77395Y237078D01*
X77494Y237048D01*
X77514Y237048D01*
X77533Y237043D01*
X77636Y237051D01*
X77739Y237054D01*
X77758Y237061D01*
X77778Y237062D01*
X77873Y237103D01*
X77970Y237138D01*
X77986Y237151D01*
X78004Y237159D01*
X78135Y237264D01*
X78362Y237491D01*
X84706Y237491D01*
X85060Y237137D01*
X85076Y237125D01*
X85088Y237109D01*
X85175Y237053D01*
X85259Y236993D01*
X85278Y236987D01*
X85295Y236976D01*
X85396Y236951D01*
X85495Y236921D01*
X85514Y236921D01*
X85534Y236916D01*
X85637Y236924D01*
X85740Y236927D01*
X85759Y236934D01*
X85779Y236935D01*
X85874Y236976D01*
X85971Y237011D01*
X85987Y237024D01*
X86005Y237032D01*
X86136Y237137D01*
X86490Y237491D01*
X92834Y237491D01*
X93061Y237264D01*
X93077Y237252D01*
X93089Y237236D01*
X93177Y237180D01*
X93260Y237120D01*
X93279Y237114D01*
X93296Y237103D01*
X93397Y237078D01*
X93496Y237048D01*
X93516Y237048D01*
X93535Y237043D01*
X93638Y237051D01*
X93741Y237054D01*
X93760Y237061D01*
X93780Y237062D01*
X93875Y237103D01*
X93972Y237138D01*
X93988Y237151D01*
X94006Y237159D01*
X94137Y237264D01*
X94364Y237491D01*
X100708Y237491D01*
X101062Y237137D01*
X101078Y237125D01*
X101090Y237109D01*
X101177Y237053D01*
X101261Y236993D01*
X101280Y236987D01*
X101297Y236976D01*
X101398Y236951D01*
X101497Y236921D01*
X101516Y236921D01*
X101536Y236916D01*
X101639Y236924D01*
X101742Y236927D01*
X101761Y236934D01*
X101781Y236935D01*
X101876Y236976D01*
X101973Y237011D01*
X101989Y237024D01*
X102007Y237032D01*
X102138Y237137D01*
X102492Y237491D01*
X108836Y237491D01*
X109063Y237264D01*
X109079Y237252D01*
X109091Y237236D01*
X109179Y237180D01*
X109262Y237120D01*
X109281Y237114D01*
X109298Y237103D01*
X109399Y237078D01*
X109498Y237048D01*
X109518Y237048D01*
X109537Y237043D01*
X109640Y237051D01*
X109743Y237054D01*
X109762Y237061D01*
X109782Y237062D01*
X109877Y237103D01*
X109974Y237138D01*
X109990Y237151D01*
X110008Y237159D01*
X110139Y237264D01*
X110366Y237491D01*
X116710Y237491D01*
X117064Y237137D01*
X117080Y237125D01*
X117092Y237109D01*
X117179Y237053D01*
X117263Y236993D01*
X117282Y236987D01*
X117299Y236976D01*
X117400Y236951D01*
X117499Y236921D01*
X117518Y236921D01*
X117538Y236916D01*
X117641Y236924D01*
X117744Y236927D01*
X117763Y236934D01*
X117783Y236935D01*
X117878Y236976D01*
X117975Y237011D01*
X117991Y237024D01*
X118009Y237032D01*
X118140Y237137D01*
X118494Y237491D01*
X124838Y237491D01*
X125065Y237264D01*
X125081Y237252D01*
X125093Y237236D01*
X125181Y237180D01*
X125264Y237120D01*
X125283Y237114D01*
X125300Y237103D01*
X125401Y237078D01*
X125500Y237048D01*
X125520Y237048D01*
X125539Y237043D01*
X125642Y237051D01*
X125745Y237054D01*
X125764Y237061D01*
X125784Y237062D01*
X125879Y237103D01*
X125976Y237138D01*
X125992Y237151D01*
X126010Y237159D01*
X126141Y237264D01*
X126368Y237491D01*
X126492Y237491D01*
X126512Y237494D01*
X126531Y237492D01*
X126633Y237514D01*
X126735Y237530D01*
X126752Y237540D01*
X126772Y237544D01*
X126861Y237597D01*
X126952Y237646D01*
X126966Y237660D01*
X126983Y237670D01*
X127050Y237749D01*
X127122Y237824D01*
X127130Y237842D01*
X127143Y237857D01*
X127182Y237953D01*
X127225Y238047D01*
X127227Y238067D01*
X127235Y238085D01*
X127253Y238252D01*
X127253Y239529D01*
X127239Y239620D01*
X127231Y239710D01*
X127219Y239740D01*
X127214Y239772D01*
X127171Y239853D01*
X127135Y239937D01*
X127109Y239969D01*
X127098Y239990D01*
X127075Y240012D01*
X127030Y240068D01*
X110249Y256849D01*
X110233Y256861D01*
X110220Y256877D01*
X110133Y256933D01*
X110049Y256993D01*
X110030Y256999D01*
X110013Y257010D01*
X109913Y257035D01*
X109814Y257065D01*
X109794Y257065D01*
X109775Y257070D01*
X109672Y257062D01*
X109568Y257059D01*
X109549Y257052D01*
X109529Y257051D01*
X109435Y257010D01*
X109337Y256974D01*
X109321Y256962D01*
X109303Y256954D01*
X109172Y256849D01*
X106703Y254380D01*
X96497Y254380D01*
X89280Y261597D01*
X89280Y271803D01*
X96497Y279020D01*
X106703Y279020D01*
X113920Y271803D01*
X113920Y261597D01*
X113483Y261160D01*
X113471Y261144D01*
X113455Y261131D01*
X113399Y261044D01*
X113339Y260960D01*
X113333Y260941D01*
X113322Y260924D01*
X113297Y260824D01*
X113267Y260725D01*
X113267Y260705D01*
X113262Y260686D01*
X113270Y260583D01*
X113271Y260575D01*
X113270Y260573D01*
X113271Y260571D01*
X113273Y260479D01*
X113280Y260460D01*
X113281Y260441D01*
X113317Y260357D01*
X113323Y260332D01*
X113333Y260314D01*
X113358Y260248D01*
X113370Y260232D01*
X113378Y260214D01*
X113438Y260139D01*
X113449Y260121D01*
X113460Y260111D01*
X113483Y260083D01*
X131827Y241739D01*
X131827Y238252D01*
X131830Y238232D01*
X131828Y238213D01*
X131850Y238111D01*
X131866Y238009D01*
X131876Y237992D01*
X131880Y237972D01*
X131933Y237883D01*
X131982Y237792D01*
X131996Y237778D01*
X132006Y237761D01*
X132085Y237694D01*
X132160Y237622D01*
X132178Y237614D01*
X132193Y237601D01*
X132289Y237562D01*
X132383Y237519D01*
X132403Y237517D01*
X132421Y237509D01*
X132588Y237491D01*
X132744Y237491D01*
X132834Y237505D01*
X132925Y237513D01*
X132955Y237525D01*
X132987Y237530D01*
X133068Y237573D01*
X133152Y237609D01*
X133184Y237635D01*
X133204Y237646D01*
X133227Y237669D01*
X133283Y237714D01*
X133568Y237999D01*
X134147Y238334D01*
X134794Y238507D01*
X136399Y238507D01*
X136399Y229108D01*
X136402Y229089D01*
X136400Y229069D01*
X136422Y228967D01*
X136438Y228865D01*
X136448Y228848D01*
X136452Y228828D01*
X136505Y228739D01*
X136554Y228648D01*
X136568Y228634D01*
X136578Y228617D01*
X136603Y228596D01*
X136602Y228595D01*
X136530Y228520D01*
X136522Y228502D01*
X136509Y228487D01*
X136470Y228390D01*
X136427Y228297D01*
X136425Y228277D01*
X136417Y228259D01*
X136399Y228092D01*
X136399Y218693D01*
X134794Y218693D01*
X134147Y218866D01*
X133568Y219201D01*
X133283Y219486D01*
X133209Y219539D01*
X133139Y219599D01*
X133109Y219611D01*
X133083Y219630D01*
X132996Y219657D01*
X132911Y219691D01*
X132870Y219695D01*
X132848Y219702D01*
X132816Y219701D01*
X132744Y219709D01*
X126368Y219709D01*
X126141Y219936D01*
X126125Y219948D01*
X126113Y219964D01*
X126026Y220020D01*
X125942Y220080D01*
X125923Y220086D01*
X125906Y220097D01*
X125805Y220122D01*
X125707Y220152D01*
X125687Y220152D01*
X125667Y220157D01*
X125564Y220149D01*
X125461Y220146D01*
X125442Y220139D01*
X125422Y220138D01*
X125327Y220097D01*
X125230Y220062D01*
X125214Y220049D01*
X125196Y220041D01*
X125065Y219936D01*
X124838Y219709D01*
X118494Y219709D01*
X118140Y220063D01*
X118124Y220075D01*
X118112Y220091D01*
X118037Y220138D01*
X118018Y220155D01*
X118006Y220160D01*
X117941Y220207D01*
X117922Y220213D01*
X117905Y220224D01*
X117804Y220249D01*
X117705Y220279D01*
X117686Y220279D01*
X117666Y220284D01*
X117563Y220276D01*
X117460Y220273D01*
X117441Y220266D01*
X117421Y220265D01*
X117326Y220224D01*
X117229Y220189D01*
X117213Y220176D01*
X117195Y220168D01*
X117127Y220114D01*
X117121Y220111D01*
X117115Y220105D01*
X117064Y220063D01*
X116710Y219709D01*
X110366Y219709D01*
X110139Y219936D01*
X110123Y219948D01*
X110111Y219964D01*
X110024Y220020D01*
X109940Y220080D01*
X109921Y220086D01*
X109904Y220097D01*
X109803Y220122D01*
X109705Y220152D01*
X109685Y220152D01*
X109665Y220157D01*
X109562Y220149D01*
X109459Y220146D01*
X109440Y220139D01*
X109420Y220138D01*
X109325Y220097D01*
X109228Y220062D01*
X109212Y220049D01*
X109194Y220041D01*
X109063Y219936D01*
X108836Y219709D01*
X102492Y219709D01*
X102138Y220063D01*
X102122Y220075D01*
X102110Y220091D01*
X102035Y220138D01*
X102016Y220155D01*
X102004Y220160D01*
X101939Y220207D01*
X101920Y220213D01*
X101903Y220224D01*
X101802Y220249D01*
X101703Y220279D01*
X101684Y220279D01*
X101664Y220284D01*
X101561Y220276D01*
X101458Y220273D01*
X101439Y220266D01*
X101419Y220265D01*
X101324Y220224D01*
X101227Y220189D01*
X101211Y220176D01*
X101193Y220168D01*
X101125Y220114D01*
X101119Y220111D01*
X101113Y220105D01*
X101062Y220063D01*
X100708Y219709D01*
X94364Y219709D01*
X94137Y219936D01*
X94121Y219948D01*
X94109Y219964D01*
X94022Y220020D01*
X93938Y220080D01*
X93919Y220086D01*
X93902Y220097D01*
X93801Y220122D01*
X93703Y220152D01*
X93683Y220152D01*
X93663Y220157D01*
X93560Y220149D01*
X93457Y220146D01*
X93438Y220139D01*
X93418Y220138D01*
X93323Y220097D01*
X93226Y220062D01*
X93210Y220049D01*
X93192Y220041D01*
X93061Y219936D01*
X92834Y219709D01*
X86490Y219709D01*
X86136Y220063D01*
X86120Y220075D01*
X86108Y220091D01*
X86033Y220138D01*
X86014Y220155D01*
X86002Y220160D01*
X85937Y220207D01*
X85918Y220213D01*
X85901Y220224D01*
X85800Y220249D01*
X85701Y220279D01*
X85682Y220279D01*
X85662Y220284D01*
X85559Y220276D01*
X85456Y220273D01*
X85437Y220266D01*
X85417Y220265D01*
X85322Y220224D01*
X85225Y220189D01*
X85209Y220176D01*
X85191Y220168D01*
X85123Y220114D01*
X85117Y220111D01*
X85111Y220105D01*
X85060Y220063D01*
X84706Y219709D01*
X78362Y219709D01*
X78135Y219936D01*
X78119Y219948D01*
X78107Y219964D01*
X78020Y220020D01*
X77936Y220080D01*
X77917Y220086D01*
X77900Y220097D01*
X77799Y220122D01*
X77701Y220152D01*
X77681Y220152D01*
X77661Y220157D01*
X77558Y220149D01*
X77455Y220146D01*
X77436Y220139D01*
X77416Y220138D01*
X77321Y220097D01*
X77224Y220062D01*
X77208Y220049D01*
X77190Y220041D01*
X77059Y219936D01*
X76832Y219709D01*
X70488Y219709D01*
X70134Y220063D01*
X70118Y220075D01*
X70106Y220091D01*
X70031Y220138D01*
X70012Y220155D01*
X70000Y220160D01*
X69935Y220207D01*
X69916Y220213D01*
X69899Y220224D01*
X69798Y220249D01*
X69699Y220279D01*
X69680Y220279D01*
X69660Y220284D01*
X69557Y220276D01*
X69454Y220273D01*
X69435Y220266D01*
X69415Y220265D01*
X69320Y220224D01*
X69223Y220189D01*
X69207Y220176D01*
X69189Y220168D01*
X69121Y220114D01*
X69115Y220111D01*
X69109Y220105D01*
X69058Y220063D01*
X68704Y219709D01*
X62360Y219709D01*
X62133Y219936D01*
X62117Y219948D01*
X62105Y219964D01*
X62018Y220020D01*
X61934Y220080D01*
X61915Y220086D01*
X61898Y220097D01*
X61797Y220122D01*
X61699Y220152D01*
X61679Y220152D01*
X61659Y220157D01*
X61556Y220149D01*
X61453Y220146D01*
X61434Y220139D01*
X61414Y220138D01*
X61319Y220097D01*
X61222Y220062D01*
X61206Y220049D01*
X61188Y220041D01*
X61057Y219936D01*
X60830Y219709D01*
X54486Y219709D01*
X54132Y220063D01*
X54116Y220075D01*
X54104Y220091D01*
X54029Y220138D01*
X54010Y220155D01*
X53998Y220160D01*
X53933Y220207D01*
X53914Y220213D01*
X53897Y220224D01*
X53796Y220249D01*
X53697Y220279D01*
X53678Y220279D01*
X53658Y220284D01*
X53555Y220276D01*
X53452Y220273D01*
X53433Y220266D01*
X53413Y220265D01*
X53318Y220224D01*
X53221Y220189D01*
X53205Y220176D01*
X53187Y220168D01*
X53119Y220114D01*
X53113Y220111D01*
X53107Y220105D01*
X53056Y220063D01*
X52702Y219709D01*
X46580Y219709D01*
X46490Y219695D01*
X46399Y219687D01*
X46369Y219675D01*
X46337Y219670D01*
X46256Y219627D01*
X46172Y219591D01*
X46140Y219565D01*
X46120Y219554D01*
X46097Y219531D01*
X46041Y219486D01*
X45756Y219201D01*
X45177Y218866D01*
X44530Y218693D01*
X42925Y218693D01*
G37*
%LPD*%
%LPC*%
G36*
X70786Y66293D02*
X70786Y66293D01*
X70139Y66466D01*
X69560Y66801D01*
X69275Y67086D01*
X69201Y67139D01*
X69131Y67199D01*
X69101Y67211D01*
X69075Y67230D01*
X68988Y67257D01*
X68903Y67291D01*
X68862Y67295D01*
X68840Y67302D01*
X68808Y67301D01*
X68736Y67309D01*
X62360Y67309D01*
X62133Y67536D01*
X62117Y67548D01*
X62105Y67564D01*
X62017Y67620D01*
X61934Y67680D01*
X61915Y67686D01*
X61898Y67697D01*
X61797Y67722D01*
X61698Y67752D01*
X61678Y67752D01*
X61659Y67757D01*
X61556Y67749D01*
X61453Y67746D01*
X61434Y67739D01*
X61414Y67738D01*
X61319Y67697D01*
X61222Y67662D01*
X61206Y67649D01*
X61188Y67641D01*
X61057Y67536D01*
X60830Y67309D01*
X54486Y67309D01*
X54132Y67663D01*
X54116Y67675D01*
X54104Y67691D01*
X54017Y67747D01*
X53933Y67807D01*
X53914Y67813D01*
X53897Y67824D01*
X53796Y67849D01*
X53697Y67879D01*
X53678Y67879D01*
X53658Y67884D01*
X53555Y67876D01*
X53452Y67873D01*
X53433Y67866D01*
X53413Y67865D01*
X53318Y67824D01*
X53221Y67789D01*
X53205Y67776D01*
X53187Y67768D01*
X53056Y67663D01*
X52702Y67309D01*
X46358Y67309D01*
X46131Y67536D01*
X46115Y67548D01*
X46103Y67564D01*
X46015Y67620D01*
X45932Y67680D01*
X45913Y67686D01*
X45896Y67697D01*
X45795Y67722D01*
X45696Y67752D01*
X45676Y67752D01*
X45657Y67757D01*
X45554Y67749D01*
X45451Y67746D01*
X45432Y67739D01*
X45412Y67738D01*
X45317Y67697D01*
X45220Y67662D01*
X45204Y67649D01*
X45186Y67641D01*
X45055Y67536D01*
X44828Y67309D01*
X38484Y67309D01*
X37591Y68202D01*
X37591Y84198D01*
X38484Y85091D01*
X44828Y85091D01*
X45055Y84864D01*
X45071Y84852D01*
X45083Y84836D01*
X45170Y84780D01*
X45254Y84720D01*
X45273Y84714D01*
X45290Y84703D01*
X45391Y84678D01*
X45489Y84648D01*
X45509Y84648D01*
X45529Y84643D01*
X45632Y84651D01*
X45735Y84654D01*
X45754Y84661D01*
X45774Y84662D01*
X45869Y84703D01*
X45966Y84738D01*
X45982Y84751D01*
X46000Y84759D01*
X46131Y84864D01*
X46358Y85091D01*
X52702Y85091D01*
X53056Y84737D01*
X53072Y84725D01*
X53084Y84709D01*
X53171Y84653D01*
X53255Y84593D01*
X53274Y84587D01*
X53291Y84576D01*
X53392Y84551D01*
X53491Y84521D01*
X53510Y84521D01*
X53530Y84516D01*
X53633Y84524D01*
X53736Y84527D01*
X53755Y84534D01*
X53775Y84535D01*
X53870Y84576D01*
X53967Y84611D01*
X53983Y84624D01*
X54001Y84632D01*
X54132Y84737D01*
X54486Y85091D01*
X60830Y85091D01*
X61057Y84864D01*
X61073Y84852D01*
X61085Y84836D01*
X61172Y84780D01*
X61256Y84720D01*
X61275Y84714D01*
X61292Y84703D01*
X61393Y84678D01*
X61491Y84648D01*
X61511Y84648D01*
X61531Y84643D01*
X61634Y84651D01*
X61737Y84654D01*
X61756Y84661D01*
X61776Y84662D01*
X61871Y84703D01*
X61968Y84738D01*
X61984Y84751D01*
X62002Y84759D01*
X62133Y84864D01*
X62360Y85091D01*
X68736Y85091D01*
X68826Y85105D01*
X68917Y85113D01*
X68947Y85125D01*
X68979Y85130D01*
X69060Y85173D01*
X69144Y85209D01*
X69176Y85235D01*
X69196Y85246D01*
X69219Y85269D01*
X69275Y85314D01*
X69560Y85599D01*
X70139Y85934D01*
X70786Y86107D01*
X72391Y86107D01*
X72391Y76708D01*
X72394Y76689D01*
X72392Y76669D01*
X72414Y76567D01*
X72430Y76465D01*
X72440Y76448D01*
X72444Y76428D01*
X72497Y76339D01*
X72546Y76248D01*
X72560Y76234D01*
X72570Y76217D01*
X72595Y76196D01*
X72594Y76195D01*
X72522Y76120D01*
X72514Y76102D01*
X72501Y76087D01*
X72462Y75990D01*
X72419Y75897D01*
X72417Y75877D01*
X72409Y75859D01*
X72391Y75692D01*
X72391Y66293D01*
X70786Y66293D01*
G37*
%LPD*%
%LPC*%
G36*
X32997Y292480D02*
X32997Y292480D01*
X25780Y299697D01*
X25780Y309903D01*
X32997Y317120D01*
X43203Y317120D01*
X50420Y309903D01*
X50420Y299697D01*
X43203Y292480D01*
X32997Y292480D01*
G37*
%LPD*%
%LPC*%
G36*
X159997Y254380D02*
X159997Y254380D01*
X152780Y261597D01*
X152780Y271803D01*
X159997Y279020D01*
X170203Y279020D01*
X177420Y271803D01*
X177420Y261597D01*
X170203Y254380D01*
X159997Y254380D01*
G37*
%LPD*%
%LPC*%
G36*
X300854Y396874D02*
X300854Y396874D01*
X295274Y402454D01*
X295274Y410346D01*
X300854Y415926D01*
X308746Y415926D01*
X314326Y410346D01*
X314326Y402454D01*
X308746Y396874D01*
X300854Y396874D01*
G37*
%LPD*%
%LPC*%
G36*
X199254Y358774D02*
X199254Y358774D01*
X193674Y364354D01*
X193674Y372246D01*
X199254Y377826D01*
X207146Y377826D01*
X212726Y372246D01*
X212726Y364354D01*
X207146Y358774D01*
X199254Y358774D01*
G37*
%LPD*%
%LPC*%
G36*
X199254Y244474D02*
X199254Y244474D01*
X193674Y250054D01*
X193674Y257946D01*
X199254Y263526D01*
X207146Y263526D01*
X212726Y257946D01*
X212726Y250054D01*
X207146Y244474D01*
X199254Y244474D01*
G37*
%LPD*%
%LPC*%
G36*
X300854Y92074D02*
X300854Y92074D01*
X295274Y97654D01*
X295274Y105546D01*
X300854Y111126D01*
X308746Y111126D01*
X314326Y105546D01*
X314326Y97654D01*
X308746Y92074D01*
X300854Y92074D01*
G37*
%LPD*%
%LPC*%
G36*
X300854Y53974D02*
X300854Y53974D01*
X295274Y59554D01*
X295274Y67446D01*
X300854Y73026D01*
X308746Y73026D01*
X314326Y67446D01*
X314326Y59554D01*
X308746Y53974D01*
X300854Y53974D01*
G37*
%LPD*%
%LPC*%
G36*
X300854Y15874D02*
X300854Y15874D01*
X295274Y21454D01*
X295274Y29346D01*
X300854Y34926D01*
X308746Y34926D01*
X314326Y29346D01*
X314326Y21454D01*
X308746Y15874D01*
X300854Y15874D01*
G37*
%LPD*%
%LPC*%
G36*
X199254Y15874D02*
X199254Y15874D01*
X193674Y21454D01*
X193674Y29346D01*
X199254Y34926D01*
X207146Y34926D01*
X212726Y29346D01*
X212726Y21454D01*
X207146Y15874D01*
X199254Y15874D01*
G37*
%LPD*%
%LPC*%
G36*
X34733Y334771D02*
X34733Y334771D01*
X29971Y339533D01*
X29971Y346267D01*
X34733Y351029D01*
X41467Y351029D01*
X46229Y346267D01*
X46229Y339533D01*
X41467Y334771D01*
X34733Y334771D01*
G37*
%LPD*%
%LPC*%
G36*
X166623Y306323D02*
X166623Y306323D01*
X166623Y318136D01*
X170624Y318136D01*
X178436Y310324D01*
X178436Y306323D01*
X166623Y306323D01*
G37*
%LPD*%
%LPC*%
G36*
X151764Y306323D02*
X151764Y306323D01*
X151764Y310324D01*
X159576Y318136D01*
X163577Y318136D01*
X163577Y306323D01*
X151764Y306323D01*
G37*
%LPD*%
%LPC*%
G36*
X166623Y291464D02*
X166623Y291464D01*
X166623Y303277D01*
X178436Y303277D01*
X178436Y299276D01*
X170624Y291464D01*
X166623Y291464D01*
G37*
%LPD*%
%LPC*%
G36*
X159576Y291464D02*
X159576Y291464D01*
X151764Y299276D01*
X151764Y303277D01*
X163577Y303277D01*
X163577Y291464D01*
X159576Y291464D01*
G37*
%LPD*%
%LPC*%
G36*
X38782Y218693D02*
X38782Y218693D01*
X38135Y218866D01*
X37682Y219128D01*
X37660Y219136D01*
X37640Y219150D01*
X37545Y219180D01*
X37452Y219215D01*
X37428Y219216D01*
X37405Y219223D01*
X37306Y219220D01*
X37207Y219224D01*
X37183Y219217D01*
X37159Y219216D01*
X37071Y219184D01*
X37085Y219259D01*
X37109Y219356D01*
X37107Y219380D01*
X37112Y219403D01*
X37098Y219502D01*
X37090Y219601D01*
X37081Y219623D01*
X37077Y219647D01*
X37010Y219800D01*
X36748Y220253D01*
X36575Y220900D01*
X36575Y227331D01*
X40387Y227331D01*
X40387Y218693D01*
X38782Y218693D01*
G37*
%LPD*%
%LPC*%
G36*
X36575Y229869D02*
X36575Y229869D01*
X36575Y236300D01*
X36748Y236947D01*
X37083Y237526D01*
X37556Y237999D01*
X38135Y238334D01*
X38782Y238507D01*
X40387Y238507D01*
X40387Y229869D01*
X36575Y229869D01*
G37*
%LPD*%
%LPC*%
G36*
X165099Y304799D02*
X165099Y304799D01*
X165099Y304801D01*
X165101Y304801D01*
X165101Y304799D01*
X165099Y304799D01*
G37*
%LPD*%
D10*
X38100Y304800D03*
X38100Y266700D03*
X165100Y304800D03*
X101600Y266700D03*
D11*
X304800Y406400D03*
X304800Y368300D03*
X203200Y177800D03*
X203200Y368300D03*
X203200Y330200D03*
X203200Y292100D03*
X203200Y406400D03*
D10*
X101600Y304800D03*
D11*
X304800Y101600D03*
X304800Y215900D03*
X304800Y63500D03*
D10*
X165100Y266700D03*
D11*
X304800Y177800D03*
X203200Y215900D03*
X304800Y25400D03*
X203200Y254000D03*
D12*
X25400Y212344D03*
X25400Y204470D03*
X25400Y196342D03*
X25400Y188468D03*
X25400Y180340D03*
X25400Y172466D03*
X25400Y164338D03*
X25400Y156464D03*
X25400Y148336D03*
X25400Y140462D03*
X25400Y132334D03*
X25400Y124460D03*
X25400Y116332D03*
X25400Y108458D03*
X25400Y100330D03*
X25400Y92456D03*
D13*
X41656Y76200D03*
X49530Y76200D03*
X57658Y76200D03*
X65532Y76200D03*
X73660Y76200D03*
X81534Y76200D03*
X89662Y76200D03*
X97536Y76200D03*
X105664Y76200D03*
X113538Y76200D03*
X121666Y76200D03*
X129540Y76200D03*
X137668Y76200D03*
X145542Y76200D03*
X153670Y76200D03*
X161544Y76200D03*
D12*
X177800Y92456D03*
X177800Y100330D03*
X177800Y108458D03*
X177800Y116332D03*
X177800Y124460D03*
X177800Y132334D03*
X177800Y140462D03*
X177800Y148336D03*
X177800Y156464D03*
X177800Y164338D03*
X177800Y172466D03*
X177800Y180340D03*
X177800Y188468D03*
X177800Y196342D03*
X177800Y204470D03*
X177800Y212344D03*
D13*
X161544Y228600D03*
X153670Y228600D03*
X145542Y228600D03*
X137668Y228600D03*
X129540Y228600D03*
X121666Y228600D03*
X113538Y228600D03*
X105664Y228600D03*
X97536Y228600D03*
X89662Y228600D03*
X81534Y228600D03*
X73660Y228600D03*
X65532Y228600D03*
X57658Y228600D03*
X49530Y228600D03*
X41656Y228600D03*
D11*
X304800Y139700D03*
X304800Y330200D03*
X203200Y63500D03*
X203200Y25400D03*
X304800Y292100D03*
X203200Y139700D03*
X203200Y101600D03*
X304800Y254000D03*
D14*
X153924Y428600D03*
X153924Y419100D03*
X153924Y409600D03*
X176276Y409600D03*
X176276Y419100D03*
X176276Y428600D03*
D15*
X38100Y342900D03*
X165100Y342900D03*
X38100Y381000D03*
X165100Y381000D03*
D16*
X161544Y76200D02*
X170688Y76200D01*
X198120Y48768D01*
X208788Y48768D01*
X291084Y131064D01*
X291084Y146304D01*
X301752Y156972D01*
X312420Y156972D01*
X324612Y169164D01*
X324612Y271272D01*
X304800Y291084D01*
X304800Y292100D01*
X153924Y76200D02*
X153924Y64008D01*
X172212Y45720D01*
X224028Y45720D01*
X303276Y124968D01*
X309372Y124968D01*
X327660Y143256D01*
X327660Y306324D01*
X304800Y329184D01*
X153924Y76200D02*
X153670Y76200D01*
X304800Y329184D02*
X304800Y330200D01*
X146304Y76200D02*
X146304Y64008D01*
X167640Y42672D01*
X225552Y42672D01*
X304800Y121920D01*
X310896Y121920D01*
X330708Y141732D01*
X330708Y341376D01*
X304800Y367284D01*
X146304Y76200D02*
X145542Y76200D01*
X304800Y367284D02*
X304800Y368300D01*
X137160Y172212D02*
X137160Y76200D01*
X137160Y172212D02*
X164592Y199644D01*
X137668Y76200D02*
X137160Y76200D01*
D17*
X164592Y199644D03*
D16*
X178308Y91440D02*
X182880Y86868D01*
X182880Y85344D01*
X187452Y80772D01*
X220980Y80772D01*
X300228Y160020D01*
X310896Y160020D01*
X321564Y170688D01*
X321564Y236220D01*
X304800Y252984D01*
X177800Y92456D02*
X178308Y91440D01*
X304800Y252984D02*
X304800Y254000D01*
X176784Y100584D02*
X166116Y100584D01*
X164592Y102108D01*
X164592Y121920D01*
X176784Y100584D02*
X177800Y100330D01*
D17*
X164592Y121920D03*
D16*
X178308Y108204D02*
X184404Y108204D01*
X187452Y105156D01*
X187452Y103632D01*
X188976Y102108D01*
X188976Y96012D01*
X192024Y92964D01*
X192024Y88392D01*
X196596Y83820D01*
X216408Y83820D01*
X295656Y163068D01*
X309372Y163068D01*
X318516Y172212D01*
X318516Y201168D01*
X304800Y214884D01*
X178308Y108204D02*
X177800Y108458D01*
X304800Y214884D02*
X304800Y215900D01*
X188976Y115824D02*
X178308Y115824D01*
X188976Y115824D02*
X190500Y114300D01*
X190500Y105156D01*
X192024Y103632D01*
X192024Y97536D01*
X195072Y94488D01*
X195072Y89916D01*
X198120Y86868D01*
X214884Y86868D01*
X304800Y176784D01*
X178308Y115824D02*
X177800Y116332D01*
X304800Y176784D02*
X304800Y177800D01*
X211836Y124968D02*
X178308Y124968D01*
X177800Y124460D01*
D17*
X211836Y124968D03*
D16*
X176784Y132588D02*
X166116Y132588D01*
X164592Y131064D01*
X176784Y132588D02*
X177800Y132334D01*
D17*
X164592Y131064D03*
D16*
X178308Y140208D02*
X187452Y140208D01*
X190500Y137160D01*
X190500Y132588D01*
X178308Y140208D02*
X177800Y140462D01*
D17*
X190500Y132588D03*
D16*
X192024Y147828D02*
X178308Y147828D01*
X192024Y147828D02*
X198120Y153924D01*
X178308Y147828D02*
X177800Y148336D01*
D17*
X198120Y153924D03*
D16*
X176784Y155448D02*
X166116Y155448D01*
X158496Y147828D01*
X158496Y97536D01*
X192024Y64008D01*
X202692Y64008D01*
X176784Y155448D02*
X177800Y156464D01*
X202692Y64008D02*
X203200Y63500D01*
X176784Y164592D02*
X166116Y164592D01*
X152400Y150876D01*
X152400Y89916D01*
X176784Y164592D02*
X177800Y164338D01*
D17*
X152400Y89916D03*
D16*
X178308Y179832D02*
X188976Y179832D01*
X192024Y176784D01*
X192024Y173736D01*
X217932Y147828D01*
X217932Y115824D01*
X204216Y102108D01*
X178308Y179832D02*
X177800Y180340D01*
X204216Y102108D02*
X203200Y101600D01*
X195072Y188976D02*
X178308Y188976D01*
X195072Y188976D02*
X199644Y193548D01*
X205740Y193548D01*
X220980Y208788D01*
X220980Y312420D01*
X203200Y330200D01*
X178308Y188976D02*
X177800Y188468D01*
X178308Y196596D02*
X204216Y196596D01*
X217932Y210312D01*
X217932Y277368D01*
X203200Y292100D01*
X178308Y196596D02*
X177800Y196342D01*
X178308Y204216D02*
X195072Y204216D01*
X198120Y201168D01*
X204216Y201168D01*
X214884Y211836D01*
X214884Y224028D01*
X199644Y239268D01*
X198120Y239268D01*
X188976Y248412D01*
X188976Y373380D01*
X202692Y387096D01*
X202692Y405384D01*
X177800Y204470D02*
X178308Y204216D01*
X202692Y405384D02*
X203200Y406400D01*
X178308Y222504D02*
X178308Y213360D01*
X177800Y212344D01*
D17*
X178308Y222504D03*
D16*
X190500Y228600D02*
X161544Y228600D01*
X190500Y228600D02*
X203200Y215900D01*
X188976Y172212D02*
X178308Y172212D01*
X188976Y172212D02*
X204216Y156972D01*
X204216Y140208D01*
X178308Y172212D02*
X177800Y172466D01*
X203200Y139700D02*
X204216Y140208D01*
X169164Y393192D02*
X153924Y408432D01*
X169164Y393192D02*
X170688Y393192D01*
X178308Y385572D01*
X178308Y376428D01*
X156972Y355092D01*
X153924Y355092D01*
X109728Y310896D02*
X103632Y304800D01*
X109728Y310896D02*
X153924Y355092D01*
X103632Y304800D02*
X101600Y304800D01*
X153924Y408432D02*
X153924Y409600D01*
X108204Y310896D02*
X38100Y381000D01*
X108204Y310896D02*
X109728Y310896D01*
X101600Y304800D01*
X36576Y140208D02*
X25908Y140208D01*
X36576Y140208D02*
X38100Y141732D01*
X38100Y213360D01*
X21336Y230124D01*
X21336Y272796D01*
X36576Y288036D01*
X108204Y288036D01*
X152400Y332232D01*
X152400Y347472D01*
X156972Y352044D01*
X158496Y352044D01*
X181356Y374904D01*
X181356Y406908D01*
X179832Y408432D01*
X176784Y408432D01*
X25908Y140208D02*
X25400Y140462D01*
X176784Y408432D02*
X176276Y409600D01*
X153924Y254508D02*
X153924Y228600D01*
X153924Y254508D02*
X147828Y260604D01*
X147828Y315468D01*
X164592Y332232D01*
X164592Y342900D01*
X153924Y228600D02*
X153670Y228600D01*
X176276Y419100D02*
X187452Y419100D01*
X188976Y417576D01*
X188976Y377952D01*
X173736Y362712D01*
X173736Y352044D01*
X164592Y342900D01*
X165100Y342900D01*
X82296Y89916D02*
X82296Y76200D01*
X81534Y76200D01*
X50292Y228600D02*
X50292Y251460D01*
X38100Y263652D01*
X38100Y266700D01*
X49530Y228600D02*
X50292Y228600D01*
X129540Y228600D02*
X129540Y240792D01*
X103632Y266700D01*
X101600Y266700D01*
X153924Y419100D02*
X158496Y419100D01*
X166116Y411480D01*
X166116Y405384D01*
X169164Y402336D01*
X170688Y402336D01*
X172212Y400812D01*
D17*
X82296Y89916D03*
X172212Y400812D03*
D16*
X153924Y428244D02*
X143256Y428244D01*
X140208Y425196D01*
X140208Y405384D01*
X164592Y381000D01*
X153924Y428244D02*
X153924Y428600D01*
X164592Y381000D02*
X165100Y381000D01*
M02*
