M48
;GenerationSoftware,Autodesk,EAGLE,8.6.0*%
;CreationDate,2018-03-08T02:42:11Z*%
FMAT,2
ICI,OFF
METRIC,TZ,000.000
T3C0.350
T2C0.813
T1C1.016
%
G90
M71
T1
X3810Y30480
X3810Y26670
X16510Y30480
X10160Y26670
X10160Y30480
X16510Y26670
T2
X20320Y2540
X30480Y29210
X20320Y13970
X30480Y25400
X20320Y17780
X3810Y34290
X16510Y34290
X3810Y38100
X16510Y38100
X30480Y40640
X30480Y36830
X20320Y36830
X20320Y33020
X20320Y29210
X20320Y40640
X20320Y10160
X30480Y10160
X30480Y21590
X30480Y6350
X30480Y17780
X20320Y21590
X30480Y2540
X20320Y25400
X30480Y13970
X30480Y33020
X20320Y6350
T3
X16459Y12192
X21184Y12497
X16459Y13106
X19050Y13259
X15240Y8992
X17831Y22250
X8230Y8992
X17221Y40081
X16459Y19964
X19812Y15392
M30