G04 EAGLE Gerber X2 export*
%TF.Part,Single*%
%TF.FileFunction,Legend,Top,1*%
%TF.FilePolarity,Positive*%
%TF.GenerationSoftware,Autodesk,EAGLE,8.6.0*%
%TF.CreationDate,2018-03-08T02:42:11Z*%
G75*
%MOMM*%
%FSLAX34Y34*%
%LPD*%
%AMOC8*
5,1,8,0,0,1.08239X$1,22.5*%
G01*
%ADD10C,0.152400*%
%ADD11C,0.127000*%
%ADD12C,0.076200*%
%ADD13C,0.203200*%
%ADD14C,0.609600*%
%ADD15R,0.863600X0.609600*%


D10*
X20687Y29718D02*
X20687Y13462D01*
X16171Y13462D01*
X16070Y13464D01*
X15969Y13470D01*
X15868Y13479D01*
X15767Y13492D01*
X15667Y13509D01*
X15568Y13530D01*
X15470Y13554D01*
X15373Y13582D01*
X15276Y13614D01*
X15181Y13649D01*
X15088Y13688D01*
X14996Y13730D01*
X14905Y13776D01*
X14817Y13825D01*
X14730Y13877D01*
X14645Y13933D01*
X14562Y13991D01*
X14482Y14053D01*
X14404Y14118D01*
X14328Y14185D01*
X14255Y14255D01*
X14185Y14328D01*
X14118Y14404D01*
X14053Y14482D01*
X13991Y14562D01*
X13933Y14645D01*
X13877Y14730D01*
X13825Y14816D01*
X13776Y14905D01*
X13730Y14996D01*
X13688Y15088D01*
X13649Y15181D01*
X13614Y15276D01*
X13582Y15373D01*
X13554Y15470D01*
X13530Y15568D01*
X13509Y15667D01*
X13492Y15767D01*
X13479Y15868D01*
X13470Y15969D01*
X13464Y16070D01*
X13462Y16171D01*
X13462Y21590D01*
X13464Y21691D01*
X13470Y21792D01*
X13479Y21893D01*
X13492Y21994D01*
X13509Y22094D01*
X13530Y22193D01*
X13554Y22291D01*
X13582Y22388D01*
X13614Y22485D01*
X13649Y22580D01*
X13688Y22673D01*
X13730Y22765D01*
X13776Y22856D01*
X13825Y22944D01*
X13877Y23031D01*
X13933Y23116D01*
X13991Y23199D01*
X14053Y23279D01*
X14118Y23357D01*
X14185Y23433D01*
X14255Y23506D01*
X14328Y23576D01*
X14404Y23643D01*
X14482Y23708D01*
X14562Y23770D01*
X14645Y23828D01*
X14730Y23884D01*
X14817Y23936D01*
X14905Y23985D01*
X14996Y24031D01*
X15088Y24073D01*
X15181Y24112D01*
X15276Y24147D01*
X15373Y24179D01*
X15470Y24207D01*
X15568Y24231D01*
X15667Y24252D01*
X15767Y24269D01*
X15868Y24282D01*
X15969Y24291D01*
X16070Y24297D01*
X16171Y24299D01*
X20687Y24299D01*
X28124Y24299D02*
X28124Y16171D01*
X28125Y16171D02*
X28127Y16070D01*
X28133Y15969D01*
X28142Y15868D01*
X28155Y15767D01*
X28172Y15667D01*
X28193Y15568D01*
X28217Y15470D01*
X28245Y15373D01*
X28277Y15276D01*
X28312Y15181D01*
X28351Y15088D01*
X28393Y14996D01*
X28439Y14905D01*
X28488Y14816D01*
X28540Y14730D01*
X28596Y14645D01*
X28654Y14562D01*
X28716Y14482D01*
X28781Y14404D01*
X28848Y14328D01*
X28918Y14255D01*
X28991Y14185D01*
X29067Y14118D01*
X29145Y14053D01*
X29225Y13991D01*
X29308Y13933D01*
X29393Y13877D01*
X29480Y13825D01*
X29568Y13776D01*
X29659Y13730D01*
X29751Y13688D01*
X29844Y13649D01*
X29939Y13614D01*
X30036Y13582D01*
X30133Y13554D01*
X30231Y13530D01*
X30330Y13509D01*
X30430Y13492D01*
X30531Y13479D01*
X30632Y13470D01*
X30733Y13464D01*
X30834Y13462D01*
X35349Y13462D01*
X35349Y24299D01*
X42714Y24299D02*
X42714Y13462D01*
X42714Y24299D02*
X47229Y24299D01*
X47333Y24297D01*
X47436Y24291D01*
X47540Y24281D01*
X47643Y24267D01*
X47745Y24249D01*
X47846Y24228D01*
X47947Y24202D01*
X48046Y24173D01*
X48145Y24140D01*
X48242Y24103D01*
X48337Y24062D01*
X48431Y24018D01*
X48523Y23970D01*
X48613Y23919D01*
X48702Y23864D01*
X48788Y23806D01*
X48871Y23744D01*
X48953Y23680D01*
X49031Y23612D01*
X49107Y23542D01*
X49181Y23469D01*
X49251Y23392D01*
X49319Y23314D01*
X49383Y23232D01*
X49445Y23149D01*
X49503Y23063D01*
X49558Y22974D01*
X49609Y22884D01*
X49657Y22792D01*
X49701Y22698D01*
X49742Y22603D01*
X49779Y22506D01*
X49812Y22407D01*
X49841Y22308D01*
X49867Y22207D01*
X49888Y22106D01*
X49906Y22004D01*
X49920Y21901D01*
X49930Y21797D01*
X49936Y21694D01*
X49938Y21590D01*
X49938Y13462D01*
X59509Y13462D02*
X63121Y13462D01*
X59509Y13462D02*
X59408Y13464D01*
X59307Y13470D01*
X59206Y13479D01*
X59105Y13492D01*
X59005Y13509D01*
X58906Y13530D01*
X58808Y13554D01*
X58711Y13582D01*
X58614Y13614D01*
X58519Y13649D01*
X58426Y13688D01*
X58334Y13730D01*
X58243Y13776D01*
X58155Y13825D01*
X58068Y13877D01*
X57983Y13933D01*
X57900Y13991D01*
X57820Y14053D01*
X57742Y14118D01*
X57666Y14185D01*
X57593Y14255D01*
X57523Y14328D01*
X57456Y14404D01*
X57391Y14482D01*
X57329Y14562D01*
X57271Y14645D01*
X57215Y14730D01*
X57163Y14816D01*
X57114Y14905D01*
X57068Y14996D01*
X57026Y15088D01*
X56987Y15181D01*
X56952Y15276D01*
X56920Y15373D01*
X56892Y15470D01*
X56868Y15568D01*
X56847Y15667D01*
X56830Y15767D01*
X56817Y15868D01*
X56808Y15969D01*
X56802Y16070D01*
X56800Y16171D01*
X56799Y16171D02*
X56799Y21590D01*
X56800Y21590D02*
X56802Y21691D01*
X56808Y21792D01*
X56817Y21893D01*
X56830Y21994D01*
X56847Y22094D01*
X56868Y22193D01*
X56892Y22291D01*
X56920Y22388D01*
X56952Y22485D01*
X56987Y22580D01*
X57026Y22673D01*
X57068Y22765D01*
X57114Y22856D01*
X57163Y22944D01*
X57215Y23031D01*
X57271Y23116D01*
X57329Y23199D01*
X57391Y23279D01*
X57456Y23357D01*
X57523Y23433D01*
X57593Y23506D01*
X57666Y23576D01*
X57742Y23643D01*
X57820Y23708D01*
X57900Y23770D01*
X57983Y23828D01*
X58068Y23884D01*
X58155Y23936D01*
X58243Y23985D01*
X58334Y24031D01*
X58426Y24073D01*
X58519Y24112D01*
X58614Y24147D01*
X58711Y24179D01*
X58808Y24207D01*
X58906Y24231D01*
X59005Y24252D01*
X59105Y24269D01*
X59206Y24282D01*
X59307Y24291D01*
X59408Y24297D01*
X59509Y24299D01*
X63121Y24299D01*
X71853Y19784D02*
X75917Y19784D01*
X71853Y19784D02*
X71741Y19782D01*
X71630Y19776D01*
X71519Y19766D01*
X71408Y19753D01*
X71298Y19735D01*
X71189Y19713D01*
X71080Y19688D01*
X70972Y19659D01*
X70866Y19626D01*
X70760Y19589D01*
X70656Y19549D01*
X70554Y19505D01*
X70453Y19457D01*
X70354Y19406D01*
X70256Y19351D01*
X70161Y19293D01*
X70068Y19232D01*
X69977Y19167D01*
X69888Y19099D01*
X69802Y19028D01*
X69719Y18955D01*
X69638Y18878D01*
X69559Y18798D01*
X69484Y18716D01*
X69412Y18631D01*
X69342Y18544D01*
X69276Y18454D01*
X69213Y18362D01*
X69153Y18267D01*
X69097Y18171D01*
X69044Y18073D01*
X68995Y17973D01*
X68949Y17871D01*
X68907Y17768D01*
X68868Y17663D01*
X68833Y17557D01*
X68802Y17450D01*
X68775Y17342D01*
X68751Y17233D01*
X68732Y17123D01*
X68716Y17013D01*
X68704Y16902D01*
X68696Y16790D01*
X68692Y16679D01*
X68692Y16567D01*
X68696Y16456D01*
X68704Y16344D01*
X68716Y16233D01*
X68732Y16123D01*
X68751Y16013D01*
X68775Y15904D01*
X68802Y15796D01*
X68833Y15689D01*
X68868Y15583D01*
X68907Y15478D01*
X68949Y15375D01*
X68995Y15273D01*
X69044Y15173D01*
X69097Y15075D01*
X69153Y14979D01*
X69213Y14884D01*
X69276Y14792D01*
X69342Y14702D01*
X69412Y14615D01*
X69484Y14530D01*
X69559Y14448D01*
X69638Y14368D01*
X69719Y14291D01*
X69802Y14218D01*
X69888Y14147D01*
X69977Y14079D01*
X70068Y14014D01*
X70161Y13953D01*
X70256Y13895D01*
X70354Y13840D01*
X70453Y13789D01*
X70554Y13741D01*
X70656Y13697D01*
X70760Y13657D01*
X70866Y13620D01*
X70972Y13587D01*
X71080Y13558D01*
X71189Y13533D01*
X71298Y13511D01*
X71408Y13493D01*
X71519Y13480D01*
X71630Y13470D01*
X71741Y13464D01*
X71853Y13462D01*
X75917Y13462D01*
X75917Y21590D01*
X75915Y21691D01*
X75909Y21792D01*
X75900Y21893D01*
X75887Y21994D01*
X75870Y22094D01*
X75849Y22193D01*
X75825Y22291D01*
X75797Y22388D01*
X75765Y22485D01*
X75730Y22580D01*
X75691Y22673D01*
X75649Y22765D01*
X75603Y22856D01*
X75554Y22945D01*
X75502Y23031D01*
X75446Y23116D01*
X75388Y23199D01*
X75326Y23279D01*
X75261Y23357D01*
X75194Y23433D01*
X75124Y23506D01*
X75051Y23576D01*
X74975Y23643D01*
X74897Y23708D01*
X74817Y23770D01*
X74734Y23828D01*
X74649Y23884D01*
X74563Y23936D01*
X74474Y23985D01*
X74383Y24031D01*
X74291Y24073D01*
X74198Y24112D01*
X74103Y24147D01*
X74006Y24179D01*
X73909Y24207D01*
X73811Y24231D01*
X73712Y24252D01*
X73612Y24269D01*
X73511Y24282D01*
X73410Y24291D01*
X73309Y24297D01*
X73208Y24299D01*
X69595Y24299D01*
X81536Y24299D02*
X86955Y24299D01*
X83343Y29718D02*
X83343Y16171D01*
X83345Y16070D01*
X83351Y15969D01*
X83360Y15868D01*
X83373Y15767D01*
X83390Y15667D01*
X83411Y15568D01*
X83435Y15470D01*
X83463Y15373D01*
X83495Y15276D01*
X83530Y15181D01*
X83569Y15088D01*
X83611Y14996D01*
X83657Y14905D01*
X83706Y14816D01*
X83758Y14730D01*
X83814Y14645D01*
X83872Y14562D01*
X83934Y14482D01*
X83999Y14404D01*
X84066Y14328D01*
X84136Y14255D01*
X84209Y14185D01*
X84285Y14118D01*
X84363Y14053D01*
X84443Y13991D01*
X84526Y13933D01*
X84611Y13877D01*
X84698Y13825D01*
X84786Y13776D01*
X84877Y13730D01*
X84969Y13688D01*
X85062Y13649D01*
X85157Y13614D01*
X85254Y13582D01*
X85351Y13554D01*
X85449Y13530D01*
X85548Y13509D01*
X85648Y13492D01*
X85749Y13479D01*
X85850Y13470D01*
X85951Y13464D01*
X86052Y13462D01*
X86955Y13462D01*
X93254Y13462D02*
X93254Y29718D01*
X93254Y24299D02*
X97770Y24299D01*
X97874Y24297D01*
X97977Y24291D01*
X98081Y24281D01*
X98184Y24267D01*
X98286Y24249D01*
X98387Y24228D01*
X98488Y24202D01*
X98587Y24173D01*
X98686Y24140D01*
X98783Y24103D01*
X98878Y24062D01*
X98972Y24018D01*
X99064Y23970D01*
X99154Y23919D01*
X99243Y23864D01*
X99329Y23806D01*
X99412Y23744D01*
X99494Y23680D01*
X99572Y23612D01*
X99648Y23542D01*
X99722Y23469D01*
X99792Y23392D01*
X99860Y23314D01*
X99924Y23232D01*
X99986Y23149D01*
X100044Y23063D01*
X100099Y22974D01*
X100150Y22884D01*
X100198Y22792D01*
X100242Y22698D01*
X100283Y22603D01*
X100320Y22506D01*
X100353Y22407D01*
X100382Y22308D01*
X100408Y22207D01*
X100429Y22106D01*
X100447Y22004D01*
X100461Y21901D01*
X100471Y21797D01*
X100477Y21694D01*
X100479Y21590D01*
X100479Y13462D01*
X110410Y19784D02*
X114474Y19784D01*
X110410Y19784D02*
X110298Y19782D01*
X110187Y19776D01*
X110076Y19766D01*
X109965Y19753D01*
X109855Y19735D01*
X109746Y19713D01*
X109637Y19688D01*
X109529Y19659D01*
X109423Y19626D01*
X109317Y19589D01*
X109213Y19549D01*
X109111Y19505D01*
X109010Y19457D01*
X108911Y19406D01*
X108813Y19351D01*
X108718Y19293D01*
X108625Y19232D01*
X108534Y19167D01*
X108445Y19099D01*
X108359Y19028D01*
X108276Y18955D01*
X108195Y18878D01*
X108116Y18798D01*
X108041Y18716D01*
X107969Y18631D01*
X107899Y18544D01*
X107833Y18454D01*
X107770Y18362D01*
X107710Y18267D01*
X107654Y18171D01*
X107601Y18073D01*
X107552Y17973D01*
X107506Y17871D01*
X107464Y17768D01*
X107425Y17663D01*
X107390Y17557D01*
X107359Y17450D01*
X107332Y17342D01*
X107308Y17233D01*
X107289Y17123D01*
X107273Y17013D01*
X107261Y16902D01*
X107253Y16790D01*
X107249Y16679D01*
X107249Y16567D01*
X107253Y16456D01*
X107261Y16344D01*
X107273Y16233D01*
X107289Y16123D01*
X107308Y16013D01*
X107332Y15904D01*
X107359Y15796D01*
X107390Y15689D01*
X107425Y15583D01*
X107464Y15478D01*
X107506Y15375D01*
X107552Y15273D01*
X107601Y15173D01*
X107654Y15075D01*
X107710Y14979D01*
X107770Y14884D01*
X107833Y14792D01*
X107899Y14702D01*
X107969Y14615D01*
X108041Y14530D01*
X108116Y14448D01*
X108195Y14368D01*
X108276Y14291D01*
X108359Y14218D01*
X108445Y14147D01*
X108534Y14079D01*
X108625Y14014D01*
X108718Y13953D01*
X108813Y13895D01*
X108911Y13840D01*
X109010Y13789D01*
X109111Y13741D01*
X109213Y13697D01*
X109317Y13657D01*
X109423Y13620D01*
X109529Y13587D01*
X109637Y13558D01*
X109746Y13533D01*
X109855Y13511D01*
X109965Y13493D01*
X110076Y13480D01*
X110187Y13470D01*
X110298Y13464D01*
X110410Y13462D01*
X114474Y13462D01*
X114474Y21590D01*
X114472Y21691D01*
X114466Y21792D01*
X114457Y21893D01*
X114444Y21994D01*
X114427Y22094D01*
X114406Y22193D01*
X114382Y22291D01*
X114354Y22388D01*
X114322Y22485D01*
X114287Y22580D01*
X114248Y22673D01*
X114206Y22765D01*
X114160Y22856D01*
X114111Y22945D01*
X114059Y23031D01*
X114003Y23116D01*
X113945Y23199D01*
X113883Y23279D01*
X113818Y23357D01*
X113751Y23433D01*
X113681Y23506D01*
X113608Y23576D01*
X113532Y23643D01*
X113454Y23708D01*
X113374Y23770D01*
X113291Y23828D01*
X113206Y23884D01*
X113120Y23936D01*
X113031Y23985D01*
X112940Y24031D01*
X112848Y24073D01*
X112755Y24112D01*
X112660Y24147D01*
X112563Y24179D01*
X112466Y24207D01*
X112368Y24231D01*
X112269Y24252D01*
X112169Y24269D01*
X112068Y24282D01*
X111967Y24291D01*
X111866Y24297D01*
X111765Y24299D01*
X108152Y24299D01*
X121912Y24299D02*
X121912Y13462D01*
X121912Y24299D02*
X126427Y24299D01*
X126531Y24297D01*
X126634Y24291D01*
X126738Y24281D01*
X126841Y24267D01*
X126943Y24249D01*
X127044Y24228D01*
X127145Y24202D01*
X127244Y24173D01*
X127343Y24140D01*
X127440Y24103D01*
X127535Y24062D01*
X127629Y24018D01*
X127721Y23970D01*
X127811Y23919D01*
X127900Y23864D01*
X127986Y23806D01*
X128069Y23744D01*
X128151Y23680D01*
X128229Y23612D01*
X128305Y23542D01*
X128379Y23469D01*
X128449Y23392D01*
X128517Y23314D01*
X128581Y23232D01*
X128643Y23149D01*
X128701Y23063D01*
X128756Y22974D01*
X128807Y22884D01*
X128855Y22792D01*
X128899Y22698D01*
X128940Y22603D01*
X128977Y22506D01*
X129010Y22407D01*
X129039Y22308D01*
X129065Y22207D01*
X129086Y22106D01*
X129104Y22004D01*
X129118Y21901D01*
X129128Y21797D01*
X129134Y21694D01*
X129136Y21590D01*
X129137Y21590D02*
X129137Y13462D01*
X145671Y19784D02*
X150187Y17978D01*
X145671Y19784D02*
X145583Y19821D01*
X145497Y19862D01*
X145412Y19906D01*
X145329Y19954D01*
X145249Y20005D01*
X145170Y20059D01*
X145094Y20117D01*
X145020Y20177D01*
X144948Y20241D01*
X144880Y20307D01*
X144814Y20377D01*
X144751Y20448D01*
X144690Y20523D01*
X144633Y20599D01*
X144580Y20678D01*
X144529Y20759D01*
X144482Y20842D01*
X144438Y20927D01*
X144398Y21014D01*
X144361Y21102D01*
X144328Y21192D01*
X144298Y21283D01*
X144273Y21375D01*
X144251Y21468D01*
X144233Y21562D01*
X144218Y21656D01*
X144208Y21751D01*
X144202Y21847D01*
X144199Y21942D01*
X144200Y22038D01*
X144206Y22133D01*
X144215Y22229D01*
X144228Y22323D01*
X144244Y22417D01*
X144265Y22511D01*
X144290Y22603D01*
X144318Y22694D01*
X144350Y22784D01*
X144385Y22873D01*
X144424Y22960D01*
X144467Y23046D01*
X144513Y23130D01*
X144563Y23211D01*
X144615Y23291D01*
X144671Y23369D01*
X144731Y23444D01*
X144793Y23516D01*
X144858Y23586D01*
X144926Y23654D01*
X144996Y23718D01*
X145069Y23780D01*
X145145Y23838D01*
X145223Y23894D01*
X145303Y23946D01*
X145385Y23995D01*
X145469Y24040D01*
X145555Y24082D01*
X145642Y24121D01*
X145731Y24156D01*
X145822Y24187D01*
X145913Y24214D01*
X146006Y24238D01*
X146099Y24258D01*
X146193Y24274D01*
X146288Y24286D01*
X146383Y24295D01*
X146479Y24299D01*
X146574Y24300D01*
X146821Y24293D01*
X147067Y24281D01*
X147313Y24263D01*
X147559Y24238D01*
X147803Y24208D01*
X148047Y24172D01*
X148290Y24131D01*
X148532Y24083D01*
X148773Y24029D01*
X149012Y23970D01*
X149250Y23905D01*
X149486Y23834D01*
X149721Y23758D01*
X149954Y23676D01*
X150184Y23588D01*
X150412Y23495D01*
X150639Y23397D01*
X150187Y17977D02*
X150275Y17940D01*
X150361Y17899D01*
X150446Y17855D01*
X150529Y17807D01*
X150609Y17756D01*
X150688Y17702D01*
X150764Y17644D01*
X150838Y17584D01*
X150910Y17520D01*
X150978Y17454D01*
X151044Y17384D01*
X151107Y17313D01*
X151168Y17238D01*
X151225Y17162D01*
X151278Y17083D01*
X151329Y17002D01*
X151376Y16919D01*
X151420Y16834D01*
X151460Y16747D01*
X151497Y16659D01*
X151530Y16569D01*
X151560Y16478D01*
X151585Y16386D01*
X151607Y16293D01*
X151625Y16199D01*
X151640Y16105D01*
X151650Y16010D01*
X151656Y15914D01*
X151659Y15819D01*
X151658Y15723D01*
X151652Y15628D01*
X151643Y15532D01*
X151630Y15438D01*
X151614Y15344D01*
X151593Y15250D01*
X151568Y15158D01*
X151540Y15067D01*
X151508Y14977D01*
X151473Y14888D01*
X151434Y14801D01*
X151391Y14715D01*
X151345Y14631D01*
X151295Y14550D01*
X151243Y14470D01*
X151187Y14392D01*
X151127Y14317D01*
X151065Y14245D01*
X151000Y14175D01*
X150932Y14107D01*
X150862Y14043D01*
X150789Y13981D01*
X150713Y13923D01*
X150635Y13867D01*
X150555Y13815D01*
X150473Y13766D01*
X150389Y13721D01*
X150303Y13679D01*
X150216Y13640D01*
X150127Y13605D01*
X150036Y13574D01*
X149945Y13547D01*
X149852Y13523D01*
X149759Y13503D01*
X149665Y13487D01*
X149570Y13475D01*
X149475Y13466D01*
X149379Y13462D01*
X149284Y13461D01*
X149283Y13462D02*
X148921Y13471D01*
X148559Y13489D01*
X148198Y13516D01*
X147838Y13551D01*
X147478Y13594D01*
X147119Y13646D01*
X146762Y13707D01*
X146407Y13776D01*
X146053Y13853D01*
X145701Y13939D01*
X145351Y14033D01*
X145003Y14136D01*
X144658Y14246D01*
X144316Y14365D01*
X160951Y19784D02*
X165015Y19784D01*
X160951Y19784D02*
X160839Y19782D01*
X160728Y19776D01*
X160617Y19766D01*
X160506Y19753D01*
X160396Y19735D01*
X160287Y19713D01*
X160178Y19688D01*
X160070Y19659D01*
X159964Y19626D01*
X159858Y19589D01*
X159754Y19549D01*
X159652Y19505D01*
X159551Y19457D01*
X159452Y19406D01*
X159354Y19351D01*
X159259Y19293D01*
X159166Y19232D01*
X159075Y19167D01*
X158986Y19099D01*
X158900Y19028D01*
X158817Y18955D01*
X158736Y18878D01*
X158657Y18798D01*
X158582Y18716D01*
X158510Y18631D01*
X158440Y18544D01*
X158374Y18454D01*
X158311Y18362D01*
X158251Y18267D01*
X158195Y18171D01*
X158142Y18073D01*
X158093Y17973D01*
X158047Y17871D01*
X158005Y17768D01*
X157966Y17663D01*
X157931Y17557D01*
X157900Y17450D01*
X157873Y17342D01*
X157849Y17233D01*
X157830Y17123D01*
X157814Y17013D01*
X157802Y16902D01*
X157794Y16790D01*
X157790Y16679D01*
X157790Y16567D01*
X157794Y16456D01*
X157802Y16344D01*
X157814Y16233D01*
X157830Y16123D01*
X157849Y16013D01*
X157873Y15904D01*
X157900Y15796D01*
X157931Y15689D01*
X157966Y15583D01*
X158005Y15478D01*
X158047Y15375D01*
X158093Y15273D01*
X158142Y15173D01*
X158195Y15075D01*
X158251Y14979D01*
X158311Y14884D01*
X158374Y14792D01*
X158440Y14702D01*
X158510Y14615D01*
X158582Y14530D01*
X158657Y14448D01*
X158736Y14368D01*
X158817Y14291D01*
X158900Y14218D01*
X158986Y14147D01*
X159075Y14079D01*
X159166Y14014D01*
X159259Y13953D01*
X159354Y13895D01*
X159452Y13840D01*
X159551Y13789D01*
X159652Y13741D01*
X159754Y13697D01*
X159858Y13657D01*
X159964Y13620D01*
X160070Y13587D01*
X160178Y13558D01*
X160287Y13533D01*
X160396Y13511D01*
X160506Y13493D01*
X160617Y13480D01*
X160728Y13470D01*
X160839Y13464D01*
X160951Y13462D01*
X165015Y13462D01*
X165015Y21590D01*
X165013Y21691D01*
X165007Y21792D01*
X164998Y21893D01*
X164985Y21994D01*
X164968Y22094D01*
X164947Y22193D01*
X164923Y22291D01*
X164895Y22388D01*
X164863Y22485D01*
X164828Y22580D01*
X164789Y22673D01*
X164747Y22765D01*
X164701Y22856D01*
X164652Y22945D01*
X164600Y23031D01*
X164544Y23116D01*
X164486Y23199D01*
X164424Y23279D01*
X164359Y23357D01*
X164292Y23433D01*
X164222Y23506D01*
X164149Y23576D01*
X164073Y23643D01*
X163995Y23708D01*
X163915Y23770D01*
X163832Y23828D01*
X163747Y23884D01*
X163661Y23936D01*
X163572Y23985D01*
X163481Y24031D01*
X163389Y24073D01*
X163296Y24112D01*
X163201Y24147D01*
X163104Y24179D01*
X163007Y24207D01*
X162909Y24231D01*
X162810Y24252D01*
X162710Y24269D01*
X162609Y24282D01*
X162508Y24291D01*
X162407Y24297D01*
X162306Y24299D01*
X158693Y24299D01*
X172168Y29718D02*
X172168Y16171D01*
X172169Y16171D02*
X172171Y16070D01*
X172177Y15969D01*
X172186Y15868D01*
X172199Y15767D01*
X172216Y15667D01*
X172237Y15568D01*
X172261Y15470D01*
X172289Y15373D01*
X172321Y15276D01*
X172356Y15181D01*
X172395Y15088D01*
X172437Y14996D01*
X172483Y14905D01*
X172532Y14816D01*
X172584Y14730D01*
X172640Y14645D01*
X172698Y14562D01*
X172760Y14482D01*
X172825Y14404D01*
X172892Y14328D01*
X172962Y14255D01*
X173035Y14185D01*
X173111Y14118D01*
X173189Y14053D01*
X173269Y13991D01*
X173352Y13933D01*
X173437Y13877D01*
X173524Y13825D01*
X173612Y13776D01*
X173703Y13730D01*
X173795Y13688D01*
X173888Y13649D01*
X173983Y13614D01*
X174080Y13582D01*
X174177Y13554D01*
X174275Y13530D01*
X174374Y13509D01*
X174474Y13492D01*
X174575Y13479D01*
X174676Y13470D01*
X174777Y13464D01*
X174878Y13462D01*
X178971Y24299D02*
X184390Y24299D01*
X180777Y29718D02*
X180777Y16171D01*
X180779Y16070D01*
X180785Y15969D01*
X180794Y15868D01*
X180807Y15767D01*
X180824Y15667D01*
X180845Y15568D01*
X180869Y15470D01*
X180897Y15373D01*
X180929Y15276D01*
X180964Y15181D01*
X181003Y15088D01*
X181045Y14996D01*
X181091Y14905D01*
X181140Y14816D01*
X181192Y14730D01*
X181248Y14645D01*
X181306Y14562D01*
X181368Y14482D01*
X181433Y14404D01*
X181500Y14328D01*
X181570Y14255D01*
X181643Y14185D01*
X181719Y14118D01*
X181797Y14053D01*
X181877Y13991D01*
X181960Y13933D01*
X182045Y13877D01*
X182132Y13825D01*
X182220Y13776D01*
X182311Y13730D01*
X182403Y13688D01*
X182496Y13649D01*
X182591Y13614D01*
X182688Y13582D01*
X182785Y13554D01*
X182883Y13530D01*
X182982Y13509D01*
X183082Y13492D01*
X183183Y13479D01*
X183284Y13470D01*
X183385Y13464D01*
X183486Y13462D01*
X184390Y13462D01*
X18881Y419862D02*
X18999Y419864D01*
X19117Y419870D01*
X19235Y419879D01*
X19352Y419893D01*
X19469Y419910D01*
X19586Y419931D01*
X19701Y419956D01*
X19816Y419985D01*
X19930Y420018D01*
X20042Y420054D01*
X20153Y420094D01*
X20263Y420137D01*
X20372Y420184D01*
X20479Y420234D01*
X20584Y420289D01*
X20687Y420346D01*
X20788Y420407D01*
X20888Y420471D01*
X20985Y420538D01*
X21080Y420608D01*
X21172Y420682D01*
X21263Y420758D01*
X21350Y420838D01*
X21435Y420920D01*
X21517Y421005D01*
X21597Y421092D01*
X21673Y421183D01*
X21747Y421275D01*
X21817Y421370D01*
X21884Y421467D01*
X21948Y421567D01*
X22009Y421668D01*
X22066Y421771D01*
X22121Y421876D01*
X22171Y421983D01*
X22218Y422092D01*
X22261Y422202D01*
X22301Y422313D01*
X22337Y422425D01*
X22370Y422539D01*
X22399Y422654D01*
X22424Y422769D01*
X22445Y422886D01*
X22462Y423003D01*
X22476Y423120D01*
X22485Y423238D01*
X22491Y423356D01*
X22493Y423474D01*
X18881Y419862D02*
X18698Y419864D01*
X18516Y419871D01*
X18334Y419882D01*
X18152Y419897D01*
X17970Y419917D01*
X17789Y419940D01*
X17609Y419969D01*
X17429Y420001D01*
X17250Y420038D01*
X17073Y420079D01*
X16896Y420125D01*
X16720Y420174D01*
X16546Y420228D01*
X16372Y420286D01*
X16201Y420348D01*
X16031Y420414D01*
X15862Y420485D01*
X15695Y420559D01*
X15530Y420637D01*
X15367Y420719D01*
X15206Y420805D01*
X15047Y420895D01*
X14890Y420989D01*
X14736Y421086D01*
X14584Y421187D01*
X14434Y421292D01*
X14287Y421400D01*
X14143Y421511D01*
X14001Y421626D01*
X13862Y421745D01*
X13726Y421867D01*
X13593Y421992D01*
X13463Y422120D01*
X13914Y432506D02*
X13916Y432624D01*
X13922Y432742D01*
X13931Y432860D01*
X13945Y432977D01*
X13962Y433094D01*
X13983Y433211D01*
X14008Y433326D01*
X14037Y433441D01*
X14070Y433555D01*
X14106Y433667D01*
X14146Y433778D01*
X14189Y433888D01*
X14236Y433997D01*
X14286Y434104D01*
X14341Y434209D01*
X14398Y434312D01*
X14459Y434413D01*
X14523Y434513D01*
X14590Y434610D01*
X14660Y434705D01*
X14734Y434797D01*
X14810Y434888D01*
X14890Y434975D01*
X14972Y435060D01*
X15057Y435142D01*
X15144Y435222D01*
X15235Y435298D01*
X15327Y435372D01*
X15422Y435442D01*
X15519Y435509D01*
X15619Y435573D01*
X15720Y435634D01*
X15823Y435692D01*
X15928Y435746D01*
X16035Y435796D01*
X16144Y435843D01*
X16254Y435887D01*
X16365Y435926D01*
X16478Y435962D01*
X16591Y435995D01*
X16706Y436024D01*
X16821Y436049D01*
X16938Y436070D01*
X17055Y436087D01*
X17172Y436101D01*
X17290Y436110D01*
X17408Y436116D01*
X17526Y436118D01*
X17687Y436116D01*
X17849Y436110D01*
X18010Y436101D01*
X18171Y436087D01*
X18331Y436070D01*
X18491Y436049D01*
X18651Y436024D01*
X18810Y435995D01*
X18968Y435963D01*
X19125Y435927D01*
X19281Y435887D01*
X19437Y435843D01*
X19591Y435795D01*
X19744Y435744D01*
X19896Y435690D01*
X20047Y435631D01*
X20196Y435570D01*
X20343Y435504D01*
X20489Y435435D01*
X20634Y435363D01*
X20776Y435287D01*
X20917Y435208D01*
X21056Y435126D01*
X21192Y435040D01*
X21327Y434951D01*
X21460Y434859D01*
X21590Y434763D01*
X15719Y429345D02*
X15618Y429407D01*
X15518Y429472D01*
X15421Y429541D01*
X15326Y429613D01*
X15233Y429687D01*
X15143Y429765D01*
X15055Y429846D01*
X14970Y429929D01*
X14888Y430015D01*
X14809Y430104D01*
X14732Y430195D01*
X14659Y430289D01*
X14588Y430385D01*
X14521Y430483D01*
X14457Y430583D01*
X14396Y430686D01*
X14339Y430790D01*
X14285Y430896D01*
X14235Y431004D01*
X14188Y431113D01*
X14144Y431224D01*
X14104Y431336D01*
X14068Y431450D01*
X14036Y431564D01*
X14007Y431680D01*
X13982Y431796D01*
X13961Y431913D01*
X13944Y432031D01*
X13930Y432149D01*
X13921Y432268D01*
X13915Y432387D01*
X13913Y432506D01*
X20687Y426635D02*
X20788Y426573D01*
X20888Y426508D01*
X20985Y426439D01*
X21080Y426367D01*
X21173Y426293D01*
X21263Y426215D01*
X21351Y426134D01*
X21436Y426051D01*
X21518Y425965D01*
X21597Y425876D01*
X21674Y425785D01*
X21747Y425691D01*
X21818Y425595D01*
X21885Y425497D01*
X21949Y425397D01*
X22010Y425294D01*
X22067Y425190D01*
X22121Y425084D01*
X22171Y424976D01*
X22218Y424867D01*
X22262Y424756D01*
X22302Y424644D01*
X22338Y424530D01*
X22370Y424416D01*
X22399Y424300D01*
X22424Y424184D01*
X22445Y424067D01*
X22462Y423949D01*
X22476Y423831D01*
X22485Y423712D01*
X22491Y423593D01*
X22493Y423474D01*
X20687Y426635D02*
X15720Y429345D01*
X29304Y428893D02*
X33820Y428893D01*
X33820Y428894D02*
X33953Y428892D01*
X34085Y428886D01*
X34217Y428876D01*
X34349Y428863D01*
X34481Y428845D01*
X34611Y428824D01*
X34742Y428799D01*
X34871Y428770D01*
X34999Y428737D01*
X35127Y428701D01*
X35253Y428661D01*
X35378Y428617D01*
X35502Y428569D01*
X35624Y428518D01*
X35745Y428463D01*
X35864Y428405D01*
X35982Y428343D01*
X36097Y428278D01*
X36211Y428209D01*
X36322Y428138D01*
X36431Y428062D01*
X36538Y427984D01*
X36643Y427903D01*
X36745Y427818D01*
X36845Y427731D01*
X36942Y427641D01*
X37037Y427548D01*
X37128Y427452D01*
X37217Y427354D01*
X37303Y427253D01*
X37386Y427149D01*
X37466Y427043D01*
X37542Y426935D01*
X37616Y426825D01*
X37686Y426712D01*
X37753Y426598D01*
X37816Y426481D01*
X37876Y426363D01*
X37933Y426243D01*
X37986Y426121D01*
X38035Y425998D01*
X38081Y425874D01*
X38123Y425748D01*
X38161Y425621D01*
X38196Y425493D01*
X38227Y425364D01*
X38254Y425235D01*
X38277Y425104D01*
X38297Y424973D01*
X38312Y424841D01*
X38324Y424709D01*
X38332Y424577D01*
X38336Y424444D01*
X38336Y424312D01*
X38332Y424179D01*
X38324Y424047D01*
X38312Y423915D01*
X38297Y423783D01*
X38277Y423652D01*
X38254Y423521D01*
X38227Y423392D01*
X38196Y423263D01*
X38161Y423135D01*
X38123Y423008D01*
X38081Y422882D01*
X38035Y422758D01*
X37986Y422635D01*
X37933Y422513D01*
X37876Y422393D01*
X37816Y422275D01*
X37753Y422158D01*
X37686Y422044D01*
X37616Y421931D01*
X37542Y421821D01*
X37466Y421713D01*
X37386Y421607D01*
X37303Y421503D01*
X37217Y421402D01*
X37128Y421304D01*
X37037Y421208D01*
X36942Y421115D01*
X36845Y421025D01*
X36745Y420938D01*
X36643Y420853D01*
X36538Y420772D01*
X36431Y420694D01*
X36322Y420618D01*
X36211Y420547D01*
X36097Y420478D01*
X35982Y420413D01*
X35864Y420351D01*
X35745Y420293D01*
X35624Y420238D01*
X35502Y420187D01*
X35378Y420139D01*
X35253Y420095D01*
X35127Y420055D01*
X34999Y420019D01*
X34871Y419986D01*
X34742Y419957D01*
X34611Y419932D01*
X34481Y419911D01*
X34349Y419893D01*
X34217Y419880D01*
X34085Y419870D01*
X33953Y419864D01*
X33820Y419862D01*
X29304Y419862D01*
X29304Y436118D01*
X33820Y436118D01*
X33939Y436116D01*
X34059Y436110D01*
X34178Y436100D01*
X34296Y436086D01*
X34415Y436069D01*
X34532Y436047D01*
X34649Y436022D01*
X34764Y435992D01*
X34879Y435959D01*
X34993Y435922D01*
X35105Y435882D01*
X35216Y435837D01*
X35325Y435789D01*
X35433Y435738D01*
X35539Y435683D01*
X35643Y435624D01*
X35745Y435562D01*
X35845Y435497D01*
X35943Y435428D01*
X36039Y435356D01*
X36132Y435281D01*
X36222Y435204D01*
X36310Y435123D01*
X36395Y435039D01*
X36477Y434952D01*
X36557Y434863D01*
X36633Y434771D01*
X36707Y434677D01*
X36777Y434580D01*
X36844Y434482D01*
X36908Y434381D01*
X36968Y434277D01*
X37025Y434172D01*
X37078Y434065D01*
X37128Y433957D01*
X37174Y433847D01*
X37216Y433735D01*
X37255Y433622D01*
X37290Y433508D01*
X37321Y433393D01*
X37349Y433276D01*
X37372Y433159D01*
X37392Y433042D01*
X37408Y432923D01*
X37420Y432804D01*
X37428Y432685D01*
X37432Y432566D01*
X37432Y432446D01*
X37428Y432327D01*
X37420Y432208D01*
X37408Y432089D01*
X37392Y431970D01*
X37372Y431853D01*
X37349Y431736D01*
X37321Y431619D01*
X37290Y431504D01*
X37255Y431390D01*
X37216Y431277D01*
X37174Y431165D01*
X37128Y431055D01*
X37078Y430947D01*
X37025Y430840D01*
X36968Y430735D01*
X36908Y430631D01*
X36844Y430530D01*
X36777Y430432D01*
X36707Y430335D01*
X36633Y430241D01*
X36557Y430149D01*
X36477Y430060D01*
X36395Y429973D01*
X36310Y429889D01*
X36222Y429808D01*
X36132Y429731D01*
X36039Y429656D01*
X35943Y429584D01*
X35845Y429515D01*
X35745Y429450D01*
X35643Y429388D01*
X35539Y429329D01*
X35433Y429274D01*
X35325Y429223D01*
X35216Y429175D01*
X35105Y429130D01*
X34993Y429090D01*
X34879Y429053D01*
X34764Y429020D01*
X34649Y428990D01*
X34532Y428965D01*
X34415Y428943D01*
X34296Y428926D01*
X34178Y428912D01*
X34059Y428902D01*
X33939Y428896D01*
X33820Y428894D01*
X44064Y427087D02*
X44064Y423474D01*
X44065Y427087D02*
X44067Y427206D01*
X44073Y427326D01*
X44083Y427445D01*
X44097Y427563D01*
X44114Y427682D01*
X44136Y427799D01*
X44161Y427916D01*
X44191Y428031D01*
X44224Y428146D01*
X44261Y428260D01*
X44301Y428372D01*
X44346Y428483D01*
X44394Y428592D01*
X44445Y428700D01*
X44500Y428806D01*
X44559Y428910D01*
X44621Y429012D01*
X44686Y429112D01*
X44755Y429210D01*
X44827Y429306D01*
X44902Y429399D01*
X44979Y429489D01*
X45060Y429577D01*
X45144Y429662D01*
X45231Y429744D01*
X45320Y429824D01*
X45412Y429900D01*
X45506Y429974D01*
X45603Y430044D01*
X45701Y430111D01*
X45802Y430175D01*
X45906Y430235D01*
X46011Y430292D01*
X46118Y430345D01*
X46226Y430395D01*
X46336Y430441D01*
X46448Y430483D01*
X46561Y430522D01*
X46675Y430557D01*
X46790Y430588D01*
X46907Y430616D01*
X47024Y430639D01*
X47141Y430659D01*
X47260Y430675D01*
X47379Y430687D01*
X47498Y430695D01*
X47617Y430699D01*
X47737Y430699D01*
X47856Y430695D01*
X47975Y430687D01*
X48094Y430675D01*
X48213Y430659D01*
X48330Y430639D01*
X48447Y430616D01*
X48564Y430588D01*
X48679Y430557D01*
X48793Y430522D01*
X48906Y430483D01*
X49018Y430441D01*
X49128Y430395D01*
X49236Y430345D01*
X49343Y430292D01*
X49448Y430235D01*
X49552Y430175D01*
X49653Y430111D01*
X49751Y430044D01*
X49848Y429974D01*
X49942Y429900D01*
X50034Y429824D01*
X50123Y429744D01*
X50210Y429662D01*
X50294Y429577D01*
X50375Y429489D01*
X50452Y429399D01*
X50527Y429306D01*
X50599Y429210D01*
X50668Y429112D01*
X50733Y429012D01*
X50795Y428910D01*
X50854Y428806D01*
X50909Y428700D01*
X50960Y428592D01*
X51008Y428483D01*
X51053Y428372D01*
X51093Y428260D01*
X51130Y428146D01*
X51163Y428031D01*
X51193Y427916D01*
X51218Y427799D01*
X51240Y427682D01*
X51257Y427563D01*
X51271Y427445D01*
X51281Y427326D01*
X51287Y427206D01*
X51289Y427087D01*
X51289Y423474D01*
X51287Y423355D01*
X51281Y423235D01*
X51271Y423116D01*
X51257Y422998D01*
X51240Y422879D01*
X51218Y422762D01*
X51193Y422645D01*
X51163Y422530D01*
X51130Y422415D01*
X51093Y422301D01*
X51053Y422189D01*
X51008Y422078D01*
X50960Y421969D01*
X50909Y421861D01*
X50854Y421755D01*
X50795Y421651D01*
X50733Y421549D01*
X50668Y421449D01*
X50599Y421351D01*
X50527Y421255D01*
X50452Y421162D01*
X50375Y421072D01*
X50294Y420984D01*
X50210Y420899D01*
X50123Y420817D01*
X50034Y420737D01*
X49942Y420661D01*
X49848Y420587D01*
X49751Y420517D01*
X49653Y420450D01*
X49552Y420386D01*
X49448Y420326D01*
X49343Y420269D01*
X49236Y420216D01*
X49128Y420166D01*
X49018Y420120D01*
X48906Y420078D01*
X48793Y420039D01*
X48679Y420004D01*
X48564Y419973D01*
X48447Y419945D01*
X48330Y419922D01*
X48213Y419902D01*
X48094Y419886D01*
X47975Y419874D01*
X47856Y419866D01*
X47737Y419862D01*
X47617Y419862D01*
X47498Y419866D01*
X47379Y419874D01*
X47260Y419886D01*
X47141Y419902D01*
X47024Y419922D01*
X46907Y419945D01*
X46790Y419973D01*
X46675Y420004D01*
X46561Y420039D01*
X46448Y420078D01*
X46336Y420120D01*
X46226Y420166D01*
X46118Y420216D01*
X46011Y420269D01*
X45906Y420326D01*
X45802Y420386D01*
X45701Y420450D01*
X45603Y420517D01*
X45506Y420587D01*
X45412Y420661D01*
X45320Y420737D01*
X45231Y420817D01*
X45144Y420899D01*
X45060Y420984D01*
X44979Y421072D01*
X44902Y421162D01*
X44827Y421255D01*
X44755Y421351D01*
X44686Y421449D01*
X44621Y421549D01*
X44559Y421651D01*
X44500Y421755D01*
X44445Y421861D01*
X44394Y421969D01*
X44346Y422078D01*
X44301Y422189D01*
X44261Y422301D01*
X44224Y422415D01*
X44191Y422530D01*
X44161Y422645D01*
X44136Y422762D01*
X44114Y422879D01*
X44097Y422998D01*
X44083Y423116D01*
X44073Y423235D01*
X44067Y423355D01*
X44065Y423474D01*
X57090Y419862D02*
X64315Y430699D01*
X57090Y430699D02*
X64315Y419862D01*
X81544Y419862D02*
X77932Y430699D01*
X85157Y430699D02*
X81544Y419862D01*
X91097Y427990D02*
X91101Y428310D01*
X91112Y428629D01*
X91131Y428949D01*
X91158Y429267D01*
X91192Y429585D01*
X91234Y429902D01*
X91284Y430218D01*
X91341Y430533D01*
X91405Y430846D01*
X91477Y431158D01*
X91556Y431468D01*
X91643Y431775D01*
X91737Y432081D01*
X91838Y432384D01*
X91947Y432685D01*
X92062Y432983D01*
X92185Y433279D01*
X92315Y433571D01*
X92452Y433860D01*
X92452Y433861D02*
X92491Y433969D01*
X92534Y434076D01*
X92580Y434181D01*
X92631Y434285D01*
X92684Y434387D01*
X92741Y434487D01*
X92802Y434585D01*
X92866Y434680D01*
X92933Y434774D01*
X93004Y434865D01*
X93077Y434954D01*
X93154Y435040D01*
X93233Y435123D01*
X93315Y435204D01*
X93400Y435282D01*
X93488Y435356D01*
X93578Y435428D01*
X93670Y435496D01*
X93765Y435562D01*
X93862Y435624D01*
X93961Y435682D01*
X94063Y435738D01*
X94165Y435789D01*
X94270Y435837D01*
X94376Y435882D01*
X94484Y435923D01*
X94593Y435960D01*
X94703Y435993D01*
X94815Y436022D01*
X94927Y436048D01*
X95040Y436070D01*
X95154Y436087D01*
X95268Y436101D01*
X95383Y436111D01*
X95498Y436117D01*
X95613Y436119D01*
X95613Y436118D02*
X95728Y436116D01*
X95843Y436110D01*
X95958Y436100D01*
X96072Y436086D01*
X96186Y436069D01*
X96299Y436047D01*
X96411Y436021D01*
X96523Y435992D01*
X96633Y435959D01*
X96742Y435922D01*
X96850Y435881D01*
X96956Y435836D01*
X97061Y435788D01*
X97163Y435737D01*
X97264Y435681D01*
X97364Y435623D01*
X97461Y435561D01*
X97555Y435496D01*
X97648Y435427D01*
X97738Y435355D01*
X97826Y435281D01*
X97911Y435203D01*
X97993Y435122D01*
X98072Y435039D01*
X98149Y434953D01*
X98222Y434864D01*
X98293Y434773D01*
X98360Y434679D01*
X98424Y434584D01*
X98485Y434486D01*
X98542Y434386D01*
X98595Y434284D01*
X98646Y434180D01*
X98692Y434075D01*
X98735Y433968D01*
X98774Y433860D01*
X98773Y433860D02*
X98910Y433571D01*
X99040Y433279D01*
X99163Y432983D01*
X99278Y432685D01*
X99387Y432384D01*
X99488Y432081D01*
X99582Y431775D01*
X99669Y431468D01*
X99748Y431158D01*
X99820Y430846D01*
X99884Y430533D01*
X99941Y430218D01*
X99991Y429902D01*
X100033Y429585D01*
X100067Y429267D01*
X100094Y428949D01*
X100113Y428629D01*
X100124Y428310D01*
X100128Y427990D01*
X91097Y427990D02*
X91101Y427670D01*
X91112Y427351D01*
X91131Y427031D01*
X91158Y426713D01*
X91192Y426395D01*
X91234Y426078D01*
X91284Y425762D01*
X91341Y425447D01*
X91405Y425134D01*
X91477Y424822D01*
X91556Y424512D01*
X91643Y424205D01*
X91737Y423899D01*
X91838Y423596D01*
X91947Y423295D01*
X92062Y422997D01*
X92185Y422701D01*
X92315Y422409D01*
X92452Y422120D01*
X92491Y422012D01*
X92534Y421905D01*
X92580Y421800D01*
X92631Y421696D01*
X92684Y421594D01*
X92741Y421494D01*
X92802Y421396D01*
X92866Y421301D01*
X92933Y421207D01*
X93004Y421116D01*
X93077Y421027D01*
X93154Y420941D01*
X93233Y420858D01*
X93315Y420777D01*
X93400Y420699D01*
X93488Y420625D01*
X93578Y420553D01*
X93671Y420484D01*
X93765Y420419D01*
X93862Y420357D01*
X93962Y420299D01*
X94063Y420243D01*
X94165Y420192D01*
X94270Y420144D01*
X94376Y420099D01*
X94484Y420058D01*
X94593Y420021D01*
X94703Y419988D01*
X94815Y419959D01*
X94927Y419933D01*
X95040Y419911D01*
X95154Y419894D01*
X95268Y419880D01*
X95383Y419870D01*
X95498Y419864D01*
X95613Y419862D01*
X98773Y422120D02*
X98910Y422409D01*
X99040Y422701D01*
X99163Y422997D01*
X99278Y423295D01*
X99387Y423596D01*
X99488Y423899D01*
X99582Y424205D01*
X99669Y424512D01*
X99748Y424822D01*
X99820Y425134D01*
X99884Y425447D01*
X99941Y425762D01*
X99991Y426078D01*
X100033Y426395D01*
X100067Y426713D01*
X100094Y427031D01*
X100113Y427351D01*
X100124Y427670D01*
X100128Y427990D01*
X98774Y422120D02*
X98735Y422012D01*
X98692Y421905D01*
X98646Y421800D01*
X98595Y421696D01*
X98542Y421594D01*
X98485Y421494D01*
X98424Y421396D01*
X98360Y421301D01*
X98293Y421207D01*
X98222Y421116D01*
X98149Y421027D01*
X98072Y420941D01*
X97993Y420858D01*
X97911Y420777D01*
X97826Y420699D01*
X97738Y420625D01*
X97648Y420553D01*
X97555Y420484D01*
X97461Y420419D01*
X97364Y420357D01*
X97264Y420299D01*
X97163Y420243D01*
X97060Y420192D01*
X96956Y420144D01*
X96850Y420099D01*
X96742Y420058D01*
X96633Y420021D01*
X96523Y419988D01*
X96411Y419959D01*
X96299Y419933D01*
X96186Y419911D01*
X96072Y419894D01*
X95958Y419880D01*
X95843Y419870D01*
X95728Y419864D01*
X95613Y419862D01*
X92000Y423474D02*
X99225Y432506D01*
X106103Y420765D02*
X106103Y419862D01*
X106103Y420765D02*
X107006Y420765D01*
X107006Y419862D01*
X106103Y419862D01*
X122012Y432054D02*
X122010Y432179D01*
X122004Y432304D01*
X121995Y432429D01*
X121981Y432553D01*
X121964Y432677D01*
X121943Y432801D01*
X121918Y432923D01*
X121889Y433045D01*
X121857Y433166D01*
X121821Y433286D01*
X121781Y433405D01*
X121738Y433522D01*
X121691Y433638D01*
X121640Y433753D01*
X121586Y433865D01*
X121528Y433977D01*
X121468Y434086D01*
X121403Y434193D01*
X121336Y434299D01*
X121265Y434402D01*
X121191Y434503D01*
X121114Y434602D01*
X121034Y434698D01*
X120951Y434792D01*
X120866Y434883D01*
X120777Y434972D01*
X120686Y435057D01*
X120592Y435140D01*
X120496Y435220D01*
X120397Y435297D01*
X120296Y435371D01*
X120193Y435442D01*
X120087Y435509D01*
X119980Y435574D01*
X119871Y435634D01*
X119759Y435692D01*
X119647Y435746D01*
X119532Y435797D01*
X119416Y435844D01*
X119299Y435887D01*
X119180Y435927D01*
X119060Y435963D01*
X118939Y435995D01*
X118817Y436024D01*
X118695Y436049D01*
X118571Y436070D01*
X118447Y436087D01*
X118323Y436101D01*
X118198Y436110D01*
X118073Y436116D01*
X117948Y436118D01*
X117805Y436116D01*
X117663Y436110D01*
X117520Y436100D01*
X117378Y436087D01*
X117237Y436069D01*
X117095Y436048D01*
X116955Y436023D01*
X116815Y435994D01*
X116676Y435961D01*
X116538Y435924D01*
X116401Y435884D01*
X116266Y435840D01*
X116131Y435792D01*
X115998Y435740D01*
X115866Y435685D01*
X115736Y435626D01*
X115608Y435564D01*
X115481Y435498D01*
X115356Y435429D01*
X115233Y435357D01*
X115113Y435281D01*
X114994Y435202D01*
X114877Y435119D01*
X114763Y435034D01*
X114651Y434945D01*
X114542Y434854D01*
X114435Y434759D01*
X114330Y434662D01*
X114229Y434561D01*
X114130Y434458D01*
X114034Y434353D01*
X113941Y434244D01*
X113851Y434133D01*
X113764Y434020D01*
X113680Y433905D01*
X113600Y433787D01*
X113522Y433667D01*
X113448Y433545D01*
X113378Y433421D01*
X113310Y433295D01*
X113247Y433167D01*
X113186Y433038D01*
X113129Y432907D01*
X113076Y432775D01*
X113027Y432641D01*
X112981Y432506D01*
X120657Y428893D02*
X120751Y428985D01*
X120841Y429079D01*
X120929Y429176D01*
X121014Y429276D01*
X121096Y429378D01*
X121175Y429483D01*
X121250Y429590D01*
X121322Y429699D01*
X121391Y429810D01*
X121457Y429924D01*
X121519Y430039D01*
X121578Y430156D01*
X121633Y430275D01*
X121684Y430395D01*
X121732Y430517D01*
X121777Y430640D01*
X121817Y430764D01*
X121854Y430890D01*
X121887Y431017D01*
X121916Y431144D01*
X121942Y431273D01*
X121963Y431402D01*
X121981Y431532D01*
X121994Y431662D01*
X122004Y431792D01*
X122010Y431923D01*
X122012Y432054D01*
X120657Y428893D02*
X112981Y419862D01*
X122012Y419862D01*
X133510Y419862D02*
X133628Y419864D01*
X133746Y419870D01*
X133864Y419879D01*
X133981Y419893D01*
X134098Y419910D01*
X134215Y419931D01*
X134330Y419956D01*
X134445Y419985D01*
X134559Y420018D01*
X134671Y420054D01*
X134782Y420094D01*
X134892Y420137D01*
X135001Y420184D01*
X135108Y420234D01*
X135213Y420289D01*
X135316Y420346D01*
X135417Y420407D01*
X135517Y420471D01*
X135614Y420538D01*
X135709Y420608D01*
X135801Y420682D01*
X135892Y420758D01*
X135979Y420838D01*
X136064Y420920D01*
X136146Y421005D01*
X136226Y421092D01*
X136302Y421183D01*
X136376Y421275D01*
X136446Y421370D01*
X136513Y421467D01*
X136577Y421567D01*
X136638Y421668D01*
X136695Y421771D01*
X136750Y421876D01*
X136800Y421983D01*
X136847Y422092D01*
X136890Y422202D01*
X136930Y422313D01*
X136966Y422425D01*
X136999Y422539D01*
X137028Y422654D01*
X137053Y422769D01*
X137074Y422886D01*
X137091Y423003D01*
X137105Y423120D01*
X137114Y423238D01*
X137120Y423356D01*
X137122Y423474D01*
X133510Y419862D02*
X133327Y419864D01*
X133145Y419871D01*
X132963Y419882D01*
X132781Y419897D01*
X132599Y419917D01*
X132418Y419940D01*
X132238Y419969D01*
X132058Y420001D01*
X131879Y420038D01*
X131702Y420079D01*
X131525Y420125D01*
X131349Y420174D01*
X131175Y420228D01*
X131001Y420286D01*
X130830Y420348D01*
X130660Y420414D01*
X130491Y420485D01*
X130324Y420559D01*
X130159Y420637D01*
X129996Y420719D01*
X129835Y420805D01*
X129676Y420895D01*
X129519Y420989D01*
X129365Y421086D01*
X129213Y421187D01*
X129063Y421292D01*
X128916Y421400D01*
X128772Y421511D01*
X128630Y421626D01*
X128491Y421745D01*
X128355Y421867D01*
X128222Y421992D01*
X128092Y422120D01*
X128543Y432506D02*
X128545Y432624D01*
X128551Y432742D01*
X128560Y432860D01*
X128574Y432977D01*
X128591Y433094D01*
X128612Y433211D01*
X128637Y433326D01*
X128666Y433441D01*
X128699Y433555D01*
X128735Y433667D01*
X128775Y433778D01*
X128818Y433888D01*
X128865Y433997D01*
X128915Y434104D01*
X128970Y434209D01*
X129027Y434312D01*
X129088Y434413D01*
X129152Y434513D01*
X129219Y434610D01*
X129289Y434705D01*
X129363Y434797D01*
X129439Y434888D01*
X129519Y434975D01*
X129601Y435060D01*
X129686Y435142D01*
X129773Y435222D01*
X129864Y435298D01*
X129956Y435372D01*
X130051Y435442D01*
X130148Y435509D01*
X130248Y435573D01*
X130349Y435634D01*
X130452Y435692D01*
X130557Y435746D01*
X130664Y435796D01*
X130773Y435843D01*
X130883Y435887D01*
X130994Y435926D01*
X131107Y435962D01*
X131220Y435995D01*
X131335Y436024D01*
X131450Y436049D01*
X131567Y436070D01*
X131684Y436087D01*
X131801Y436101D01*
X131919Y436110D01*
X132037Y436116D01*
X132155Y436118D01*
X132316Y436116D01*
X132478Y436110D01*
X132639Y436101D01*
X132800Y436087D01*
X132960Y436070D01*
X133120Y436049D01*
X133280Y436024D01*
X133439Y435995D01*
X133597Y435963D01*
X133754Y435927D01*
X133910Y435887D01*
X134066Y435843D01*
X134220Y435795D01*
X134373Y435744D01*
X134525Y435690D01*
X134676Y435631D01*
X134825Y435570D01*
X134972Y435504D01*
X135118Y435435D01*
X135263Y435363D01*
X135405Y435287D01*
X135546Y435208D01*
X135685Y435126D01*
X135821Y435040D01*
X135956Y434951D01*
X136089Y434859D01*
X136219Y434763D01*
X130348Y429345D02*
X130247Y429407D01*
X130147Y429472D01*
X130050Y429541D01*
X129955Y429613D01*
X129862Y429687D01*
X129772Y429765D01*
X129684Y429846D01*
X129599Y429929D01*
X129517Y430015D01*
X129438Y430104D01*
X129361Y430195D01*
X129288Y430289D01*
X129217Y430385D01*
X129150Y430483D01*
X129086Y430583D01*
X129025Y430686D01*
X128968Y430790D01*
X128914Y430896D01*
X128864Y431004D01*
X128817Y431113D01*
X128773Y431224D01*
X128733Y431336D01*
X128697Y431450D01*
X128665Y431564D01*
X128636Y431680D01*
X128611Y431796D01*
X128590Y431913D01*
X128573Y432031D01*
X128559Y432149D01*
X128550Y432268D01*
X128544Y432387D01*
X128542Y432506D01*
X135316Y426635D02*
X135417Y426573D01*
X135517Y426508D01*
X135614Y426439D01*
X135709Y426367D01*
X135802Y426293D01*
X135892Y426215D01*
X135980Y426134D01*
X136065Y426051D01*
X136147Y425965D01*
X136226Y425876D01*
X136303Y425785D01*
X136376Y425691D01*
X136447Y425595D01*
X136514Y425497D01*
X136578Y425397D01*
X136639Y425294D01*
X136696Y425190D01*
X136750Y425084D01*
X136800Y424976D01*
X136847Y424867D01*
X136891Y424756D01*
X136931Y424644D01*
X136967Y424530D01*
X136999Y424416D01*
X137028Y424300D01*
X137053Y424184D01*
X137074Y424067D01*
X137091Y423949D01*
X137105Y423831D01*
X137114Y423712D01*
X137120Y423593D01*
X137122Y423474D01*
X135316Y426635D02*
X130349Y429345D01*
X25400Y307340D02*
X25400Y302260D01*
X50800Y302260D02*
X50800Y307340D01*
X49530Y307340D01*
X49530Y302260D02*
X50800Y302260D01*
X26670Y302260D02*
X25400Y302260D01*
X25400Y307340D02*
X26670Y307340D01*
D11*
X26035Y318135D02*
X29210Y318135D01*
X29321Y318137D01*
X29431Y318143D01*
X29542Y318152D01*
X29652Y318166D01*
X29761Y318183D01*
X29870Y318204D01*
X29978Y318229D01*
X30085Y318258D01*
X30191Y318290D01*
X30296Y318326D01*
X30399Y318366D01*
X30501Y318409D01*
X30602Y318456D01*
X30701Y318507D01*
X30797Y318560D01*
X30892Y318617D01*
X30985Y318678D01*
X31076Y318741D01*
X31165Y318808D01*
X31251Y318878D01*
X31334Y318951D01*
X31416Y319026D01*
X31494Y319104D01*
X31569Y319186D01*
X31642Y319269D01*
X31712Y319355D01*
X31779Y319444D01*
X31842Y319535D01*
X31903Y319628D01*
X31960Y319722D01*
X32013Y319819D01*
X32064Y319918D01*
X32111Y320019D01*
X32154Y320121D01*
X32194Y320224D01*
X32230Y320329D01*
X32262Y320435D01*
X32291Y320542D01*
X32316Y320650D01*
X32337Y320759D01*
X32354Y320868D01*
X32368Y320978D01*
X32377Y321089D01*
X32383Y321199D01*
X32385Y321310D01*
X32383Y321421D01*
X32377Y321531D01*
X32368Y321642D01*
X32354Y321752D01*
X32337Y321861D01*
X32316Y321970D01*
X32291Y322078D01*
X32262Y322185D01*
X32230Y322291D01*
X32194Y322396D01*
X32154Y322499D01*
X32111Y322601D01*
X32064Y322702D01*
X32013Y322801D01*
X31960Y322897D01*
X31903Y322992D01*
X31842Y323085D01*
X31779Y323176D01*
X31712Y323265D01*
X31642Y323351D01*
X31569Y323434D01*
X31494Y323516D01*
X31416Y323594D01*
X31334Y323669D01*
X31251Y323742D01*
X31165Y323812D01*
X31076Y323879D01*
X30985Y323942D01*
X30892Y324003D01*
X30798Y324060D01*
X30701Y324113D01*
X30602Y324164D01*
X30501Y324211D01*
X30399Y324254D01*
X30296Y324294D01*
X30191Y324330D01*
X30085Y324362D01*
X29978Y324391D01*
X29870Y324416D01*
X29761Y324437D01*
X29652Y324454D01*
X29542Y324468D01*
X29431Y324477D01*
X29321Y324483D01*
X29210Y324485D01*
X29845Y329565D02*
X26035Y329565D01*
X29845Y329565D02*
X29945Y329563D01*
X30044Y329557D01*
X30144Y329547D01*
X30242Y329534D01*
X30341Y329516D01*
X30438Y329495D01*
X30534Y329470D01*
X30630Y329441D01*
X30724Y329408D01*
X30817Y329372D01*
X30908Y329332D01*
X30998Y329288D01*
X31086Y329241D01*
X31172Y329191D01*
X31256Y329137D01*
X31338Y329080D01*
X31417Y329020D01*
X31495Y328956D01*
X31569Y328890D01*
X31641Y328821D01*
X31710Y328749D01*
X31776Y328675D01*
X31840Y328597D01*
X31900Y328518D01*
X31957Y328436D01*
X32011Y328352D01*
X32061Y328266D01*
X32108Y328178D01*
X32152Y328088D01*
X32192Y327997D01*
X32228Y327904D01*
X32261Y327810D01*
X32290Y327714D01*
X32315Y327618D01*
X32336Y327521D01*
X32354Y327422D01*
X32367Y327324D01*
X32377Y327224D01*
X32383Y327125D01*
X32385Y327025D01*
X32383Y326925D01*
X32377Y326826D01*
X32367Y326726D01*
X32354Y326628D01*
X32336Y326529D01*
X32315Y326432D01*
X32290Y326336D01*
X32261Y326240D01*
X32228Y326146D01*
X32192Y326053D01*
X32152Y325962D01*
X32108Y325872D01*
X32061Y325784D01*
X32011Y325698D01*
X31957Y325614D01*
X31900Y325532D01*
X31840Y325453D01*
X31776Y325375D01*
X31710Y325301D01*
X31641Y325229D01*
X31569Y325160D01*
X31495Y325094D01*
X31417Y325030D01*
X31338Y324970D01*
X31256Y324913D01*
X31172Y324859D01*
X31086Y324809D01*
X30998Y324762D01*
X30908Y324718D01*
X30817Y324678D01*
X30724Y324642D01*
X30630Y324609D01*
X30534Y324580D01*
X30438Y324555D01*
X30341Y324534D01*
X30242Y324516D01*
X30144Y324503D01*
X30044Y324493D01*
X29945Y324487D01*
X29845Y324485D01*
X27305Y324485D01*
X37592Y322580D02*
X45212Y322580D01*
X55245Y324485D02*
X57150Y324485D01*
X57150Y318135D01*
X53340Y318135D01*
X53240Y318137D01*
X53141Y318143D01*
X53041Y318153D01*
X52943Y318166D01*
X52844Y318184D01*
X52747Y318205D01*
X52651Y318230D01*
X52555Y318259D01*
X52461Y318292D01*
X52368Y318328D01*
X52277Y318368D01*
X52187Y318412D01*
X52099Y318459D01*
X52013Y318509D01*
X51929Y318563D01*
X51847Y318620D01*
X51768Y318680D01*
X51690Y318744D01*
X51616Y318810D01*
X51544Y318879D01*
X51475Y318951D01*
X51409Y319025D01*
X51345Y319103D01*
X51285Y319182D01*
X51228Y319264D01*
X51174Y319348D01*
X51124Y319434D01*
X51077Y319522D01*
X51033Y319612D01*
X50993Y319703D01*
X50957Y319796D01*
X50924Y319890D01*
X50895Y319986D01*
X50870Y320082D01*
X50849Y320179D01*
X50831Y320278D01*
X50818Y320376D01*
X50808Y320476D01*
X50802Y320575D01*
X50800Y320675D01*
X50800Y327025D01*
X50802Y327125D01*
X50808Y327224D01*
X50818Y327324D01*
X50831Y327422D01*
X50849Y327521D01*
X50870Y327618D01*
X50895Y327714D01*
X50924Y327810D01*
X50957Y327904D01*
X50993Y327997D01*
X51033Y328088D01*
X51077Y328178D01*
X51124Y328266D01*
X51174Y328352D01*
X51228Y328436D01*
X51285Y328518D01*
X51345Y328597D01*
X51409Y328675D01*
X51475Y328749D01*
X51544Y328821D01*
X51616Y328890D01*
X51690Y328956D01*
X51768Y329020D01*
X51847Y329080D01*
X51929Y329137D01*
X52013Y329191D01*
X52099Y329241D01*
X52187Y329288D01*
X52277Y329332D01*
X52368Y329372D01*
X52461Y329408D01*
X52555Y329441D01*
X52651Y329470D01*
X52747Y329495D01*
X52844Y329516D01*
X52943Y329534D01*
X53041Y329547D01*
X53141Y329557D01*
X53240Y329563D01*
X53340Y329565D01*
X57150Y329565D01*
X62992Y329565D02*
X62992Y318135D01*
X69342Y318135D02*
X62992Y329565D01*
X69342Y329565D02*
X69342Y318135D01*
X75184Y318135D02*
X75184Y329565D01*
X78359Y329565D01*
X78470Y329563D01*
X78580Y329557D01*
X78691Y329548D01*
X78801Y329534D01*
X78910Y329517D01*
X79019Y329496D01*
X79127Y329471D01*
X79234Y329442D01*
X79340Y329410D01*
X79445Y329374D01*
X79548Y329334D01*
X79650Y329291D01*
X79751Y329244D01*
X79850Y329193D01*
X79947Y329140D01*
X80041Y329083D01*
X80134Y329022D01*
X80225Y328959D01*
X80314Y328892D01*
X80400Y328822D01*
X80483Y328749D01*
X80565Y328674D01*
X80643Y328596D01*
X80718Y328514D01*
X80791Y328431D01*
X80861Y328345D01*
X80928Y328256D01*
X80991Y328165D01*
X81052Y328072D01*
X81109Y327978D01*
X81162Y327881D01*
X81213Y327782D01*
X81260Y327681D01*
X81303Y327579D01*
X81343Y327476D01*
X81379Y327371D01*
X81411Y327265D01*
X81440Y327158D01*
X81465Y327050D01*
X81486Y326941D01*
X81503Y326832D01*
X81517Y326722D01*
X81526Y326611D01*
X81532Y326501D01*
X81534Y326390D01*
X81534Y321310D01*
X81532Y321199D01*
X81526Y321089D01*
X81517Y320978D01*
X81503Y320868D01*
X81486Y320759D01*
X81465Y320650D01*
X81440Y320542D01*
X81411Y320435D01*
X81379Y320329D01*
X81343Y320224D01*
X81303Y320121D01*
X81260Y320019D01*
X81213Y319918D01*
X81162Y319819D01*
X81109Y319722D01*
X81052Y319628D01*
X80991Y319535D01*
X80928Y319444D01*
X80861Y319355D01*
X80791Y319269D01*
X80718Y319186D01*
X80643Y319104D01*
X80565Y319026D01*
X80483Y318951D01*
X80400Y318878D01*
X80314Y318808D01*
X80225Y318741D01*
X80134Y318678D01*
X80041Y318617D01*
X79946Y318560D01*
X79850Y318507D01*
X79751Y318456D01*
X79650Y318409D01*
X79548Y318366D01*
X79445Y318326D01*
X79340Y318290D01*
X79234Y318258D01*
X79127Y318229D01*
X79019Y318204D01*
X78910Y318183D01*
X78801Y318166D01*
X78691Y318152D01*
X78580Y318143D01*
X78470Y318137D01*
X78359Y318135D01*
X75184Y318135D01*
D10*
X25400Y269240D02*
X25400Y264160D01*
X50800Y264160D02*
X50800Y269240D01*
X49530Y269240D01*
X49530Y264160D02*
X50800Y264160D01*
X26670Y264160D02*
X25400Y264160D01*
X25400Y269240D02*
X26670Y269240D01*
D11*
X26035Y282575D02*
X28575Y291465D01*
X26035Y282575D02*
X32385Y282575D01*
X30480Y285115D02*
X30480Y280035D01*
X37592Y284480D02*
X45212Y284480D01*
X55245Y286385D02*
X57150Y286385D01*
X57150Y280035D01*
X53340Y280035D01*
X53240Y280037D01*
X53141Y280043D01*
X53041Y280053D01*
X52943Y280066D01*
X52844Y280084D01*
X52747Y280105D01*
X52651Y280130D01*
X52555Y280159D01*
X52461Y280192D01*
X52368Y280228D01*
X52277Y280268D01*
X52187Y280312D01*
X52099Y280359D01*
X52013Y280409D01*
X51929Y280463D01*
X51847Y280520D01*
X51768Y280580D01*
X51690Y280644D01*
X51616Y280710D01*
X51544Y280779D01*
X51475Y280851D01*
X51409Y280925D01*
X51345Y281003D01*
X51285Y281082D01*
X51228Y281164D01*
X51174Y281248D01*
X51124Y281334D01*
X51077Y281422D01*
X51033Y281512D01*
X50993Y281603D01*
X50957Y281696D01*
X50924Y281790D01*
X50895Y281886D01*
X50870Y281982D01*
X50849Y282079D01*
X50831Y282178D01*
X50818Y282276D01*
X50808Y282376D01*
X50802Y282475D01*
X50800Y282575D01*
X50800Y288925D01*
X50802Y289025D01*
X50808Y289124D01*
X50818Y289224D01*
X50831Y289322D01*
X50849Y289421D01*
X50870Y289518D01*
X50895Y289614D01*
X50924Y289710D01*
X50957Y289804D01*
X50993Y289897D01*
X51033Y289988D01*
X51077Y290078D01*
X51124Y290166D01*
X51174Y290252D01*
X51228Y290336D01*
X51285Y290418D01*
X51345Y290497D01*
X51409Y290575D01*
X51475Y290649D01*
X51544Y290721D01*
X51616Y290790D01*
X51690Y290856D01*
X51768Y290920D01*
X51847Y290980D01*
X51929Y291037D01*
X52013Y291091D01*
X52099Y291141D01*
X52187Y291188D01*
X52277Y291232D01*
X52368Y291272D01*
X52461Y291308D01*
X52555Y291341D01*
X52651Y291370D01*
X52747Y291395D01*
X52844Y291416D01*
X52943Y291434D01*
X53041Y291447D01*
X53141Y291457D01*
X53240Y291463D01*
X53340Y291465D01*
X57150Y291465D01*
X62992Y291465D02*
X62992Y280035D01*
X69342Y280035D02*
X62992Y291465D01*
X69342Y291465D02*
X69342Y280035D01*
X75184Y280035D02*
X75184Y291465D01*
X78359Y291465D01*
X78470Y291463D01*
X78580Y291457D01*
X78691Y291448D01*
X78801Y291434D01*
X78910Y291417D01*
X79019Y291396D01*
X79127Y291371D01*
X79234Y291342D01*
X79340Y291310D01*
X79445Y291274D01*
X79548Y291234D01*
X79650Y291191D01*
X79751Y291144D01*
X79850Y291093D01*
X79947Y291040D01*
X80041Y290983D01*
X80134Y290922D01*
X80225Y290859D01*
X80314Y290792D01*
X80400Y290722D01*
X80483Y290649D01*
X80565Y290574D01*
X80643Y290496D01*
X80718Y290414D01*
X80791Y290331D01*
X80861Y290245D01*
X80928Y290156D01*
X80991Y290065D01*
X81052Y289972D01*
X81109Y289878D01*
X81162Y289781D01*
X81213Y289682D01*
X81260Y289581D01*
X81303Y289479D01*
X81343Y289376D01*
X81379Y289271D01*
X81411Y289165D01*
X81440Y289058D01*
X81465Y288950D01*
X81486Y288841D01*
X81503Y288732D01*
X81517Y288622D01*
X81526Y288511D01*
X81532Y288401D01*
X81534Y288290D01*
X81534Y283210D01*
X81532Y283099D01*
X81526Y282989D01*
X81517Y282878D01*
X81503Y282768D01*
X81486Y282659D01*
X81465Y282550D01*
X81440Y282442D01*
X81411Y282335D01*
X81379Y282229D01*
X81343Y282124D01*
X81303Y282021D01*
X81260Y281919D01*
X81213Y281818D01*
X81162Y281719D01*
X81109Y281622D01*
X81052Y281528D01*
X80991Y281435D01*
X80928Y281344D01*
X80861Y281255D01*
X80791Y281169D01*
X80718Y281086D01*
X80643Y281004D01*
X80565Y280926D01*
X80483Y280851D01*
X80400Y280778D01*
X80314Y280708D01*
X80225Y280641D01*
X80134Y280578D01*
X80041Y280517D01*
X79946Y280460D01*
X79850Y280407D01*
X79751Y280356D01*
X79650Y280309D01*
X79548Y280266D01*
X79445Y280226D01*
X79340Y280190D01*
X79234Y280158D01*
X79127Y280129D01*
X79019Y280104D01*
X78910Y280083D01*
X78801Y280066D01*
X78691Y280052D01*
X78580Y280043D01*
X78470Y280037D01*
X78359Y280035D01*
X75184Y280035D01*
D10*
X152400Y302260D02*
X152400Y307340D01*
X177800Y307340D02*
X177800Y302260D01*
X177800Y307340D02*
X176530Y307340D01*
X176530Y302260D02*
X177800Y302260D01*
X153670Y302260D02*
X152400Y302260D01*
X152400Y307340D02*
X153670Y307340D01*
D11*
X153035Y318135D02*
X156845Y318135D01*
X156945Y318137D01*
X157044Y318143D01*
X157144Y318153D01*
X157242Y318166D01*
X157341Y318184D01*
X157438Y318205D01*
X157534Y318230D01*
X157630Y318259D01*
X157724Y318292D01*
X157817Y318328D01*
X157908Y318368D01*
X157998Y318412D01*
X158086Y318459D01*
X158172Y318509D01*
X158256Y318563D01*
X158338Y318620D01*
X158417Y318680D01*
X158495Y318744D01*
X158569Y318810D01*
X158641Y318879D01*
X158710Y318951D01*
X158776Y319025D01*
X158840Y319103D01*
X158900Y319182D01*
X158957Y319264D01*
X159011Y319348D01*
X159061Y319434D01*
X159108Y319522D01*
X159152Y319612D01*
X159192Y319703D01*
X159228Y319796D01*
X159261Y319890D01*
X159290Y319986D01*
X159315Y320082D01*
X159336Y320179D01*
X159354Y320278D01*
X159367Y320376D01*
X159377Y320476D01*
X159383Y320575D01*
X159385Y320675D01*
X159385Y321945D01*
X159383Y322045D01*
X159377Y322144D01*
X159367Y322244D01*
X159354Y322342D01*
X159336Y322441D01*
X159315Y322538D01*
X159290Y322634D01*
X159261Y322730D01*
X159228Y322824D01*
X159192Y322917D01*
X159152Y323008D01*
X159108Y323098D01*
X159061Y323186D01*
X159011Y323272D01*
X158957Y323356D01*
X158900Y323438D01*
X158840Y323517D01*
X158776Y323595D01*
X158710Y323669D01*
X158641Y323741D01*
X158569Y323810D01*
X158495Y323876D01*
X158417Y323940D01*
X158338Y324000D01*
X158256Y324057D01*
X158172Y324111D01*
X158086Y324161D01*
X157998Y324208D01*
X157908Y324252D01*
X157817Y324292D01*
X157724Y324328D01*
X157630Y324361D01*
X157534Y324390D01*
X157438Y324415D01*
X157341Y324436D01*
X157242Y324454D01*
X157144Y324467D01*
X157044Y324477D01*
X156945Y324483D01*
X156845Y324485D01*
X153035Y324485D01*
X153035Y329565D01*
X159385Y329565D01*
X163830Y329565D02*
X167640Y318135D01*
X171450Y329565D01*
D10*
X88900Y269240D02*
X88900Y264160D01*
X114300Y264160D02*
X114300Y269240D01*
X113030Y269240D01*
X113030Y264160D02*
X114300Y264160D01*
X90170Y264160D02*
X88900Y264160D01*
X88900Y269240D02*
X90170Y269240D01*
D11*
X89535Y290195D02*
X89535Y291465D01*
X95885Y291465D01*
X92710Y280035D01*
X101092Y284480D02*
X108712Y284480D01*
X118745Y286385D02*
X120650Y286385D01*
X120650Y280035D01*
X116840Y280035D01*
X116740Y280037D01*
X116641Y280043D01*
X116541Y280053D01*
X116443Y280066D01*
X116344Y280084D01*
X116247Y280105D01*
X116151Y280130D01*
X116055Y280159D01*
X115961Y280192D01*
X115868Y280228D01*
X115777Y280268D01*
X115687Y280312D01*
X115599Y280359D01*
X115513Y280409D01*
X115429Y280463D01*
X115347Y280520D01*
X115268Y280580D01*
X115190Y280644D01*
X115116Y280710D01*
X115044Y280779D01*
X114975Y280851D01*
X114909Y280925D01*
X114845Y281003D01*
X114785Y281082D01*
X114728Y281164D01*
X114674Y281248D01*
X114624Y281334D01*
X114577Y281422D01*
X114533Y281512D01*
X114493Y281603D01*
X114457Y281696D01*
X114424Y281790D01*
X114395Y281886D01*
X114370Y281982D01*
X114349Y282079D01*
X114331Y282178D01*
X114318Y282276D01*
X114308Y282376D01*
X114302Y282475D01*
X114300Y282575D01*
X114300Y288925D01*
X114302Y289025D01*
X114308Y289124D01*
X114318Y289224D01*
X114331Y289322D01*
X114349Y289421D01*
X114370Y289518D01*
X114395Y289614D01*
X114424Y289710D01*
X114457Y289804D01*
X114493Y289897D01*
X114533Y289988D01*
X114577Y290078D01*
X114624Y290166D01*
X114674Y290252D01*
X114728Y290336D01*
X114785Y290418D01*
X114845Y290497D01*
X114909Y290575D01*
X114975Y290649D01*
X115044Y290721D01*
X115116Y290790D01*
X115190Y290856D01*
X115268Y290920D01*
X115347Y290980D01*
X115429Y291037D01*
X115513Y291091D01*
X115599Y291141D01*
X115687Y291188D01*
X115777Y291232D01*
X115868Y291272D01*
X115961Y291308D01*
X116055Y291341D01*
X116151Y291370D01*
X116247Y291395D01*
X116344Y291416D01*
X116443Y291434D01*
X116541Y291447D01*
X116641Y291457D01*
X116740Y291463D01*
X116840Y291465D01*
X120650Y291465D01*
X126492Y291465D02*
X126492Y280035D01*
X132842Y280035D02*
X126492Y291465D01*
X132842Y291465D02*
X132842Y280035D01*
X138684Y280035D02*
X138684Y291465D01*
X141859Y291465D01*
X141970Y291463D01*
X142080Y291457D01*
X142191Y291448D01*
X142301Y291434D01*
X142410Y291417D01*
X142519Y291396D01*
X142627Y291371D01*
X142734Y291342D01*
X142840Y291310D01*
X142945Y291274D01*
X143048Y291234D01*
X143150Y291191D01*
X143251Y291144D01*
X143350Y291093D01*
X143447Y291040D01*
X143541Y290983D01*
X143634Y290922D01*
X143725Y290859D01*
X143814Y290792D01*
X143900Y290722D01*
X143983Y290649D01*
X144065Y290574D01*
X144143Y290496D01*
X144218Y290414D01*
X144291Y290331D01*
X144361Y290245D01*
X144428Y290156D01*
X144491Y290065D01*
X144552Y289972D01*
X144609Y289878D01*
X144662Y289781D01*
X144713Y289682D01*
X144760Y289581D01*
X144803Y289479D01*
X144843Y289376D01*
X144879Y289271D01*
X144911Y289165D01*
X144940Y289058D01*
X144965Y288950D01*
X144986Y288841D01*
X145003Y288732D01*
X145017Y288622D01*
X145026Y288511D01*
X145032Y288401D01*
X145034Y288290D01*
X145034Y283210D01*
X145032Y283099D01*
X145026Y282989D01*
X145017Y282878D01*
X145003Y282768D01*
X144986Y282659D01*
X144965Y282550D01*
X144940Y282442D01*
X144911Y282335D01*
X144879Y282229D01*
X144843Y282124D01*
X144803Y282021D01*
X144760Y281919D01*
X144713Y281818D01*
X144662Y281719D01*
X144609Y281622D01*
X144552Y281528D01*
X144491Y281435D01*
X144428Y281344D01*
X144361Y281255D01*
X144291Y281169D01*
X144218Y281086D01*
X144143Y281004D01*
X144065Y280926D01*
X143983Y280851D01*
X143900Y280778D01*
X143814Y280708D01*
X143725Y280641D01*
X143634Y280578D01*
X143541Y280517D01*
X143446Y280460D01*
X143350Y280407D01*
X143251Y280356D01*
X143150Y280309D01*
X143048Y280266D01*
X142945Y280226D01*
X142840Y280190D01*
X142734Y280158D01*
X142627Y280129D01*
X142519Y280104D01*
X142410Y280083D01*
X142301Y280066D01*
X142191Y280052D01*
X142080Y280043D01*
X141970Y280037D01*
X141859Y280035D01*
X138684Y280035D01*
D10*
X297180Y414020D02*
X299720Y414020D01*
X297180Y414020D02*
X297180Y411480D01*
X312420Y411480D02*
X312420Y414020D01*
X309880Y414020D01*
X312420Y401320D02*
X312420Y398780D01*
X309880Y398780D01*
X299720Y398780D02*
X297180Y398780D01*
X297180Y401320D01*
D11*
X297815Y417195D02*
X301625Y428625D01*
X305435Y417195D01*
X304483Y420053D02*
X298768Y420053D01*
D10*
X299720Y375920D02*
X297180Y375920D01*
X297180Y373380D01*
X312420Y373380D02*
X312420Y375920D01*
X309880Y375920D01*
X312420Y363220D02*
X312420Y360680D01*
X309880Y360680D01*
X299720Y360680D02*
X297180Y360680D01*
X297180Y363220D01*
D11*
X297815Y385445D02*
X300990Y385445D01*
X301101Y385443D01*
X301211Y385437D01*
X301322Y385428D01*
X301432Y385414D01*
X301541Y385397D01*
X301650Y385376D01*
X301758Y385351D01*
X301865Y385322D01*
X301971Y385290D01*
X302076Y385254D01*
X302179Y385214D01*
X302281Y385171D01*
X302382Y385124D01*
X302481Y385073D01*
X302578Y385020D01*
X302672Y384963D01*
X302765Y384902D01*
X302856Y384839D01*
X302945Y384772D01*
X303031Y384702D01*
X303114Y384629D01*
X303196Y384554D01*
X303274Y384476D01*
X303349Y384394D01*
X303422Y384311D01*
X303492Y384225D01*
X303559Y384136D01*
X303622Y384045D01*
X303683Y383952D01*
X303740Y383857D01*
X303793Y383761D01*
X303844Y383662D01*
X303891Y383561D01*
X303934Y383459D01*
X303974Y383356D01*
X304010Y383251D01*
X304042Y383145D01*
X304071Y383038D01*
X304096Y382930D01*
X304117Y382821D01*
X304134Y382712D01*
X304148Y382602D01*
X304157Y382491D01*
X304163Y382381D01*
X304165Y382270D01*
X304163Y382159D01*
X304157Y382049D01*
X304148Y381938D01*
X304134Y381828D01*
X304117Y381719D01*
X304096Y381610D01*
X304071Y381502D01*
X304042Y381395D01*
X304010Y381289D01*
X303974Y381184D01*
X303934Y381081D01*
X303891Y380979D01*
X303844Y380878D01*
X303793Y380779D01*
X303740Y380682D01*
X303683Y380588D01*
X303622Y380495D01*
X303559Y380404D01*
X303492Y380315D01*
X303422Y380229D01*
X303349Y380146D01*
X303274Y380064D01*
X303196Y379986D01*
X303114Y379911D01*
X303031Y379838D01*
X302945Y379768D01*
X302856Y379701D01*
X302765Y379638D01*
X302672Y379577D01*
X302578Y379520D01*
X302481Y379467D01*
X302382Y379416D01*
X302281Y379369D01*
X302179Y379326D01*
X302076Y379286D01*
X301971Y379250D01*
X301865Y379218D01*
X301758Y379189D01*
X301650Y379164D01*
X301541Y379143D01*
X301432Y379126D01*
X301322Y379112D01*
X301211Y379103D01*
X301101Y379097D01*
X300990Y379095D01*
X297815Y379095D01*
X297815Y390525D01*
X300990Y390525D01*
X301090Y390523D01*
X301189Y390517D01*
X301289Y390507D01*
X301387Y390494D01*
X301486Y390476D01*
X301583Y390455D01*
X301679Y390430D01*
X301775Y390401D01*
X301869Y390368D01*
X301962Y390332D01*
X302053Y390292D01*
X302143Y390248D01*
X302231Y390201D01*
X302317Y390151D01*
X302401Y390097D01*
X302483Y390040D01*
X302562Y389980D01*
X302640Y389916D01*
X302714Y389850D01*
X302786Y389781D01*
X302855Y389709D01*
X302921Y389635D01*
X302985Y389557D01*
X303045Y389478D01*
X303102Y389396D01*
X303156Y389312D01*
X303206Y389226D01*
X303253Y389138D01*
X303297Y389048D01*
X303337Y388957D01*
X303373Y388864D01*
X303406Y388770D01*
X303435Y388674D01*
X303460Y388578D01*
X303481Y388481D01*
X303499Y388382D01*
X303512Y388284D01*
X303522Y388184D01*
X303528Y388085D01*
X303530Y387985D01*
X303528Y387885D01*
X303522Y387786D01*
X303512Y387686D01*
X303499Y387588D01*
X303481Y387489D01*
X303460Y387392D01*
X303435Y387296D01*
X303406Y387200D01*
X303373Y387106D01*
X303337Y387013D01*
X303297Y386922D01*
X303253Y386832D01*
X303206Y386744D01*
X303156Y386658D01*
X303102Y386574D01*
X303045Y386492D01*
X302985Y386413D01*
X302921Y386335D01*
X302855Y386261D01*
X302786Y386189D01*
X302714Y386120D01*
X302640Y386054D01*
X302562Y385990D01*
X302483Y385930D01*
X302401Y385873D01*
X302317Y385819D01*
X302231Y385769D01*
X302143Y385722D01*
X302053Y385678D01*
X301962Y385638D01*
X301869Y385602D01*
X301775Y385569D01*
X301679Y385540D01*
X301583Y385515D01*
X301486Y385494D01*
X301387Y385476D01*
X301289Y385463D01*
X301189Y385453D01*
X301090Y385447D01*
X300990Y385445D01*
D10*
X198120Y185420D02*
X195580Y185420D01*
X195580Y182880D01*
X210820Y182880D02*
X210820Y185420D01*
X208280Y185420D01*
X210820Y172720D02*
X210820Y170180D01*
X208280Y170180D01*
X198120Y170180D02*
X195580Y170180D01*
X195580Y172720D01*
D11*
X196215Y194945D02*
X199390Y194945D01*
X199501Y194943D01*
X199611Y194937D01*
X199722Y194928D01*
X199832Y194914D01*
X199941Y194897D01*
X200050Y194876D01*
X200158Y194851D01*
X200265Y194822D01*
X200371Y194790D01*
X200476Y194754D01*
X200579Y194714D01*
X200681Y194671D01*
X200782Y194624D01*
X200881Y194573D01*
X200978Y194520D01*
X201072Y194463D01*
X201165Y194402D01*
X201256Y194339D01*
X201345Y194272D01*
X201431Y194202D01*
X201514Y194129D01*
X201596Y194054D01*
X201674Y193976D01*
X201749Y193894D01*
X201822Y193811D01*
X201892Y193725D01*
X201959Y193636D01*
X202022Y193545D01*
X202083Y193452D01*
X202140Y193357D01*
X202193Y193261D01*
X202244Y193162D01*
X202291Y193061D01*
X202334Y192959D01*
X202374Y192856D01*
X202410Y192751D01*
X202442Y192645D01*
X202471Y192538D01*
X202496Y192430D01*
X202517Y192321D01*
X202534Y192212D01*
X202548Y192102D01*
X202557Y191991D01*
X202563Y191881D01*
X202565Y191770D01*
X202563Y191659D01*
X202557Y191549D01*
X202548Y191438D01*
X202534Y191328D01*
X202517Y191219D01*
X202496Y191110D01*
X202471Y191002D01*
X202442Y190895D01*
X202410Y190789D01*
X202374Y190684D01*
X202334Y190581D01*
X202291Y190479D01*
X202244Y190378D01*
X202193Y190279D01*
X202140Y190182D01*
X202083Y190088D01*
X202022Y189995D01*
X201959Y189904D01*
X201892Y189815D01*
X201822Y189729D01*
X201749Y189646D01*
X201674Y189564D01*
X201596Y189486D01*
X201514Y189411D01*
X201431Y189338D01*
X201345Y189268D01*
X201256Y189201D01*
X201165Y189138D01*
X201072Y189077D01*
X200977Y189020D01*
X200881Y188967D01*
X200782Y188916D01*
X200681Y188869D01*
X200579Y188826D01*
X200476Y188786D01*
X200371Y188750D01*
X200265Y188718D01*
X200158Y188689D01*
X200050Y188664D01*
X199941Y188643D01*
X199832Y188626D01*
X199722Y188612D01*
X199611Y188603D01*
X199501Y188597D01*
X199390Y188595D01*
X196215Y188595D01*
X196215Y200025D01*
X199390Y200025D01*
X199490Y200023D01*
X199589Y200017D01*
X199689Y200007D01*
X199787Y199994D01*
X199886Y199976D01*
X199983Y199955D01*
X200079Y199930D01*
X200175Y199901D01*
X200269Y199868D01*
X200362Y199832D01*
X200453Y199792D01*
X200543Y199748D01*
X200631Y199701D01*
X200717Y199651D01*
X200801Y199597D01*
X200883Y199540D01*
X200962Y199480D01*
X201040Y199416D01*
X201114Y199350D01*
X201186Y199281D01*
X201255Y199209D01*
X201321Y199135D01*
X201385Y199057D01*
X201445Y198978D01*
X201502Y198896D01*
X201556Y198812D01*
X201606Y198726D01*
X201653Y198638D01*
X201697Y198548D01*
X201737Y198457D01*
X201773Y198364D01*
X201806Y198270D01*
X201835Y198174D01*
X201860Y198078D01*
X201881Y197981D01*
X201899Y197882D01*
X201912Y197784D01*
X201922Y197684D01*
X201928Y197585D01*
X201930Y197485D01*
X201928Y197385D01*
X201922Y197286D01*
X201912Y197186D01*
X201899Y197088D01*
X201881Y196989D01*
X201860Y196892D01*
X201835Y196796D01*
X201806Y196700D01*
X201773Y196606D01*
X201737Y196513D01*
X201697Y196422D01*
X201653Y196332D01*
X201606Y196244D01*
X201556Y196158D01*
X201502Y196074D01*
X201445Y195992D01*
X201385Y195913D01*
X201321Y195835D01*
X201255Y195761D01*
X201186Y195689D01*
X201114Y195620D01*
X201040Y195554D01*
X200962Y195490D01*
X200883Y195430D01*
X200801Y195373D01*
X200717Y195319D01*
X200631Y195269D01*
X200543Y195222D01*
X200453Y195178D01*
X200362Y195138D01*
X200269Y195102D01*
X200175Y195069D01*
X200079Y195040D01*
X199983Y195015D01*
X199886Y194994D01*
X199787Y194976D01*
X199689Y194963D01*
X199589Y194953D01*
X199490Y194947D01*
X199390Y194945D01*
X209487Y200025D02*
X209487Y188595D01*
X206312Y200025D02*
X212662Y200025D01*
X217361Y200025D02*
X217361Y188595D01*
X223711Y188595D02*
X217361Y200025D01*
X223711Y200025D02*
X223711Y188595D01*
X229299Y193040D02*
X236919Y193040D01*
X246952Y194945D02*
X248857Y194945D01*
X248857Y188595D01*
X245047Y188595D01*
X244947Y188597D01*
X244848Y188603D01*
X244748Y188613D01*
X244650Y188626D01*
X244551Y188644D01*
X244454Y188665D01*
X244358Y188690D01*
X244262Y188719D01*
X244168Y188752D01*
X244075Y188788D01*
X243984Y188828D01*
X243894Y188872D01*
X243806Y188919D01*
X243720Y188969D01*
X243636Y189023D01*
X243554Y189080D01*
X243475Y189140D01*
X243397Y189204D01*
X243323Y189270D01*
X243251Y189339D01*
X243182Y189411D01*
X243116Y189485D01*
X243052Y189563D01*
X242992Y189642D01*
X242935Y189724D01*
X242881Y189808D01*
X242831Y189894D01*
X242784Y189982D01*
X242740Y190072D01*
X242700Y190163D01*
X242664Y190256D01*
X242631Y190350D01*
X242602Y190446D01*
X242577Y190542D01*
X242556Y190639D01*
X242538Y190738D01*
X242525Y190836D01*
X242515Y190936D01*
X242509Y191035D01*
X242507Y191135D01*
X242507Y197485D01*
X242509Y197585D01*
X242515Y197684D01*
X242525Y197784D01*
X242538Y197882D01*
X242556Y197981D01*
X242577Y198078D01*
X242602Y198174D01*
X242631Y198270D01*
X242664Y198364D01*
X242700Y198457D01*
X242740Y198548D01*
X242784Y198638D01*
X242831Y198726D01*
X242881Y198812D01*
X242935Y198896D01*
X242992Y198978D01*
X243052Y199057D01*
X243116Y199135D01*
X243182Y199209D01*
X243251Y199281D01*
X243323Y199350D01*
X243397Y199416D01*
X243475Y199480D01*
X243554Y199540D01*
X243636Y199597D01*
X243720Y199651D01*
X243806Y199701D01*
X243894Y199748D01*
X243984Y199792D01*
X244075Y199832D01*
X244168Y199868D01*
X244262Y199901D01*
X244358Y199930D01*
X244454Y199955D01*
X244551Y199976D01*
X244650Y199994D01*
X244748Y200007D01*
X244848Y200017D01*
X244947Y200023D01*
X245047Y200025D01*
X248857Y200025D01*
X254699Y200025D02*
X254699Y188595D01*
X261049Y188595D02*
X254699Y200025D01*
X261049Y200025D02*
X261049Y188595D01*
X266891Y188595D02*
X266891Y200025D01*
X270066Y200025D01*
X270177Y200023D01*
X270287Y200017D01*
X270398Y200008D01*
X270508Y199994D01*
X270617Y199977D01*
X270726Y199956D01*
X270834Y199931D01*
X270941Y199902D01*
X271047Y199870D01*
X271152Y199834D01*
X271255Y199794D01*
X271357Y199751D01*
X271458Y199704D01*
X271557Y199653D01*
X271654Y199600D01*
X271748Y199543D01*
X271841Y199482D01*
X271932Y199419D01*
X272021Y199352D01*
X272107Y199282D01*
X272190Y199209D01*
X272272Y199134D01*
X272350Y199056D01*
X272425Y198974D01*
X272498Y198891D01*
X272568Y198805D01*
X272635Y198716D01*
X272698Y198625D01*
X272759Y198532D01*
X272816Y198438D01*
X272869Y198341D01*
X272920Y198242D01*
X272967Y198141D01*
X273010Y198039D01*
X273050Y197936D01*
X273086Y197831D01*
X273118Y197725D01*
X273147Y197618D01*
X273172Y197510D01*
X273193Y197401D01*
X273210Y197292D01*
X273224Y197182D01*
X273233Y197071D01*
X273239Y196961D01*
X273241Y196850D01*
X273241Y191770D01*
X273239Y191659D01*
X273233Y191549D01*
X273224Y191438D01*
X273210Y191328D01*
X273193Y191219D01*
X273172Y191110D01*
X273147Y191002D01*
X273118Y190895D01*
X273086Y190789D01*
X273050Y190684D01*
X273010Y190581D01*
X272967Y190479D01*
X272920Y190378D01*
X272869Y190279D01*
X272816Y190182D01*
X272759Y190088D01*
X272698Y189995D01*
X272635Y189904D01*
X272568Y189815D01*
X272498Y189729D01*
X272425Y189646D01*
X272350Y189564D01*
X272272Y189486D01*
X272190Y189411D01*
X272107Y189338D01*
X272021Y189268D01*
X271932Y189201D01*
X271841Y189138D01*
X271748Y189077D01*
X271654Y189020D01*
X271557Y188967D01*
X271458Y188916D01*
X271357Y188869D01*
X271255Y188826D01*
X271152Y188786D01*
X271047Y188750D01*
X270941Y188718D01*
X270834Y188689D01*
X270726Y188664D01*
X270617Y188643D01*
X270508Y188626D01*
X270398Y188612D01*
X270287Y188603D01*
X270177Y188597D01*
X270066Y188595D01*
X266891Y188595D01*
D10*
X198120Y375920D02*
X195580Y375920D01*
X195580Y373380D01*
X210820Y373380D02*
X210820Y375920D01*
X208280Y375920D01*
X210820Y363220D02*
X210820Y360680D01*
X208280Y360680D01*
X198120Y360680D02*
X195580Y360680D01*
X195580Y363220D01*
D11*
X198755Y379095D02*
X201295Y379095D01*
X198755Y379095D02*
X198655Y379097D01*
X198556Y379103D01*
X198456Y379113D01*
X198358Y379126D01*
X198259Y379144D01*
X198162Y379165D01*
X198066Y379190D01*
X197970Y379219D01*
X197876Y379252D01*
X197783Y379288D01*
X197692Y379328D01*
X197602Y379372D01*
X197514Y379419D01*
X197428Y379469D01*
X197344Y379523D01*
X197262Y379580D01*
X197183Y379640D01*
X197105Y379704D01*
X197031Y379770D01*
X196959Y379839D01*
X196890Y379911D01*
X196824Y379985D01*
X196760Y380063D01*
X196700Y380142D01*
X196643Y380224D01*
X196589Y380308D01*
X196539Y380394D01*
X196492Y380482D01*
X196448Y380572D01*
X196408Y380663D01*
X196372Y380756D01*
X196339Y380850D01*
X196310Y380946D01*
X196285Y381042D01*
X196264Y381139D01*
X196246Y381238D01*
X196233Y381336D01*
X196223Y381436D01*
X196217Y381535D01*
X196215Y381635D01*
X196215Y387985D01*
X196217Y388085D01*
X196223Y388184D01*
X196233Y388284D01*
X196246Y388382D01*
X196264Y388481D01*
X196285Y388578D01*
X196310Y388674D01*
X196339Y388770D01*
X196372Y388864D01*
X196408Y388957D01*
X196448Y389048D01*
X196492Y389138D01*
X196539Y389226D01*
X196589Y389312D01*
X196643Y389396D01*
X196700Y389478D01*
X196760Y389557D01*
X196824Y389635D01*
X196890Y389709D01*
X196959Y389781D01*
X197031Y389850D01*
X197105Y389916D01*
X197183Y389980D01*
X197262Y390040D01*
X197344Y390097D01*
X197428Y390151D01*
X197514Y390201D01*
X197602Y390248D01*
X197692Y390292D01*
X197783Y390332D01*
X197876Y390368D01*
X197970Y390401D01*
X198066Y390430D01*
X198162Y390455D01*
X198259Y390476D01*
X198358Y390494D01*
X198456Y390507D01*
X198556Y390517D01*
X198655Y390523D01*
X198755Y390525D01*
X201295Y390525D01*
X205904Y383540D02*
X213524Y383540D01*
X219112Y379095D02*
X219112Y390525D01*
X222287Y390525D01*
X222398Y390523D01*
X222508Y390517D01*
X222619Y390508D01*
X222729Y390494D01*
X222838Y390477D01*
X222947Y390456D01*
X223055Y390431D01*
X223162Y390402D01*
X223268Y390370D01*
X223373Y390334D01*
X223476Y390294D01*
X223578Y390251D01*
X223679Y390204D01*
X223778Y390153D01*
X223875Y390100D01*
X223969Y390043D01*
X224062Y389982D01*
X224153Y389919D01*
X224242Y389852D01*
X224328Y389782D01*
X224411Y389709D01*
X224493Y389634D01*
X224571Y389556D01*
X224646Y389474D01*
X224719Y389391D01*
X224789Y389305D01*
X224856Y389216D01*
X224919Y389125D01*
X224980Y389032D01*
X225037Y388938D01*
X225090Y388841D01*
X225141Y388742D01*
X225188Y388641D01*
X225231Y388539D01*
X225271Y388436D01*
X225307Y388331D01*
X225339Y388225D01*
X225368Y388118D01*
X225393Y388010D01*
X225414Y387901D01*
X225431Y387792D01*
X225445Y387682D01*
X225454Y387571D01*
X225460Y387461D01*
X225462Y387350D01*
X225462Y382270D01*
X225460Y382159D01*
X225454Y382049D01*
X225445Y381938D01*
X225431Y381828D01*
X225414Y381719D01*
X225393Y381610D01*
X225368Y381502D01*
X225339Y381395D01*
X225307Y381289D01*
X225271Y381184D01*
X225231Y381081D01*
X225188Y380979D01*
X225141Y380878D01*
X225090Y380779D01*
X225037Y380682D01*
X224980Y380588D01*
X224919Y380495D01*
X224856Y380404D01*
X224789Y380315D01*
X224719Y380229D01*
X224646Y380146D01*
X224571Y380064D01*
X224493Y379986D01*
X224411Y379911D01*
X224328Y379838D01*
X224242Y379768D01*
X224153Y379701D01*
X224062Y379638D01*
X223969Y379577D01*
X223874Y379520D01*
X223778Y379467D01*
X223679Y379416D01*
X223578Y379369D01*
X223476Y379326D01*
X223373Y379286D01*
X223268Y379250D01*
X223162Y379218D01*
X223055Y379189D01*
X222947Y379164D01*
X222838Y379143D01*
X222729Y379126D01*
X222619Y379112D01*
X222508Y379103D01*
X222398Y379097D01*
X222287Y379095D01*
X219112Y379095D01*
X230923Y382270D02*
X230923Y387350D01*
X230925Y387461D01*
X230931Y387571D01*
X230940Y387682D01*
X230954Y387792D01*
X230971Y387901D01*
X230992Y388010D01*
X231017Y388118D01*
X231046Y388225D01*
X231078Y388331D01*
X231114Y388436D01*
X231154Y388539D01*
X231197Y388641D01*
X231244Y388742D01*
X231295Y388841D01*
X231348Y388938D01*
X231405Y389032D01*
X231466Y389125D01*
X231529Y389216D01*
X231596Y389305D01*
X231666Y389391D01*
X231739Y389474D01*
X231814Y389556D01*
X231892Y389634D01*
X231974Y389709D01*
X232057Y389782D01*
X232143Y389852D01*
X232232Y389919D01*
X232323Y389982D01*
X232416Y390043D01*
X232511Y390100D01*
X232607Y390153D01*
X232706Y390204D01*
X232807Y390251D01*
X232909Y390294D01*
X233012Y390334D01*
X233117Y390370D01*
X233223Y390402D01*
X233330Y390431D01*
X233438Y390456D01*
X233547Y390477D01*
X233656Y390494D01*
X233766Y390508D01*
X233877Y390517D01*
X233987Y390523D01*
X234098Y390525D01*
X234209Y390523D01*
X234319Y390517D01*
X234430Y390508D01*
X234540Y390494D01*
X234649Y390477D01*
X234758Y390456D01*
X234866Y390431D01*
X234973Y390402D01*
X235079Y390370D01*
X235184Y390334D01*
X235287Y390294D01*
X235389Y390251D01*
X235490Y390204D01*
X235589Y390153D01*
X235686Y390100D01*
X235780Y390043D01*
X235873Y389982D01*
X235964Y389919D01*
X236053Y389852D01*
X236139Y389782D01*
X236222Y389709D01*
X236304Y389634D01*
X236382Y389556D01*
X236457Y389474D01*
X236530Y389391D01*
X236600Y389305D01*
X236667Y389216D01*
X236730Y389125D01*
X236791Y389032D01*
X236848Y388938D01*
X236901Y388841D01*
X236952Y388742D01*
X236999Y388641D01*
X237042Y388539D01*
X237082Y388436D01*
X237118Y388331D01*
X237150Y388225D01*
X237179Y388118D01*
X237204Y388010D01*
X237225Y387901D01*
X237242Y387792D01*
X237256Y387682D01*
X237265Y387571D01*
X237271Y387461D01*
X237273Y387350D01*
X237273Y382270D01*
X237271Y382159D01*
X237265Y382049D01*
X237256Y381938D01*
X237242Y381828D01*
X237225Y381719D01*
X237204Y381610D01*
X237179Y381502D01*
X237150Y381395D01*
X237118Y381289D01*
X237082Y381184D01*
X237042Y381081D01*
X236999Y380979D01*
X236952Y380878D01*
X236901Y380779D01*
X236848Y380682D01*
X236791Y380588D01*
X236730Y380495D01*
X236667Y380404D01*
X236600Y380315D01*
X236530Y380229D01*
X236457Y380146D01*
X236382Y380064D01*
X236304Y379986D01*
X236222Y379911D01*
X236139Y379838D01*
X236053Y379768D01*
X235964Y379701D01*
X235873Y379638D01*
X235780Y379577D01*
X235685Y379520D01*
X235589Y379467D01*
X235490Y379416D01*
X235389Y379369D01*
X235287Y379326D01*
X235184Y379286D01*
X235079Y379250D01*
X234973Y379218D01*
X234866Y379189D01*
X234758Y379164D01*
X234649Y379143D01*
X234540Y379126D01*
X234430Y379112D01*
X234319Y379103D01*
X234209Y379097D01*
X234098Y379095D01*
X233987Y379097D01*
X233877Y379103D01*
X233766Y379112D01*
X233656Y379126D01*
X233547Y379143D01*
X233438Y379164D01*
X233330Y379189D01*
X233223Y379218D01*
X233117Y379250D01*
X233012Y379286D01*
X232909Y379326D01*
X232807Y379369D01*
X232706Y379416D01*
X232607Y379467D01*
X232511Y379520D01*
X232416Y379577D01*
X232323Y379638D01*
X232232Y379701D01*
X232143Y379768D01*
X232057Y379838D01*
X231974Y379911D01*
X231892Y379986D01*
X231814Y380064D01*
X231739Y380146D01*
X231666Y380229D01*
X231596Y380315D01*
X231529Y380404D01*
X231466Y380495D01*
X231405Y380588D01*
X231348Y380683D01*
X231295Y380779D01*
X231244Y380878D01*
X231197Y380979D01*
X231154Y381081D01*
X231114Y381184D01*
X231078Y381289D01*
X231046Y381395D01*
X231017Y381502D01*
X230992Y381610D01*
X230971Y381719D01*
X230954Y381828D01*
X230940Y381938D01*
X230931Y382049D01*
X230925Y382159D01*
X230923Y382270D01*
X241972Y390525D02*
X244512Y379095D01*
X247052Y386715D01*
X249592Y379095D01*
X252132Y390525D01*
X257212Y390525D02*
X257212Y379095D01*
X263562Y379095D02*
X257212Y390525D01*
X263562Y390525D02*
X263562Y379095D01*
D10*
X198120Y337820D02*
X195580Y337820D01*
X195580Y335280D01*
X210820Y335280D02*
X210820Y337820D01*
X208280Y337820D01*
X210820Y325120D02*
X210820Y322580D01*
X208280Y322580D01*
X198120Y322580D02*
X195580Y322580D01*
X195580Y325120D01*
D11*
X198755Y340995D02*
X201295Y340995D01*
X198755Y340995D02*
X198655Y340997D01*
X198556Y341003D01*
X198456Y341013D01*
X198358Y341026D01*
X198259Y341044D01*
X198162Y341065D01*
X198066Y341090D01*
X197970Y341119D01*
X197876Y341152D01*
X197783Y341188D01*
X197692Y341228D01*
X197602Y341272D01*
X197514Y341319D01*
X197428Y341369D01*
X197344Y341423D01*
X197262Y341480D01*
X197183Y341540D01*
X197105Y341604D01*
X197031Y341670D01*
X196959Y341739D01*
X196890Y341811D01*
X196824Y341885D01*
X196760Y341963D01*
X196700Y342042D01*
X196643Y342124D01*
X196589Y342208D01*
X196539Y342294D01*
X196492Y342382D01*
X196448Y342472D01*
X196408Y342563D01*
X196372Y342656D01*
X196339Y342750D01*
X196310Y342846D01*
X196285Y342942D01*
X196264Y343039D01*
X196246Y343138D01*
X196233Y343236D01*
X196223Y343336D01*
X196217Y343435D01*
X196215Y343535D01*
X196215Y349885D01*
X196217Y349985D01*
X196223Y350084D01*
X196233Y350184D01*
X196246Y350282D01*
X196264Y350381D01*
X196285Y350478D01*
X196310Y350574D01*
X196339Y350670D01*
X196372Y350764D01*
X196408Y350857D01*
X196448Y350948D01*
X196492Y351038D01*
X196539Y351126D01*
X196589Y351212D01*
X196643Y351296D01*
X196700Y351378D01*
X196760Y351457D01*
X196824Y351535D01*
X196890Y351609D01*
X196959Y351681D01*
X197031Y351750D01*
X197105Y351816D01*
X197183Y351880D01*
X197262Y351940D01*
X197344Y351997D01*
X197428Y352051D01*
X197514Y352101D01*
X197602Y352148D01*
X197692Y352192D01*
X197783Y352232D01*
X197876Y352268D01*
X197970Y352301D01*
X198066Y352330D01*
X198162Y352355D01*
X198259Y352376D01*
X198358Y352394D01*
X198456Y352407D01*
X198556Y352417D01*
X198655Y352423D01*
X198755Y352425D01*
X201295Y352425D01*
X205904Y345440D02*
X213524Y345440D01*
X219138Y340995D02*
X219138Y352425D01*
X219138Y340995D02*
X224218Y340995D01*
X229044Y340995D02*
X234124Y340995D01*
X229044Y340995D02*
X229044Y352425D01*
X234124Y352425D01*
X232854Y347345D02*
X229044Y347345D01*
X238950Y352425D02*
X238950Y340995D01*
X238950Y352425D02*
X244030Y352425D01*
X244030Y347345D02*
X238950Y347345D01*
X250862Y352425D02*
X250862Y340995D01*
X247687Y352425D02*
X254037Y352425D01*
D10*
X198120Y299720D02*
X195580Y299720D01*
X195580Y297180D01*
X210820Y297180D02*
X210820Y299720D01*
X208280Y299720D01*
X210820Y287020D02*
X210820Y284480D01*
X208280Y284480D01*
X198120Y284480D02*
X195580Y284480D01*
X195580Y287020D01*
D11*
X198755Y302895D02*
X201295Y302895D01*
X198755Y302895D02*
X198655Y302897D01*
X198556Y302903D01*
X198456Y302913D01*
X198358Y302926D01*
X198259Y302944D01*
X198162Y302965D01*
X198066Y302990D01*
X197970Y303019D01*
X197876Y303052D01*
X197783Y303088D01*
X197692Y303128D01*
X197602Y303172D01*
X197514Y303219D01*
X197428Y303269D01*
X197344Y303323D01*
X197262Y303380D01*
X197183Y303440D01*
X197105Y303504D01*
X197031Y303570D01*
X196959Y303639D01*
X196890Y303711D01*
X196824Y303785D01*
X196760Y303863D01*
X196700Y303942D01*
X196643Y304024D01*
X196589Y304108D01*
X196539Y304194D01*
X196492Y304282D01*
X196448Y304372D01*
X196408Y304463D01*
X196372Y304556D01*
X196339Y304650D01*
X196310Y304746D01*
X196285Y304842D01*
X196264Y304939D01*
X196246Y305038D01*
X196233Y305136D01*
X196223Y305236D01*
X196217Y305335D01*
X196215Y305435D01*
X196215Y311785D01*
X196217Y311885D01*
X196223Y311984D01*
X196233Y312084D01*
X196246Y312182D01*
X196264Y312281D01*
X196285Y312378D01*
X196310Y312474D01*
X196339Y312570D01*
X196372Y312664D01*
X196408Y312757D01*
X196448Y312848D01*
X196492Y312938D01*
X196539Y313026D01*
X196589Y313112D01*
X196643Y313196D01*
X196700Y313278D01*
X196760Y313357D01*
X196824Y313435D01*
X196890Y313509D01*
X196959Y313581D01*
X197031Y313650D01*
X197105Y313716D01*
X197183Y313780D01*
X197262Y313840D01*
X197344Y313897D01*
X197428Y313951D01*
X197514Y314001D01*
X197602Y314048D01*
X197692Y314092D01*
X197783Y314132D01*
X197876Y314168D01*
X197970Y314201D01*
X198066Y314230D01*
X198162Y314255D01*
X198259Y314276D01*
X198358Y314294D01*
X198456Y314307D01*
X198556Y314317D01*
X198655Y314323D01*
X198755Y314325D01*
X201295Y314325D01*
X205904Y307340D02*
X213524Y307340D01*
X219195Y302895D02*
X219195Y314325D01*
X222370Y314325D01*
X222481Y314323D01*
X222591Y314317D01*
X222702Y314308D01*
X222812Y314294D01*
X222921Y314277D01*
X223030Y314256D01*
X223138Y314231D01*
X223245Y314202D01*
X223351Y314170D01*
X223456Y314134D01*
X223559Y314094D01*
X223661Y314051D01*
X223762Y314004D01*
X223861Y313953D01*
X223958Y313900D01*
X224052Y313843D01*
X224145Y313782D01*
X224236Y313719D01*
X224325Y313652D01*
X224411Y313582D01*
X224494Y313509D01*
X224576Y313434D01*
X224654Y313356D01*
X224729Y313274D01*
X224802Y313191D01*
X224872Y313105D01*
X224939Y313016D01*
X225002Y312925D01*
X225063Y312832D01*
X225120Y312737D01*
X225173Y312641D01*
X225224Y312542D01*
X225271Y312441D01*
X225314Y312339D01*
X225354Y312236D01*
X225390Y312131D01*
X225422Y312025D01*
X225451Y311918D01*
X225476Y311810D01*
X225497Y311701D01*
X225514Y311592D01*
X225528Y311482D01*
X225537Y311371D01*
X225543Y311261D01*
X225545Y311150D01*
X225543Y311039D01*
X225537Y310929D01*
X225528Y310818D01*
X225514Y310708D01*
X225497Y310599D01*
X225476Y310490D01*
X225451Y310382D01*
X225422Y310275D01*
X225390Y310169D01*
X225354Y310064D01*
X225314Y309961D01*
X225271Y309859D01*
X225224Y309758D01*
X225173Y309659D01*
X225120Y309562D01*
X225063Y309468D01*
X225002Y309375D01*
X224939Y309284D01*
X224872Y309195D01*
X224802Y309109D01*
X224729Y309026D01*
X224654Y308944D01*
X224576Y308866D01*
X224494Y308791D01*
X224411Y308718D01*
X224325Y308648D01*
X224236Y308581D01*
X224145Y308518D01*
X224052Y308457D01*
X223957Y308400D01*
X223861Y308347D01*
X223762Y308296D01*
X223661Y308249D01*
X223559Y308206D01*
X223456Y308166D01*
X223351Y308130D01*
X223245Y308098D01*
X223138Y308069D01*
X223030Y308044D01*
X222921Y308023D01*
X222812Y308006D01*
X222702Y307992D01*
X222591Y307983D01*
X222481Y307977D01*
X222370Y307975D01*
X219195Y307975D01*
X223005Y307975D02*
X225545Y302895D01*
X231431Y302895D02*
X231431Y314325D01*
X230161Y302895D02*
X232701Y302895D01*
X232701Y314325D02*
X230161Y314325D01*
X242226Y309245D02*
X244131Y309245D01*
X244131Y302895D01*
X240321Y302895D01*
X240221Y302897D01*
X240122Y302903D01*
X240022Y302913D01*
X239924Y302926D01*
X239825Y302944D01*
X239728Y302965D01*
X239632Y302990D01*
X239536Y303019D01*
X239442Y303052D01*
X239349Y303088D01*
X239258Y303128D01*
X239168Y303172D01*
X239080Y303219D01*
X238994Y303269D01*
X238910Y303323D01*
X238828Y303380D01*
X238749Y303440D01*
X238671Y303504D01*
X238597Y303570D01*
X238525Y303639D01*
X238456Y303711D01*
X238390Y303785D01*
X238326Y303863D01*
X238266Y303942D01*
X238209Y304024D01*
X238155Y304108D01*
X238105Y304194D01*
X238058Y304282D01*
X238014Y304372D01*
X237974Y304463D01*
X237938Y304556D01*
X237905Y304650D01*
X237876Y304746D01*
X237851Y304842D01*
X237830Y304939D01*
X237812Y305038D01*
X237799Y305136D01*
X237789Y305236D01*
X237783Y305335D01*
X237781Y305435D01*
X237781Y311785D01*
X237783Y311885D01*
X237789Y311984D01*
X237799Y312084D01*
X237812Y312182D01*
X237830Y312281D01*
X237851Y312378D01*
X237876Y312474D01*
X237905Y312570D01*
X237938Y312664D01*
X237974Y312757D01*
X238014Y312848D01*
X238058Y312938D01*
X238105Y313026D01*
X238155Y313112D01*
X238209Y313196D01*
X238266Y313278D01*
X238326Y313357D01*
X238390Y313435D01*
X238456Y313509D01*
X238525Y313581D01*
X238597Y313650D01*
X238671Y313716D01*
X238749Y313780D01*
X238828Y313840D01*
X238910Y313897D01*
X238994Y313951D01*
X239080Y314001D01*
X239168Y314048D01*
X239258Y314092D01*
X239349Y314132D01*
X239442Y314168D01*
X239536Y314201D01*
X239632Y314230D01*
X239728Y314255D01*
X239825Y314276D01*
X239924Y314294D01*
X240022Y314307D01*
X240122Y314317D01*
X240221Y314323D01*
X240321Y314325D01*
X244131Y314325D01*
X249973Y314325D02*
X249973Y302895D01*
X249973Y309245D02*
X256323Y309245D01*
X256323Y314325D02*
X256323Y302895D01*
X264197Y302895D02*
X264197Y314325D01*
X261022Y314325D02*
X267372Y314325D01*
D10*
X198120Y414020D02*
X195580Y414020D01*
X195580Y411480D01*
X210820Y411480D02*
X210820Y414020D01*
X208280Y414020D01*
X210820Y401320D02*
X210820Y398780D01*
X208280Y398780D01*
X198120Y398780D02*
X195580Y398780D01*
X195580Y401320D01*
D11*
X198755Y417195D02*
X201295Y417195D01*
X198755Y417195D02*
X198655Y417197D01*
X198556Y417203D01*
X198456Y417213D01*
X198358Y417226D01*
X198259Y417244D01*
X198162Y417265D01*
X198066Y417290D01*
X197970Y417319D01*
X197876Y417352D01*
X197783Y417388D01*
X197692Y417428D01*
X197602Y417472D01*
X197514Y417519D01*
X197428Y417569D01*
X197344Y417623D01*
X197262Y417680D01*
X197183Y417740D01*
X197105Y417804D01*
X197031Y417870D01*
X196959Y417939D01*
X196890Y418011D01*
X196824Y418085D01*
X196760Y418163D01*
X196700Y418242D01*
X196643Y418324D01*
X196589Y418408D01*
X196539Y418494D01*
X196492Y418582D01*
X196448Y418672D01*
X196408Y418763D01*
X196372Y418856D01*
X196339Y418950D01*
X196310Y419046D01*
X196285Y419142D01*
X196264Y419239D01*
X196246Y419338D01*
X196233Y419436D01*
X196223Y419536D01*
X196217Y419635D01*
X196215Y419735D01*
X196215Y426085D01*
X196217Y426185D01*
X196223Y426284D01*
X196233Y426384D01*
X196246Y426482D01*
X196264Y426581D01*
X196285Y426678D01*
X196310Y426774D01*
X196339Y426870D01*
X196372Y426964D01*
X196408Y427057D01*
X196448Y427148D01*
X196492Y427238D01*
X196539Y427326D01*
X196589Y427412D01*
X196643Y427496D01*
X196700Y427578D01*
X196760Y427657D01*
X196824Y427735D01*
X196890Y427809D01*
X196959Y427881D01*
X197031Y427950D01*
X197105Y428016D01*
X197183Y428080D01*
X197262Y428140D01*
X197344Y428197D01*
X197428Y428251D01*
X197514Y428301D01*
X197602Y428348D01*
X197692Y428392D01*
X197783Y428432D01*
X197876Y428468D01*
X197970Y428501D01*
X198066Y428530D01*
X198162Y428555D01*
X198259Y428576D01*
X198358Y428594D01*
X198456Y428607D01*
X198556Y428617D01*
X198655Y428623D01*
X198755Y428625D01*
X201295Y428625D01*
X205904Y421640D02*
X213524Y421640D01*
X219112Y420370D02*
X219112Y428625D01*
X219112Y420370D02*
X219114Y420259D01*
X219120Y420149D01*
X219129Y420038D01*
X219143Y419928D01*
X219160Y419819D01*
X219181Y419710D01*
X219206Y419602D01*
X219235Y419495D01*
X219267Y419389D01*
X219303Y419284D01*
X219343Y419181D01*
X219386Y419079D01*
X219433Y418978D01*
X219484Y418879D01*
X219537Y418783D01*
X219594Y418688D01*
X219655Y418595D01*
X219718Y418504D01*
X219785Y418415D01*
X219855Y418329D01*
X219928Y418246D01*
X220003Y418164D01*
X220081Y418086D01*
X220163Y418011D01*
X220246Y417938D01*
X220332Y417868D01*
X220421Y417801D01*
X220512Y417738D01*
X220605Y417677D01*
X220700Y417620D01*
X220796Y417567D01*
X220895Y417516D01*
X220996Y417469D01*
X221098Y417426D01*
X221201Y417386D01*
X221306Y417350D01*
X221412Y417318D01*
X221519Y417289D01*
X221627Y417264D01*
X221736Y417243D01*
X221845Y417226D01*
X221955Y417212D01*
X222066Y417203D01*
X222176Y417197D01*
X222287Y417195D01*
X222398Y417197D01*
X222508Y417203D01*
X222619Y417212D01*
X222729Y417226D01*
X222838Y417243D01*
X222947Y417264D01*
X223055Y417289D01*
X223162Y417318D01*
X223268Y417350D01*
X223373Y417386D01*
X223476Y417426D01*
X223578Y417469D01*
X223679Y417516D01*
X223778Y417567D01*
X223874Y417620D01*
X223969Y417677D01*
X224062Y417738D01*
X224153Y417801D01*
X224242Y417868D01*
X224328Y417938D01*
X224411Y418011D01*
X224493Y418086D01*
X224571Y418164D01*
X224646Y418246D01*
X224719Y418329D01*
X224789Y418415D01*
X224856Y418504D01*
X224919Y418595D01*
X224980Y418688D01*
X225037Y418782D01*
X225090Y418879D01*
X225141Y418978D01*
X225188Y419079D01*
X225231Y419181D01*
X225271Y419284D01*
X225307Y419389D01*
X225339Y419495D01*
X225368Y419602D01*
X225393Y419710D01*
X225414Y419819D01*
X225431Y419928D01*
X225445Y420038D01*
X225454Y420149D01*
X225460Y420259D01*
X225462Y420370D01*
X225462Y428625D01*
X231495Y428625D02*
X231495Y417195D01*
X231495Y428625D02*
X234670Y428625D01*
X234781Y428623D01*
X234891Y428617D01*
X235002Y428608D01*
X235112Y428594D01*
X235221Y428577D01*
X235330Y428556D01*
X235438Y428531D01*
X235545Y428502D01*
X235651Y428470D01*
X235756Y428434D01*
X235859Y428394D01*
X235961Y428351D01*
X236062Y428304D01*
X236161Y428253D01*
X236258Y428200D01*
X236352Y428143D01*
X236445Y428082D01*
X236536Y428019D01*
X236625Y427952D01*
X236711Y427882D01*
X236794Y427809D01*
X236876Y427734D01*
X236954Y427656D01*
X237029Y427574D01*
X237102Y427491D01*
X237172Y427405D01*
X237239Y427316D01*
X237302Y427225D01*
X237363Y427132D01*
X237420Y427037D01*
X237473Y426941D01*
X237524Y426842D01*
X237571Y426741D01*
X237614Y426639D01*
X237654Y426536D01*
X237690Y426431D01*
X237722Y426325D01*
X237751Y426218D01*
X237776Y426110D01*
X237797Y426001D01*
X237814Y425892D01*
X237828Y425782D01*
X237837Y425671D01*
X237843Y425561D01*
X237845Y425450D01*
X237843Y425339D01*
X237837Y425229D01*
X237828Y425118D01*
X237814Y425008D01*
X237797Y424899D01*
X237776Y424790D01*
X237751Y424682D01*
X237722Y424575D01*
X237690Y424469D01*
X237654Y424364D01*
X237614Y424261D01*
X237571Y424159D01*
X237524Y424058D01*
X237473Y423959D01*
X237420Y423862D01*
X237363Y423768D01*
X237302Y423675D01*
X237239Y423584D01*
X237172Y423495D01*
X237102Y423409D01*
X237029Y423326D01*
X236954Y423244D01*
X236876Y423166D01*
X236794Y423091D01*
X236711Y423018D01*
X236625Y422948D01*
X236536Y422881D01*
X236445Y422818D01*
X236352Y422757D01*
X236257Y422700D01*
X236161Y422647D01*
X236062Y422596D01*
X235961Y422549D01*
X235859Y422506D01*
X235756Y422466D01*
X235651Y422430D01*
X235545Y422398D01*
X235438Y422369D01*
X235330Y422344D01*
X235221Y422323D01*
X235112Y422306D01*
X235002Y422292D01*
X234891Y422283D01*
X234781Y422277D01*
X234670Y422275D01*
X231495Y422275D01*
D10*
X88900Y307340D02*
X88900Y302260D01*
X114300Y302260D02*
X114300Y307340D01*
X113030Y307340D01*
X113030Y302260D02*
X114300Y302260D01*
X90170Y302260D02*
X88900Y302260D01*
X88900Y307340D02*
X90170Y307340D01*
D11*
X89535Y318135D02*
X89535Y329565D01*
X92710Y329565D01*
X92821Y329563D01*
X92931Y329557D01*
X93042Y329548D01*
X93152Y329534D01*
X93261Y329517D01*
X93370Y329496D01*
X93478Y329471D01*
X93585Y329442D01*
X93691Y329410D01*
X93796Y329374D01*
X93899Y329334D01*
X94001Y329291D01*
X94102Y329244D01*
X94201Y329193D01*
X94298Y329140D01*
X94392Y329083D01*
X94485Y329022D01*
X94576Y328959D01*
X94665Y328892D01*
X94751Y328822D01*
X94834Y328749D01*
X94916Y328674D01*
X94994Y328596D01*
X95069Y328514D01*
X95142Y328431D01*
X95212Y328345D01*
X95279Y328256D01*
X95342Y328165D01*
X95403Y328072D01*
X95460Y327978D01*
X95513Y327881D01*
X95564Y327782D01*
X95611Y327681D01*
X95654Y327579D01*
X95694Y327476D01*
X95730Y327371D01*
X95762Y327265D01*
X95791Y327158D01*
X95816Y327050D01*
X95837Y326941D01*
X95854Y326832D01*
X95868Y326722D01*
X95877Y326611D01*
X95883Y326501D01*
X95885Y326390D01*
X95885Y321310D01*
X95883Y321199D01*
X95877Y321089D01*
X95868Y320978D01*
X95854Y320868D01*
X95837Y320759D01*
X95816Y320650D01*
X95791Y320542D01*
X95762Y320435D01*
X95730Y320329D01*
X95694Y320224D01*
X95654Y320121D01*
X95611Y320019D01*
X95564Y319918D01*
X95513Y319819D01*
X95460Y319722D01*
X95403Y319628D01*
X95342Y319535D01*
X95279Y319444D01*
X95212Y319355D01*
X95142Y319269D01*
X95069Y319186D01*
X94994Y319104D01*
X94916Y319026D01*
X94834Y318951D01*
X94751Y318878D01*
X94665Y318808D01*
X94576Y318741D01*
X94485Y318678D01*
X94392Y318617D01*
X94297Y318560D01*
X94201Y318507D01*
X94102Y318456D01*
X94001Y318409D01*
X93899Y318366D01*
X93796Y318326D01*
X93691Y318290D01*
X93585Y318258D01*
X93478Y318229D01*
X93370Y318204D01*
X93261Y318183D01*
X93152Y318166D01*
X93042Y318152D01*
X92931Y318143D01*
X92821Y318137D01*
X92710Y318135D01*
X89535Y318135D01*
X100711Y318135D02*
X104521Y329565D01*
X108331Y318135D01*
X107379Y320993D02*
X101664Y320993D01*
X115189Y318135D02*
X115189Y329565D01*
X112014Y329565D02*
X118364Y329565D01*
X125857Y329565D02*
X122047Y318135D01*
X129667Y318135D02*
X125857Y329565D01*
X128715Y320993D02*
X123000Y320993D01*
D10*
X297180Y109220D02*
X299720Y109220D01*
X297180Y109220D02*
X297180Y106680D01*
X312420Y106680D02*
X312420Y109220D01*
X309880Y109220D01*
X312420Y96520D02*
X312420Y93980D01*
X309880Y93980D01*
X299720Y93980D02*
X297180Y93980D01*
X297180Y96520D01*
D11*
X297815Y112395D02*
X297815Y123825D01*
X300990Y123825D01*
X301101Y123823D01*
X301211Y123817D01*
X301322Y123808D01*
X301432Y123794D01*
X301541Y123777D01*
X301650Y123756D01*
X301758Y123731D01*
X301865Y123702D01*
X301971Y123670D01*
X302076Y123634D01*
X302179Y123594D01*
X302281Y123551D01*
X302382Y123504D01*
X302481Y123453D01*
X302578Y123400D01*
X302672Y123343D01*
X302765Y123282D01*
X302856Y123219D01*
X302945Y123152D01*
X303031Y123082D01*
X303114Y123009D01*
X303196Y122934D01*
X303274Y122856D01*
X303349Y122774D01*
X303422Y122691D01*
X303492Y122605D01*
X303559Y122516D01*
X303622Y122425D01*
X303683Y122332D01*
X303740Y122238D01*
X303793Y122141D01*
X303844Y122042D01*
X303891Y121941D01*
X303934Y121839D01*
X303974Y121736D01*
X304010Y121631D01*
X304042Y121525D01*
X304071Y121418D01*
X304096Y121310D01*
X304117Y121201D01*
X304134Y121092D01*
X304148Y120982D01*
X304157Y120871D01*
X304163Y120761D01*
X304165Y120650D01*
X304165Y115570D01*
X304163Y115459D01*
X304157Y115349D01*
X304148Y115238D01*
X304134Y115128D01*
X304117Y115019D01*
X304096Y114910D01*
X304071Y114802D01*
X304042Y114695D01*
X304010Y114589D01*
X303974Y114484D01*
X303934Y114381D01*
X303891Y114279D01*
X303844Y114178D01*
X303793Y114079D01*
X303740Y113982D01*
X303683Y113888D01*
X303622Y113795D01*
X303559Y113704D01*
X303492Y113615D01*
X303422Y113529D01*
X303349Y113446D01*
X303274Y113364D01*
X303196Y113286D01*
X303114Y113211D01*
X303031Y113138D01*
X302945Y113068D01*
X302856Y113001D01*
X302765Y112938D01*
X302672Y112877D01*
X302578Y112820D01*
X302481Y112767D01*
X302382Y112716D01*
X302281Y112669D01*
X302179Y112626D01*
X302076Y112586D01*
X301971Y112550D01*
X301865Y112518D01*
X301758Y112489D01*
X301650Y112464D01*
X301541Y112443D01*
X301432Y112426D01*
X301322Y112412D01*
X301211Y112403D01*
X301101Y112397D01*
X300990Y112395D01*
X297815Y112395D01*
X309626Y115570D02*
X309626Y120650D01*
X309628Y120761D01*
X309634Y120871D01*
X309643Y120982D01*
X309657Y121092D01*
X309674Y121201D01*
X309695Y121310D01*
X309720Y121418D01*
X309749Y121525D01*
X309781Y121631D01*
X309817Y121736D01*
X309857Y121839D01*
X309900Y121941D01*
X309947Y122042D01*
X309998Y122141D01*
X310051Y122237D01*
X310108Y122332D01*
X310169Y122425D01*
X310232Y122516D01*
X310299Y122605D01*
X310369Y122691D01*
X310442Y122774D01*
X310517Y122856D01*
X310595Y122934D01*
X310677Y123009D01*
X310760Y123082D01*
X310846Y123152D01*
X310935Y123219D01*
X311026Y123282D01*
X311119Y123343D01*
X311214Y123400D01*
X311310Y123453D01*
X311409Y123504D01*
X311510Y123551D01*
X311612Y123594D01*
X311715Y123634D01*
X311820Y123670D01*
X311926Y123702D01*
X312033Y123731D01*
X312141Y123756D01*
X312250Y123777D01*
X312359Y123794D01*
X312469Y123808D01*
X312580Y123817D01*
X312690Y123823D01*
X312801Y123825D01*
X312912Y123823D01*
X313022Y123817D01*
X313133Y123808D01*
X313243Y123794D01*
X313352Y123777D01*
X313461Y123756D01*
X313569Y123731D01*
X313676Y123702D01*
X313782Y123670D01*
X313887Y123634D01*
X313990Y123594D01*
X314092Y123551D01*
X314193Y123504D01*
X314292Y123453D01*
X314389Y123400D01*
X314483Y123343D01*
X314576Y123282D01*
X314667Y123219D01*
X314756Y123152D01*
X314842Y123082D01*
X314925Y123009D01*
X315007Y122934D01*
X315085Y122856D01*
X315160Y122774D01*
X315233Y122691D01*
X315303Y122605D01*
X315370Y122516D01*
X315433Y122425D01*
X315494Y122332D01*
X315551Y122238D01*
X315604Y122141D01*
X315655Y122042D01*
X315702Y121941D01*
X315745Y121839D01*
X315785Y121736D01*
X315821Y121631D01*
X315853Y121525D01*
X315882Y121418D01*
X315907Y121310D01*
X315928Y121201D01*
X315945Y121092D01*
X315959Y120982D01*
X315968Y120871D01*
X315974Y120761D01*
X315976Y120650D01*
X315976Y115570D01*
X315974Y115459D01*
X315968Y115349D01*
X315959Y115238D01*
X315945Y115128D01*
X315928Y115019D01*
X315907Y114910D01*
X315882Y114802D01*
X315853Y114695D01*
X315821Y114589D01*
X315785Y114484D01*
X315745Y114381D01*
X315702Y114279D01*
X315655Y114178D01*
X315604Y114079D01*
X315551Y113982D01*
X315494Y113888D01*
X315433Y113795D01*
X315370Y113704D01*
X315303Y113615D01*
X315233Y113529D01*
X315160Y113446D01*
X315085Y113364D01*
X315007Y113286D01*
X314925Y113211D01*
X314842Y113138D01*
X314756Y113068D01*
X314667Y113001D01*
X314576Y112938D01*
X314483Y112877D01*
X314388Y112820D01*
X314292Y112767D01*
X314193Y112716D01*
X314092Y112669D01*
X313990Y112626D01*
X313887Y112586D01*
X313782Y112550D01*
X313676Y112518D01*
X313569Y112489D01*
X313461Y112464D01*
X313352Y112443D01*
X313243Y112426D01*
X313133Y112412D01*
X313022Y112403D01*
X312912Y112397D01*
X312801Y112395D01*
X312690Y112397D01*
X312580Y112403D01*
X312469Y112412D01*
X312359Y112426D01*
X312250Y112443D01*
X312141Y112464D01*
X312033Y112489D01*
X311926Y112518D01*
X311820Y112550D01*
X311715Y112586D01*
X311612Y112626D01*
X311510Y112669D01*
X311409Y112716D01*
X311310Y112767D01*
X311214Y112820D01*
X311119Y112877D01*
X311026Y112938D01*
X310935Y113001D01*
X310846Y113068D01*
X310760Y113138D01*
X310677Y113211D01*
X310595Y113286D01*
X310517Y113364D01*
X310442Y113446D01*
X310369Y113529D01*
X310299Y113615D01*
X310232Y113704D01*
X310169Y113795D01*
X310108Y113888D01*
X310051Y113983D01*
X309998Y114079D01*
X309947Y114178D01*
X309900Y114279D01*
X309857Y114381D01*
X309817Y114484D01*
X309781Y114589D01*
X309749Y114695D01*
X309720Y114802D01*
X309695Y114910D01*
X309674Y115019D01*
X309657Y115128D01*
X309643Y115238D01*
X309634Y115349D01*
X309628Y115459D01*
X309626Y115570D01*
X320675Y123825D02*
X323215Y112395D01*
X325755Y120015D01*
X328295Y112395D01*
X330835Y123825D01*
X335915Y123825D02*
X335915Y112395D01*
X342265Y112395D02*
X335915Y123825D01*
X342265Y123825D02*
X342265Y112395D01*
D10*
X299720Y223520D02*
X297180Y223520D01*
X297180Y220980D01*
X312420Y220980D02*
X312420Y223520D01*
X309880Y223520D01*
X312420Y210820D02*
X312420Y208280D01*
X309880Y208280D01*
X299720Y208280D02*
X297180Y208280D01*
X297180Y210820D01*
D11*
X297815Y226695D02*
X297815Y238125D01*
X297815Y226695D02*
X302895Y226695D01*
D10*
X299720Y71120D02*
X297180Y71120D01*
X297180Y68580D01*
X312420Y68580D02*
X312420Y71120D01*
X309880Y71120D01*
X312420Y58420D02*
X312420Y55880D01*
X309880Y55880D01*
X299720Y55880D02*
X297180Y55880D01*
X297180Y58420D01*
D11*
X297815Y74295D02*
X297815Y85725D01*
X297815Y74295D02*
X302895Y74295D01*
X307721Y74295D02*
X312801Y74295D01*
X307721Y74295D02*
X307721Y85725D01*
X312801Y85725D01*
X311531Y80645D02*
X307721Y80645D01*
X317627Y85725D02*
X317627Y74295D01*
X317627Y85725D02*
X322707Y85725D01*
X322707Y80645D02*
X317627Y80645D01*
X329540Y85725D02*
X329540Y74295D01*
X326365Y85725D02*
X332715Y85725D01*
D10*
X152400Y264160D02*
X152400Y269240D01*
X177800Y269240D02*
X177800Y264160D01*
X177800Y269240D02*
X176530Y269240D01*
X176530Y264160D02*
X177800Y264160D01*
X153670Y264160D02*
X152400Y264160D01*
X152400Y269240D02*
X153670Y269240D01*
D11*
X153035Y280035D02*
X153035Y291465D01*
X153035Y280035D02*
X158115Y280035D01*
X167361Y286385D02*
X169266Y286385D01*
X169266Y280035D01*
X165456Y280035D01*
X165356Y280037D01*
X165257Y280043D01*
X165157Y280053D01*
X165059Y280066D01*
X164960Y280084D01*
X164863Y280105D01*
X164767Y280130D01*
X164671Y280159D01*
X164577Y280192D01*
X164484Y280228D01*
X164393Y280268D01*
X164303Y280312D01*
X164215Y280359D01*
X164129Y280409D01*
X164045Y280463D01*
X163963Y280520D01*
X163884Y280580D01*
X163806Y280644D01*
X163732Y280710D01*
X163660Y280779D01*
X163591Y280851D01*
X163525Y280925D01*
X163461Y281003D01*
X163401Y281082D01*
X163344Y281164D01*
X163290Y281248D01*
X163240Y281334D01*
X163193Y281422D01*
X163149Y281512D01*
X163109Y281603D01*
X163073Y281696D01*
X163040Y281790D01*
X163011Y281886D01*
X162986Y281982D01*
X162965Y282079D01*
X162947Y282178D01*
X162934Y282276D01*
X162924Y282376D01*
X162918Y282475D01*
X162916Y282575D01*
X162916Y288925D01*
X162918Y289025D01*
X162924Y289124D01*
X162934Y289224D01*
X162947Y289322D01*
X162965Y289421D01*
X162986Y289518D01*
X163011Y289614D01*
X163040Y289710D01*
X163073Y289804D01*
X163109Y289897D01*
X163149Y289988D01*
X163193Y290078D01*
X163240Y290166D01*
X163290Y290252D01*
X163344Y290336D01*
X163401Y290418D01*
X163461Y290497D01*
X163525Y290575D01*
X163591Y290649D01*
X163660Y290721D01*
X163732Y290790D01*
X163806Y290856D01*
X163884Y290920D01*
X163963Y290980D01*
X164045Y291037D01*
X164129Y291091D01*
X164215Y291141D01*
X164303Y291188D01*
X164393Y291232D01*
X164484Y291272D01*
X164577Y291308D01*
X164671Y291341D01*
X164767Y291370D01*
X164863Y291395D01*
X164960Y291416D01*
X165059Y291434D01*
X165157Y291447D01*
X165257Y291457D01*
X165356Y291463D01*
X165456Y291465D01*
X169266Y291465D01*
X177229Y280035D02*
X179769Y280035D01*
X177229Y280035D02*
X177129Y280037D01*
X177030Y280043D01*
X176930Y280053D01*
X176832Y280066D01*
X176733Y280084D01*
X176636Y280105D01*
X176540Y280130D01*
X176444Y280159D01*
X176350Y280192D01*
X176257Y280228D01*
X176166Y280268D01*
X176076Y280312D01*
X175988Y280359D01*
X175902Y280409D01*
X175818Y280463D01*
X175736Y280520D01*
X175657Y280580D01*
X175579Y280644D01*
X175505Y280710D01*
X175433Y280779D01*
X175364Y280851D01*
X175298Y280925D01*
X175234Y281003D01*
X175174Y281082D01*
X175117Y281164D01*
X175063Y281248D01*
X175013Y281334D01*
X174966Y281422D01*
X174922Y281512D01*
X174882Y281603D01*
X174846Y281696D01*
X174813Y281790D01*
X174784Y281886D01*
X174759Y281982D01*
X174738Y282079D01*
X174720Y282178D01*
X174707Y282276D01*
X174697Y282376D01*
X174691Y282475D01*
X174689Y282575D01*
X174689Y288925D01*
X174691Y289025D01*
X174697Y289124D01*
X174707Y289224D01*
X174720Y289322D01*
X174738Y289421D01*
X174759Y289518D01*
X174784Y289614D01*
X174813Y289710D01*
X174846Y289804D01*
X174882Y289897D01*
X174922Y289988D01*
X174966Y290078D01*
X175013Y290166D01*
X175063Y290252D01*
X175117Y290336D01*
X175174Y290418D01*
X175234Y290497D01*
X175298Y290575D01*
X175364Y290649D01*
X175433Y290721D01*
X175505Y290790D01*
X175579Y290856D01*
X175657Y290920D01*
X175736Y290980D01*
X175818Y291037D01*
X175902Y291091D01*
X175988Y291141D01*
X176076Y291188D01*
X176166Y291232D01*
X176257Y291272D01*
X176350Y291308D01*
X176444Y291341D01*
X176540Y291370D01*
X176636Y291395D01*
X176733Y291416D01*
X176832Y291434D01*
X176930Y291447D01*
X177030Y291457D01*
X177129Y291463D01*
X177229Y291465D01*
X179769Y291465D01*
D10*
X297180Y185420D02*
X299720Y185420D01*
X297180Y185420D02*
X297180Y182880D01*
X312420Y182880D02*
X312420Y185420D01*
X309880Y185420D01*
X312420Y172720D02*
X312420Y170180D01*
X309880Y170180D01*
X299720Y170180D02*
X297180Y170180D01*
X297180Y172720D01*
D11*
X297815Y188595D02*
X297815Y200025D01*
X300990Y200025D01*
X301101Y200023D01*
X301211Y200017D01*
X301322Y200008D01*
X301432Y199994D01*
X301541Y199977D01*
X301650Y199956D01*
X301758Y199931D01*
X301865Y199902D01*
X301971Y199870D01*
X302076Y199834D01*
X302179Y199794D01*
X302281Y199751D01*
X302382Y199704D01*
X302481Y199653D01*
X302578Y199600D01*
X302672Y199543D01*
X302765Y199482D01*
X302856Y199419D01*
X302945Y199352D01*
X303031Y199282D01*
X303114Y199209D01*
X303196Y199134D01*
X303274Y199056D01*
X303349Y198974D01*
X303422Y198891D01*
X303492Y198805D01*
X303559Y198716D01*
X303622Y198625D01*
X303683Y198532D01*
X303740Y198437D01*
X303793Y198341D01*
X303844Y198242D01*
X303891Y198141D01*
X303934Y198039D01*
X303974Y197936D01*
X304010Y197831D01*
X304042Y197725D01*
X304071Y197618D01*
X304096Y197510D01*
X304117Y197401D01*
X304134Y197292D01*
X304148Y197182D01*
X304157Y197071D01*
X304163Y196961D01*
X304165Y196850D01*
X304163Y196739D01*
X304157Y196629D01*
X304148Y196518D01*
X304134Y196408D01*
X304117Y196299D01*
X304096Y196190D01*
X304071Y196082D01*
X304042Y195975D01*
X304010Y195869D01*
X303974Y195764D01*
X303934Y195661D01*
X303891Y195559D01*
X303844Y195458D01*
X303793Y195359D01*
X303740Y195262D01*
X303683Y195168D01*
X303622Y195075D01*
X303559Y194984D01*
X303492Y194895D01*
X303422Y194809D01*
X303349Y194726D01*
X303274Y194644D01*
X303196Y194566D01*
X303114Y194491D01*
X303031Y194418D01*
X302945Y194348D01*
X302856Y194281D01*
X302765Y194218D01*
X302672Y194157D01*
X302578Y194100D01*
X302481Y194047D01*
X302382Y193996D01*
X302281Y193949D01*
X302179Y193906D01*
X302076Y193866D01*
X301971Y193830D01*
X301865Y193798D01*
X301758Y193769D01*
X301650Y193744D01*
X301541Y193723D01*
X301432Y193706D01*
X301322Y193692D01*
X301211Y193683D01*
X301101Y193677D01*
X300990Y193675D01*
X297815Y193675D01*
X301625Y193675D02*
X304165Y188595D01*
D10*
X198120Y223520D02*
X195580Y223520D01*
X195580Y220980D01*
X210820Y220980D02*
X210820Y223520D01*
X208280Y223520D01*
X210820Y210820D02*
X210820Y208280D01*
X208280Y208280D01*
X198120Y208280D02*
X195580Y208280D01*
X195580Y210820D01*
D11*
X196215Y226695D02*
X196215Y238125D01*
X199390Y238125D01*
X199501Y238123D01*
X199611Y238117D01*
X199722Y238108D01*
X199832Y238094D01*
X199941Y238077D01*
X200050Y238056D01*
X200158Y238031D01*
X200265Y238002D01*
X200371Y237970D01*
X200476Y237934D01*
X200579Y237894D01*
X200681Y237851D01*
X200782Y237804D01*
X200881Y237753D01*
X200978Y237700D01*
X201072Y237643D01*
X201165Y237582D01*
X201256Y237519D01*
X201345Y237452D01*
X201431Y237382D01*
X201514Y237309D01*
X201596Y237234D01*
X201674Y237156D01*
X201749Y237074D01*
X201822Y236991D01*
X201892Y236905D01*
X201959Y236816D01*
X202022Y236725D01*
X202083Y236632D01*
X202140Y236537D01*
X202193Y236441D01*
X202244Y236342D01*
X202291Y236241D01*
X202334Y236139D01*
X202374Y236036D01*
X202410Y235931D01*
X202442Y235825D01*
X202471Y235718D01*
X202496Y235610D01*
X202517Y235501D01*
X202534Y235392D01*
X202548Y235282D01*
X202557Y235171D01*
X202563Y235061D01*
X202565Y234950D01*
X202563Y234839D01*
X202557Y234729D01*
X202548Y234618D01*
X202534Y234508D01*
X202517Y234399D01*
X202496Y234290D01*
X202471Y234182D01*
X202442Y234075D01*
X202410Y233969D01*
X202374Y233864D01*
X202334Y233761D01*
X202291Y233659D01*
X202244Y233558D01*
X202193Y233459D01*
X202140Y233362D01*
X202083Y233268D01*
X202022Y233175D01*
X201959Y233084D01*
X201892Y232995D01*
X201822Y232909D01*
X201749Y232826D01*
X201674Y232744D01*
X201596Y232666D01*
X201514Y232591D01*
X201431Y232518D01*
X201345Y232448D01*
X201256Y232381D01*
X201165Y232318D01*
X201072Y232257D01*
X200977Y232200D01*
X200881Y232147D01*
X200782Y232096D01*
X200681Y232049D01*
X200579Y232006D01*
X200476Y231966D01*
X200371Y231930D01*
X200265Y231898D01*
X200158Y231869D01*
X200050Y231844D01*
X199941Y231823D01*
X199832Y231806D01*
X199722Y231792D01*
X199611Y231783D01*
X199501Y231777D01*
X199390Y231775D01*
X196215Y231775D01*
X200025Y231775D02*
X202565Y226695D01*
X207689Y231140D02*
X215309Y231140D01*
X219881Y226695D02*
X223691Y238125D01*
X227501Y226695D01*
X226549Y229553D02*
X220834Y229553D01*
X232327Y226695D02*
X232327Y238125D01*
X238677Y226695D01*
X238677Y238125D01*
X247313Y238125D02*
X243503Y226695D01*
X251123Y226695D02*
X247313Y238125D01*
X250171Y229553D02*
X244456Y229553D01*
X255975Y226695D02*
X255975Y238125D01*
X255975Y226695D02*
X261055Y226695D01*
X265474Y229870D02*
X265474Y234950D01*
X265476Y235061D01*
X265482Y235171D01*
X265491Y235282D01*
X265505Y235392D01*
X265522Y235501D01*
X265543Y235610D01*
X265568Y235718D01*
X265597Y235825D01*
X265629Y235931D01*
X265665Y236036D01*
X265705Y236139D01*
X265748Y236241D01*
X265795Y236342D01*
X265846Y236441D01*
X265899Y236538D01*
X265956Y236632D01*
X266017Y236725D01*
X266080Y236816D01*
X266147Y236905D01*
X266217Y236991D01*
X266290Y237074D01*
X266365Y237156D01*
X266443Y237234D01*
X266525Y237309D01*
X266608Y237382D01*
X266694Y237452D01*
X266783Y237519D01*
X266874Y237582D01*
X266967Y237643D01*
X267062Y237700D01*
X267158Y237753D01*
X267257Y237804D01*
X267358Y237851D01*
X267460Y237894D01*
X267563Y237934D01*
X267668Y237970D01*
X267774Y238002D01*
X267881Y238031D01*
X267989Y238056D01*
X268098Y238077D01*
X268207Y238094D01*
X268317Y238108D01*
X268428Y238117D01*
X268538Y238123D01*
X268649Y238125D01*
X268760Y238123D01*
X268870Y238117D01*
X268981Y238108D01*
X269091Y238094D01*
X269200Y238077D01*
X269309Y238056D01*
X269417Y238031D01*
X269524Y238002D01*
X269630Y237970D01*
X269735Y237934D01*
X269838Y237894D01*
X269940Y237851D01*
X270041Y237804D01*
X270140Y237753D01*
X270237Y237700D01*
X270331Y237643D01*
X270424Y237582D01*
X270515Y237519D01*
X270604Y237452D01*
X270690Y237382D01*
X270773Y237309D01*
X270855Y237234D01*
X270933Y237156D01*
X271008Y237074D01*
X271081Y236991D01*
X271151Y236905D01*
X271218Y236816D01*
X271281Y236725D01*
X271342Y236632D01*
X271399Y236538D01*
X271452Y236441D01*
X271503Y236342D01*
X271550Y236241D01*
X271593Y236139D01*
X271633Y236036D01*
X271669Y235931D01*
X271701Y235825D01*
X271730Y235718D01*
X271755Y235610D01*
X271776Y235501D01*
X271793Y235392D01*
X271807Y235282D01*
X271816Y235171D01*
X271822Y235061D01*
X271824Y234950D01*
X271824Y229870D01*
X271822Y229759D01*
X271816Y229649D01*
X271807Y229538D01*
X271793Y229428D01*
X271776Y229319D01*
X271755Y229210D01*
X271730Y229102D01*
X271701Y228995D01*
X271669Y228889D01*
X271633Y228784D01*
X271593Y228681D01*
X271550Y228579D01*
X271503Y228478D01*
X271452Y228379D01*
X271399Y228282D01*
X271342Y228188D01*
X271281Y228095D01*
X271218Y228004D01*
X271151Y227915D01*
X271081Y227829D01*
X271008Y227746D01*
X270933Y227664D01*
X270855Y227586D01*
X270773Y227511D01*
X270690Y227438D01*
X270604Y227368D01*
X270515Y227301D01*
X270424Y227238D01*
X270331Y227177D01*
X270236Y227120D01*
X270140Y227067D01*
X270041Y227016D01*
X269940Y226969D01*
X269838Y226926D01*
X269735Y226886D01*
X269630Y226850D01*
X269524Y226818D01*
X269417Y226789D01*
X269309Y226764D01*
X269200Y226743D01*
X269091Y226726D01*
X268981Y226712D01*
X268870Y226703D01*
X268760Y226697D01*
X268649Y226695D01*
X268538Y226697D01*
X268428Y226703D01*
X268317Y226712D01*
X268207Y226726D01*
X268098Y226743D01*
X267989Y226764D01*
X267881Y226789D01*
X267774Y226818D01*
X267668Y226850D01*
X267563Y226886D01*
X267460Y226926D01*
X267358Y226969D01*
X267257Y227016D01*
X267158Y227067D01*
X267062Y227120D01*
X266967Y227177D01*
X266874Y227238D01*
X266783Y227301D01*
X266694Y227368D01*
X266608Y227438D01*
X266525Y227511D01*
X266443Y227586D01*
X266365Y227664D01*
X266290Y227746D01*
X266217Y227829D01*
X266147Y227915D01*
X266080Y228004D01*
X266017Y228095D01*
X265956Y228188D01*
X265899Y228283D01*
X265846Y228379D01*
X265795Y228478D01*
X265748Y228579D01*
X265705Y228681D01*
X265665Y228784D01*
X265629Y228889D01*
X265597Y228995D01*
X265568Y229102D01*
X265543Y229210D01*
X265522Y229319D01*
X265505Y229428D01*
X265491Y229538D01*
X265482Y229649D01*
X265476Y229759D01*
X265474Y229870D01*
X281730Y233045D02*
X283635Y233045D01*
X283635Y226695D01*
X279825Y226695D01*
X279725Y226697D01*
X279626Y226703D01*
X279526Y226713D01*
X279428Y226726D01*
X279329Y226744D01*
X279232Y226765D01*
X279136Y226790D01*
X279040Y226819D01*
X278946Y226852D01*
X278853Y226888D01*
X278762Y226928D01*
X278672Y226972D01*
X278584Y227019D01*
X278498Y227069D01*
X278414Y227123D01*
X278332Y227180D01*
X278253Y227240D01*
X278175Y227304D01*
X278101Y227370D01*
X278029Y227439D01*
X277960Y227511D01*
X277894Y227585D01*
X277830Y227663D01*
X277770Y227742D01*
X277713Y227824D01*
X277659Y227908D01*
X277609Y227994D01*
X277562Y228082D01*
X277518Y228172D01*
X277478Y228263D01*
X277442Y228356D01*
X277409Y228450D01*
X277380Y228546D01*
X277355Y228642D01*
X277334Y228739D01*
X277316Y228838D01*
X277303Y228936D01*
X277293Y229036D01*
X277287Y229135D01*
X277285Y229235D01*
X277285Y235585D01*
X277287Y235685D01*
X277293Y235784D01*
X277303Y235884D01*
X277316Y235982D01*
X277334Y236081D01*
X277355Y236178D01*
X277380Y236274D01*
X277409Y236370D01*
X277442Y236464D01*
X277478Y236557D01*
X277518Y236648D01*
X277562Y236738D01*
X277609Y236826D01*
X277659Y236912D01*
X277713Y236996D01*
X277770Y237078D01*
X277830Y237157D01*
X277894Y237235D01*
X277960Y237309D01*
X278029Y237381D01*
X278101Y237450D01*
X278175Y237516D01*
X278253Y237580D01*
X278332Y237640D01*
X278414Y237697D01*
X278498Y237751D01*
X278584Y237801D01*
X278672Y237848D01*
X278762Y237892D01*
X278853Y237932D01*
X278946Y237968D01*
X279040Y238001D01*
X279136Y238030D01*
X279232Y238055D01*
X279329Y238076D01*
X279428Y238094D01*
X279526Y238107D01*
X279626Y238117D01*
X279725Y238123D01*
X279825Y238125D01*
X283635Y238125D01*
D10*
X297180Y33020D02*
X299720Y33020D01*
X297180Y33020D02*
X297180Y30480D01*
X312420Y30480D02*
X312420Y33020D01*
X309880Y33020D01*
X312420Y20320D02*
X312420Y17780D01*
X309880Y17780D01*
X299720Y17780D02*
X297180Y17780D01*
X297180Y20320D01*
D11*
X297815Y36195D02*
X297815Y47625D01*
X300990Y47625D01*
X301101Y47623D01*
X301211Y47617D01*
X301322Y47608D01*
X301432Y47594D01*
X301541Y47577D01*
X301650Y47556D01*
X301758Y47531D01*
X301865Y47502D01*
X301971Y47470D01*
X302076Y47434D01*
X302179Y47394D01*
X302281Y47351D01*
X302382Y47304D01*
X302481Y47253D01*
X302578Y47200D01*
X302672Y47143D01*
X302765Y47082D01*
X302856Y47019D01*
X302945Y46952D01*
X303031Y46882D01*
X303114Y46809D01*
X303196Y46734D01*
X303274Y46656D01*
X303349Y46574D01*
X303422Y46491D01*
X303492Y46405D01*
X303559Y46316D01*
X303622Y46225D01*
X303683Y46132D01*
X303740Y46037D01*
X303793Y45941D01*
X303844Y45842D01*
X303891Y45741D01*
X303934Y45639D01*
X303974Y45536D01*
X304010Y45431D01*
X304042Y45325D01*
X304071Y45218D01*
X304096Y45110D01*
X304117Y45001D01*
X304134Y44892D01*
X304148Y44782D01*
X304157Y44671D01*
X304163Y44561D01*
X304165Y44450D01*
X304163Y44339D01*
X304157Y44229D01*
X304148Y44118D01*
X304134Y44008D01*
X304117Y43899D01*
X304096Y43790D01*
X304071Y43682D01*
X304042Y43575D01*
X304010Y43469D01*
X303974Y43364D01*
X303934Y43261D01*
X303891Y43159D01*
X303844Y43058D01*
X303793Y42959D01*
X303740Y42862D01*
X303683Y42768D01*
X303622Y42675D01*
X303559Y42584D01*
X303492Y42495D01*
X303422Y42409D01*
X303349Y42326D01*
X303274Y42244D01*
X303196Y42166D01*
X303114Y42091D01*
X303031Y42018D01*
X302945Y41948D01*
X302856Y41881D01*
X302765Y41818D01*
X302672Y41757D01*
X302578Y41700D01*
X302481Y41647D01*
X302382Y41596D01*
X302281Y41549D01*
X302179Y41506D01*
X302076Y41466D01*
X301971Y41430D01*
X301865Y41398D01*
X301758Y41369D01*
X301650Y41344D01*
X301541Y41323D01*
X301432Y41306D01*
X301322Y41292D01*
X301211Y41283D01*
X301101Y41277D01*
X300990Y41275D01*
X297815Y41275D01*
X301625Y41275D02*
X304165Y36195D01*
X310051Y36195D02*
X310051Y47625D01*
X308781Y36195D02*
X311321Y36195D01*
X311321Y47625D02*
X308781Y47625D01*
X320846Y42545D02*
X322751Y42545D01*
X322751Y36195D01*
X318941Y36195D01*
X318841Y36197D01*
X318742Y36203D01*
X318642Y36213D01*
X318544Y36226D01*
X318445Y36244D01*
X318348Y36265D01*
X318252Y36290D01*
X318156Y36319D01*
X318062Y36352D01*
X317969Y36388D01*
X317878Y36428D01*
X317788Y36472D01*
X317700Y36519D01*
X317614Y36569D01*
X317530Y36623D01*
X317448Y36680D01*
X317369Y36740D01*
X317291Y36804D01*
X317217Y36870D01*
X317145Y36939D01*
X317076Y37011D01*
X317010Y37085D01*
X316946Y37163D01*
X316886Y37242D01*
X316829Y37324D01*
X316775Y37408D01*
X316725Y37494D01*
X316678Y37582D01*
X316634Y37672D01*
X316594Y37763D01*
X316558Y37856D01*
X316525Y37950D01*
X316496Y38046D01*
X316471Y38142D01*
X316450Y38239D01*
X316432Y38338D01*
X316419Y38436D01*
X316409Y38536D01*
X316403Y38635D01*
X316401Y38735D01*
X316401Y45085D01*
X316403Y45185D01*
X316409Y45284D01*
X316419Y45384D01*
X316432Y45482D01*
X316450Y45581D01*
X316471Y45678D01*
X316496Y45774D01*
X316525Y45870D01*
X316558Y45964D01*
X316594Y46057D01*
X316634Y46148D01*
X316678Y46238D01*
X316725Y46326D01*
X316775Y46412D01*
X316829Y46496D01*
X316886Y46578D01*
X316946Y46657D01*
X317010Y46735D01*
X317076Y46809D01*
X317145Y46881D01*
X317217Y46950D01*
X317291Y47016D01*
X317369Y47080D01*
X317448Y47140D01*
X317530Y47197D01*
X317614Y47251D01*
X317700Y47301D01*
X317788Y47348D01*
X317878Y47392D01*
X317969Y47432D01*
X318062Y47468D01*
X318156Y47501D01*
X318252Y47530D01*
X318348Y47555D01*
X318445Y47576D01*
X318544Y47594D01*
X318642Y47607D01*
X318742Y47617D01*
X318841Y47623D01*
X318941Y47625D01*
X322751Y47625D01*
X328593Y47625D02*
X328593Y36195D01*
X328593Y42545D02*
X334943Y42545D01*
X334943Y47625D02*
X334943Y36195D01*
X342817Y36195D02*
X342817Y47625D01*
X339642Y47625D02*
X345992Y47625D01*
D10*
X198120Y261620D02*
X195580Y261620D01*
X195580Y259080D01*
X210820Y259080D02*
X210820Y261620D01*
X208280Y261620D01*
X210820Y248920D02*
X210820Y246380D01*
X208280Y246380D01*
X198120Y246380D02*
X195580Y246380D01*
X195580Y248920D01*
D11*
X200025Y264795D02*
X200125Y264797D01*
X200224Y264803D01*
X200324Y264813D01*
X200422Y264826D01*
X200521Y264844D01*
X200618Y264865D01*
X200714Y264890D01*
X200810Y264919D01*
X200904Y264952D01*
X200997Y264988D01*
X201088Y265028D01*
X201178Y265072D01*
X201266Y265119D01*
X201352Y265169D01*
X201436Y265223D01*
X201518Y265280D01*
X201597Y265340D01*
X201675Y265404D01*
X201749Y265470D01*
X201821Y265539D01*
X201890Y265611D01*
X201956Y265685D01*
X202020Y265763D01*
X202080Y265842D01*
X202137Y265924D01*
X202191Y266008D01*
X202241Y266094D01*
X202288Y266182D01*
X202332Y266272D01*
X202372Y266363D01*
X202408Y266456D01*
X202441Y266550D01*
X202470Y266646D01*
X202495Y266742D01*
X202516Y266839D01*
X202534Y266938D01*
X202547Y267036D01*
X202557Y267136D01*
X202563Y267235D01*
X202565Y267335D01*
X200025Y264795D02*
X199884Y264797D01*
X199743Y264802D01*
X199602Y264812D01*
X199461Y264825D01*
X199321Y264841D01*
X199181Y264862D01*
X199042Y264886D01*
X198903Y264914D01*
X198766Y264945D01*
X198629Y264980D01*
X198493Y265018D01*
X198358Y265060D01*
X198225Y265106D01*
X198092Y265155D01*
X197961Y265208D01*
X197832Y265264D01*
X197703Y265323D01*
X197577Y265386D01*
X197452Y265452D01*
X197329Y265521D01*
X197208Y265594D01*
X197089Y265670D01*
X196971Y265749D01*
X196856Y265830D01*
X196744Y265915D01*
X196633Y266003D01*
X196525Y266094D01*
X196419Y266187D01*
X196316Y266284D01*
X196215Y266383D01*
X196533Y273685D02*
X196535Y273785D01*
X196541Y273884D01*
X196551Y273984D01*
X196564Y274082D01*
X196582Y274181D01*
X196603Y274278D01*
X196628Y274374D01*
X196657Y274470D01*
X196690Y274564D01*
X196726Y274657D01*
X196766Y274748D01*
X196810Y274838D01*
X196857Y274926D01*
X196907Y275012D01*
X196961Y275096D01*
X197018Y275178D01*
X197078Y275257D01*
X197142Y275335D01*
X197208Y275409D01*
X197277Y275481D01*
X197349Y275550D01*
X197423Y275616D01*
X197501Y275680D01*
X197580Y275740D01*
X197662Y275797D01*
X197746Y275851D01*
X197832Y275901D01*
X197920Y275948D01*
X198010Y275992D01*
X198101Y276032D01*
X198194Y276068D01*
X198288Y276101D01*
X198384Y276130D01*
X198480Y276155D01*
X198577Y276176D01*
X198676Y276194D01*
X198774Y276207D01*
X198874Y276217D01*
X198973Y276223D01*
X199073Y276225D01*
X199073Y276226D02*
X199206Y276224D01*
X199339Y276219D01*
X199472Y276209D01*
X199605Y276196D01*
X199737Y276179D01*
X199869Y276159D01*
X200000Y276135D01*
X200130Y276107D01*
X200260Y276076D01*
X200388Y276041D01*
X200516Y276002D01*
X200642Y275960D01*
X200767Y275914D01*
X200891Y275865D01*
X201014Y275813D01*
X201135Y275757D01*
X201254Y275697D01*
X201372Y275635D01*
X201487Y275569D01*
X201601Y275500D01*
X201713Y275427D01*
X201823Y275352D01*
X201931Y275273D01*
X197802Y271462D02*
X197718Y271514D01*
X197635Y271569D01*
X197555Y271628D01*
X197477Y271689D01*
X197402Y271753D01*
X197329Y271821D01*
X197258Y271891D01*
X197191Y271963D01*
X197126Y272038D01*
X197064Y272116D01*
X197005Y272196D01*
X196949Y272278D01*
X196897Y272362D01*
X196848Y272448D01*
X196802Y272536D01*
X196759Y272626D01*
X196720Y272717D01*
X196685Y272810D01*
X196653Y272904D01*
X196625Y272999D01*
X196600Y273095D01*
X196580Y273192D01*
X196562Y273290D01*
X196549Y273388D01*
X196540Y273487D01*
X196534Y273586D01*
X196532Y273685D01*
X201295Y269558D02*
X201379Y269506D01*
X201462Y269451D01*
X201542Y269392D01*
X201620Y269331D01*
X201695Y269267D01*
X201768Y269199D01*
X201839Y269129D01*
X201906Y269057D01*
X201971Y268982D01*
X202033Y268904D01*
X202092Y268824D01*
X202148Y268742D01*
X202200Y268658D01*
X202249Y268572D01*
X202295Y268484D01*
X202338Y268394D01*
X202377Y268303D01*
X202412Y268210D01*
X202444Y268116D01*
X202472Y268021D01*
X202497Y267925D01*
X202517Y267828D01*
X202535Y267730D01*
X202548Y267632D01*
X202557Y267533D01*
X202563Y267434D01*
X202565Y267335D01*
X201295Y269558D02*
X197803Y271463D01*
X209677Y276225D02*
X209677Y264795D01*
X206502Y276225D02*
X212852Y276225D01*
X220345Y276225D02*
X216535Y264795D01*
X224155Y264795D02*
X220345Y276225D01*
X223203Y267653D02*
X217488Y267653D01*
X229064Y264795D02*
X229064Y276225D01*
X232239Y276225D01*
X232350Y276223D01*
X232460Y276217D01*
X232571Y276208D01*
X232681Y276194D01*
X232790Y276177D01*
X232899Y276156D01*
X233007Y276131D01*
X233114Y276102D01*
X233220Y276070D01*
X233325Y276034D01*
X233428Y275994D01*
X233530Y275951D01*
X233631Y275904D01*
X233730Y275853D01*
X233827Y275800D01*
X233921Y275743D01*
X234014Y275682D01*
X234105Y275619D01*
X234194Y275552D01*
X234280Y275482D01*
X234363Y275409D01*
X234445Y275334D01*
X234523Y275256D01*
X234598Y275174D01*
X234671Y275091D01*
X234741Y275005D01*
X234808Y274916D01*
X234871Y274825D01*
X234932Y274732D01*
X234989Y274637D01*
X235042Y274541D01*
X235093Y274442D01*
X235140Y274341D01*
X235183Y274239D01*
X235223Y274136D01*
X235259Y274031D01*
X235291Y273925D01*
X235320Y273818D01*
X235345Y273710D01*
X235366Y273601D01*
X235383Y273492D01*
X235397Y273382D01*
X235406Y273271D01*
X235412Y273161D01*
X235414Y273050D01*
X235412Y272939D01*
X235406Y272829D01*
X235397Y272718D01*
X235383Y272608D01*
X235366Y272499D01*
X235345Y272390D01*
X235320Y272282D01*
X235291Y272175D01*
X235259Y272069D01*
X235223Y271964D01*
X235183Y271861D01*
X235140Y271759D01*
X235093Y271658D01*
X235042Y271559D01*
X234989Y271462D01*
X234932Y271368D01*
X234871Y271275D01*
X234808Y271184D01*
X234741Y271095D01*
X234671Y271009D01*
X234598Y270926D01*
X234523Y270844D01*
X234445Y270766D01*
X234363Y270691D01*
X234280Y270618D01*
X234194Y270548D01*
X234105Y270481D01*
X234014Y270418D01*
X233921Y270357D01*
X233826Y270300D01*
X233730Y270247D01*
X233631Y270196D01*
X233530Y270149D01*
X233428Y270106D01*
X233325Y270066D01*
X233220Y270030D01*
X233114Y269998D01*
X233007Y269969D01*
X232899Y269944D01*
X232790Y269923D01*
X232681Y269906D01*
X232571Y269892D01*
X232460Y269883D01*
X232350Y269877D01*
X232239Y269875D01*
X229064Y269875D01*
X232874Y269875D02*
X235414Y264795D01*
X242824Y264795D02*
X242824Y276225D01*
X239649Y276225D02*
X245999Y276225D01*
D10*
X145542Y65786D02*
X145542Y55626D01*
X73660Y239268D02*
X73660Y249428D01*
X153924Y249428D02*
X153924Y239268D01*
X14986Y140462D02*
X4826Y140462D01*
X65532Y65532D02*
X65532Y55372D01*
X188468Y148336D02*
X198374Y148336D01*
X31496Y86614D02*
X31496Y82296D01*
X167386Y82296D02*
X171704Y82296D01*
X171704Y218186D02*
X171704Y222504D01*
X35814Y222504D02*
X31496Y222504D01*
X36068Y214122D02*
X39878Y217932D01*
X35814Y82296D02*
X31496Y82296D01*
X171704Y82296D02*
X171704Y86614D01*
X171704Y222504D02*
X167386Y222504D01*
X31496Y222504D02*
X31496Y218186D01*
D12*
X9871Y218892D02*
X9871Y222871D01*
X9871Y218892D02*
X12192Y215907D01*
X9871Y218892D02*
X7549Y215907D01*
X9871Y218892D02*
X13518Y220218D01*
X9871Y218892D02*
X6223Y220218D01*
X9871Y218892D02*
X9871Y222871D01*
X9871Y218892D02*
X12192Y215907D01*
X9871Y218892D02*
X7549Y215907D01*
X9871Y218892D02*
X13518Y220218D01*
X9871Y218892D02*
X6223Y220218D01*
D13*
X54356Y60198D02*
X54356Y41402D01*
X60621Y49756D02*
X54356Y60198D01*
X60621Y49756D02*
X66887Y60198D01*
X66887Y41402D01*
X76673Y41402D02*
X76673Y60198D01*
X74584Y41402D02*
X78761Y41402D01*
X78761Y60198D02*
X74584Y60198D01*
X89857Y41402D02*
X94034Y41402D01*
X89857Y41402D02*
X89731Y41404D01*
X89605Y41410D01*
X89479Y41419D01*
X89354Y41432D01*
X89229Y41450D01*
X89104Y41470D01*
X88980Y41495D01*
X88857Y41523D01*
X88735Y41555D01*
X88614Y41591D01*
X88494Y41630D01*
X88376Y41673D01*
X88259Y41720D01*
X88143Y41770D01*
X88028Y41824D01*
X87916Y41880D01*
X87805Y41941D01*
X87696Y42004D01*
X87589Y42071D01*
X87484Y42141D01*
X87381Y42215D01*
X87281Y42291D01*
X87183Y42370D01*
X87087Y42452D01*
X86994Y42538D01*
X86903Y42625D01*
X86816Y42716D01*
X86730Y42809D01*
X86648Y42905D01*
X86569Y43003D01*
X86493Y43103D01*
X86419Y43206D01*
X86349Y43311D01*
X86282Y43418D01*
X86219Y43527D01*
X86158Y43638D01*
X86102Y43750D01*
X86048Y43865D01*
X85998Y43981D01*
X85951Y44098D01*
X85908Y44216D01*
X85869Y44336D01*
X85833Y44457D01*
X85801Y44579D01*
X85773Y44702D01*
X85748Y44826D01*
X85728Y44951D01*
X85710Y45076D01*
X85697Y45201D01*
X85688Y45327D01*
X85682Y45453D01*
X85680Y45579D01*
X85680Y56021D01*
X85682Y56150D01*
X85688Y56278D01*
X85698Y56406D01*
X85712Y56534D01*
X85729Y56662D01*
X85751Y56789D01*
X85777Y56915D01*
X85806Y57040D01*
X85839Y57164D01*
X85877Y57287D01*
X85917Y57409D01*
X85962Y57530D01*
X86010Y57649D01*
X86062Y57767D01*
X86118Y57883D01*
X86177Y57997D01*
X86240Y58109D01*
X86306Y58220D01*
X86375Y58328D01*
X86448Y58434D01*
X86524Y58538D01*
X86603Y58640D01*
X86685Y58739D01*
X86770Y58835D01*
X86858Y58929D01*
X86949Y59020D01*
X87043Y59108D01*
X87139Y59193D01*
X87238Y59275D01*
X87340Y59354D01*
X87444Y59430D01*
X87550Y59503D01*
X87658Y59572D01*
X87768Y59638D01*
X87881Y59701D01*
X87995Y59760D01*
X88111Y59816D01*
X88229Y59868D01*
X88348Y59916D01*
X88469Y59961D01*
X88591Y60001D01*
X88714Y60039D01*
X88838Y60072D01*
X88963Y60101D01*
X89089Y60127D01*
X89216Y60149D01*
X89344Y60166D01*
X89472Y60180D01*
X89600Y60190D01*
X89728Y60196D01*
X89857Y60198D01*
X94034Y60198D01*
X101273Y60198D02*
X101273Y41402D01*
X101273Y60198D02*
X106494Y60198D01*
X106637Y60196D01*
X106779Y60190D01*
X106921Y60180D01*
X107063Y60167D01*
X107205Y60149D01*
X107346Y60128D01*
X107486Y60103D01*
X107626Y60074D01*
X107765Y60041D01*
X107903Y60004D01*
X108039Y59964D01*
X108175Y59920D01*
X108309Y59872D01*
X108442Y59821D01*
X108574Y59766D01*
X108704Y59707D01*
X108832Y59645D01*
X108959Y59579D01*
X109084Y59510D01*
X109207Y59438D01*
X109328Y59362D01*
X109446Y59283D01*
X109563Y59201D01*
X109677Y59115D01*
X109789Y59027D01*
X109898Y58935D01*
X110005Y58841D01*
X110109Y58744D01*
X110211Y58644D01*
X110310Y58541D01*
X110406Y58435D01*
X110499Y58327D01*
X110589Y58216D01*
X110676Y58103D01*
X110759Y57988D01*
X110840Y57870D01*
X110917Y57750D01*
X110992Y57629D01*
X111062Y57505D01*
X111130Y57379D01*
X111194Y57251D01*
X111254Y57122D01*
X111311Y56991D01*
X111364Y56859D01*
X111414Y56725D01*
X111459Y56590D01*
X111502Y56454D01*
X111540Y56317D01*
X111575Y56178D01*
X111606Y56039D01*
X111633Y55899D01*
X111656Y55759D01*
X111676Y55617D01*
X111691Y55475D01*
X111703Y55333D01*
X111711Y55191D01*
X111715Y55048D01*
X111715Y54906D01*
X111711Y54763D01*
X111703Y54621D01*
X111691Y54479D01*
X111676Y54337D01*
X111656Y54195D01*
X111633Y54055D01*
X111606Y53915D01*
X111575Y53776D01*
X111540Y53637D01*
X111502Y53500D01*
X111459Y53364D01*
X111414Y53229D01*
X111364Y53095D01*
X111311Y52963D01*
X111254Y52832D01*
X111194Y52703D01*
X111130Y52575D01*
X111062Y52449D01*
X110992Y52325D01*
X110917Y52204D01*
X110840Y52084D01*
X110759Y51966D01*
X110676Y51851D01*
X110589Y51738D01*
X110499Y51627D01*
X110406Y51519D01*
X110310Y51413D01*
X110211Y51310D01*
X110109Y51210D01*
X110005Y51113D01*
X109898Y51019D01*
X109789Y50927D01*
X109677Y50839D01*
X109563Y50753D01*
X109446Y50671D01*
X109328Y50592D01*
X109207Y50516D01*
X109084Y50444D01*
X108959Y50375D01*
X108832Y50309D01*
X108704Y50247D01*
X108574Y50188D01*
X108442Y50133D01*
X108309Y50082D01*
X108175Y50034D01*
X108039Y49990D01*
X107903Y49950D01*
X107765Y49913D01*
X107626Y49880D01*
X107486Y49851D01*
X107346Y49826D01*
X107205Y49805D01*
X107063Y49787D01*
X106921Y49774D01*
X106779Y49764D01*
X106637Y49758D01*
X106494Y49756D01*
X101273Y49756D01*
X107538Y49756D02*
X111715Y41402D01*
X119011Y46623D02*
X119011Y54977D01*
X119013Y55120D01*
X119019Y55262D01*
X119029Y55404D01*
X119042Y55546D01*
X119060Y55688D01*
X119081Y55829D01*
X119106Y55969D01*
X119135Y56109D01*
X119168Y56248D01*
X119205Y56386D01*
X119245Y56522D01*
X119289Y56658D01*
X119337Y56792D01*
X119388Y56925D01*
X119443Y57057D01*
X119502Y57187D01*
X119564Y57315D01*
X119630Y57442D01*
X119699Y57567D01*
X119771Y57690D01*
X119847Y57811D01*
X119926Y57929D01*
X120008Y58046D01*
X120094Y58160D01*
X120182Y58272D01*
X120274Y58381D01*
X120368Y58488D01*
X120465Y58592D01*
X120565Y58694D01*
X120668Y58793D01*
X120774Y58889D01*
X120882Y58982D01*
X120993Y59072D01*
X121106Y59159D01*
X121221Y59242D01*
X121339Y59323D01*
X121459Y59400D01*
X121580Y59475D01*
X121704Y59545D01*
X121830Y59613D01*
X121958Y59677D01*
X122087Y59737D01*
X122218Y59794D01*
X122350Y59847D01*
X122484Y59897D01*
X122619Y59942D01*
X122755Y59985D01*
X122892Y60023D01*
X123031Y60058D01*
X123170Y60089D01*
X123310Y60116D01*
X123450Y60139D01*
X123592Y60159D01*
X123734Y60174D01*
X123876Y60186D01*
X124018Y60194D01*
X124161Y60198D01*
X124303Y60198D01*
X124446Y60194D01*
X124588Y60186D01*
X124730Y60174D01*
X124872Y60159D01*
X125014Y60139D01*
X125154Y60116D01*
X125294Y60089D01*
X125433Y60058D01*
X125572Y60023D01*
X125709Y59985D01*
X125845Y59942D01*
X125980Y59897D01*
X126114Y59847D01*
X126246Y59794D01*
X126377Y59737D01*
X126506Y59677D01*
X126634Y59613D01*
X126760Y59545D01*
X126884Y59475D01*
X127005Y59400D01*
X127125Y59323D01*
X127243Y59242D01*
X127358Y59159D01*
X127471Y59072D01*
X127582Y58982D01*
X127690Y58889D01*
X127796Y58793D01*
X127899Y58694D01*
X127999Y58592D01*
X128096Y58488D01*
X128190Y58381D01*
X128282Y58272D01*
X128370Y58160D01*
X128456Y58046D01*
X128538Y57929D01*
X128617Y57811D01*
X128693Y57690D01*
X128765Y57567D01*
X128834Y57442D01*
X128900Y57315D01*
X128962Y57187D01*
X129021Y57057D01*
X129076Y56925D01*
X129127Y56792D01*
X129175Y56658D01*
X129219Y56522D01*
X129259Y56386D01*
X129296Y56248D01*
X129329Y56109D01*
X129358Y55969D01*
X129383Y55829D01*
X129404Y55688D01*
X129422Y55546D01*
X129435Y55404D01*
X129445Y55262D01*
X129451Y55120D01*
X129453Y54977D01*
X129453Y46623D01*
X129451Y46480D01*
X129445Y46338D01*
X129435Y46196D01*
X129422Y46054D01*
X129404Y45912D01*
X129383Y45771D01*
X129358Y45631D01*
X129329Y45491D01*
X129296Y45352D01*
X129259Y45214D01*
X129219Y45078D01*
X129175Y44942D01*
X129127Y44808D01*
X129076Y44675D01*
X129021Y44543D01*
X128962Y44413D01*
X128900Y44285D01*
X128834Y44158D01*
X128765Y44033D01*
X128693Y43910D01*
X128617Y43789D01*
X128538Y43671D01*
X128456Y43554D01*
X128370Y43440D01*
X128282Y43328D01*
X128190Y43219D01*
X128096Y43112D01*
X127999Y43008D01*
X127899Y42906D01*
X127796Y42807D01*
X127690Y42711D01*
X127582Y42618D01*
X127471Y42528D01*
X127358Y42441D01*
X127243Y42358D01*
X127125Y42277D01*
X127005Y42200D01*
X126884Y42125D01*
X126760Y42055D01*
X126634Y41987D01*
X126506Y41923D01*
X126377Y41863D01*
X126246Y41806D01*
X126114Y41753D01*
X125980Y41703D01*
X125845Y41658D01*
X125709Y41615D01*
X125572Y41577D01*
X125433Y41542D01*
X125294Y41511D01*
X125154Y41484D01*
X125014Y41461D01*
X124872Y41441D01*
X124730Y41426D01*
X124588Y41414D01*
X124446Y41406D01*
X124303Y41402D01*
X124161Y41402D01*
X124018Y41406D01*
X123876Y41414D01*
X123734Y41426D01*
X123592Y41441D01*
X123450Y41461D01*
X123310Y41484D01*
X123170Y41511D01*
X123031Y41542D01*
X122892Y41577D01*
X122755Y41615D01*
X122619Y41658D01*
X122484Y41703D01*
X122350Y41753D01*
X122218Y41806D01*
X122087Y41863D01*
X121958Y41923D01*
X121830Y41987D01*
X121704Y42055D01*
X121580Y42125D01*
X121459Y42200D01*
X121339Y42277D01*
X121221Y42358D01*
X121106Y42441D01*
X120993Y42528D01*
X120882Y42618D01*
X120774Y42711D01*
X120668Y42807D01*
X120565Y42906D01*
X120465Y43008D01*
X120368Y43112D01*
X120274Y43219D01*
X120182Y43328D01*
X120094Y43440D01*
X120008Y43554D01*
X119926Y43671D01*
X119847Y43789D01*
X119771Y43910D01*
X119699Y44033D01*
X119630Y44158D01*
X119564Y44285D01*
X119502Y44413D01*
X119443Y44543D01*
X119388Y44675D01*
X119337Y44808D01*
X119289Y44942D01*
X119245Y45078D01*
X119205Y45214D01*
X119168Y45352D01*
X119135Y45491D01*
X119106Y45631D01*
X119081Y45771D01*
X119060Y45912D01*
X119042Y46054D01*
X119029Y46196D01*
X119019Y46338D01*
X119013Y46480D01*
X119011Y46623D01*
D10*
X297180Y147320D02*
X299720Y147320D01*
X297180Y147320D02*
X297180Y144780D01*
X312420Y144780D02*
X312420Y147320D01*
X309880Y147320D01*
X312420Y134620D02*
X312420Y132080D01*
X309880Y132080D01*
X299720Y132080D02*
X297180Y132080D01*
X297180Y134620D01*
D11*
X297815Y153670D02*
X297815Y161925D01*
X297815Y153670D02*
X297817Y153559D01*
X297823Y153449D01*
X297832Y153338D01*
X297846Y153228D01*
X297863Y153119D01*
X297884Y153010D01*
X297909Y152902D01*
X297938Y152795D01*
X297970Y152689D01*
X298006Y152584D01*
X298046Y152481D01*
X298089Y152379D01*
X298136Y152278D01*
X298187Y152179D01*
X298240Y152083D01*
X298297Y151988D01*
X298358Y151895D01*
X298421Y151804D01*
X298488Y151715D01*
X298558Y151629D01*
X298631Y151546D01*
X298706Y151464D01*
X298784Y151386D01*
X298866Y151311D01*
X298949Y151238D01*
X299035Y151168D01*
X299124Y151101D01*
X299215Y151038D01*
X299308Y150977D01*
X299403Y150920D01*
X299499Y150867D01*
X299598Y150816D01*
X299699Y150769D01*
X299801Y150726D01*
X299904Y150686D01*
X300009Y150650D01*
X300115Y150618D01*
X300222Y150589D01*
X300330Y150564D01*
X300439Y150543D01*
X300548Y150526D01*
X300658Y150512D01*
X300769Y150503D01*
X300879Y150497D01*
X300990Y150495D01*
X301101Y150497D01*
X301211Y150503D01*
X301322Y150512D01*
X301432Y150526D01*
X301541Y150543D01*
X301650Y150564D01*
X301758Y150589D01*
X301865Y150618D01*
X301971Y150650D01*
X302076Y150686D01*
X302179Y150726D01*
X302281Y150769D01*
X302382Y150816D01*
X302481Y150867D01*
X302577Y150920D01*
X302672Y150977D01*
X302765Y151038D01*
X302856Y151101D01*
X302945Y151168D01*
X303031Y151238D01*
X303114Y151311D01*
X303196Y151386D01*
X303274Y151464D01*
X303349Y151546D01*
X303422Y151629D01*
X303492Y151715D01*
X303559Y151804D01*
X303622Y151895D01*
X303683Y151988D01*
X303740Y152082D01*
X303793Y152179D01*
X303844Y152278D01*
X303891Y152379D01*
X303934Y152481D01*
X303974Y152584D01*
X304010Y152689D01*
X304042Y152795D01*
X304071Y152902D01*
X304096Y153010D01*
X304117Y153119D01*
X304134Y153228D01*
X304148Y153338D01*
X304157Y153449D01*
X304163Y153559D01*
X304165Y153670D01*
X304165Y161925D01*
X310198Y161925D02*
X310198Y150495D01*
X310198Y161925D02*
X313373Y161925D01*
X313484Y161923D01*
X313594Y161917D01*
X313705Y161908D01*
X313815Y161894D01*
X313924Y161877D01*
X314033Y161856D01*
X314141Y161831D01*
X314248Y161802D01*
X314354Y161770D01*
X314459Y161734D01*
X314562Y161694D01*
X314664Y161651D01*
X314765Y161604D01*
X314864Y161553D01*
X314961Y161500D01*
X315055Y161443D01*
X315148Y161382D01*
X315239Y161319D01*
X315328Y161252D01*
X315414Y161182D01*
X315497Y161109D01*
X315579Y161034D01*
X315657Y160956D01*
X315732Y160874D01*
X315805Y160791D01*
X315875Y160705D01*
X315942Y160616D01*
X316005Y160525D01*
X316066Y160432D01*
X316123Y160337D01*
X316176Y160241D01*
X316227Y160142D01*
X316274Y160041D01*
X316317Y159939D01*
X316357Y159836D01*
X316393Y159731D01*
X316425Y159625D01*
X316454Y159518D01*
X316479Y159410D01*
X316500Y159301D01*
X316517Y159192D01*
X316531Y159082D01*
X316540Y158971D01*
X316546Y158861D01*
X316548Y158750D01*
X316546Y158639D01*
X316540Y158529D01*
X316531Y158418D01*
X316517Y158308D01*
X316500Y158199D01*
X316479Y158090D01*
X316454Y157982D01*
X316425Y157875D01*
X316393Y157769D01*
X316357Y157664D01*
X316317Y157561D01*
X316274Y157459D01*
X316227Y157358D01*
X316176Y157259D01*
X316123Y157162D01*
X316066Y157068D01*
X316005Y156975D01*
X315942Y156884D01*
X315875Y156795D01*
X315805Y156709D01*
X315732Y156626D01*
X315657Y156544D01*
X315579Y156466D01*
X315497Y156391D01*
X315414Y156318D01*
X315328Y156248D01*
X315239Y156181D01*
X315148Y156118D01*
X315055Y156057D01*
X314961Y156000D01*
X314864Y155947D01*
X314765Y155896D01*
X314664Y155849D01*
X314562Y155806D01*
X314459Y155766D01*
X314354Y155730D01*
X314248Y155698D01*
X314141Y155669D01*
X314033Y155644D01*
X313924Y155623D01*
X313815Y155606D01*
X313705Y155592D01*
X313594Y155583D01*
X313484Y155577D01*
X313373Y155575D01*
X310198Y155575D01*
D10*
X299720Y337820D02*
X297180Y337820D01*
X297180Y335280D01*
X312420Y335280D02*
X312420Y337820D01*
X309880Y337820D01*
X312420Y325120D02*
X312420Y322580D01*
X309880Y322580D01*
X299720Y322580D02*
X297180Y322580D01*
X297180Y325120D01*
D11*
X297815Y340995D02*
X305435Y352425D01*
X297815Y352425D02*
X305435Y340995D01*
D10*
X198120Y71120D02*
X195580Y71120D01*
X195580Y68580D01*
X210820Y68580D02*
X210820Y71120D01*
X208280Y71120D01*
X210820Y58420D02*
X210820Y55880D01*
X208280Y55880D01*
X198120Y55880D02*
X195580Y55880D01*
X195580Y58420D01*
D11*
X196215Y74295D02*
X203835Y85725D01*
X196215Y85725D02*
X203835Y74295D01*
X208407Y78740D02*
X216027Y78740D01*
X220599Y74295D02*
X224409Y85725D01*
X228219Y74295D01*
X227267Y77153D02*
X221552Y77153D01*
X232029Y74295D02*
X239649Y85725D01*
X232029Y85725D02*
X239649Y74295D01*
X244983Y74295D02*
X244983Y85725D01*
X243713Y74295D02*
X246253Y74295D01*
X246253Y85725D02*
X243713Y85725D01*
X254381Y74295D02*
X254481Y74297D01*
X254580Y74303D01*
X254680Y74313D01*
X254778Y74326D01*
X254877Y74344D01*
X254974Y74365D01*
X255070Y74390D01*
X255166Y74419D01*
X255260Y74452D01*
X255353Y74488D01*
X255444Y74528D01*
X255534Y74572D01*
X255622Y74619D01*
X255708Y74669D01*
X255792Y74723D01*
X255874Y74780D01*
X255953Y74840D01*
X256031Y74904D01*
X256105Y74970D01*
X256177Y75039D01*
X256246Y75111D01*
X256312Y75185D01*
X256376Y75263D01*
X256436Y75342D01*
X256493Y75424D01*
X256547Y75508D01*
X256597Y75594D01*
X256644Y75682D01*
X256688Y75772D01*
X256728Y75863D01*
X256764Y75956D01*
X256797Y76050D01*
X256826Y76146D01*
X256851Y76242D01*
X256872Y76339D01*
X256890Y76438D01*
X256903Y76536D01*
X256913Y76636D01*
X256919Y76735D01*
X256921Y76835D01*
X254381Y74295D02*
X254240Y74297D01*
X254099Y74302D01*
X253958Y74312D01*
X253817Y74325D01*
X253677Y74341D01*
X253537Y74362D01*
X253398Y74386D01*
X253259Y74414D01*
X253122Y74445D01*
X252985Y74480D01*
X252849Y74518D01*
X252714Y74560D01*
X252581Y74606D01*
X252448Y74655D01*
X252317Y74708D01*
X252188Y74764D01*
X252059Y74823D01*
X251933Y74886D01*
X251808Y74952D01*
X251685Y75021D01*
X251564Y75094D01*
X251445Y75170D01*
X251327Y75249D01*
X251212Y75330D01*
X251100Y75415D01*
X250989Y75503D01*
X250881Y75594D01*
X250775Y75687D01*
X250672Y75784D01*
X250571Y75883D01*
X250889Y83185D02*
X250891Y83285D01*
X250897Y83384D01*
X250907Y83484D01*
X250920Y83582D01*
X250938Y83681D01*
X250959Y83778D01*
X250984Y83874D01*
X251013Y83970D01*
X251046Y84064D01*
X251082Y84157D01*
X251122Y84248D01*
X251166Y84338D01*
X251213Y84426D01*
X251263Y84512D01*
X251317Y84596D01*
X251374Y84678D01*
X251434Y84757D01*
X251498Y84835D01*
X251564Y84909D01*
X251633Y84981D01*
X251705Y85050D01*
X251779Y85116D01*
X251857Y85180D01*
X251936Y85240D01*
X252018Y85297D01*
X252102Y85351D01*
X252188Y85401D01*
X252276Y85448D01*
X252366Y85492D01*
X252457Y85532D01*
X252550Y85568D01*
X252644Y85601D01*
X252740Y85630D01*
X252836Y85655D01*
X252933Y85676D01*
X253032Y85694D01*
X253130Y85707D01*
X253230Y85717D01*
X253329Y85723D01*
X253429Y85725D01*
X253429Y85726D02*
X253562Y85724D01*
X253695Y85719D01*
X253828Y85709D01*
X253961Y85696D01*
X254093Y85679D01*
X254225Y85659D01*
X254356Y85635D01*
X254486Y85607D01*
X254616Y85576D01*
X254744Y85541D01*
X254872Y85502D01*
X254998Y85460D01*
X255123Y85414D01*
X255247Y85365D01*
X255370Y85313D01*
X255491Y85257D01*
X255610Y85197D01*
X255728Y85135D01*
X255843Y85069D01*
X255957Y85000D01*
X256069Y84927D01*
X256179Y84852D01*
X256287Y84773D01*
X252158Y80962D02*
X252074Y81014D01*
X251991Y81069D01*
X251911Y81128D01*
X251833Y81189D01*
X251758Y81253D01*
X251685Y81321D01*
X251614Y81391D01*
X251547Y81463D01*
X251482Y81538D01*
X251420Y81616D01*
X251361Y81696D01*
X251305Y81778D01*
X251253Y81862D01*
X251204Y81948D01*
X251158Y82036D01*
X251115Y82126D01*
X251076Y82217D01*
X251041Y82310D01*
X251009Y82404D01*
X250981Y82499D01*
X250956Y82595D01*
X250936Y82692D01*
X250918Y82790D01*
X250905Y82888D01*
X250896Y82987D01*
X250890Y83086D01*
X250888Y83185D01*
X255651Y79058D02*
X255735Y79006D01*
X255818Y78951D01*
X255898Y78892D01*
X255976Y78831D01*
X256051Y78767D01*
X256124Y78699D01*
X256195Y78629D01*
X256262Y78557D01*
X256327Y78482D01*
X256389Y78404D01*
X256448Y78324D01*
X256504Y78242D01*
X256556Y78158D01*
X256605Y78072D01*
X256651Y77984D01*
X256694Y77894D01*
X256733Y77803D01*
X256768Y77710D01*
X256800Y77616D01*
X256828Y77521D01*
X256853Y77425D01*
X256873Y77328D01*
X256891Y77230D01*
X256904Y77132D01*
X256913Y77033D01*
X256919Y76934D01*
X256921Y76835D01*
X255651Y79058D02*
X252159Y80963D01*
X261620Y83185D02*
X264795Y85725D01*
X264795Y74295D01*
X261620Y74295D02*
X267970Y74295D01*
D10*
X198120Y33020D02*
X195580Y33020D01*
X195580Y30480D01*
X210820Y30480D02*
X210820Y33020D01*
X208280Y33020D01*
X210820Y20320D02*
X210820Y17780D01*
X208280Y17780D01*
X198120Y17780D02*
X195580Y17780D01*
X195580Y20320D01*
D11*
X196215Y36195D02*
X203835Y47625D01*
X196215Y47625D02*
X203835Y36195D01*
X208407Y40640D02*
X216027Y40640D01*
X220599Y36195D02*
X224409Y47625D01*
X228219Y36195D01*
X227267Y39053D02*
X221552Y39053D01*
X232029Y36195D02*
X239649Y47625D01*
X232029Y47625D02*
X239649Y36195D01*
X244983Y36195D02*
X244983Y47625D01*
X243713Y36195D02*
X246253Y36195D01*
X246253Y47625D02*
X243713Y47625D01*
X254381Y36195D02*
X254481Y36197D01*
X254580Y36203D01*
X254680Y36213D01*
X254778Y36226D01*
X254877Y36244D01*
X254974Y36265D01*
X255070Y36290D01*
X255166Y36319D01*
X255260Y36352D01*
X255353Y36388D01*
X255444Y36428D01*
X255534Y36472D01*
X255622Y36519D01*
X255708Y36569D01*
X255792Y36623D01*
X255874Y36680D01*
X255953Y36740D01*
X256031Y36804D01*
X256105Y36870D01*
X256177Y36939D01*
X256246Y37011D01*
X256312Y37085D01*
X256376Y37163D01*
X256436Y37242D01*
X256493Y37324D01*
X256547Y37408D01*
X256597Y37494D01*
X256644Y37582D01*
X256688Y37672D01*
X256728Y37763D01*
X256764Y37856D01*
X256797Y37950D01*
X256826Y38046D01*
X256851Y38142D01*
X256872Y38239D01*
X256890Y38338D01*
X256903Y38436D01*
X256913Y38536D01*
X256919Y38635D01*
X256921Y38735D01*
X254381Y36195D02*
X254240Y36197D01*
X254099Y36202D01*
X253958Y36212D01*
X253817Y36225D01*
X253677Y36241D01*
X253537Y36262D01*
X253398Y36286D01*
X253259Y36314D01*
X253122Y36345D01*
X252985Y36380D01*
X252849Y36418D01*
X252714Y36460D01*
X252581Y36506D01*
X252448Y36555D01*
X252317Y36608D01*
X252188Y36664D01*
X252059Y36723D01*
X251933Y36786D01*
X251808Y36852D01*
X251685Y36921D01*
X251564Y36994D01*
X251445Y37070D01*
X251327Y37149D01*
X251212Y37230D01*
X251100Y37315D01*
X250989Y37403D01*
X250881Y37494D01*
X250775Y37587D01*
X250672Y37684D01*
X250571Y37783D01*
X250889Y45085D02*
X250891Y45185D01*
X250897Y45284D01*
X250907Y45384D01*
X250920Y45482D01*
X250938Y45581D01*
X250959Y45678D01*
X250984Y45774D01*
X251013Y45870D01*
X251046Y45964D01*
X251082Y46057D01*
X251122Y46148D01*
X251166Y46238D01*
X251213Y46326D01*
X251263Y46412D01*
X251317Y46496D01*
X251374Y46578D01*
X251434Y46657D01*
X251498Y46735D01*
X251564Y46809D01*
X251633Y46881D01*
X251705Y46950D01*
X251779Y47016D01*
X251857Y47080D01*
X251936Y47140D01*
X252018Y47197D01*
X252102Y47251D01*
X252188Y47301D01*
X252276Y47348D01*
X252366Y47392D01*
X252457Y47432D01*
X252550Y47468D01*
X252644Y47501D01*
X252740Y47530D01*
X252836Y47555D01*
X252933Y47576D01*
X253032Y47594D01*
X253130Y47607D01*
X253230Y47617D01*
X253329Y47623D01*
X253429Y47625D01*
X253429Y47626D02*
X253562Y47624D01*
X253695Y47619D01*
X253828Y47609D01*
X253961Y47596D01*
X254093Y47579D01*
X254225Y47559D01*
X254356Y47535D01*
X254486Y47507D01*
X254616Y47476D01*
X254744Y47441D01*
X254872Y47402D01*
X254998Y47360D01*
X255123Y47314D01*
X255247Y47265D01*
X255370Y47213D01*
X255491Y47157D01*
X255610Y47097D01*
X255728Y47035D01*
X255843Y46969D01*
X255957Y46900D01*
X256069Y46827D01*
X256179Y46752D01*
X256287Y46673D01*
X252158Y42862D02*
X252074Y42914D01*
X251991Y42969D01*
X251911Y43028D01*
X251833Y43089D01*
X251758Y43153D01*
X251685Y43221D01*
X251614Y43291D01*
X251547Y43363D01*
X251482Y43438D01*
X251420Y43516D01*
X251361Y43596D01*
X251305Y43678D01*
X251253Y43762D01*
X251204Y43848D01*
X251158Y43936D01*
X251115Y44026D01*
X251076Y44117D01*
X251041Y44210D01*
X251009Y44304D01*
X250981Y44399D01*
X250956Y44495D01*
X250936Y44592D01*
X250918Y44690D01*
X250905Y44788D01*
X250896Y44887D01*
X250890Y44986D01*
X250888Y45085D01*
X255651Y40958D02*
X255735Y40906D01*
X255818Y40851D01*
X255898Y40792D01*
X255976Y40731D01*
X256051Y40667D01*
X256124Y40599D01*
X256195Y40529D01*
X256262Y40457D01*
X256327Y40382D01*
X256389Y40304D01*
X256448Y40224D01*
X256504Y40142D01*
X256556Y40058D01*
X256605Y39972D01*
X256651Y39884D01*
X256694Y39794D01*
X256733Y39703D01*
X256768Y39610D01*
X256800Y39516D01*
X256828Y39421D01*
X256853Y39325D01*
X256873Y39228D01*
X256891Y39130D01*
X256904Y39032D01*
X256913Y38933D01*
X256919Y38834D01*
X256921Y38735D01*
X255651Y40958D02*
X252159Y42863D01*
X265113Y47626D02*
X265217Y47624D01*
X265322Y47618D01*
X265426Y47609D01*
X265529Y47596D01*
X265632Y47578D01*
X265734Y47558D01*
X265836Y47533D01*
X265936Y47505D01*
X266036Y47473D01*
X266134Y47437D01*
X266231Y47398D01*
X266326Y47356D01*
X266420Y47310D01*
X266512Y47260D01*
X266602Y47208D01*
X266690Y47152D01*
X266776Y47092D01*
X266860Y47030D01*
X266941Y46965D01*
X267020Y46897D01*
X267097Y46825D01*
X267170Y46752D01*
X267242Y46675D01*
X267310Y46596D01*
X267375Y46515D01*
X267437Y46431D01*
X267497Y46345D01*
X267553Y46257D01*
X267605Y46167D01*
X267655Y46075D01*
X267701Y45981D01*
X267743Y45886D01*
X267782Y45789D01*
X267818Y45691D01*
X267850Y45591D01*
X267878Y45491D01*
X267903Y45389D01*
X267923Y45287D01*
X267941Y45184D01*
X267954Y45081D01*
X267963Y44977D01*
X267969Y44872D01*
X267971Y44768D01*
X265113Y47625D02*
X264995Y47623D01*
X264876Y47617D01*
X264758Y47608D01*
X264641Y47595D01*
X264524Y47577D01*
X264407Y47557D01*
X264291Y47532D01*
X264176Y47504D01*
X264063Y47471D01*
X263950Y47436D01*
X263838Y47396D01*
X263728Y47354D01*
X263619Y47307D01*
X263511Y47257D01*
X263406Y47204D01*
X263302Y47147D01*
X263200Y47087D01*
X263100Y47024D01*
X263002Y46957D01*
X262906Y46888D01*
X262813Y46815D01*
X262722Y46739D01*
X262633Y46661D01*
X262547Y46579D01*
X262464Y46495D01*
X262383Y46409D01*
X262306Y46319D01*
X262231Y46228D01*
X262159Y46134D01*
X262090Y46037D01*
X262025Y45939D01*
X261962Y45838D01*
X261903Y45735D01*
X261847Y45631D01*
X261795Y45525D01*
X261746Y45417D01*
X261701Y45308D01*
X261659Y45197D01*
X261621Y45085D01*
X267018Y42546D02*
X267094Y42621D01*
X267169Y42700D01*
X267240Y42781D01*
X267309Y42865D01*
X267374Y42951D01*
X267436Y43039D01*
X267496Y43129D01*
X267552Y43221D01*
X267605Y43316D01*
X267654Y43412D01*
X267700Y43510D01*
X267743Y43609D01*
X267782Y43710D01*
X267817Y43812D01*
X267849Y43915D01*
X267877Y44019D01*
X267902Y44124D01*
X267923Y44231D01*
X267940Y44337D01*
X267953Y44444D01*
X267962Y44552D01*
X267968Y44660D01*
X267970Y44768D01*
X267018Y42545D02*
X261620Y36195D01*
X267970Y36195D01*
D10*
X297180Y299720D02*
X299720Y299720D01*
X297180Y299720D02*
X297180Y297180D01*
X312420Y297180D02*
X312420Y299720D01*
X309880Y299720D01*
X312420Y287020D02*
X312420Y284480D01*
X309880Y284480D01*
X299720Y284480D02*
X297180Y284480D01*
X297180Y287020D01*
D11*
X301625Y308928D02*
X297815Y314325D01*
X301625Y308928D02*
X305435Y314325D01*
X301625Y308928D02*
X301625Y302895D01*
D10*
X198120Y147320D02*
X195580Y147320D01*
X195580Y144780D01*
X210820Y144780D02*
X210820Y147320D01*
X208280Y147320D01*
X210820Y134620D02*
X210820Y132080D01*
X208280Y132080D01*
X198120Y132080D02*
X195580Y132080D01*
X195580Y134620D01*
D11*
X200025Y156528D02*
X196215Y161925D01*
X200025Y156528D02*
X203835Y161925D01*
X200025Y156528D02*
X200025Y150495D01*
X208407Y154940D02*
X216027Y154940D01*
X220599Y150495D02*
X224409Y161925D01*
X228219Y150495D01*
X227267Y153353D02*
X221552Y153353D01*
X232029Y150495D02*
X239649Y161925D01*
X232029Y161925D02*
X239649Y150495D01*
X244983Y150495D02*
X244983Y161925D01*
X243713Y150495D02*
X246253Y150495D01*
X246253Y161925D02*
X243713Y161925D01*
X254381Y150495D02*
X254481Y150497D01*
X254580Y150503D01*
X254680Y150513D01*
X254778Y150526D01*
X254877Y150544D01*
X254974Y150565D01*
X255070Y150590D01*
X255166Y150619D01*
X255260Y150652D01*
X255353Y150688D01*
X255444Y150728D01*
X255534Y150772D01*
X255622Y150819D01*
X255708Y150869D01*
X255792Y150923D01*
X255874Y150980D01*
X255953Y151040D01*
X256031Y151104D01*
X256105Y151170D01*
X256177Y151239D01*
X256246Y151311D01*
X256312Y151385D01*
X256376Y151463D01*
X256436Y151542D01*
X256493Y151624D01*
X256547Y151708D01*
X256597Y151794D01*
X256644Y151882D01*
X256688Y151972D01*
X256728Y152063D01*
X256764Y152156D01*
X256797Y152250D01*
X256826Y152346D01*
X256851Y152442D01*
X256872Y152539D01*
X256890Y152638D01*
X256903Y152736D01*
X256913Y152836D01*
X256919Y152935D01*
X256921Y153035D01*
X254381Y150495D02*
X254240Y150497D01*
X254099Y150502D01*
X253958Y150512D01*
X253817Y150525D01*
X253677Y150541D01*
X253537Y150562D01*
X253398Y150586D01*
X253259Y150614D01*
X253122Y150645D01*
X252985Y150680D01*
X252849Y150718D01*
X252714Y150760D01*
X252581Y150806D01*
X252448Y150855D01*
X252317Y150908D01*
X252188Y150964D01*
X252059Y151023D01*
X251933Y151086D01*
X251808Y151152D01*
X251685Y151221D01*
X251564Y151294D01*
X251445Y151370D01*
X251327Y151449D01*
X251212Y151530D01*
X251100Y151615D01*
X250989Y151703D01*
X250881Y151794D01*
X250775Y151887D01*
X250672Y151984D01*
X250571Y152083D01*
X250889Y159385D02*
X250891Y159485D01*
X250897Y159584D01*
X250907Y159684D01*
X250920Y159782D01*
X250938Y159881D01*
X250959Y159978D01*
X250984Y160074D01*
X251013Y160170D01*
X251046Y160264D01*
X251082Y160357D01*
X251122Y160448D01*
X251166Y160538D01*
X251213Y160626D01*
X251263Y160712D01*
X251317Y160796D01*
X251374Y160878D01*
X251434Y160957D01*
X251498Y161035D01*
X251564Y161109D01*
X251633Y161181D01*
X251705Y161250D01*
X251779Y161316D01*
X251857Y161380D01*
X251936Y161440D01*
X252018Y161497D01*
X252102Y161551D01*
X252188Y161601D01*
X252276Y161648D01*
X252366Y161692D01*
X252457Y161732D01*
X252550Y161768D01*
X252644Y161801D01*
X252740Y161830D01*
X252836Y161855D01*
X252933Y161876D01*
X253032Y161894D01*
X253130Y161907D01*
X253230Y161917D01*
X253329Y161923D01*
X253429Y161925D01*
X253429Y161926D02*
X253562Y161924D01*
X253695Y161919D01*
X253828Y161909D01*
X253961Y161896D01*
X254093Y161879D01*
X254225Y161859D01*
X254356Y161835D01*
X254486Y161807D01*
X254616Y161776D01*
X254744Y161741D01*
X254872Y161702D01*
X254998Y161660D01*
X255123Y161614D01*
X255247Y161565D01*
X255370Y161513D01*
X255491Y161457D01*
X255610Y161397D01*
X255728Y161335D01*
X255843Y161269D01*
X255957Y161200D01*
X256069Y161127D01*
X256179Y161052D01*
X256287Y160973D01*
X252158Y157162D02*
X252074Y157214D01*
X251991Y157269D01*
X251911Y157328D01*
X251833Y157389D01*
X251758Y157453D01*
X251685Y157521D01*
X251614Y157591D01*
X251547Y157663D01*
X251482Y157738D01*
X251420Y157816D01*
X251361Y157896D01*
X251305Y157978D01*
X251253Y158062D01*
X251204Y158148D01*
X251158Y158236D01*
X251115Y158326D01*
X251076Y158417D01*
X251041Y158510D01*
X251009Y158604D01*
X250981Y158699D01*
X250956Y158795D01*
X250936Y158892D01*
X250918Y158990D01*
X250905Y159088D01*
X250896Y159187D01*
X250890Y159286D01*
X250888Y159385D01*
X255651Y155258D02*
X255735Y155206D01*
X255818Y155151D01*
X255898Y155092D01*
X255976Y155031D01*
X256051Y154967D01*
X256124Y154899D01*
X256195Y154829D01*
X256262Y154757D01*
X256327Y154682D01*
X256389Y154604D01*
X256448Y154524D01*
X256504Y154442D01*
X256556Y154358D01*
X256605Y154272D01*
X256651Y154184D01*
X256694Y154094D01*
X256733Y154003D01*
X256768Y153910D01*
X256800Y153816D01*
X256828Y153721D01*
X256853Y153625D01*
X256873Y153528D01*
X256891Y153430D01*
X256904Y153332D01*
X256913Y153233D01*
X256919Y153134D01*
X256921Y153035D01*
X255651Y155258D02*
X252159Y157163D01*
X261620Y159385D02*
X264795Y161925D01*
X264795Y150495D01*
X261620Y150495D02*
X267970Y150495D01*
D10*
X198120Y109220D02*
X195580Y109220D01*
X195580Y106680D01*
X210820Y106680D02*
X210820Y109220D01*
X208280Y109220D01*
X210820Y96520D02*
X210820Y93980D01*
X208280Y93980D01*
X198120Y93980D02*
X195580Y93980D01*
X195580Y96520D01*
D11*
X200025Y118428D02*
X196215Y123825D01*
X200025Y118428D02*
X203835Y123825D01*
X200025Y118428D02*
X200025Y112395D01*
X208407Y116840D02*
X216027Y116840D01*
X220599Y112395D02*
X224409Y123825D01*
X228219Y112395D01*
X227267Y115253D02*
X221552Y115253D01*
X232029Y112395D02*
X239649Y123825D01*
X232029Y123825D02*
X239649Y112395D01*
X244983Y112395D02*
X244983Y123825D01*
X243713Y112395D02*
X246253Y112395D01*
X246253Y123825D02*
X243713Y123825D01*
X254381Y112395D02*
X254481Y112397D01*
X254580Y112403D01*
X254680Y112413D01*
X254778Y112426D01*
X254877Y112444D01*
X254974Y112465D01*
X255070Y112490D01*
X255166Y112519D01*
X255260Y112552D01*
X255353Y112588D01*
X255444Y112628D01*
X255534Y112672D01*
X255622Y112719D01*
X255708Y112769D01*
X255792Y112823D01*
X255874Y112880D01*
X255953Y112940D01*
X256031Y113004D01*
X256105Y113070D01*
X256177Y113139D01*
X256246Y113211D01*
X256312Y113285D01*
X256376Y113363D01*
X256436Y113442D01*
X256493Y113524D01*
X256547Y113608D01*
X256597Y113694D01*
X256644Y113782D01*
X256688Y113872D01*
X256728Y113963D01*
X256764Y114056D01*
X256797Y114150D01*
X256826Y114246D01*
X256851Y114342D01*
X256872Y114439D01*
X256890Y114538D01*
X256903Y114636D01*
X256913Y114736D01*
X256919Y114835D01*
X256921Y114935D01*
X254381Y112395D02*
X254240Y112397D01*
X254099Y112402D01*
X253958Y112412D01*
X253817Y112425D01*
X253677Y112441D01*
X253537Y112462D01*
X253398Y112486D01*
X253259Y112514D01*
X253122Y112545D01*
X252985Y112580D01*
X252849Y112618D01*
X252714Y112660D01*
X252581Y112706D01*
X252448Y112755D01*
X252317Y112808D01*
X252188Y112864D01*
X252059Y112923D01*
X251933Y112986D01*
X251808Y113052D01*
X251685Y113121D01*
X251564Y113194D01*
X251445Y113270D01*
X251327Y113349D01*
X251212Y113430D01*
X251100Y113515D01*
X250989Y113603D01*
X250881Y113694D01*
X250775Y113787D01*
X250672Y113884D01*
X250571Y113983D01*
X250889Y121285D02*
X250891Y121385D01*
X250897Y121484D01*
X250907Y121584D01*
X250920Y121682D01*
X250938Y121781D01*
X250959Y121878D01*
X250984Y121974D01*
X251013Y122070D01*
X251046Y122164D01*
X251082Y122257D01*
X251122Y122348D01*
X251166Y122438D01*
X251213Y122526D01*
X251263Y122612D01*
X251317Y122696D01*
X251374Y122778D01*
X251434Y122857D01*
X251498Y122935D01*
X251564Y123009D01*
X251633Y123081D01*
X251705Y123150D01*
X251779Y123216D01*
X251857Y123280D01*
X251936Y123340D01*
X252018Y123397D01*
X252102Y123451D01*
X252188Y123501D01*
X252276Y123548D01*
X252366Y123592D01*
X252457Y123632D01*
X252550Y123668D01*
X252644Y123701D01*
X252740Y123730D01*
X252836Y123755D01*
X252933Y123776D01*
X253032Y123794D01*
X253130Y123807D01*
X253230Y123817D01*
X253329Y123823D01*
X253429Y123825D01*
X253429Y123826D02*
X253562Y123824D01*
X253695Y123819D01*
X253828Y123809D01*
X253961Y123796D01*
X254093Y123779D01*
X254225Y123759D01*
X254356Y123735D01*
X254486Y123707D01*
X254616Y123676D01*
X254744Y123641D01*
X254872Y123602D01*
X254998Y123560D01*
X255123Y123514D01*
X255247Y123465D01*
X255370Y123413D01*
X255491Y123357D01*
X255610Y123297D01*
X255728Y123235D01*
X255843Y123169D01*
X255957Y123100D01*
X256069Y123027D01*
X256179Y122952D01*
X256287Y122873D01*
X252158Y119062D02*
X252074Y119114D01*
X251991Y119169D01*
X251911Y119228D01*
X251833Y119289D01*
X251758Y119353D01*
X251685Y119421D01*
X251614Y119491D01*
X251547Y119563D01*
X251482Y119638D01*
X251420Y119716D01*
X251361Y119796D01*
X251305Y119878D01*
X251253Y119962D01*
X251204Y120048D01*
X251158Y120136D01*
X251115Y120226D01*
X251076Y120317D01*
X251041Y120410D01*
X251009Y120504D01*
X250981Y120599D01*
X250956Y120695D01*
X250936Y120792D01*
X250918Y120890D01*
X250905Y120988D01*
X250896Y121087D01*
X250890Y121186D01*
X250888Y121285D01*
X255651Y117158D02*
X255735Y117106D01*
X255818Y117051D01*
X255898Y116992D01*
X255976Y116931D01*
X256051Y116867D01*
X256124Y116799D01*
X256195Y116729D01*
X256262Y116657D01*
X256327Y116582D01*
X256389Y116504D01*
X256448Y116424D01*
X256504Y116342D01*
X256556Y116258D01*
X256605Y116172D01*
X256651Y116084D01*
X256694Y115994D01*
X256733Y115903D01*
X256768Y115810D01*
X256800Y115716D01*
X256828Y115621D01*
X256853Y115525D01*
X256873Y115428D01*
X256891Y115330D01*
X256904Y115232D01*
X256913Y115133D01*
X256919Y115034D01*
X256921Y114935D01*
X255651Y117158D02*
X252159Y119063D01*
X265113Y123826D02*
X265217Y123824D01*
X265322Y123818D01*
X265426Y123809D01*
X265529Y123796D01*
X265632Y123778D01*
X265734Y123758D01*
X265836Y123733D01*
X265936Y123705D01*
X266036Y123673D01*
X266134Y123637D01*
X266231Y123598D01*
X266326Y123556D01*
X266420Y123510D01*
X266512Y123460D01*
X266602Y123408D01*
X266690Y123352D01*
X266776Y123292D01*
X266860Y123230D01*
X266941Y123165D01*
X267020Y123097D01*
X267097Y123025D01*
X267170Y122952D01*
X267242Y122875D01*
X267310Y122796D01*
X267375Y122715D01*
X267437Y122631D01*
X267497Y122545D01*
X267553Y122457D01*
X267605Y122367D01*
X267655Y122275D01*
X267701Y122181D01*
X267743Y122086D01*
X267782Y121989D01*
X267818Y121891D01*
X267850Y121791D01*
X267878Y121691D01*
X267903Y121589D01*
X267923Y121487D01*
X267941Y121384D01*
X267954Y121281D01*
X267963Y121177D01*
X267969Y121072D01*
X267971Y120968D01*
X265113Y123825D02*
X264995Y123823D01*
X264876Y123817D01*
X264758Y123808D01*
X264641Y123795D01*
X264524Y123777D01*
X264407Y123757D01*
X264291Y123732D01*
X264176Y123704D01*
X264063Y123671D01*
X263950Y123636D01*
X263838Y123596D01*
X263728Y123554D01*
X263619Y123507D01*
X263511Y123457D01*
X263406Y123404D01*
X263302Y123347D01*
X263200Y123287D01*
X263100Y123224D01*
X263002Y123157D01*
X262906Y123088D01*
X262813Y123015D01*
X262722Y122939D01*
X262633Y122861D01*
X262547Y122779D01*
X262464Y122695D01*
X262383Y122609D01*
X262306Y122519D01*
X262231Y122428D01*
X262159Y122334D01*
X262090Y122237D01*
X262025Y122139D01*
X261962Y122038D01*
X261903Y121935D01*
X261847Y121831D01*
X261795Y121725D01*
X261746Y121617D01*
X261701Y121508D01*
X261659Y121397D01*
X261621Y121285D01*
X267018Y118746D02*
X267094Y118821D01*
X267169Y118900D01*
X267240Y118981D01*
X267309Y119065D01*
X267374Y119151D01*
X267436Y119239D01*
X267496Y119329D01*
X267552Y119421D01*
X267605Y119516D01*
X267654Y119612D01*
X267700Y119710D01*
X267743Y119809D01*
X267782Y119910D01*
X267817Y120012D01*
X267849Y120115D01*
X267877Y120219D01*
X267902Y120324D01*
X267923Y120431D01*
X267940Y120537D01*
X267953Y120644D01*
X267962Y120752D01*
X267968Y120860D01*
X267970Y120968D01*
X267018Y118745D02*
X261620Y112395D01*
X267970Y112395D01*
D10*
X297180Y261620D02*
X299720Y261620D01*
X297180Y261620D02*
X297180Y259080D01*
X312420Y259080D02*
X312420Y261620D01*
X309880Y261620D01*
X312420Y248920D02*
X312420Y246380D01*
X309880Y246380D01*
X299720Y246380D02*
X297180Y246380D01*
X297180Y248920D01*
D11*
X297815Y276225D02*
X304165Y276225D01*
X297815Y264795D01*
X304165Y264795D01*
D10*
X167386Y403860D02*
X162814Y403860D01*
X162814Y434340D02*
X167386Y434340D01*
D12*
X149571Y437840D02*
X149571Y441819D01*
X149571Y437840D02*
X151892Y434855D01*
X149571Y437840D02*
X147249Y434855D01*
X149571Y437840D02*
X153218Y439166D01*
X149571Y437840D02*
X145923Y439166D01*
D10*
X72390Y354330D02*
X72290Y354328D01*
X72191Y354322D01*
X72091Y354312D01*
X71993Y354299D01*
X71894Y354281D01*
X71797Y354260D01*
X71701Y354235D01*
X71605Y354206D01*
X71511Y354173D01*
X71418Y354137D01*
X71327Y354097D01*
X71237Y354053D01*
X71149Y354006D01*
X71063Y353956D01*
X70979Y353902D01*
X70897Y353845D01*
X70818Y353785D01*
X70740Y353721D01*
X70666Y353655D01*
X70594Y353586D01*
X70525Y353514D01*
X70459Y353440D01*
X70395Y353362D01*
X70335Y353283D01*
X70278Y353201D01*
X70224Y353117D01*
X70174Y353031D01*
X70127Y352943D01*
X70083Y352853D01*
X70043Y352762D01*
X70007Y352669D01*
X69974Y352575D01*
X69945Y352479D01*
X69920Y352383D01*
X69899Y352286D01*
X69881Y352187D01*
X69868Y352089D01*
X69858Y351989D01*
X69852Y351890D01*
X69850Y351790D01*
X69850Y334010D02*
X69852Y333910D01*
X69858Y333811D01*
X69868Y333711D01*
X69881Y333613D01*
X69899Y333514D01*
X69920Y333417D01*
X69945Y333321D01*
X69974Y333225D01*
X70007Y333131D01*
X70043Y333038D01*
X70083Y332947D01*
X70127Y332857D01*
X70174Y332769D01*
X70224Y332683D01*
X70278Y332599D01*
X70335Y332517D01*
X70395Y332438D01*
X70459Y332360D01*
X70525Y332286D01*
X70594Y332214D01*
X70666Y332145D01*
X70740Y332079D01*
X70818Y332015D01*
X70897Y331955D01*
X70979Y331898D01*
X71063Y331844D01*
X71149Y331794D01*
X71237Y331747D01*
X71327Y331703D01*
X71418Y331663D01*
X71511Y331627D01*
X71605Y331594D01*
X71701Y331565D01*
X71797Y331540D01*
X71894Y331519D01*
X71993Y331501D01*
X72091Y331488D01*
X72191Y331478D01*
X72290Y331472D01*
X72390Y331470D01*
X130810Y331470D02*
X130910Y331472D01*
X131009Y331478D01*
X131109Y331488D01*
X131207Y331501D01*
X131306Y331519D01*
X131403Y331540D01*
X131499Y331565D01*
X131595Y331594D01*
X131689Y331627D01*
X131782Y331663D01*
X131873Y331703D01*
X131963Y331747D01*
X132051Y331794D01*
X132137Y331844D01*
X132221Y331898D01*
X132303Y331955D01*
X132382Y332015D01*
X132460Y332079D01*
X132534Y332145D01*
X132606Y332214D01*
X132675Y332286D01*
X132741Y332360D01*
X132805Y332438D01*
X132865Y332517D01*
X132922Y332599D01*
X132976Y332683D01*
X133026Y332769D01*
X133073Y332857D01*
X133117Y332947D01*
X133157Y333038D01*
X133193Y333131D01*
X133226Y333225D01*
X133255Y333321D01*
X133280Y333417D01*
X133301Y333514D01*
X133319Y333613D01*
X133332Y333711D01*
X133342Y333811D01*
X133348Y333910D01*
X133350Y334010D01*
X133350Y351790D02*
X133348Y351890D01*
X133342Y351989D01*
X133332Y352089D01*
X133319Y352187D01*
X133301Y352286D01*
X133280Y352383D01*
X133255Y352479D01*
X133226Y352575D01*
X133193Y352669D01*
X133157Y352762D01*
X133117Y352853D01*
X133073Y352943D01*
X133026Y353031D01*
X132976Y353117D01*
X132922Y353201D01*
X132865Y353283D01*
X132805Y353362D01*
X132741Y353440D01*
X132675Y353514D01*
X132606Y353586D01*
X132534Y353655D01*
X132460Y353721D01*
X132382Y353785D01*
X132303Y353845D01*
X132221Y353902D01*
X132137Y353956D01*
X132051Y354006D01*
X131963Y354053D01*
X131873Y354097D01*
X131782Y354137D01*
X131689Y354173D01*
X131595Y354206D01*
X131499Y354235D01*
X131403Y354260D01*
X131306Y354281D01*
X131207Y354299D01*
X131109Y354312D01*
X131009Y354322D01*
X130910Y354328D01*
X130810Y354330D01*
X69850Y351790D02*
X69850Y334010D01*
X72390Y354330D02*
X76200Y354330D01*
X77470Y353060D01*
X76200Y331470D02*
X72390Y331470D01*
X76200Y331470D02*
X77470Y332740D01*
X125730Y353060D02*
X127000Y354330D01*
X125730Y353060D02*
X77470Y353060D01*
X125730Y332740D02*
X127000Y331470D01*
X125730Y332740D02*
X77470Y332740D01*
X127000Y354330D02*
X130810Y354330D01*
X130810Y331470D02*
X127000Y331470D01*
X133350Y334010D02*
X133350Y351790D01*
D14*
X142240Y342900D02*
X146050Y342900D01*
X60960Y342900D02*
X57150Y342900D01*
D11*
X70485Y357505D02*
X70485Y368935D01*
X73660Y368935D01*
X73771Y368933D01*
X73881Y368927D01*
X73992Y368918D01*
X74102Y368904D01*
X74211Y368887D01*
X74320Y368866D01*
X74428Y368841D01*
X74535Y368812D01*
X74641Y368780D01*
X74746Y368744D01*
X74849Y368704D01*
X74951Y368661D01*
X75052Y368614D01*
X75151Y368563D01*
X75248Y368510D01*
X75342Y368453D01*
X75435Y368392D01*
X75526Y368329D01*
X75615Y368262D01*
X75701Y368192D01*
X75784Y368119D01*
X75866Y368044D01*
X75944Y367966D01*
X76019Y367884D01*
X76092Y367801D01*
X76162Y367715D01*
X76229Y367626D01*
X76292Y367535D01*
X76353Y367442D01*
X76410Y367347D01*
X76463Y367251D01*
X76514Y367152D01*
X76561Y367051D01*
X76604Y366949D01*
X76644Y366846D01*
X76680Y366741D01*
X76712Y366635D01*
X76741Y366528D01*
X76766Y366420D01*
X76787Y366311D01*
X76804Y366202D01*
X76818Y366092D01*
X76827Y365981D01*
X76833Y365871D01*
X76835Y365760D01*
X76833Y365649D01*
X76827Y365539D01*
X76818Y365428D01*
X76804Y365318D01*
X76787Y365209D01*
X76766Y365100D01*
X76741Y364992D01*
X76712Y364885D01*
X76680Y364779D01*
X76644Y364674D01*
X76604Y364571D01*
X76561Y364469D01*
X76514Y364368D01*
X76463Y364269D01*
X76410Y364172D01*
X76353Y364078D01*
X76292Y363985D01*
X76229Y363894D01*
X76162Y363805D01*
X76092Y363719D01*
X76019Y363636D01*
X75944Y363554D01*
X75866Y363476D01*
X75784Y363401D01*
X75701Y363328D01*
X75615Y363258D01*
X75526Y363191D01*
X75435Y363128D01*
X75342Y363067D01*
X75247Y363010D01*
X75151Y362957D01*
X75052Y362906D01*
X74951Y362859D01*
X74849Y362816D01*
X74746Y362776D01*
X74641Y362740D01*
X74535Y362708D01*
X74428Y362679D01*
X74320Y362654D01*
X74211Y362633D01*
X74102Y362616D01*
X73992Y362602D01*
X73881Y362593D01*
X73771Y362587D01*
X73660Y362585D01*
X70485Y362585D01*
X74295Y362585D02*
X76835Y357505D01*
X81959Y361950D02*
X89579Y361950D01*
X94786Y360680D02*
X94786Y365760D01*
X94788Y365871D01*
X94794Y365981D01*
X94803Y366092D01*
X94817Y366202D01*
X94834Y366311D01*
X94855Y366420D01*
X94880Y366528D01*
X94909Y366635D01*
X94941Y366741D01*
X94977Y366846D01*
X95017Y366949D01*
X95060Y367051D01*
X95107Y367152D01*
X95158Y367251D01*
X95211Y367348D01*
X95268Y367442D01*
X95329Y367535D01*
X95392Y367626D01*
X95459Y367715D01*
X95529Y367801D01*
X95602Y367884D01*
X95677Y367966D01*
X95755Y368044D01*
X95837Y368119D01*
X95920Y368192D01*
X96006Y368262D01*
X96095Y368329D01*
X96186Y368392D01*
X96279Y368453D01*
X96374Y368510D01*
X96470Y368563D01*
X96569Y368614D01*
X96670Y368661D01*
X96772Y368704D01*
X96875Y368744D01*
X96980Y368780D01*
X97086Y368812D01*
X97193Y368841D01*
X97301Y368866D01*
X97410Y368887D01*
X97519Y368904D01*
X97629Y368918D01*
X97740Y368927D01*
X97850Y368933D01*
X97961Y368935D01*
X98072Y368933D01*
X98182Y368927D01*
X98293Y368918D01*
X98403Y368904D01*
X98512Y368887D01*
X98621Y368866D01*
X98729Y368841D01*
X98836Y368812D01*
X98942Y368780D01*
X99047Y368744D01*
X99150Y368704D01*
X99252Y368661D01*
X99353Y368614D01*
X99452Y368563D01*
X99549Y368510D01*
X99643Y368453D01*
X99736Y368392D01*
X99827Y368329D01*
X99916Y368262D01*
X100002Y368192D01*
X100085Y368119D01*
X100167Y368044D01*
X100245Y367966D01*
X100320Y367884D01*
X100393Y367801D01*
X100463Y367715D01*
X100530Y367626D01*
X100593Y367535D01*
X100654Y367442D01*
X100711Y367348D01*
X100764Y367251D01*
X100815Y367152D01*
X100862Y367051D01*
X100905Y366949D01*
X100945Y366846D01*
X100981Y366741D01*
X101013Y366635D01*
X101042Y366528D01*
X101067Y366420D01*
X101088Y366311D01*
X101105Y366202D01*
X101119Y366092D01*
X101128Y365981D01*
X101134Y365871D01*
X101136Y365760D01*
X101136Y360680D01*
X101134Y360569D01*
X101128Y360459D01*
X101119Y360348D01*
X101105Y360238D01*
X101088Y360129D01*
X101067Y360020D01*
X101042Y359912D01*
X101013Y359805D01*
X100981Y359699D01*
X100945Y359594D01*
X100905Y359491D01*
X100862Y359389D01*
X100815Y359288D01*
X100764Y359189D01*
X100711Y359092D01*
X100654Y358998D01*
X100593Y358905D01*
X100530Y358814D01*
X100463Y358725D01*
X100393Y358639D01*
X100320Y358556D01*
X100245Y358474D01*
X100167Y358396D01*
X100085Y358321D01*
X100002Y358248D01*
X99916Y358178D01*
X99827Y358111D01*
X99736Y358048D01*
X99643Y357987D01*
X99548Y357930D01*
X99452Y357877D01*
X99353Y357826D01*
X99252Y357779D01*
X99150Y357736D01*
X99047Y357696D01*
X98942Y357660D01*
X98836Y357628D01*
X98729Y357599D01*
X98621Y357574D01*
X98512Y357553D01*
X98403Y357536D01*
X98293Y357522D01*
X98182Y357513D01*
X98072Y357507D01*
X97961Y357505D01*
X97850Y357507D01*
X97740Y357513D01*
X97629Y357522D01*
X97519Y357536D01*
X97410Y357553D01*
X97301Y357574D01*
X97193Y357599D01*
X97086Y357628D01*
X96980Y357660D01*
X96875Y357696D01*
X96772Y357736D01*
X96670Y357779D01*
X96569Y357826D01*
X96470Y357877D01*
X96374Y357930D01*
X96279Y357987D01*
X96186Y358048D01*
X96095Y358111D01*
X96006Y358178D01*
X95920Y358248D01*
X95837Y358321D01*
X95755Y358396D01*
X95677Y358474D01*
X95602Y358556D01*
X95529Y358639D01*
X95459Y358725D01*
X95392Y358814D01*
X95329Y358905D01*
X95268Y358998D01*
X95211Y359093D01*
X95158Y359189D01*
X95107Y359288D01*
X95060Y359389D01*
X95017Y359491D01*
X94977Y359594D01*
X94941Y359699D01*
X94909Y359805D01*
X94880Y359912D01*
X94855Y360020D01*
X94834Y360129D01*
X94817Y360238D01*
X94803Y360348D01*
X94794Y360459D01*
X94788Y360569D01*
X94786Y360680D01*
X106623Y357505D02*
X111703Y357505D01*
X106623Y357505D02*
X106623Y368935D01*
X111703Y368935D01*
X110433Y363855D02*
X106623Y363855D01*
D15*
X137668Y342900D03*
X65532Y342900D03*
X150368Y342900D03*
X52832Y342900D03*
D10*
X69850Y389890D02*
X69852Y389990D01*
X69858Y390089D01*
X69868Y390189D01*
X69881Y390287D01*
X69899Y390386D01*
X69920Y390483D01*
X69945Y390579D01*
X69974Y390675D01*
X70007Y390769D01*
X70043Y390862D01*
X70083Y390953D01*
X70127Y391043D01*
X70174Y391131D01*
X70224Y391217D01*
X70278Y391301D01*
X70335Y391383D01*
X70395Y391462D01*
X70459Y391540D01*
X70525Y391614D01*
X70594Y391686D01*
X70666Y391755D01*
X70740Y391821D01*
X70818Y391885D01*
X70897Y391945D01*
X70979Y392002D01*
X71063Y392056D01*
X71149Y392106D01*
X71237Y392153D01*
X71327Y392197D01*
X71418Y392237D01*
X71511Y392273D01*
X71605Y392306D01*
X71701Y392335D01*
X71797Y392360D01*
X71894Y392381D01*
X71993Y392399D01*
X72091Y392412D01*
X72191Y392422D01*
X72290Y392428D01*
X72390Y392430D01*
X69850Y372110D02*
X69852Y372010D01*
X69858Y371911D01*
X69868Y371811D01*
X69881Y371713D01*
X69899Y371614D01*
X69920Y371517D01*
X69945Y371421D01*
X69974Y371325D01*
X70007Y371231D01*
X70043Y371138D01*
X70083Y371047D01*
X70127Y370957D01*
X70174Y370869D01*
X70224Y370783D01*
X70278Y370699D01*
X70335Y370617D01*
X70395Y370538D01*
X70459Y370460D01*
X70525Y370386D01*
X70594Y370314D01*
X70666Y370245D01*
X70740Y370179D01*
X70818Y370115D01*
X70897Y370055D01*
X70979Y369998D01*
X71063Y369944D01*
X71149Y369894D01*
X71237Y369847D01*
X71327Y369803D01*
X71418Y369763D01*
X71511Y369727D01*
X71605Y369694D01*
X71701Y369665D01*
X71797Y369640D01*
X71894Y369619D01*
X71993Y369601D01*
X72091Y369588D01*
X72191Y369578D01*
X72290Y369572D01*
X72390Y369570D01*
X130810Y369570D02*
X130910Y369572D01*
X131009Y369578D01*
X131109Y369588D01*
X131207Y369601D01*
X131306Y369619D01*
X131403Y369640D01*
X131499Y369665D01*
X131595Y369694D01*
X131689Y369727D01*
X131782Y369763D01*
X131873Y369803D01*
X131963Y369847D01*
X132051Y369894D01*
X132137Y369944D01*
X132221Y369998D01*
X132303Y370055D01*
X132382Y370115D01*
X132460Y370179D01*
X132534Y370245D01*
X132606Y370314D01*
X132675Y370386D01*
X132741Y370460D01*
X132805Y370538D01*
X132865Y370617D01*
X132922Y370699D01*
X132976Y370783D01*
X133026Y370869D01*
X133073Y370957D01*
X133117Y371047D01*
X133157Y371138D01*
X133193Y371231D01*
X133226Y371325D01*
X133255Y371421D01*
X133280Y371517D01*
X133301Y371614D01*
X133319Y371713D01*
X133332Y371811D01*
X133342Y371911D01*
X133348Y372010D01*
X133350Y372110D01*
X133350Y389890D02*
X133348Y389990D01*
X133342Y390089D01*
X133332Y390189D01*
X133319Y390287D01*
X133301Y390386D01*
X133280Y390483D01*
X133255Y390579D01*
X133226Y390675D01*
X133193Y390769D01*
X133157Y390862D01*
X133117Y390953D01*
X133073Y391043D01*
X133026Y391131D01*
X132976Y391217D01*
X132922Y391301D01*
X132865Y391383D01*
X132805Y391462D01*
X132741Y391540D01*
X132675Y391614D01*
X132606Y391686D01*
X132534Y391755D01*
X132460Y391821D01*
X132382Y391885D01*
X132303Y391945D01*
X132221Y392002D01*
X132137Y392056D01*
X132051Y392106D01*
X131963Y392153D01*
X131873Y392197D01*
X131782Y392237D01*
X131689Y392273D01*
X131595Y392306D01*
X131499Y392335D01*
X131403Y392360D01*
X131306Y392381D01*
X131207Y392399D01*
X131109Y392412D01*
X131009Y392422D01*
X130910Y392428D01*
X130810Y392430D01*
X69850Y389890D02*
X69850Y372110D01*
X72390Y392430D02*
X76200Y392430D01*
X77470Y391160D01*
X76200Y369570D02*
X72390Y369570D01*
X76200Y369570D02*
X77470Y370840D01*
X125730Y391160D02*
X127000Y392430D01*
X125730Y391160D02*
X77470Y391160D01*
X125730Y370840D02*
X127000Y369570D01*
X125730Y370840D02*
X77470Y370840D01*
X127000Y392430D02*
X130810Y392430D01*
X130810Y369570D02*
X127000Y369570D01*
X133350Y372110D02*
X133350Y389890D01*
D14*
X142240Y381000D02*
X146050Y381000D01*
X60960Y381000D02*
X57150Y381000D01*
D11*
X70485Y395605D02*
X70485Y407035D01*
X73660Y407035D01*
X73771Y407033D01*
X73881Y407027D01*
X73992Y407018D01*
X74102Y407004D01*
X74211Y406987D01*
X74320Y406966D01*
X74428Y406941D01*
X74535Y406912D01*
X74641Y406880D01*
X74746Y406844D01*
X74849Y406804D01*
X74951Y406761D01*
X75052Y406714D01*
X75151Y406663D01*
X75248Y406610D01*
X75342Y406553D01*
X75435Y406492D01*
X75526Y406429D01*
X75615Y406362D01*
X75701Y406292D01*
X75784Y406219D01*
X75866Y406144D01*
X75944Y406066D01*
X76019Y405984D01*
X76092Y405901D01*
X76162Y405815D01*
X76229Y405726D01*
X76292Y405635D01*
X76353Y405542D01*
X76410Y405447D01*
X76463Y405351D01*
X76514Y405252D01*
X76561Y405151D01*
X76604Y405049D01*
X76644Y404946D01*
X76680Y404841D01*
X76712Y404735D01*
X76741Y404628D01*
X76766Y404520D01*
X76787Y404411D01*
X76804Y404302D01*
X76818Y404192D01*
X76827Y404081D01*
X76833Y403971D01*
X76835Y403860D01*
X76833Y403749D01*
X76827Y403639D01*
X76818Y403528D01*
X76804Y403418D01*
X76787Y403309D01*
X76766Y403200D01*
X76741Y403092D01*
X76712Y402985D01*
X76680Y402879D01*
X76644Y402774D01*
X76604Y402671D01*
X76561Y402569D01*
X76514Y402468D01*
X76463Y402369D01*
X76410Y402272D01*
X76353Y402178D01*
X76292Y402085D01*
X76229Y401994D01*
X76162Y401905D01*
X76092Y401819D01*
X76019Y401736D01*
X75944Y401654D01*
X75866Y401576D01*
X75784Y401501D01*
X75701Y401428D01*
X75615Y401358D01*
X75526Y401291D01*
X75435Y401228D01*
X75342Y401167D01*
X75247Y401110D01*
X75151Y401057D01*
X75052Y401006D01*
X74951Y400959D01*
X74849Y400916D01*
X74746Y400876D01*
X74641Y400840D01*
X74535Y400808D01*
X74428Y400779D01*
X74320Y400754D01*
X74211Y400733D01*
X74102Y400716D01*
X73992Y400702D01*
X73881Y400693D01*
X73771Y400687D01*
X73660Y400685D01*
X70485Y400685D01*
X74295Y400685D02*
X76835Y395605D01*
X81959Y400050D02*
X89579Y400050D01*
X95167Y395605D02*
X95167Y407035D01*
X98342Y407035D01*
X98453Y407033D01*
X98563Y407027D01*
X98674Y407018D01*
X98784Y407004D01*
X98893Y406987D01*
X99002Y406966D01*
X99110Y406941D01*
X99217Y406912D01*
X99323Y406880D01*
X99428Y406844D01*
X99531Y406804D01*
X99633Y406761D01*
X99734Y406714D01*
X99833Y406663D01*
X99930Y406610D01*
X100024Y406553D01*
X100117Y406492D01*
X100208Y406429D01*
X100297Y406362D01*
X100383Y406292D01*
X100466Y406219D01*
X100548Y406144D01*
X100626Y406066D01*
X100701Y405984D01*
X100774Y405901D01*
X100844Y405815D01*
X100911Y405726D01*
X100974Y405635D01*
X101035Y405542D01*
X101092Y405448D01*
X101145Y405351D01*
X101196Y405252D01*
X101243Y405151D01*
X101286Y405049D01*
X101326Y404946D01*
X101362Y404841D01*
X101394Y404735D01*
X101423Y404628D01*
X101448Y404520D01*
X101469Y404411D01*
X101486Y404302D01*
X101500Y404192D01*
X101509Y404081D01*
X101515Y403971D01*
X101517Y403860D01*
X101517Y398780D01*
X101515Y398669D01*
X101509Y398559D01*
X101500Y398448D01*
X101486Y398338D01*
X101469Y398229D01*
X101448Y398120D01*
X101423Y398012D01*
X101394Y397905D01*
X101362Y397799D01*
X101326Y397694D01*
X101286Y397591D01*
X101243Y397489D01*
X101196Y397388D01*
X101145Y397289D01*
X101092Y397192D01*
X101035Y397098D01*
X100974Y397005D01*
X100911Y396914D01*
X100844Y396825D01*
X100774Y396739D01*
X100701Y396656D01*
X100626Y396574D01*
X100548Y396496D01*
X100466Y396421D01*
X100383Y396348D01*
X100297Y396278D01*
X100208Y396211D01*
X100117Y396148D01*
X100024Y396087D01*
X99929Y396030D01*
X99833Y395977D01*
X99734Y395926D01*
X99633Y395879D01*
X99531Y395836D01*
X99428Y395796D01*
X99323Y395760D01*
X99217Y395728D01*
X99110Y395699D01*
X99002Y395674D01*
X98893Y395653D01*
X98784Y395636D01*
X98674Y395622D01*
X98563Y395613D01*
X98453Y395607D01*
X98342Y395605D01*
X95167Y395605D01*
X106343Y395605D02*
X110153Y407035D01*
X113963Y395605D01*
X113011Y398463D02*
X107296Y398463D01*
X120821Y395605D02*
X120821Y407035D01*
X117646Y407035D02*
X123996Y407035D01*
X131489Y407035D02*
X127679Y395605D01*
X135299Y395605D02*
X131489Y407035D01*
X134347Y398463D02*
X128632Y398463D01*
D15*
X137668Y381000D03*
X65532Y381000D03*
X150368Y381000D03*
X52832Y381000D03*
M02*
