G04 EAGLE Gerber X2 export*
%TF.Part,Single*%
%TF.FileFunction,Soldermask,Bot,1*%
%TF.FilePolarity,Negative*%
%TF.GenerationSoftware,Autodesk,EAGLE,8.6.0*%
%TF.CreationDate,2018-03-08T02:42:11Z*%
G75*
%MOMM*%
%FSLAX34Y34*%
%LPD*%
%AMOC8*
5,1,8,0,0,1.08239X$1,22.5*%
G01*
%ADD10P,2.556822X8X22.500000*%
%ADD11P,1.951982X8X22.500000*%
%ADD12P,1.649562X8X22.500000*%
%ADD13C,0.959600*%


D10*
X38100Y304800D03*
X38100Y266700D03*
X165100Y304800D03*
X101600Y266700D03*
D11*
X304800Y406400D03*
X304800Y368300D03*
X203200Y177800D03*
X203200Y368300D03*
X203200Y330200D03*
X203200Y292100D03*
X203200Y406400D03*
D10*
X101600Y304800D03*
D11*
X304800Y101600D03*
X304800Y215900D03*
X304800Y63500D03*
D10*
X165100Y266700D03*
D11*
X304800Y177800D03*
X203200Y215900D03*
X304800Y25400D03*
X203200Y254000D03*
X304800Y139700D03*
X304800Y330200D03*
X203200Y63500D03*
X203200Y25400D03*
X304800Y292100D03*
X203200Y139700D03*
X203200Y101600D03*
X304800Y254000D03*
D12*
X38100Y342900D03*
X165100Y342900D03*
X38100Y381000D03*
X165100Y381000D03*
D13*
X164592Y199644D03*
X164592Y121920D03*
X211836Y124968D03*
X164592Y131064D03*
X190500Y132588D03*
X198120Y153924D03*
X152400Y89916D03*
X178308Y222504D03*
X82296Y89916D03*
X172212Y400812D03*
M02*
