G04 EAGLE Gerber X2 export*
%TF.Part,Single*%
%TF.FileFunction,Paste,Top*%
%TF.FilePolarity,Positive*%
%TF.GenerationSoftware,Autodesk,EAGLE,8.6.0*%
%TF.CreationDate,2018-03-08T02:42:11Z*%
G75*
%MOMM*%
%FSLAX34Y34*%
%LPD*%
%AMOC8*
5,1,8,0,0,1.08239X$1,22.5*%
G01*
%ADD10R,1.473200X0.508000*%
%ADD11R,0.508000X1.473200*%
%ADD12R,1.473200X0.558800*%


D10*
X25400Y212344D03*
X25400Y204470D03*
X25400Y196342D03*
X25400Y188468D03*
X25400Y180340D03*
X25400Y172466D03*
X25400Y164338D03*
X25400Y156464D03*
X25400Y148336D03*
X25400Y140462D03*
X25400Y132334D03*
X25400Y124460D03*
X25400Y116332D03*
X25400Y108458D03*
X25400Y100330D03*
X25400Y92456D03*
D11*
X41656Y76200D03*
X49530Y76200D03*
X57658Y76200D03*
X65532Y76200D03*
X73660Y76200D03*
X81534Y76200D03*
X89662Y76200D03*
X97536Y76200D03*
X105664Y76200D03*
X113538Y76200D03*
X121666Y76200D03*
X129540Y76200D03*
X137668Y76200D03*
X145542Y76200D03*
X153670Y76200D03*
X161544Y76200D03*
D10*
X177800Y92456D03*
X177800Y100330D03*
X177800Y108458D03*
X177800Y116332D03*
X177800Y124460D03*
X177800Y132334D03*
X177800Y140462D03*
X177800Y148336D03*
X177800Y156464D03*
X177800Y164338D03*
X177800Y172466D03*
X177800Y180340D03*
X177800Y188468D03*
X177800Y196342D03*
X177800Y204470D03*
X177800Y212344D03*
D11*
X161544Y228600D03*
X153670Y228600D03*
X145542Y228600D03*
X137668Y228600D03*
X129540Y228600D03*
X121666Y228600D03*
X113538Y228600D03*
X105664Y228600D03*
X97536Y228600D03*
X89662Y228600D03*
X81534Y228600D03*
X73660Y228600D03*
X65532Y228600D03*
X57658Y228600D03*
X49530Y228600D03*
X41656Y228600D03*
D12*
X153924Y428600D03*
X153924Y419100D03*
X153924Y409600D03*
X176276Y409600D03*
X176276Y419100D03*
X176276Y428600D03*
M02*
