G04 EAGLE Gerber X2 export*
%TF.Part,Single*%
%TF.FileFunction,Soldermask,Top,1*%
%TF.FilePolarity,Negative*%
%TF.GenerationSoftware,Autodesk,EAGLE,8.6.0*%
%TF.CreationDate,2018-03-08T02:42:11Z*%
G75*
%MOMM*%
%FSLAX34Y34*%
%LPD*%
%AMOC8*
5,1,8,0,0,1.08239X$1,22.5*%
G01*
%ADD10P,2.556822X8X22.500000*%
%ADD11P,1.951982X8X22.500000*%
%ADD12R,1.676400X0.711200*%
%ADD13R,0.711200X1.676400*%
%ADD14R,1.676400X0.762000*%
%ADD15P,1.649562X8X22.500000*%
%ADD16C,0.959600*%


D10*
X38100Y304800D03*
X38100Y266700D03*
X165100Y304800D03*
X101600Y266700D03*
D11*
X304800Y406400D03*
X304800Y368300D03*
X203200Y177800D03*
X203200Y368300D03*
X203200Y330200D03*
X203200Y292100D03*
X203200Y406400D03*
D10*
X101600Y304800D03*
D11*
X304800Y101600D03*
X304800Y215900D03*
X304800Y63500D03*
D10*
X165100Y266700D03*
D11*
X304800Y177800D03*
X203200Y215900D03*
X304800Y25400D03*
X203200Y254000D03*
D12*
X25400Y212344D03*
X25400Y204470D03*
X25400Y196342D03*
X25400Y188468D03*
X25400Y180340D03*
X25400Y172466D03*
X25400Y164338D03*
X25400Y156464D03*
X25400Y148336D03*
X25400Y140462D03*
X25400Y132334D03*
X25400Y124460D03*
X25400Y116332D03*
X25400Y108458D03*
X25400Y100330D03*
X25400Y92456D03*
D13*
X41656Y76200D03*
X49530Y76200D03*
X57658Y76200D03*
X65532Y76200D03*
X73660Y76200D03*
X81534Y76200D03*
X89662Y76200D03*
X97536Y76200D03*
X105664Y76200D03*
X113538Y76200D03*
X121666Y76200D03*
X129540Y76200D03*
X137668Y76200D03*
X145542Y76200D03*
X153670Y76200D03*
X161544Y76200D03*
D12*
X177800Y92456D03*
X177800Y100330D03*
X177800Y108458D03*
X177800Y116332D03*
X177800Y124460D03*
X177800Y132334D03*
X177800Y140462D03*
X177800Y148336D03*
X177800Y156464D03*
X177800Y164338D03*
X177800Y172466D03*
X177800Y180340D03*
X177800Y188468D03*
X177800Y196342D03*
X177800Y204470D03*
X177800Y212344D03*
D13*
X161544Y228600D03*
X153670Y228600D03*
X145542Y228600D03*
X137668Y228600D03*
X129540Y228600D03*
X121666Y228600D03*
X113538Y228600D03*
X105664Y228600D03*
X97536Y228600D03*
X89662Y228600D03*
X81534Y228600D03*
X73660Y228600D03*
X65532Y228600D03*
X57658Y228600D03*
X49530Y228600D03*
X41656Y228600D03*
D11*
X304800Y139700D03*
X304800Y330200D03*
X203200Y63500D03*
X203200Y25400D03*
X304800Y292100D03*
X203200Y139700D03*
X203200Y101600D03*
X304800Y254000D03*
D14*
X153924Y428600D03*
X153924Y419100D03*
X153924Y409600D03*
X176276Y409600D03*
X176276Y419100D03*
X176276Y428600D03*
D15*
X38100Y342900D03*
X165100Y342900D03*
X38100Y381000D03*
X165100Y381000D03*
D16*
X164592Y199644D03*
X164592Y121920D03*
X211836Y124968D03*
X164592Y131064D03*
X190500Y132588D03*
X198120Y153924D03*
X152400Y89916D03*
X178308Y222504D03*
X82296Y89916D03*
X172212Y400812D03*
M02*
